%TF.GenerationSoftware,KiCad,Pcbnew,4.0.7*%
%TF.CreationDate,2017-12-01T19:39:18+08:00*%
%TF.ProjectId,ST-Link V2.1,53542D4C696E6B2056322E312E6B6963,rev?*%
%TF.FileFunction,Paste,Bot*%
%FSLAX46Y46*%
G04 Gerber Fmt 4.6, Leading zero omitted, Abs format (unit mm)*
G04 Created by KiCad (PCBNEW 4.0.7) date 12/01/17 19:39:18*
%MOMM*%
%LPD*%
G01*
G04 APERTURE LIST*
%ADD10C,0.100000*%
%ADD11R,0.900000X0.500000*%
%ADD12R,0.750000X0.800000*%
%ADD13R,1.060000X0.650000*%
%ADD14R,0.500000X0.900000*%
%ADD15R,0.900000X0.800000*%
%ADD16R,0.800000X0.750000*%
G04 APERTURE END LIST*
D10*
D11*
X14365000Y-14890000D03*
X14365000Y-16390000D03*
X22800000Y-16210000D03*
X22800000Y-14710000D03*
X20020000Y-14820000D03*
X20020000Y-16320000D03*
X16970000Y-6650000D03*
X16970000Y-5150000D03*
X16021600Y-13040000D03*
X16021600Y-11540000D03*
D12*
X17620000Y-17770000D03*
X17620000Y-19270000D03*
X23362200Y-13040000D03*
X23362200Y-11540000D03*
X20400000Y-6650000D03*
X20400000Y-5150000D03*
X14192800Y-13099400D03*
X14192800Y-11599400D03*
D11*
X8770000Y-19500000D03*
X8770000Y-18000000D03*
X25680912Y-18146150D03*
X25680912Y-19646150D03*
X23523600Y-19677000D03*
X23523600Y-18177000D03*
D13*
X4570000Y-19170000D03*
X4570000Y-18220000D03*
X4570000Y-17270000D03*
X6770000Y-17270000D03*
X6770000Y-19170000D03*
X6770000Y-18220000D03*
D11*
X18690000Y-5150000D03*
X18690000Y-6650000D03*
X17748800Y-11540000D03*
X17748800Y-13040000D03*
X19399800Y-13040000D03*
X19399800Y-11540000D03*
X21730000Y-11540000D03*
X21730000Y-13040000D03*
X8636200Y-2813400D03*
X8636200Y-4313400D03*
X15180000Y-5080000D03*
X15180000Y-6580000D03*
X5283400Y-4313400D03*
X5283400Y-2813400D03*
X6959800Y-2813400D03*
X6959800Y-4313400D03*
X2470200Y-10700000D03*
X2470200Y-12200000D03*
D14*
X2500000Y-21175000D03*
X1000000Y-21175000D03*
X2500000Y-17400000D03*
X1000000Y-17400000D03*
X2500000Y-19200000D03*
X1000000Y-19200000D03*
D11*
X14365000Y-17710400D03*
X14365000Y-19210400D03*
X15965200Y-17710400D03*
X15965200Y-19210400D03*
X12790200Y-17735800D03*
X12790200Y-19235800D03*
D15*
X3500000Y-2800000D03*
X3500000Y-4700000D03*
X1500000Y-3750000D03*
D12*
X12490000Y-13110000D03*
X12490000Y-11610000D03*
D16*
X8892600Y-5837600D03*
X7392600Y-5837600D03*
D12*
X11110000Y-11600000D03*
X11110000Y-13100000D03*
X8250000Y-13110000D03*
X8250000Y-11610000D03*
X11113800Y-19210400D03*
X11113800Y-17710400D03*
X19240000Y-17770000D03*
X19240000Y-19270000D03*
D16*
X8892600Y-7437800D03*
X7392600Y-7437800D03*
D13*
X10880000Y-7480000D03*
X10880000Y-6530000D03*
X10880000Y-5580000D03*
X13080000Y-5580000D03*
X13080000Y-7480000D03*
M02*
