M48
;DRILL file {KiCad 4.0.7} date 12/01/17 19:39:21
;FORMAT={-:-/ absolute / metric / decimal}
FMAT,2
METRIC,TZ
T1C0.300
T2C0.800
T3C1.000
T4C0.450
%
G90
G05
M71
T1
X1.198Y-18.275
X1.425Y-4.875
X1.875Y-21.175
X2.4Y-3.75
X3.5Y-10.7
X3.675Y-12.2
X3.75Y-16.3
X5.425Y-19.85
X6.3Y-6.57
X7.41Y-8.238
X7.568Y-6.642
X7.831Y-18.
X8.75Y-18.775
X9.578Y-2.036
X9.875Y-7.422
X10.55Y-2.725
X11.06Y-12.275
X12.161Y-10.648
X12.59Y-14.17
X12.89Y-16.96
X12.975Y-4.775
X13.126Y-10.622
X13.344Y-9.872
X13.377Y-8.258
X13.518Y-14.668
X13.974Y-9.275
X14.7Y-18.48
X14.71Y-9.002
X14.769Y-5.677
X15.387Y-5.905
X15.92Y-18.341
X16.047Y-5.457
X16.199Y-16.896
X16.377Y-20.147
X17.45Y-10.67
X18.714Y-5.822
X19.09Y-18.443
X19.32Y-20.14
X20.099Y-20.69
X20.467Y-5.823
X21.108Y-17.64
X21.125Y-20.43
X21.506Y-5.552
X21.549Y-6.209
X22.387Y-7.909
X22.51Y-18.68
X22.702Y-7.324
X23.179Y-8.711
X23.894Y-9.865
X24.048Y-8.717
X24.31Y-15.21
X24.42Y-11.55
X24.549Y-17.264
X24.59Y-19.88
X24.784Y-14.761
X24.825Y-12.489
X24.975Y-8.65
X25.11Y-10.59
X25.16Y-14.228
X25.17Y-5.59
X25.644Y-11.333
X25.746Y-9.619
X25.836Y-7.041
X25.88Y-13.95
X25.889Y-11.939
X26.338Y-9.35
X26.35Y-12.399
X26.49Y-16.149
X26.84Y-17.83
X26.969Y-13.563
X26.98Y-9.45
X27.597Y-13.743
X27.61Y-8.97
X27.799Y-6.365
T2
X9.799Y-9.882
X9.799Y-14.762
T3
X12.135Y-3.028
X14.675Y-3.028
X17.215Y-3.028
X19.755Y-3.028
X22.295Y-3.028
X24.835Y-3.028
T4
X4.35Y-9.425
X4.35Y-13.425
T0
M30
