%TF.GenerationSoftware,KiCad,Pcbnew,4.0.7*%
%TF.CreationDate,2017-12-01T19:39:18+08:00*%
%TF.ProjectId,ST-Link V2.1,53542D4C696E6B2056322E312E6B6963,rev?*%
%TF.FileFunction,Paste,Top*%
%FSLAX46Y46*%
G04 Gerber Fmt 4.6, Leading zero omitted, Abs format (unit mm)*
G04 Created by KiCad (PCBNEW 4.0.7) date 12/01/17 19:39:18*
%MOMM*%
%LPD*%
G01*
G04 APERTURE LIST*
%ADD10C,0.100000*%
%ADD11R,1.200000X1.200000*%
%ADD12R,1.900000X2.250000*%
%ADD13R,1.000000X1.000000*%
%ADD14R,1.350000X0.400000*%
%ADD15R,1.900000X1.900000*%
G04 APERTURE END LIST*
D10*
D11*
X8892000Y-19918600D03*
X6692000Y-19918600D03*
X25680912Y-20006150D03*
X25680912Y-17806150D03*
X23523600Y-20027000D03*
X23523600Y-17827000D03*
D12*
X2200000Y-7650000D03*
X2200000Y-15200000D03*
D13*
X4650000Y-8275000D03*
X4650000Y-14575000D03*
D14*
X5300000Y-10125000D03*
X5300000Y-10775000D03*
X5300000Y-11425000D03*
X5300000Y-12075000D03*
X5300000Y-12725000D03*
D15*
X2200000Y-12625000D03*
X2200000Y-10225000D03*
D10*
G36*
X14773553Y-12126285D02*
X13536117Y-10888849D01*
X13748249Y-10676717D01*
X14985685Y-11914153D01*
X14773553Y-12126285D01*
X14773553Y-12126285D01*
G37*
G36*
X15127106Y-11772732D02*
X13889670Y-10535296D01*
X14101802Y-10323164D01*
X15339238Y-11560600D01*
X15127106Y-11772732D01*
X15127106Y-11772732D01*
G37*
G36*
X15480660Y-11419178D02*
X14243224Y-10181742D01*
X14455356Y-9969610D01*
X15692792Y-11207046D01*
X15480660Y-11419178D01*
X15480660Y-11419178D01*
G37*
G36*
X15834213Y-11065625D02*
X14596777Y-9828189D01*
X14808909Y-9616057D01*
X16046345Y-10853493D01*
X15834213Y-11065625D01*
X15834213Y-11065625D01*
G37*
G36*
X16187766Y-10712072D02*
X14950330Y-9474636D01*
X15162462Y-9262504D01*
X16399898Y-10499940D01*
X16187766Y-10712072D01*
X16187766Y-10712072D01*
G37*
G36*
X15516016Y-8908950D02*
X16753452Y-10146386D01*
X16541320Y-10358518D01*
X15303884Y-9121082D01*
X15516016Y-8908950D01*
X15516016Y-8908950D01*
G37*
G36*
X16894873Y-10004965D02*
X15657437Y-8767529D01*
X15869569Y-8555397D01*
X17107005Y-9792833D01*
X16894873Y-10004965D01*
X16894873Y-10004965D01*
G37*
G36*
X17248427Y-9651411D02*
X16010991Y-8413975D01*
X16223123Y-8201843D01*
X17460559Y-9439279D01*
X17248427Y-9651411D01*
X17248427Y-9651411D01*
G37*
G36*
X17601980Y-9297858D02*
X16364544Y-8060422D01*
X16576676Y-7848290D01*
X17814112Y-9085726D01*
X17601980Y-9297858D01*
X17601980Y-9297858D01*
G37*
G36*
X17955533Y-8944305D02*
X16718097Y-7706869D01*
X16930229Y-7494737D01*
X18167665Y-8732173D01*
X17955533Y-8944305D01*
X17955533Y-8944305D01*
G37*
G36*
X18309087Y-8590751D02*
X17071651Y-7353315D01*
X17283783Y-7141183D01*
X18521219Y-8378619D01*
X18309087Y-8590751D01*
X18309087Y-8590751D01*
G37*
G36*
X18662640Y-8237198D02*
X17425204Y-6999762D01*
X17637336Y-6787630D01*
X18874772Y-8025066D01*
X18662640Y-8237198D01*
X18662640Y-8237198D01*
G37*
G36*
X17107005Y-14742581D02*
X15869569Y-15980017D01*
X15657437Y-15767885D01*
X16894873Y-14530449D01*
X17107005Y-14742581D01*
X17107005Y-14742581D01*
G37*
G36*
X16753452Y-14389028D02*
X15516016Y-15626464D01*
X15303884Y-15414332D01*
X16541320Y-14176896D01*
X16753452Y-14389028D01*
X16753452Y-14389028D01*
G37*
G36*
X16399898Y-14035474D02*
X15162462Y-15272910D01*
X14950330Y-15060778D01*
X16187766Y-13823342D01*
X16399898Y-14035474D01*
X16399898Y-14035474D01*
G37*
G36*
X16046345Y-13681921D02*
X14808909Y-14919357D01*
X14596777Y-14707225D01*
X15834213Y-13469789D01*
X16046345Y-13681921D01*
X16046345Y-13681921D01*
G37*
G36*
X15692792Y-13328368D02*
X14455356Y-14565804D01*
X14243224Y-14353672D01*
X15480660Y-13116236D01*
X15692792Y-13328368D01*
X15692792Y-13328368D01*
G37*
G36*
X15339238Y-12974814D02*
X14101802Y-14212250D01*
X13889670Y-14000118D01*
X15127106Y-12762682D01*
X15339238Y-12974814D01*
X15339238Y-12974814D01*
G37*
G36*
X17460559Y-15096135D02*
X16223123Y-16333571D01*
X16010991Y-16121439D01*
X17248427Y-14884003D01*
X17460559Y-15096135D01*
X17460559Y-15096135D01*
G37*
G36*
X14985685Y-12621261D02*
X13748249Y-13858697D01*
X13536117Y-13646565D01*
X14773553Y-12409129D01*
X14985685Y-12621261D01*
X14985685Y-12621261D01*
G37*
G36*
X17814112Y-15449688D02*
X16576676Y-16687124D01*
X16364544Y-16474992D01*
X17601980Y-15237556D01*
X17814112Y-15449688D01*
X17814112Y-15449688D01*
G37*
G36*
X18167665Y-15803241D02*
X16930229Y-17040677D01*
X16718097Y-16828545D01*
X17955533Y-15591109D01*
X18167665Y-15803241D01*
X18167665Y-15803241D01*
G37*
G36*
X18521219Y-16156795D02*
X17283783Y-17394231D01*
X17071651Y-17182099D01*
X18309087Y-15944663D01*
X18521219Y-16156795D01*
X18521219Y-16156795D01*
G37*
G36*
X18874772Y-16510348D02*
X17637336Y-17747784D01*
X17425204Y-17535652D01*
X18662640Y-16298216D01*
X18874772Y-16510348D01*
X18874772Y-16510348D01*
G37*
G36*
X22516372Y-15626464D02*
X21278936Y-14389028D01*
X21491068Y-14176896D01*
X22728504Y-15414332D01*
X22516372Y-15626464D01*
X22516372Y-15626464D01*
G37*
G36*
X22162819Y-15980017D02*
X20925383Y-14742581D01*
X21137515Y-14530449D01*
X22374951Y-15767885D01*
X22162819Y-15980017D01*
X22162819Y-15980017D01*
G37*
G36*
X21809265Y-16333571D02*
X20571829Y-15096135D01*
X20783961Y-14884003D01*
X22021397Y-16121439D01*
X21809265Y-16333571D01*
X21809265Y-16333571D01*
G37*
G36*
X21455712Y-16687124D02*
X20218276Y-15449688D01*
X20430408Y-15237556D01*
X21667844Y-16474992D01*
X21455712Y-16687124D01*
X21455712Y-16687124D01*
G37*
G36*
X21102159Y-17040677D02*
X19864723Y-15803241D01*
X20076855Y-15591109D01*
X21314291Y-16828545D01*
X21102159Y-17040677D01*
X21102159Y-17040677D01*
G37*
G36*
X20748605Y-17394231D02*
X19511169Y-16156795D01*
X19723301Y-15944663D01*
X20960737Y-17182099D01*
X20748605Y-17394231D01*
X20748605Y-17394231D01*
G37*
G36*
X20395052Y-17747784D02*
X19157616Y-16510348D01*
X19369748Y-16298216D01*
X20607184Y-17535652D01*
X20395052Y-17747784D01*
X20395052Y-17747784D01*
G37*
G36*
X22869926Y-15272910D02*
X21632490Y-14035474D01*
X21844622Y-13823342D01*
X23082058Y-15060778D01*
X22869926Y-15272910D01*
X22869926Y-15272910D01*
G37*
G36*
X23223479Y-14919357D02*
X21986043Y-13681921D01*
X22198175Y-13469789D01*
X23435611Y-14707225D01*
X23223479Y-14919357D01*
X23223479Y-14919357D01*
G37*
G36*
X23577032Y-14565804D02*
X22339596Y-13328368D01*
X22551728Y-13116236D01*
X23789164Y-14353672D01*
X23577032Y-14565804D01*
X23577032Y-14565804D01*
G37*
G36*
X23930586Y-14212250D02*
X22693150Y-12974814D01*
X22905282Y-12762682D01*
X24142718Y-14000118D01*
X23930586Y-14212250D01*
X23930586Y-14212250D01*
G37*
G36*
X24284139Y-13858697D02*
X23046703Y-12621261D01*
X23258835Y-12409129D01*
X24496271Y-13646565D01*
X24284139Y-13858697D01*
X24284139Y-13858697D01*
G37*
G36*
X22374951Y-8767529D02*
X21137515Y-10004965D01*
X20925383Y-9792833D01*
X22162819Y-8555397D01*
X22374951Y-8767529D01*
X22374951Y-8767529D01*
G37*
G36*
X22728504Y-9121082D02*
X21491068Y-10358518D01*
X21278936Y-10146386D01*
X22516372Y-8908950D01*
X22728504Y-9121082D01*
X22728504Y-9121082D01*
G37*
G36*
X22021397Y-8413975D02*
X20783961Y-9651411D01*
X20571829Y-9439279D01*
X21809265Y-8201843D01*
X22021397Y-8413975D01*
X22021397Y-8413975D01*
G37*
G36*
X21667844Y-8060422D02*
X20430408Y-9297858D01*
X20218276Y-9085726D01*
X21455712Y-7848290D01*
X21667844Y-8060422D01*
X21667844Y-8060422D01*
G37*
G36*
X21314291Y-7706869D02*
X20076855Y-8944305D01*
X19864723Y-8732173D01*
X21102159Y-7494737D01*
X21314291Y-7706869D01*
X21314291Y-7706869D01*
G37*
G36*
X20960737Y-7353315D02*
X19723301Y-8590751D01*
X19511169Y-8378619D01*
X20748605Y-7141183D01*
X20960737Y-7353315D01*
X20960737Y-7353315D01*
G37*
G36*
X20607184Y-6999762D02*
X19369748Y-8237198D01*
X19157616Y-8025066D01*
X20395052Y-6787630D01*
X20607184Y-6999762D01*
X20607184Y-6999762D01*
G37*
G36*
X23082058Y-9474636D02*
X21844622Y-10712072D01*
X21632490Y-10499940D01*
X22869926Y-9262504D01*
X23082058Y-9474636D01*
X23082058Y-9474636D01*
G37*
G36*
X23435611Y-9828189D02*
X22198175Y-11065625D01*
X21986043Y-10853493D01*
X23223479Y-9616057D01*
X23435611Y-9828189D01*
X23435611Y-9828189D01*
G37*
G36*
X23789164Y-10181742D02*
X22551728Y-11419178D01*
X22339596Y-11207046D01*
X23577032Y-9969610D01*
X23789164Y-10181742D01*
X23789164Y-10181742D01*
G37*
G36*
X24142718Y-10535296D02*
X22905282Y-11772732D01*
X22693150Y-11560600D01*
X23930586Y-10323164D01*
X24142718Y-10535296D01*
X24142718Y-10535296D01*
G37*
G36*
X24496271Y-10888849D02*
X23258835Y-12126285D01*
X23046703Y-11914153D01*
X24284139Y-10676717D01*
X24496271Y-10888849D01*
X24496271Y-10888849D01*
G37*
M02*
