%TF.GenerationSoftware,KiCad,Pcbnew,4.0.7*%
%TF.CreationDate,2017-12-01T19:39:18+08:00*%
%TF.ProjectId,ST-Link V2.1,53542D4C696E6B2056322E312E6B6963,rev?*%
%TF.FileFunction,Legend,Bot*%
%FSLAX46Y46*%
G04 Gerber Fmt 4.6, Leading zero omitted, Abs format (unit mm)*
G04 Created by KiCad (PCBNEW 4.0.7) date 12/01/17 19:39:18*
%MOMM*%
%LPD*%
G01*
G04 APERTURE LIST*
%ADD10C,0.100000*%
%ADD11C,0.200000*%
%ADD12C,0.120000*%
G04 APERTURE END LIST*
D10*
D11*
X27000000Y-20250000D02*
X27000000Y-20750000D01*
X27000000Y-20250000D02*
X27800000Y-20250000D01*
X27000000Y-17850000D02*
X27700000Y-17850000D01*
X27000000Y-17150000D02*
X27000000Y-17850000D01*
X27236666Y-22002381D02*
X27510000Y-21526190D01*
X27705238Y-22002381D02*
X27705238Y-21002381D01*
X27392857Y-21002381D01*
X27314762Y-21050000D01*
X27275714Y-21097619D01*
X27236666Y-21192857D01*
X27236666Y-21335714D01*
X27275714Y-21430952D01*
X27314762Y-21478571D01*
X27392857Y-21526190D01*
X27705238Y-21526190D01*
X26963333Y-21002381D02*
X26416666Y-22002381D01*
X26416666Y-21002381D02*
X26963333Y-22002381D01*
X27624762Y-15902381D02*
X27156190Y-15902381D01*
X27390476Y-16902381D02*
X27390476Y-15902381D01*
X26960952Y-15902381D02*
X26414285Y-16902381D01*
X26414285Y-15902381D02*
X26960952Y-16902381D01*
X27632381Y-15254762D02*
X27515238Y-15302381D01*
X27320000Y-15302381D01*
X27241904Y-15254762D01*
X27202857Y-15207143D01*
X27163809Y-15111905D01*
X27163809Y-15016667D01*
X27202857Y-14921429D01*
X27241904Y-14873810D01*
X27320000Y-14826190D01*
X27476190Y-14778571D01*
X27554285Y-14730952D01*
X27593333Y-14683333D01*
X27632381Y-14588095D01*
X27632381Y-14492857D01*
X27593333Y-14397619D01*
X27554285Y-14350000D01*
X27476190Y-14302381D01*
X27280952Y-14302381D01*
X27163809Y-14350000D01*
X26890476Y-14302381D02*
X26695238Y-15302381D01*
X26539048Y-14588095D01*
X26382857Y-15302381D01*
X26187619Y-14302381D01*
X25719047Y-14302381D02*
X25562857Y-14302381D01*
X25484762Y-14350000D01*
X25406666Y-14445238D01*
X25367619Y-14635714D01*
X25367619Y-14969048D01*
X25406666Y-15159524D01*
X25484762Y-15254762D01*
X25562857Y-15302381D01*
X25719047Y-15302381D01*
X25797143Y-15254762D01*
X25875238Y-15159524D01*
X25914286Y-14969048D01*
X25914286Y-14635714D01*
X25875238Y-14445238D01*
X25797143Y-14350000D01*
X25719047Y-14302381D01*
X27415238Y-12302381D02*
X27415238Y-13016667D01*
X27454286Y-13159524D01*
X27532381Y-13254762D01*
X27649524Y-13302381D01*
X27727619Y-13302381D01*
X27141905Y-12302381D02*
X26673333Y-12302381D01*
X26907619Y-13302381D02*
X26907619Y-12302381D01*
X25931428Y-13207143D02*
X25970476Y-13254762D01*
X26087619Y-13302381D01*
X26165714Y-13302381D01*
X26282857Y-13254762D01*
X26360952Y-13159524D01*
X26400000Y-13064286D01*
X26439048Y-12873810D01*
X26439048Y-12730952D01*
X26400000Y-12540476D01*
X26360952Y-12445238D01*
X26282857Y-12350000D01*
X26165714Y-12302381D01*
X26087619Y-12302381D01*
X25970476Y-12350000D01*
X25931428Y-12397619D01*
X25580000Y-13302381D02*
X25580000Y-12302381D01*
X25111428Y-13302381D02*
X25462857Y-12730952D01*
X25111428Y-12302381D02*
X25580000Y-12873810D01*
X27615237Y-9802381D02*
X27107618Y-9802381D01*
X27380951Y-10183333D01*
X27263809Y-10183333D01*
X27185713Y-10230952D01*
X27146666Y-10278571D01*
X27107618Y-10373810D01*
X27107618Y-10611905D01*
X27146666Y-10707143D01*
X27185713Y-10754762D01*
X27263809Y-10802381D01*
X27498094Y-10802381D01*
X27576190Y-10754762D01*
X27615237Y-10707143D01*
X26873333Y-9802381D02*
X26599999Y-10802381D01*
X26326666Y-9802381D01*
X26131428Y-9802381D02*
X25623809Y-9802381D01*
X25897142Y-10183333D01*
X25780000Y-10183333D01*
X25701904Y-10230952D01*
X25662857Y-10278571D01*
X25623809Y-10373810D01*
X25623809Y-10611905D01*
X25662857Y-10707143D01*
X25701904Y-10754762D01*
X25780000Y-10802381D01*
X26014285Y-10802381D01*
X26092381Y-10754762D01*
X26131428Y-10707143D01*
X27354285Y-7402381D02*
X27354285Y-8116667D01*
X27393333Y-8259524D01*
X27471428Y-8354762D01*
X27588571Y-8402381D01*
X27666666Y-8402381D01*
X27080952Y-7402381D02*
X26612380Y-7402381D01*
X26846666Y-8402381D02*
X26846666Y-7402381D01*
X26339047Y-8402381D02*
X26339047Y-7402381D01*
X26065714Y-8116667D01*
X25792380Y-7402381D01*
X25792380Y-8402381D01*
X25440952Y-8354762D02*
X25323809Y-8402381D01*
X25128571Y-8402381D01*
X25050475Y-8354762D01*
X25011428Y-8307143D01*
X24972380Y-8211905D01*
X24972380Y-8116667D01*
X25011428Y-8021429D01*
X25050475Y-7973810D01*
X25128571Y-7926190D01*
X25284761Y-7878571D01*
X25362856Y-7830952D01*
X25401904Y-7783333D01*
X25440952Y-7688095D01*
X25440952Y-7592857D01*
X25401904Y-7497619D01*
X25362856Y-7450000D01*
X25284761Y-7402381D01*
X25089523Y-7402381D01*
X24972380Y-7450000D01*
X27637143Y-4447619D02*
X27012381Y-4447619D01*
X27012381Y-4447619D02*
X26387619Y-4447619D01*
X26387619Y-4447619D02*
X25762857Y-4447619D01*
X27149047Y-6052381D02*
X27422381Y-5576190D01*
X27617619Y-6052381D02*
X27617619Y-5052381D01*
X27305238Y-5052381D01*
X27227143Y-5100000D01*
X27188095Y-5147619D01*
X27149047Y-5242857D01*
X27149047Y-5385714D01*
X27188095Y-5480952D01*
X27227143Y-5528571D01*
X27305238Y-5576190D01*
X27617619Y-5576190D01*
X26836667Y-6004762D02*
X26719524Y-6052381D01*
X26524286Y-6052381D01*
X26446190Y-6004762D01*
X26407143Y-5957143D01*
X26368095Y-5861905D01*
X26368095Y-5766667D01*
X26407143Y-5671429D01*
X26446190Y-5623810D01*
X26524286Y-5576190D01*
X26680476Y-5528571D01*
X26758571Y-5480952D01*
X26797619Y-5433333D01*
X26836667Y-5338095D01*
X26836667Y-5242857D01*
X26797619Y-5147619D01*
X26758571Y-5100000D01*
X26680476Y-5052381D01*
X26485238Y-5052381D01*
X26368095Y-5100000D01*
X26133810Y-5052381D02*
X25665238Y-5052381D01*
X25899524Y-6052381D02*
X25899524Y-5052381D01*
X27135238Y-2500000D02*
X27213333Y-2452381D01*
X27330476Y-2452381D01*
X27447619Y-2500000D01*
X27525714Y-2595238D01*
X27564762Y-2690476D01*
X27603810Y-2880952D01*
X27603810Y-3023810D01*
X27564762Y-3214286D01*
X27525714Y-3309524D01*
X27447619Y-3404762D01*
X27330476Y-3452381D01*
X27252381Y-3452381D01*
X27135238Y-3404762D01*
X27096190Y-3357143D01*
X27096190Y-3023810D01*
X27252381Y-3023810D01*
D12*
X15045000Y-16140000D02*
X15045000Y-15140000D01*
X13685000Y-15140000D02*
X13685000Y-16140000D01*
X22120000Y-14960000D02*
X22120000Y-15960000D01*
X23480000Y-15960000D02*
X23480000Y-14960000D01*
X20700000Y-16070000D02*
X20700000Y-15070000D01*
X19340000Y-15070000D02*
X19340000Y-16070000D01*
X16290000Y-5400000D02*
X16290000Y-6400000D01*
X17650000Y-6400000D02*
X17650000Y-5400000D01*
X15341600Y-11790000D02*
X15341600Y-12790000D01*
X16701600Y-12790000D02*
X16701600Y-11790000D01*
X17020000Y-18170000D02*
X17020000Y-18870000D01*
X18220000Y-18870000D02*
X18220000Y-18170000D01*
X23962200Y-12640000D02*
X23962200Y-11940000D01*
X22762200Y-11940000D02*
X22762200Y-12640000D01*
X21000000Y-6250000D02*
X21000000Y-5550000D01*
X19800000Y-5550000D02*
X19800000Y-6250000D01*
X14792800Y-12699400D02*
X14792800Y-11999400D01*
X13592800Y-11999400D02*
X13592800Y-12699400D01*
X8090000Y-18250000D02*
X8090000Y-19250000D01*
X9450000Y-19250000D02*
X9450000Y-18250000D01*
X26360912Y-19396150D02*
X26360912Y-18396150D01*
X25000912Y-18396150D02*
X25000912Y-19396150D01*
X22843600Y-18427000D02*
X22843600Y-19427000D01*
X24203600Y-19427000D02*
X24203600Y-18427000D01*
X4770000Y-16610000D02*
X6570000Y-16610000D01*
X6570000Y-19830000D02*
X4120000Y-19830000D01*
X19370000Y-6400000D02*
X19370000Y-5400000D01*
X18010000Y-5400000D02*
X18010000Y-6400000D01*
X18428800Y-12790000D02*
X18428800Y-11790000D01*
X17068800Y-11790000D02*
X17068800Y-12790000D01*
X18719800Y-11790000D02*
X18719800Y-12790000D01*
X20079800Y-12790000D02*
X20079800Y-11790000D01*
X22410000Y-12790000D02*
X22410000Y-11790000D01*
X21050000Y-11790000D02*
X21050000Y-12790000D01*
X9316200Y-4063400D02*
X9316200Y-3063400D01*
X7956200Y-3063400D02*
X7956200Y-4063400D01*
X15860000Y-6330000D02*
X15860000Y-5330000D01*
X14500000Y-5330000D02*
X14500000Y-6330000D01*
X4603400Y-3063400D02*
X4603400Y-4063400D01*
X5963400Y-4063400D02*
X5963400Y-3063400D01*
X7639800Y-4063400D02*
X7639800Y-3063400D01*
X6279800Y-3063400D02*
X6279800Y-4063400D01*
X3150200Y-11950000D02*
X3150200Y-10950000D01*
X1790200Y-10950000D02*
X1790200Y-11950000D01*
X1250000Y-21855000D02*
X2250000Y-21855000D01*
X2250000Y-20495000D02*
X1250000Y-20495000D01*
X1250000Y-18080000D02*
X2250000Y-18080000D01*
X2250000Y-16720000D02*
X1250000Y-16720000D01*
X1250000Y-19880000D02*
X2250000Y-19880000D01*
X2250000Y-18520000D02*
X1250000Y-18520000D01*
X15045000Y-18960400D02*
X15045000Y-17960400D01*
X13685000Y-17960400D02*
X13685000Y-18960400D01*
X16645200Y-18960400D02*
X16645200Y-17960400D01*
X15285200Y-17960400D02*
X15285200Y-18960400D01*
X13470200Y-18985800D02*
X13470200Y-17985800D01*
X12110200Y-17985800D02*
X12110200Y-18985800D01*
X1740000Y-5330000D02*
X1740000Y-4400000D01*
X1740000Y-2170000D02*
X1740000Y-3100000D01*
X1740000Y-2170000D02*
X3900000Y-2170000D01*
X1740000Y-5330000D02*
X3200000Y-5330000D01*
X13090000Y-12710000D02*
X13090000Y-12010000D01*
X11890000Y-12010000D02*
X11890000Y-12710000D01*
X8492600Y-5237600D02*
X7792600Y-5237600D01*
X7792600Y-6437600D02*
X8492600Y-6437600D01*
X10510000Y-12000000D02*
X10510000Y-12700000D01*
X11710000Y-12700000D02*
X11710000Y-12000000D01*
X8850000Y-12710000D02*
X8850000Y-12010000D01*
X7650000Y-12010000D02*
X7650000Y-12710000D01*
X11713800Y-18810400D02*
X11713800Y-18110400D01*
X10513800Y-18110400D02*
X10513800Y-18810400D01*
X18640000Y-18170000D02*
X18640000Y-18870000D01*
X19840000Y-18870000D02*
X19840000Y-18170000D01*
X8492600Y-6837800D02*
X7792600Y-6837800D01*
X7792600Y-8037800D02*
X8492600Y-8037800D01*
X11080000Y-4920000D02*
X12880000Y-4920000D01*
X12880000Y-8140000D02*
X10430000Y-8140000D01*
D11*
X13299524Y-15093571D02*
X12894762Y-14810238D01*
X13299524Y-14607857D02*
X12449524Y-14607857D01*
X12449524Y-14931666D01*
X12490000Y-15012619D01*
X12530476Y-15053095D01*
X12611429Y-15093571D01*
X12732857Y-15093571D01*
X12813810Y-15053095D01*
X12854286Y-15012619D01*
X12894762Y-14931666D01*
X12894762Y-14607857D01*
X12530476Y-15417381D02*
X12490000Y-15457857D01*
X12449524Y-15538809D01*
X12449524Y-15741190D01*
X12490000Y-15822143D01*
X12530476Y-15862619D01*
X12611429Y-15903095D01*
X12692381Y-15903095D01*
X12813810Y-15862619D01*
X13299524Y-15376905D01*
X13299524Y-15903095D01*
X12732857Y-16631667D02*
X13299524Y-16631667D01*
X12409048Y-16429286D02*
X13016190Y-16226905D01*
X13016190Y-16753095D01*
X24674524Y-14853571D02*
X24269762Y-14570238D01*
X24674524Y-14367857D02*
X23824524Y-14367857D01*
X23824524Y-14691666D01*
X23865000Y-14772619D01*
X23905476Y-14813095D01*
X23986429Y-14853571D01*
X24107857Y-14853571D01*
X24188810Y-14813095D01*
X24229286Y-14772619D01*
X24269762Y-14691666D01*
X24269762Y-14367857D01*
X23905476Y-15177381D02*
X23865000Y-15217857D01*
X23824524Y-15298809D01*
X23824524Y-15501190D01*
X23865000Y-15582143D01*
X23905476Y-15622619D01*
X23986429Y-15663095D01*
X24067381Y-15663095D01*
X24188810Y-15622619D01*
X24674524Y-15136905D01*
X24674524Y-15663095D01*
X23824524Y-15946429D02*
X23824524Y-16472619D01*
X24148333Y-16189286D01*
X24148333Y-16310714D01*
X24188810Y-16391667D01*
X24229286Y-16432143D01*
X24310238Y-16472619D01*
X24512619Y-16472619D01*
X24593571Y-16432143D01*
X24634048Y-16391667D01*
X24674524Y-16310714D01*
X24674524Y-16067857D01*
X24634048Y-15986905D01*
X24593571Y-15946429D01*
X21784524Y-14953571D02*
X21379762Y-14670238D01*
X21784524Y-14467857D02*
X20934524Y-14467857D01*
X20934524Y-14791666D01*
X20975000Y-14872619D01*
X21015476Y-14913095D01*
X21096429Y-14953571D01*
X21217857Y-14953571D01*
X21298810Y-14913095D01*
X21339286Y-14872619D01*
X21379762Y-14791666D01*
X21379762Y-14467857D01*
X21015476Y-15277381D02*
X20975000Y-15317857D01*
X20934524Y-15398809D01*
X20934524Y-15601190D01*
X20975000Y-15682143D01*
X21015476Y-15722619D01*
X21096429Y-15763095D01*
X21177381Y-15763095D01*
X21298810Y-15722619D01*
X21784524Y-15236905D01*
X21784524Y-15763095D01*
X21015476Y-16086905D02*
X20975000Y-16127381D01*
X20934524Y-16208333D01*
X20934524Y-16410714D01*
X20975000Y-16491667D01*
X21015476Y-16532143D01*
X21096429Y-16572619D01*
X21177381Y-16572619D01*
X21298810Y-16532143D01*
X21784524Y-16046429D01*
X21784524Y-16572619D01*
X17084524Y-7653571D02*
X16679762Y-7370238D01*
X17084524Y-7167857D02*
X16234524Y-7167857D01*
X16234524Y-7491666D01*
X16275000Y-7572619D01*
X16315476Y-7613095D01*
X16396429Y-7653571D01*
X16517857Y-7653571D01*
X16598810Y-7613095D01*
X16639286Y-7572619D01*
X16679762Y-7491666D01*
X16679762Y-7167857D01*
X17084524Y-8463095D02*
X17084524Y-7977381D01*
X17084524Y-8220238D02*
X16234524Y-8220238D01*
X16355952Y-8139286D01*
X16436905Y-8058333D01*
X16477381Y-7977381D01*
X16598810Y-8948810D02*
X16558333Y-8867857D01*
X16517857Y-8827381D01*
X16436905Y-8786905D01*
X16396429Y-8786905D01*
X16315476Y-8827381D01*
X16275000Y-8867857D01*
X16234524Y-8948810D01*
X16234524Y-9110714D01*
X16275000Y-9191667D01*
X16315476Y-9232143D01*
X16396429Y-9272619D01*
X16436905Y-9272619D01*
X16517857Y-9232143D01*
X16558333Y-9191667D01*
X16598810Y-9110714D01*
X16598810Y-8948810D01*
X16639286Y-8867857D01*
X16679762Y-8827381D01*
X16760714Y-8786905D01*
X16922619Y-8786905D01*
X17003571Y-8827381D01*
X17044048Y-8867857D01*
X17084524Y-8948810D01*
X17084524Y-9110714D01*
X17044048Y-9191667D01*
X17003571Y-9232143D01*
X16922619Y-9272619D01*
X16760714Y-9272619D01*
X16679762Y-9232143D01*
X16639286Y-9191667D01*
X16598810Y-9110714D01*
X16484524Y-14103571D02*
X16079762Y-13820238D01*
X16484524Y-13617857D02*
X15634524Y-13617857D01*
X15634524Y-13941666D01*
X15675000Y-14022619D01*
X15715476Y-14063095D01*
X15796429Y-14103571D01*
X15917857Y-14103571D01*
X15998810Y-14063095D01*
X16039286Y-14022619D01*
X16079762Y-13941666D01*
X16079762Y-13617857D01*
X16484524Y-14913095D02*
X16484524Y-14427381D01*
X16484524Y-14670238D02*
X15634524Y-14670238D01*
X15755952Y-14589286D01*
X15836905Y-14508333D01*
X15877381Y-14427381D01*
X15634524Y-15196429D02*
X15634524Y-15763095D01*
X16484524Y-15398810D01*
X17953571Y-20908333D02*
X17994048Y-20867857D01*
X18034524Y-20746428D01*
X18034524Y-20665476D01*
X17994048Y-20544048D01*
X17913095Y-20463095D01*
X17832143Y-20422619D01*
X17670238Y-20382143D01*
X17548810Y-20382143D01*
X17386905Y-20422619D01*
X17305952Y-20463095D01*
X17225000Y-20544048D01*
X17184524Y-20665476D01*
X17184524Y-20746428D01*
X17225000Y-20867857D01*
X17265476Y-20908333D01*
X17548810Y-21394048D02*
X17508333Y-21313095D01*
X17467857Y-21272619D01*
X17386905Y-21232143D01*
X17346429Y-21232143D01*
X17265476Y-21272619D01*
X17225000Y-21313095D01*
X17184524Y-21394048D01*
X17184524Y-21555952D01*
X17225000Y-21636905D01*
X17265476Y-21677381D01*
X17346429Y-21717857D01*
X17386905Y-21717857D01*
X17467857Y-21677381D01*
X17508333Y-21636905D01*
X17548810Y-21555952D01*
X17548810Y-21394048D01*
X17589286Y-21313095D01*
X17629762Y-21272619D01*
X17710714Y-21232143D01*
X17872619Y-21232143D01*
X17953571Y-21272619D01*
X17994048Y-21313095D01*
X18034524Y-21394048D01*
X18034524Y-21555952D01*
X17994048Y-21636905D01*
X17953571Y-21677381D01*
X17872619Y-21717857D01*
X17710714Y-21717857D01*
X17629762Y-21677381D01*
X17589286Y-21636905D01*
X17548810Y-21555952D01*
X23753571Y-9758333D02*
X23794048Y-9717857D01*
X23834524Y-9596428D01*
X23834524Y-9515476D01*
X23794048Y-9394048D01*
X23713095Y-9313095D01*
X23632143Y-9272619D01*
X23470238Y-9232143D01*
X23348810Y-9232143D01*
X23186905Y-9272619D01*
X23105952Y-9313095D01*
X23025000Y-9394048D01*
X22984524Y-9515476D01*
X22984524Y-9596428D01*
X23025000Y-9717857D01*
X23065476Y-9758333D01*
X22984524Y-10486905D02*
X22984524Y-10325000D01*
X23025000Y-10244048D01*
X23065476Y-10203571D01*
X23186905Y-10122619D01*
X23348810Y-10082143D01*
X23672619Y-10082143D01*
X23753571Y-10122619D01*
X23794048Y-10163095D01*
X23834524Y-10244048D01*
X23834524Y-10405952D01*
X23794048Y-10486905D01*
X23753571Y-10527381D01*
X23672619Y-10567857D01*
X23470238Y-10567857D01*
X23389286Y-10527381D01*
X23348810Y-10486905D01*
X23308333Y-10405952D01*
X23308333Y-10244048D01*
X23348810Y-10163095D01*
X23389286Y-10122619D01*
X23470238Y-10082143D01*
X22153571Y-5808333D02*
X22194048Y-5767857D01*
X22234524Y-5646428D01*
X22234524Y-5565476D01*
X22194048Y-5444048D01*
X22113095Y-5363095D01*
X22032143Y-5322619D01*
X21870238Y-5282143D01*
X21748810Y-5282143D01*
X21586905Y-5322619D01*
X21505952Y-5363095D01*
X21425000Y-5444048D01*
X21384524Y-5565476D01*
X21384524Y-5646428D01*
X21425000Y-5767857D01*
X21465476Y-5808333D01*
X21384524Y-6577381D02*
X21384524Y-6172619D01*
X21789286Y-6132143D01*
X21748810Y-6172619D01*
X21708333Y-6253571D01*
X21708333Y-6455952D01*
X21748810Y-6536905D01*
X21789286Y-6577381D01*
X21870238Y-6617857D01*
X22072619Y-6617857D01*
X22153571Y-6577381D01*
X22194048Y-6536905D01*
X22234524Y-6455952D01*
X22234524Y-6253571D01*
X22194048Y-6172619D01*
X22153571Y-6132143D01*
X14503571Y-9958333D02*
X14544048Y-9917857D01*
X14584524Y-9796428D01*
X14584524Y-9715476D01*
X14544048Y-9594048D01*
X14463095Y-9513095D01*
X14382143Y-9472619D01*
X14220238Y-9432143D01*
X14098810Y-9432143D01*
X13936905Y-9472619D01*
X13855952Y-9513095D01*
X13775000Y-9594048D01*
X13734524Y-9715476D01*
X13734524Y-9796428D01*
X13775000Y-9917857D01*
X13815476Y-9958333D01*
X14017857Y-10686905D02*
X14584524Y-10686905D01*
X13694048Y-10484524D02*
X14301190Y-10282143D01*
X14301190Y-10808333D01*
X9184524Y-20678571D02*
X8779762Y-20395238D01*
X9184524Y-20192857D02*
X8334524Y-20192857D01*
X8334524Y-20516666D01*
X8375000Y-20597619D01*
X8415476Y-20638095D01*
X8496429Y-20678571D01*
X8617857Y-20678571D01*
X8698810Y-20638095D01*
X8739286Y-20597619D01*
X8779762Y-20516666D01*
X8779762Y-20192857D01*
X9184524Y-21488095D02*
X9184524Y-21002381D01*
X9184524Y-21245238D02*
X8334524Y-21245238D01*
X8455952Y-21164286D01*
X8536905Y-21083333D01*
X8577381Y-21002381D01*
X8334524Y-22216667D02*
X8334524Y-22054762D01*
X8375000Y-21973810D01*
X8415476Y-21933333D01*
X8536905Y-21852381D01*
X8698810Y-21811905D01*
X9022619Y-21811905D01*
X9103571Y-21852381D01*
X9144048Y-21892857D01*
X9184524Y-21973810D01*
X9184524Y-22135714D01*
X9144048Y-22216667D01*
X9103571Y-22257143D01*
X9022619Y-22297619D01*
X8820238Y-22297619D01*
X8739286Y-22257143D01*
X8698810Y-22216667D01*
X8658333Y-22135714D01*
X8658333Y-21973810D01*
X8698810Y-21892857D01*
X8739286Y-21852381D01*
X8820238Y-21811905D01*
X22584524Y-20503571D02*
X22179762Y-20220238D01*
X22584524Y-20017857D02*
X21734524Y-20017857D01*
X21734524Y-20341666D01*
X21775000Y-20422619D01*
X21815476Y-20463095D01*
X21896429Y-20503571D01*
X22017857Y-20503571D01*
X22098810Y-20463095D01*
X22139286Y-20422619D01*
X22179762Y-20341666D01*
X22179762Y-20017857D01*
X22584524Y-21313095D02*
X22584524Y-20827381D01*
X22584524Y-21070238D02*
X21734524Y-21070238D01*
X21855952Y-20989286D01*
X21936905Y-20908333D01*
X21977381Y-20827381D01*
X21734524Y-21596429D02*
X21734524Y-22122619D01*
X22058333Y-21839286D01*
X22058333Y-21960714D01*
X22098810Y-22041667D01*
X22139286Y-22082143D01*
X22220238Y-22122619D01*
X22422619Y-22122619D01*
X22503571Y-22082143D01*
X22544048Y-22041667D01*
X22584524Y-21960714D01*
X22584524Y-21717857D01*
X22544048Y-21636905D01*
X22503571Y-21596429D01*
X21284524Y-20503571D02*
X20879762Y-20220238D01*
X21284524Y-20017857D02*
X20434524Y-20017857D01*
X20434524Y-20341666D01*
X20475000Y-20422619D01*
X20515476Y-20463095D01*
X20596429Y-20503571D01*
X20717857Y-20503571D01*
X20798810Y-20463095D01*
X20839286Y-20422619D01*
X20879762Y-20341666D01*
X20879762Y-20017857D01*
X21284524Y-21313095D02*
X21284524Y-20827381D01*
X21284524Y-21070238D02*
X20434524Y-21070238D01*
X20555952Y-20989286D01*
X20636905Y-20908333D01*
X20677381Y-20827381D01*
X20515476Y-21636905D02*
X20475000Y-21677381D01*
X20434524Y-21758333D01*
X20434524Y-21960714D01*
X20475000Y-22041667D01*
X20515476Y-22082143D01*
X20596429Y-22122619D01*
X20677381Y-22122619D01*
X20798810Y-22082143D01*
X21284524Y-21596429D01*
X21284524Y-22122619D01*
X6267619Y-20324524D02*
X6267619Y-21012619D01*
X6227143Y-21093571D01*
X6186667Y-21134048D01*
X6105714Y-21174524D01*
X5943810Y-21174524D01*
X5862857Y-21134048D01*
X5822381Y-21093571D01*
X5781905Y-21012619D01*
X5781905Y-20324524D01*
X4931905Y-21174524D02*
X5417619Y-21174524D01*
X5174762Y-21174524D02*
X5174762Y-20324524D01*
X5255714Y-20445952D01*
X5336667Y-20526905D01*
X5417619Y-20567381D01*
X18734524Y-7703571D02*
X18329762Y-7420238D01*
X18734524Y-7217857D02*
X17884524Y-7217857D01*
X17884524Y-7541666D01*
X17925000Y-7622619D01*
X17965476Y-7663095D01*
X18046429Y-7703571D01*
X18167857Y-7703571D01*
X18248810Y-7663095D01*
X18289286Y-7622619D01*
X18329762Y-7541666D01*
X18329762Y-7217857D01*
X17965476Y-8027381D02*
X17925000Y-8067857D01*
X17884524Y-8148809D01*
X17884524Y-8351190D01*
X17925000Y-8432143D01*
X17965476Y-8472619D01*
X18046429Y-8513095D01*
X18127381Y-8513095D01*
X18248810Y-8472619D01*
X18734524Y-7986905D01*
X18734524Y-8513095D01*
X18734524Y-9322619D02*
X18734524Y-8836905D01*
X18734524Y-9079762D02*
X17884524Y-9079762D01*
X18005952Y-8998810D01*
X18086905Y-8917857D01*
X18127381Y-8836905D01*
X18234524Y-14103571D02*
X17829762Y-13820238D01*
X18234524Y-13617857D02*
X17384524Y-13617857D01*
X17384524Y-13941666D01*
X17425000Y-14022619D01*
X17465476Y-14063095D01*
X17546429Y-14103571D01*
X17667857Y-14103571D01*
X17748810Y-14063095D01*
X17789286Y-14022619D01*
X17829762Y-13941666D01*
X17829762Y-13617857D01*
X17465476Y-14427381D02*
X17425000Y-14467857D01*
X17384524Y-14548809D01*
X17384524Y-14751190D01*
X17425000Y-14832143D01*
X17465476Y-14872619D01*
X17546429Y-14913095D01*
X17627381Y-14913095D01*
X17748810Y-14872619D01*
X18234524Y-14386905D01*
X18234524Y-14913095D01*
X17384524Y-15439286D02*
X17384524Y-15520238D01*
X17425000Y-15601190D01*
X17465476Y-15641667D01*
X17546429Y-15682143D01*
X17708333Y-15722619D01*
X17910714Y-15722619D01*
X18072619Y-15682143D01*
X18153571Y-15641667D01*
X18194048Y-15601190D01*
X18234524Y-15520238D01*
X18234524Y-15439286D01*
X18194048Y-15358333D01*
X18153571Y-15317857D01*
X18072619Y-15277381D01*
X17910714Y-15236905D01*
X17708333Y-15236905D01*
X17546429Y-15277381D01*
X17465476Y-15317857D01*
X17425000Y-15358333D01*
X17384524Y-15439286D01*
X19984524Y-9303571D02*
X19579762Y-9020238D01*
X19984524Y-8817857D02*
X19134524Y-8817857D01*
X19134524Y-9141666D01*
X19175000Y-9222619D01*
X19215476Y-9263095D01*
X19296429Y-9303571D01*
X19417857Y-9303571D01*
X19498810Y-9263095D01*
X19539286Y-9222619D01*
X19579762Y-9141666D01*
X19579762Y-8817857D01*
X19984524Y-10113095D02*
X19984524Y-9627381D01*
X19984524Y-9870238D02*
X19134524Y-9870238D01*
X19255952Y-9789286D01*
X19336905Y-9708333D01*
X19377381Y-9627381D01*
X19984524Y-10517857D02*
X19984524Y-10679762D01*
X19944048Y-10760714D01*
X19903571Y-10801190D01*
X19782143Y-10882143D01*
X19620238Y-10922619D01*
X19296429Y-10922619D01*
X19215476Y-10882143D01*
X19175000Y-10841667D01*
X19134524Y-10760714D01*
X19134524Y-10598810D01*
X19175000Y-10517857D01*
X19215476Y-10477381D01*
X19296429Y-10436905D01*
X19498810Y-10436905D01*
X19579762Y-10477381D01*
X19620238Y-10517857D01*
X19660714Y-10598810D01*
X19660714Y-10760714D01*
X19620238Y-10841667D01*
X19579762Y-10882143D01*
X19498810Y-10922619D01*
X22184524Y-9303571D02*
X21779762Y-9020238D01*
X22184524Y-8817857D02*
X21334524Y-8817857D01*
X21334524Y-9141666D01*
X21375000Y-9222619D01*
X21415476Y-9263095D01*
X21496429Y-9303571D01*
X21617857Y-9303571D01*
X21698810Y-9263095D01*
X21739286Y-9222619D01*
X21779762Y-9141666D01*
X21779762Y-8817857D01*
X22184524Y-10113095D02*
X22184524Y-9627381D01*
X22184524Y-9870238D02*
X21334524Y-9870238D01*
X21455952Y-9789286D01*
X21536905Y-9708333D01*
X21577381Y-9627381D01*
X21617857Y-10841667D02*
X22184524Y-10841667D01*
X21294048Y-10639286D02*
X21901190Y-10436905D01*
X21901190Y-10963095D01*
X9346429Y-2084524D02*
X9629762Y-1679762D01*
X9832143Y-2084524D02*
X9832143Y-1234524D01*
X9508334Y-1234524D01*
X9427381Y-1275000D01*
X9386905Y-1315476D01*
X9346429Y-1396429D01*
X9346429Y-1517857D01*
X9386905Y-1598810D01*
X9427381Y-1639286D01*
X9508334Y-1679762D01*
X9832143Y-1679762D01*
X8536905Y-2084524D02*
X9022619Y-2084524D01*
X8779762Y-2084524D02*
X8779762Y-1234524D01*
X8860714Y-1355952D01*
X8941667Y-1436905D01*
X9022619Y-1477381D01*
X7727381Y-2084524D02*
X8213095Y-2084524D01*
X7970238Y-2084524D02*
X7970238Y-1234524D01*
X8051190Y-1355952D01*
X8132143Y-1436905D01*
X8213095Y-1477381D01*
X15444524Y-7653571D02*
X15039762Y-7370238D01*
X15444524Y-7167857D02*
X14594524Y-7167857D01*
X14594524Y-7491666D01*
X14635000Y-7572619D01*
X14675476Y-7613095D01*
X14756429Y-7653571D01*
X14877857Y-7653571D01*
X14958810Y-7613095D01*
X14999286Y-7572619D01*
X15039762Y-7491666D01*
X15039762Y-7167857D01*
X15444524Y-8463095D02*
X15444524Y-7977381D01*
X15444524Y-8220238D02*
X14594524Y-8220238D01*
X14715952Y-8139286D01*
X14796905Y-8058333D01*
X14837381Y-7977381D01*
X14594524Y-8989286D02*
X14594524Y-9070238D01*
X14635000Y-9151190D01*
X14675476Y-9191667D01*
X14756429Y-9232143D01*
X14918333Y-9272619D01*
X15120714Y-9272619D01*
X15282619Y-9232143D01*
X15363571Y-9191667D01*
X15404048Y-9151190D01*
X15444524Y-9070238D01*
X15444524Y-8989286D01*
X15404048Y-8908333D01*
X15363571Y-8867857D01*
X15282619Y-8827381D01*
X15120714Y-8786905D01*
X14918333Y-8786905D01*
X14756429Y-8827381D01*
X14675476Y-8867857D01*
X14635000Y-8908333D01*
X14594524Y-8989286D01*
X5341667Y-2134524D02*
X5625000Y-1729762D01*
X5827381Y-2134524D02*
X5827381Y-1284524D01*
X5503572Y-1284524D01*
X5422619Y-1325000D01*
X5382143Y-1365476D01*
X5341667Y-1446429D01*
X5341667Y-1567857D01*
X5382143Y-1648810D01*
X5422619Y-1689286D01*
X5503572Y-1729762D01*
X5827381Y-1729762D01*
X4936905Y-2134524D02*
X4775000Y-2134524D01*
X4694048Y-2094048D01*
X4653572Y-2053571D01*
X4572619Y-1932143D01*
X4532143Y-1770238D01*
X4532143Y-1446429D01*
X4572619Y-1365476D01*
X4613095Y-1325000D01*
X4694048Y-1284524D01*
X4855952Y-1284524D01*
X4936905Y-1325000D01*
X4977381Y-1365476D01*
X5017857Y-1446429D01*
X5017857Y-1648810D01*
X4977381Y-1729762D01*
X4936905Y-1770238D01*
X4855952Y-1810714D01*
X4694048Y-1810714D01*
X4613095Y-1770238D01*
X4572619Y-1729762D01*
X4532143Y-1648810D01*
X7041667Y-2084524D02*
X7325000Y-1679762D01*
X7527381Y-2084524D02*
X7527381Y-1234524D01*
X7203572Y-1234524D01*
X7122619Y-1275000D01*
X7082143Y-1315476D01*
X7041667Y-1396429D01*
X7041667Y-1517857D01*
X7082143Y-1598810D01*
X7122619Y-1639286D01*
X7203572Y-1679762D01*
X7527381Y-1679762D01*
X6555952Y-1598810D02*
X6636905Y-1558333D01*
X6677381Y-1517857D01*
X6717857Y-1436905D01*
X6717857Y-1396429D01*
X6677381Y-1315476D01*
X6636905Y-1275000D01*
X6555952Y-1234524D01*
X6394048Y-1234524D01*
X6313095Y-1275000D01*
X6272619Y-1315476D01*
X6232143Y-1396429D01*
X6232143Y-1436905D01*
X6272619Y-1517857D01*
X6313095Y-1558333D01*
X6394048Y-1598810D01*
X6555952Y-1598810D01*
X6636905Y-1639286D01*
X6677381Y-1679762D01*
X6717857Y-1760714D01*
X6717857Y-1922619D01*
X6677381Y-2003571D01*
X6636905Y-2044048D01*
X6555952Y-2084524D01*
X6394048Y-2084524D01*
X6313095Y-2044048D01*
X6272619Y-2003571D01*
X6232143Y-1922619D01*
X6232143Y-1760714D01*
X6272619Y-1679762D01*
X6313095Y-1639286D01*
X6394048Y-1598810D01*
X4584524Y-11399533D02*
X4179762Y-11116200D01*
X4584524Y-10913819D02*
X3734524Y-10913819D01*
X3734524Y-11237628D01*
X3775000Y-11318581D01*
X3815476Y-11359057D01*
X3896429Y-11399533D01*
X4017857Y-11399533D01*
X4098810Y-11359057D01*
X4139286Y-11318581D01*
X4179762Y-11237628D01*
X4179762Y-10913819D01*
X3734524Y-11682867D02*
X3734524Y-12249533D01*
X4584524Y-11885248D01*
X3984524Y-21058333D02*
X3579762Y-20775000D01*
X3984524Y-20572619D02*
X3134524Y-20572619D01*
X3134524Y-20896428D01*
X3175000Y-20977381D01*
X3215476Y-21017857D01*
X3296429Y-21058333D01*
X3417857Y-21058333D01*
X3498810Y-21017857D01*
X3539286Y-20977381D01*
X3579762Y-20896428D01*
X3579762Y-20572619D01*
X3134524Y-21786905D02*
X3134524Y-21625000D01*
X3175000Y-21544048D01*
X3215476Y-21503571D01*
X3336905Y-21422619D01*
X3498810Y-21382143D01*
X3822619Y-21382143D01*
X3903571Y-21422619D01*
X3944048Y-21463095D01*
X3984524Y-21544048D01*
X3984524Y-21705952D01*
X3944048Y-21786905D01*
X3903571Y-21827381D01*
X3822619Y-21867857D01*
X3620238Y-21867857D01*
X3539286Y-21827381D01*
X3498810Y-21786905D01*
X3458333Y-21705952D01*
X3458333Y-21544048D01*
X3498810Y-21463095D01*
X3539286Y-21422619D01*
X3620238Y-21382143D01*
X3917924Y-17284733D02*
X3513162Y-17001400D01*
X3917924Y-16799019D02*
X3067924Y-16799019D01*
X3067924Y-17122828D01*
X3108400Y-17203781D01*
X3148876Y-17244257D01*
X3229829Y-17284733D01*
X3351257Y-17284733D01*
X3432210Y-17244257D01*
X3472686Y-17203781D01*
X3513162Y-17122828D01*
X3513162Y-16799019D01*
X3067924Y-18053781D02*
X3067924Y-17649019D01*
X3472686Y-17608543D01*
X3432210Y-17649019D01*
X3391733Y-17729971D01*
X3391733Y-17932352D01*
X3432210Y-18013305D01*
X3472686Y-18053781D01*
X3553638Y-18094257D01*
X3756019Y-18094257D01*
X3836971Y-18053781D01*
X3877448Y-18013305D01*
X3917924Y-17932352D01*
X3917924Y-17729971D01*
X3877448Y-17649019D01*
X3836971Y-17608543D01*
X3959524Y-19208333D02*
X3554762Y-18925000D01*
X3959524Y-18722619D02*
X3109524Y-18722619D01*
X3109524Y-19046428D01*
X3150000Y-19127381D01*
X3190476Y-19167857D01*
X3271429Y-19208333D01*
X3392857Y-19208333D01*
X3473810Y-19167857D01*
X3514286Y-19127381D01*
X3554762Y-19046428D01*
X3554762Y-18722619D01*
X3392857Y-19936905D02*
X3959524Y-19936905D01*
X3069048Y-19734524D02*
X3676190Y-19532143D01*
X3676190Y-20058333D01*
X14884524Y-21008333D02*
X14479762Y-20725000D01*
X14884524Y-20522619D02*
X14034524Y-20522619D01*
X14034524Y-20846428D01*
X14075000Y-20927381D01*
X14115476Y-20967857D01*
X14196429Y-21008333D01*
X14317857Y-21008333D01*
X14398810Y-20967857D01*
X14439286Y-20927381D01*
X14479762Y-20846428D01*
X14479762Y-20522619D01*
X14034524Y-21291667D02*
X14034524Y-21817857D01*
X14358333Y-21534524D01*
X14358333Y-21655952D01*
X14398810Y-21736905D01*
X14439286Y-21777381D01*
X14520238Y-21817857D01*
X14722619Y-21817857D01*
X14803571Y-21777381D01*
X14844048Y-21736905D01*
X14884524Y-21655952D01*
X14884524Y-21413095D01*
X14844048Y-21332143D01*
X14803571Y-21291667D01*
X16509524Y-20933333D02*
X16104762Y-20650000D01*
X16509524Y-20447619D02*
X15659524Y-20447619D01*
X15659524Y-20771428D01*
X15700000Y-20852381D01*
X15740476Y-20892857D01*
X15821429Y-20933333D01*
X15942857Y-20933333D01*
X16023810Y-20892857D01*
X16064286Y-20852381D01*
X16104762Y-20771428D01*
X16104762Y-20447619D01*
X15740476Y-21257143D02*
X15700000Y-21297619D01*
X15659524Y-21378571D01*
X15659524Y-21580952D01*
X15700000Y-21661905D01*
X15740476Y-21702381D01*
X15821429Y-21742857D01*
X15902381Y-21742857D01*
X16023810Y-21702381D01*
X16509524Y-21216667D01*
X16509524Y-21742857D01*
X13184524Y-21008333D02*
X12779762Y-20725000D01*
X13184524Y-20522619D02*
X12334524Y-20522619D01*
X12334524Y-20846428D01*
X12375000Y-20927381D01*
X12415476Y-20967857D01*
X12496429Y-21008333D01*
X12617857Y-21008333D01*
X12698810Y-20967857D01*
X12739286Y-20927381D01*
X12779762Y-20846428D01*
X12779762Y-20522619D01*
X13184524Y-21817857D02*
X13184524Y-21332143D01*
X13184524Y-21575000D02*
X12334524Y-21575000D01*
X12455952Y-21494048D01*
X12536905Y-21413095D01*
X12577381Y-21332143D01*
X2880952Y-1925476D02*
X2961905Y-1885000D01*
X3042857Y-1804048D01*
X3164286Y-1682619D01*
X3245238Y-1642143D01*
X3326190Y-1642143D01*
X3285714Y-1844524D02*
X3366667Y-1804048D01*
X3447619Y-1723095D01*
X3488095Y-1561190D01*
X3488095Y-1277857D01*
X3447619Y-1115952D01*
X3366667Y-1035000D01*
X3285714Y-994524D01*
X3123810Y-994524D01*
X3042857Y-1035000D01*
X2961905Y-1115952D01*
X2921429Y-1277857D01*
X2921429Y-1561190D01*
X2961905Y-1723095D01*
X3042857Y-1804048D01*
X3123810Y-1844524D01*
X3285714Y-1844524D01*
X2111905Y-1844524D02*
X2597619Y-1844524D01*
X2354762Y-1844524D02*
X2354762Y-994524D01*
X2435714Y-1115952D01*
X2516667Y-1196905D01*
X2597619Y-1237381D01*
X12903571Y-8903571D02*
X12944048Y-8863095D01*
X12984524Y-8741666D01*
X12984524Y-8660714D01*
X12944048Y-8539286D01*
X12863095Y-8458333D01*
X12782143Y-8417857D01*
X12620238Y-8377381D01*
X12498810Y-8377381D01*
X12336905Y-8417857D01*
X12255952Y-8458333D01*
X12175000Y-8539286D01*
X12134524Y-8660714D01*
X12134524Y-8741666D01*
X12175000Y-8863095D01*
X12215476Y-8903571D01*
X12984524Y-9713095D02*
X12984524Y-9227381D01*
X12984524Y-9470238D02*
X12134524Y-9470238D01*
X12255952Y-9389286D01*
X12336905Y-9308333D01*
X12377381Y-9227381D01*
X12984524Y-10522619D02*
X12984524Y-10036905D01*
X12984524Y-10279762D02*
X12134524Y-10279762D01*
X12255952Y-10198810D01*
X12336905Y-10117857D01*
X12377381Y-10036905D01*
X5666667Y-6328571D02*
X5707143Y-6369048D01*
X5828572Y-6409524D01*
X5909524Y-6409524D01*
X6030952Y-6369048D01*
X6111905Y-6288095D01*
X6152381Y-6207143D01*
X6192857Y-6045238D01*
X6192857Y-5923810D01*
X6152381Y-5761905D01*
X6111905Y-5680952D01*
X6030952Y-5600000D01*
X5909524Y-5559524D01*
X5828572Y-5559524D01*
X5707143Y-5600000D01*
X5666667Y-5640476D01*
X5261905Y-6409524D02*
X5100000Y-6409524D01*
X5019048Y-6369048D01*
X4978572Y-6328571D01*
X4897619Y-6207143D01*
X4857143Y-6045238D01*
X4857143Y-5721429D01*
X4897619Y-5640476D01*
X4938095Y-5600000D01*
X5019048Y-5559524D01*
X5180952Y-5559524D01*
X5261905Y-5600000D01*
X5302381Y-5640476D01*
X5342857Y-5721429D01*
X5342857Y-5923810D01*
X5302381Y-6004762D01*
X5261905Y-6045238D01*
X5180952Y-6085714D01*
X5019048Y-6085714D01*
X4938095Y-6045238D01*
X4897619Y-6004762D01*
X4857143Y-5923810D01*
X10153571Y-12158333D02*
X10194048Y-12117857D01*
X10234524Y-11996428D01*
X10234524Y-11915476D01*
X10194048Y-11794048D01*
X10113095Y-11713095D01*
X10032143Y-11672619D01*
X9870238Y-11632143D01*
X9748810Y-11632143D01*
X9586905Y-11672619D01*
X9505952Y-11713095D01*
X9425000Y-11794048D01*
X9384524Y-11915476D01*
X9384524Y-11996428D01*
X9425000Y-12117857D01*
X9465476Y-12158333D01*
X9384524Y-12441667D02*
X9384524Y-12967857D01*
X9708333Y-12684524D01*
X9708333Y-12805952D01*
X9748810Y-12886905D01*
X9789286Y-12927381D01*
X9870238Y-12967857D01*
X10072619Y-12967857D01*
X10153571Y-12927381D01*
X10194048Y-12886905D01*
X10234524Y-12805952D01*
X10234524Y-12563095D01*
X10194048Y-12482143D01*
X10153571Y-12441667D01*
X7053571Y-12218333D02*
X7094048Y-12177857D01*
X7134524Y-12056428D01*
X7134524Y-11975476D01*
X7094048Y-11854048D01*
X7013095Y-11773095D01*
X6932143Y-11732619D01*
X6770238Y-11692143D01*
X6648810Y-11692143D01*
X6486905Y-11732619D01*
X6405952Y-11773095D01*
X6325000Y-11854048D01*
X6284524Y-11975476D01*
X6284524Y-12056428D01*
X6325000Y-12177857D01*
X6365476Y-12218333D01*
X6365476Y-12542143D02*
X6325000Y-12582619D01*
X6284524Y-12663571D01*
X6284524Y-12865952D01*
X6325000Y-12946905D01*
X6365476Y-12987381D01*
X6446429Y-13027857D01*
X6527381Y-13027857D01*
X6648810Y-12987381D01*
X7134524Y-12501667D01*
X7134524Y-13027857D01*
X11453571Y-21008333D02*
X11494048Y-20967857D01*
X11534524Y-20846428D01*
X11534524Y-20765476D01*
X11494048Y-20644048D01*
X11413095Y-20563095D01*
X11332143Y-20522619D01*
X11170238Y-20482143D01*
X11048810Y-20482143D01*
X10886905Y-20522619D01*
X10805952Y-20563095D01*
X10725000Y-20644048D01*
X10684524Y-20765476D01*
X10684524Y-20846428D01*
X10725000Y-20967857D01*
X10765476Y-21008333D01*
X11534524Y-21817857D02*
X11534524Y-21332143D01*
X11534524Y-21575000D02*
X10684524Y-21575000D01*
X10805952Y-21494048D01*
X10886905Y-21413095D01*
X10927381Y-21332143D01*
X19603571Y-20803571D02*
X19644048Y-20763095D01*
X19684524Y-20641666D01*
X19684524Y-20560714D01*
X19644048Y-20439286D01*
X19563095Y-20358333D01*
X19482143Y-20317857D01*
X19320238Y-20277381D01*
X19198810Y-20277381D01*
X19036905Y-20317857D01*
X18955952Y-20358333D01*
X18875000Y-20439286D01*
X18834524Y-20560714D01*
X18834524Y-20641666D01*
X18875000Y-20763095D01*
X18915476Y-20803571D01*
X19684524Y-21613095D02*
X19684524Y-21127381D01*
X19684524Y-21370238D02*
X18834524Y-21370238D01*
X18955952Y-21289286D01*
X19036905Y-21208333D01*
X19077381Y-21127381D01*
X18915476Y-21936905D02*
X18875000Y-21977381D01*
X18834524Y-22058333D01*
X18834524Y-22260714D01*
X18875000Y-22341667D01*
X18915476Y-22382143D01*
X18996429Y-22422619D01*
X19077381Y-22422619D01*
X19198810Y-22382143D01*
X19684524Y-21896429D01*
X19684524Y-22422619D01*
X5846429Y-7703571D02*
X5886905Y-7744048D01*
X6008334Y-7784524D01*
X6089286Y-7784524D01*
X6210714Y-7744048D01*
X6291667Y-7663095D01*
X6332143Y-7582143D01*
X6372619Y-7420238D01*
X6372619Y-7298810D01*
X6332143Y-7136905D01*
X6291667Y-7055952D01*
X6210714Y-6975000D01*
X6089286Y-6934524D01*
X6008334Y-6934524D01*
X5886905Y-6975000D01*
X5846429Y-7015476D01*
X5036905Y-7784524D02*
X5522619Y-7784524D01*
X5279762Y-7784524D02*
X5279762Y-6934524D01*
X5360714Y-7055952D01*
X5441667Y-7136905D01*
X5522619Y-7177381D01*
X4510714Y-6934524D02*
X4429762Y-6934524D01*
X4348810Y-6975000D01*
X4308333Y-7015476D01*
X4267857Y-7096429D01*
X4227381Y-7258333D01*
X4227381Y-7460714D01*
X4267857Y-7622619D01*
X4308333Y-7703571D01*
X4348810Y-7744048D01*
X4429762Y-7784524D01*
X4510714Y-7784524D01*
X4591667Y-7744048D01*
X4632143Y-7703571D01*
X4672619Y-7622619D01*
X4713095Y-7460714D01*
X4713095Y-7258333D01*
X4672619Y-7096429D01*
X4632143Y-7015476D01*
X4591667Y-6975000D01*
X4510714Y-6934524D01*
X10934524Y-8402381D02*
X11622619Y-8402381D01*
X11703571Y-8442857D01*
X11744048Y-8483333D01*
X11784524Y-8564286D01*
X11784524Y-8726190D01*
X11744048Y-8807143D01*
X11703571Y-8847619D01*
X11622619Y-8888095D01*
X10934524Y-8888095D01*
X10934524Y-9211905D02*
X10934524Y-9738095D01*
X11258333Y-9454762D01*
X11258333Y-9576190D01*
X11298810Y-9657143D01*
X11339286Y-9697619D01*
X11420238Y-9738095D01*
X11622619Y-9738095D01*
X11703571Y-9697619D01*
X11744048Y-9657143D01*
X11784524Y-9576190D01*
X11784524Y-9333333D01*
X11744048Y-9252381D01*
X11703571Y-9211905D01*
M02*
