%TF.GenerationSoftware,KiCad,Pcbnew,4.0.7*%
%TF.CreationDate,2017-12-01T19:39:18+08:00*%
%TF.ProjectId,ST-Link V2.1,53542D4C696E6B2056322E312E6B6963,rev?*%
%TF.FileFunction,Other,User*%
%FSLAX46Y46*%
G04 Gerber Fmt 4.6, Leading zero omitted, Abs format (unit mm)*
G04 Created by KiCad (PCBNEW 4.0.7) date 12/01/17 19:39:18*
%MOMM*%
%LPD*%
G01*
G04 APERTURE LIST*
%ADD10C,0.100000*%
%ADD11C,0.050000*%
G04 APERTURE END LIST*
D10*
D11*
X6998600Y-18362400D02*
X12598600Y-18362400D01*
X12598600Y-18362400D02*
X12598600Y-6262400D01*
X12598600Y-6262400D02*
X6998600Y-6262400D01*
X6998600Y-6262400D02*
X6998600Y-18362400D01*
X26635400Y-1227600D02*
X10335400Y-1227600D01*
X10335400Y-1227600D02*
X10335400Y-4827600D01*
X10335400Y-4827600D02*
X26635400Y-4827600D01*
X26635400Y-4827600D02*
X26635400Y-1227600D01*
X9742000Y-19068600D02*
X9742000Y-20768600D01*
X9742000Y-20768600D02*
X5842000Y-20768600D01*
X5842000Y-20768600D02*
X5842000Y-19068600D01*
X5842000Y-19068600D02*
X9742000Y-19068600D01*
X26530912Y-20856150D02*
X24830912Y-20856150D01*
X24830912Y-20856150D02*
X24830912Y-16956150D01*
X24830912Y-16956150D02*
X26530912Y-16956150D01*
X26530912Y-16956150D02*
X26530912Y-20856150D01*
X24373600Y-20877000D02*
X22673600Y-20877000D01*
X22673600Y-20877000D02*
X22673600Y-16977000D01*
X22673600Y-16977000D02*
X24373600Y-16977000D01*
X24373600Y-16977000D02*
X24373600Y-20877000D01*
M02*
