G04 #@! TF.FileFunction,Paste,Top*
%FSLAX46Y46*%
G04 Gerber Fmt 4.6, Leading zero omitted, Abs format (unit mm)*
G04 Created by KiCad (PCBNEW 4.0.7) date 10/12/17 20:38:22*
%MOMM*%
%LPD*%
G01*
G04 APERTURE LIST*
%ADD10C,0.100000*%
%ADD11R,0.800000X0.800000*%
%ADD12R,1.900000X1.500000*%
%ADD13R,1.350000X0.400000*%
G04 APERTURE END LIST*
D10*
G36*
X155321000Y-108074398D02*
X151361202Y-104114600D01*
X155321000Y-100154802D01*
X159280798Y-104114600D01*
X155321000Y-108074398D01*
X155321000Y-108074398D01*
G37*
G36*
X151078359Y-103973178D02*
X149840923Y-102735742D01*
X150053055Y-102523610D01*
X151290491Y-103761046D01*
X151078359Y-103973178D01*
X151078359Y-103973178D01*
G37*
G36*
X151431912Y-103619625D02*
X150194476Y-102382189D01*
X150406608Y-102170057D01*
X151644044Y-103407493D01*
X151431912Y-103619625D01*
X151431912Y-103619625D01*
G37*
G36*
X151785466Y-103266071D02*
X150548030Y-102028635D01*
X150760162Y-101816503D01*
X151997598Y-103053939D01*
X151785466Y-103266071D01*
X151785466Y-103266071D01*
G37*
G36*
X152139019Y-102912518D02*
X150901583Y-101675082D01*
X151113715Y-101462950D01*
X152351151Y-102700386D01*
X152139019Y-102912518D01*
X152139019Y-102912518D01*
G37*
G36*
X152492572Y-102558965D02*
X151255136Y-101321529D01*
X151467268Y-101109397D01*
X152704704Y-102346833D01*
X152492572Y-102558965D01*
X152492572Y-102558965D01*
G37*
G36*
X151820822Y-100755843D02*
X153058258Y-101993279D01*
X152846126Y-102205411D01*
X151608690Y-100967975D01*
X151820822Y-100755843D01*
X151820822Y-100755843D01*
G37*
G36*
X153199679Y-101851858D02*
X151962243Y-100614422D01*
X152174375Y-100402290D01*
X153411811Y-101639726D01*
X153199679Y-101851858D01*
X153199679Y-101851858D01*
G37*
G36*
X153553233Y-101498304D02*
X152315797Y-100260868D01*
X152527929Y-100048736D01*
X153765365Y-101286172D01*
X153553233Y-101498304D01*
X153553233Y-101498304D01*
G37*
G36*
X153906786Y-101144751D02*
X152669350Y-99907315D01*
X152881482Y-99695183D01*
X154118918Y-100932619D01*
X153906786Y-101144751D01*
X153906786Y-101144751D01*
G37*
G36*
X154260339Y-100791198D02*
X153022903Y-99553762D01*
X153235035Y-99341630D01*
X154472471Y-100579066D01*
X154260339Y-100791198D01*
X154260339Y-100791198D01*
G37*
G36*
X154613893Y-100437644D02*
X153376457Y-99200208D01*
X153588589Y-98988076D01*
X154826025Y-100225512D01*
X154613893Y-100437644D01*
X154613893Y-100437644D01*
G37*
G36*
X154967446Y-100084091D02*
X153730010Y-98846655D01*
X153942142Y-98634523D01*
X155179578Y-99871959D01*
X154967446Y-100084091D01*
X154967446Y-100084091D01*
G37*
G36*
X153411811Y-106589474D02*
X152174375Y-107826910D01*
X151962243Y-107614778D01*
X153199679Y-106377342D01*
X153411811Y-106589474D01*
X153411811Y-106589474D01*
G37*
G36*
X153058258Y-106235921D02*
X151820822Y-107473357D01*
X151608690Y-107261225D01*
X152846126Y-106023789D01*
X153058258Y-106235921D01*
X153058258Y-106235921D01*
G37*
G36*
X152704704Y-105882367D02*
X151467268Y-107119803D01*
X151255136Y-106907671D01*
X152492572Y-105670235D01*
X152704704Y-105882367D01*
X152704704Y-105882367D01*
G37*
G36*
X152351151Y-105528814D02*
X151113715Y-106766250D01*
X150901583Y-106554118D01*
X152139019Y-105316682D01*
X152351151Y-105528814D01*
X152351151Y-105528814D01*
G37*
G36*
X151997598Y-105175261D02*
X150760162Y-106412697D01*
X150548030Y-106200565D01*
X151785466Y-104963129D01*
X151997598Y-105175261D01*
X151997598Y-105175261D01*
G37*
G36*
X151644044Y-104821707D02*
X150406608Y-106059143D01*
X150194476Y-105847011D01*
X151431912Y-104609575D01*
X151644044Y-104821707D01*
X151644044Y-104821707D01*
G37*
G36*
X153765365Y-106943028D02*
X152527929Y-108180464D01*
X152315797Y-107968332D01*
X153553233Y-106730896D01*
X153765365Y-106943028D01*
X153765365Y-106943028D01*
G37*
G36*
X151290491Y-104468154D02*
X150053055Y-105705590D01*
X149840923Y-105493458D01*
X151078359Y-104256022D01*
X151290491Y-104468154D01*
X151290491Y-104468154D01*
G37*
G36*
X154118918Y-107296581D02*
X152881482Y-108534017D01*
X152669350Y-108321885D01*
X153906786Y-107084449D01*
X154118918Y-107296581D01*
X154118918Y-107296581D01*
G37*
G36*
X154472471Y-107650134D02*
X153235035Y-108887570D01*
X153022903Y-108675438D01*
X154260339Y-107438002D01*
X154472471Y-107650134D01*
X154472471Y-107650134D01*
G37*
G36*
X154826025Y-108003688D02*
X153588589Y-109241124D01*
X153376457Y-109028992D01*
X154613893Y-107791556D01*
X154826025Y-108003688D01*
X154826025Y-108003688D01*
G37*
G36*
X155179578Y-108357241D02*
X153942142Y-109594677D01*
X153730010Y-109382545D01*
X154967446Y-108145109D01*
X155179578Y-108357241D01*
X155179578Y-108357241D01*
G37*
G36*
X158821178Y-107473357D02*
X157583742Y-106235921D01*
X157795874Y-106023789D01*
X159033310Y-107261225D01*
X158821178Y-107473357D01*
X158821178Y-107473357D01*
G37*
G36*
X158467625Y-107826910D02*
X157230189Y-106589474D01*
X157442321Y-106377342D01*
X158679757Y-107614778D01*
X158467625Y-107826910D01*
X158467625Y-107826910D01*
G37*
G36*
X158114071Y-108180464D02*
X156876635Y-106943028D01*
X157088767Y-106730896D01*
X158326203Y-107968332D01*
X158114071Y-108180464D01*
X158114071Y-108180464D01*
G37*
G36*
X157760518Y-108534017D02*
X156523082Y-107296581D01*
X156735214Y-107084449D01*
X157972650Y-108321885D01*
X157760518Y-108534017D01*
X157760518Y-108534017D01*
G37*
G36*
X157406965Y-108887570D02*
X156169529Y-107650134D01*
X156381661Y-107438002D01*
X157619097Y-108675438D01*
X157406965Y-108887570D01*
X157406965Y-108887570D01*
G37*
G36*
X157053411Y-109241124D02*
X155815975Y-108003688D01*
X156028107Y-107791556D01*
X157265543Y-109028992D01*
X157053411Y-109241124D01*
X157053411Y-109241124D01*
G37*
G36*
X156699858Y-109594677D02*
X155462422Y-108357241D01*
X155674554Y-108145109D01*
X156911990Y-109382545D01*
X156699858Y-109594677D01*
X156699858Y-109594677D01*
G37*
G36*
X159174732Y-107119803D02*
X157937296Y-105882367D01*
X158149428Y-105670235D01*
X159386864Y-106907671D01*
X159174732Y-107119803D01*
X159174732Y-107119803D01*
G37*
G36*
X159528285Y-106766250D02*
X158290849Y-105528814D01*
X158502981Y-105316682D01*
X159740417Y-106554118D01*
X159528285Y-106766250D01*
X159528285Y-106766250D01*
G37*
G36*
X159881838Y-106412697D02*
X158644402Y-105175261D01*
X158856534Y-104963129D01*
X160093970Y-106200565D01*
X159881838Y-106412697D01*
X159881838Y-106412697D01*
G37*
G36*
X160235392Y-106059143D02*
X158997956Y-104821707D01*
X159210088Y-104609575D01*
X160447524Y-105847011D01*
X160235392Y-106059143D01*
X160235392Y-106059143D01*
G37*
G36*
X160588945Y-105705590D02*
X159351509Y-104468154D01*
X159563641Y-104256022D01*
X160801077Y-105493458D01*
X160588945Y-105705590D01*
X160588945Y-105705590D01*
G37*
G36*
X158679757Y-100614422D02*
X157442321Y-101851858D01*
X157230189Y-101639726D01*
X158467625Y-100402290D01*
X158679757Y-100614422D01*
X158679757Y-100614422D01*
G37*
G36*
X159033310Y-100967975D02*
X157795874Y-102205411D01*
X157583742Y-101993279D01*
X158821178Y-100755843D01*
X159033310Y-100967975D01*
X159033310Y-100967975D01*
G37*
G36*
X158326203Y-100260868D02*
X157088767Y-101498304D01*
X156876635Y-101286172D01*
X158114071Y-100048736D01*
X158326203Y-100260868D01*
X158326203Y-100260868D01*
G37*
G36*
X157972650Y-99907315D02*
X156735214Y-101144751D01*
X156523082Y-100932619D01*
X157760518Y-99695183D01*
X157972650Y-99907315D01*
X157972650Y-99907315D01*
G37*
G36*
X157619097Y-99553762D02*
X156381661Y-100791198D01*
X156169529Y-100579066D01*
X157406965Y-99341630D01*
X157619097Y-99553762D01*
X157619097Y-99553762D01*
G37*
G36*
X157265543Y-99200208D02*
X156028107Y-100437644D01*
X155815975Y-100225512D01*
X157053411Y-98988076D01*
X157265543Y-99200208D01*
X157265543Y-99200208D01*
G37*
G36*
X156911990Y-98846655D02*
X155674554Y-100084091D01*
X155462422Y-99871959D01*
X156699858Y-98634523D01*
X156911990Y-98846655D01*
X156911990Y-98846655D01*
G37*
G36*
X159386864Y-101321529D02*
X158149428Y-102558965D01*
X157937296Y-102346833D01*
X159174732Y-101109397D01*
X159386864Y-101321529D01*
X159386864Y-101321529D01*
G37*
G36*
X159740417Y-101675082D02*
X158502981Y-102912518D01*
X158290849Y-102700386D01*
X159528285Y-101462950D01*
X159740417Y-101675082D01*
X159740417Y-101675082D01*
G37*
G36*
X160093970Y-102028635D02*
X158856534Y-103266071D01*
X158644402Y-103053939D01*
X159881838Y-101816503D01*
X160093970Y-102028635D01*
X160093970Y-102028635D01*
G37*
G36*
X160447524Y-102382189D02*
X159210088Y-103619625D01*
X158997956Y-103407493D01*
X160235392Y-102170057D01*
X160447524Y-102382189D01*
X160447524Y-102382189D01*
G37*
G36*
X160801077Y-102735742D02*
X159563641Y-103973178D01*
X159351509Y-103761046D01*
X160588945Y-102523610D01*
X160801077Y-102735742D01*
X160801077Y-102735742D01*
G37*
D11*
X164541200Y-98463200D03*
X164541200Y-100063200D03*
X164541200Y-102717600D03*
X164541200Y-104317600D03*
D12*
X137089400Y-103514400D03*
D13*
X139789400Y-101864400D03*
X139789400Y-101214400D03*
X139789400Y-103814400D03*
X139789400Y-103164400D03*
X139789400Y-102514400D03*
D12*
X137089400Y-101514400D03*
D11*
X164541200Y-106730800D03*
X164541200Y-108330800D03*
M02*
