G04 #@! TF.FileFunction,Legend,Bot*
%FSLAX46Y46*%
G04 Gerber Fmt 4.6, Leading zero omitted, Abs format (unit mm)*
G04 Created by KiCad (PCBNEW 4.0.7) date 11/14/17 20:41:01*
%MOMM*%
%LPD*%
G01*
G04 APERTURE LIST*
%ADD10C,0.100000*%
%ADD11C,0.153000*%
%ADD12C,0.120000*%
%ADD13C,0.150000*%
G04 APERTURE END LIST*
D10*
D11*
X145966666Y-118652381D02*
X146300000Y-118176190D01*
X146538095Y-118652381D02*
X146538095Y-117652381D01*
X146157142Y-117652381D01*
X146061904Y-117700000D01*
X146014285Y-117747619D01*
X145966666Y-117842857D01*
X145966666Y-117985714D01*
X146014285Y-118080952D01*
X146061904Y-118128571D01*
X146157142Y-118176190D01*
X146538095Y-118176190D01*
X145633333Y-117652381D02*
X144966666Y-118652381D01*
X144966666Y-117652381D02*
X145633333Y-118652381D01*
X146711905Y-113802381D02*
X146140476Y-113802381D01*
X146426191Y-114802381D02*
X146426191Y-113802381D01*
X145902381Y-113802381D02*
X145235714Y-114802381D01*
X145235714Y-113802381D02*
X145902381Y-114802381D01*
X146580952Y-112354762D02*
X146438095Y-112402381D01*
X146199999Y-112402381D01*
X146104761Y-112354762D01*
X146057142Y-112307143D01*
X146009523Y-112211905D01*
X146009523Y-112116667D01*
X146057142Y-112021429D01*
X146104761Y-111973810D01*
X146199999Y-111926190D01*
X146390476Y-111878571D01*
X146485714Y-111830952D01*
X146533333Y-111783333D01*
X146580952Y-111688095D01*
X146580952Y-111592857D01*
X146533333Y-111497619D01*
X146485714Y-111450000D01*
X146390476Y-111402381D01*
X146152380Y-111402381D01*
X146009523Y-111450000D01*
X145676190Y-111402381D02*
X145438095Y-112402381D01*
X145247618Y-111688095D01*
X145057142Y-112402381D01*
X144819047Y-111402381D01*
X144247619Y-111402381D02*
X144057142Y-111402381D01*
X143961904Y-111450000D01*
X143866666Y-111545238D01*
X143819047Y-111735714D01*
X143819047Y-112069048D01*
X143866666Y-112259524D01*
X143961904Y-112354762D01*
X144057142Y-112402381D01*
X144247619Y-112402381D01*
X144342857Y-112354762D01*
X144438095Y-112259524D01*
X144485714Y-112069048D01*
X144485714Y-111735714D01*
X144438095Y-111545238D01*
X144342857Y-111450000D01*
X144247619Y-111402381D01*
X146188095Y-109502381D02*
X146188095Y-110216667D01*
X146235715Y-110359524D01*
X146330953Y-110454762D01*
X146473810Y-110502381D01*
X146569048Y-110502381D01*
X145854762Y-109502381D02*
X145283333Y-109502381D01*
X145569048Y-110502381D02*
X145569048Y-109502381D01*
X144378571Y-110407143D02*
X144426190Y-110454762D01*
X144569047Y-110502381D01*
X144664285Y-110502381D01*
X144807143Y-110454762D01*
X144902381Y-110359524D01*
X144950000Y-110264286D01*
X144997619Y-110073810D01*
X144997619Y-109930952D01*
X144950000Y-109740476D01*
X144902381Y-109645238D01*
X144807143Y-109550000D01*
X144664285Y-109502381D01*
X144569047Y-109502381D01*
X144426190Y-109550000D01*
X144378571Y-109597619D01*
X143950000Y-110502381D02*
X143950000Y-109502381D01*
X143378571Y-110502381D02*
X143807143Y-109930952D01*
X143378571Y-109502381D02*
X143950000Y-110073810D01*
X146538095Y-107002381D02*
X145919047Y-107002381D01*
X146252381Y-107383333D01*
X146109523Y-107383333D01*
X146014285Y-107430952D01*
X145966666Y-107478571D01*
X145919047Y-107573810D01*
X145919047Y-107811905D01*
X145966666Y-107907143D01*
X146014285Y-107954762D01*
X146109523Y-108002381D01*
X146395238Y-108002381D01*
X146490476Y-107954762D01*
X146538095Y-107907143D01*
X145633333Y-107002381D02*
X145300000Y-108002381D01*
X144966666Y-107002381D01*
X144728571Y-107002381D02*
X144109523Y-107002381D01*
X144442857Y-107383333D01*
X144299999Y-107383333D01*
X144204761Y-107430952D01*
X144157142Y-107478571D01*
X144109523Y-107573810D01*
X144109523Y-107811905D01*
X144157142Y-107907143D01*
X144204761Y-107954762D01*
X144299999Y-108002381D01*
X144585714Y-108002381D01*
X144680952Y-107954762D01*
X144728571Y-107907143D01*
X146260714Y-104727381D02*
X146260714Y-105441667D01*
X146308334Y-105584524D01*
X146403572Y-105679762D01*
X146546429Y-105727381D01*
X146641667Y-105727381D01*
X145927381Y-104727381D02*
X145355952Y-104727381D01*
X145641667Y-105727381D02*
X145641667Y-104727381D01*
X145022619Y-105727381D02*
X145022619Y-104727381D01*
X144689285Y-105441667D01*
X144355952Y-104727381D01*
X144355952Y-105727381D01*
X143927381Y-105679762D02*
X143784524Y-105727381D01*
X143546428Y-105727381D01*
X143451190Y-105679762D01*
X143403571Y-105632143D01*
X143355952Y-105536905D01*
X143355952Y-105441667D01*
X143403571Y-105346429D01*
X143451190Y-105298810D01*
X143546428Y-105251190D01*
X143736905Y-105203571D01*
X143832143Y-105155952D01*
X143879762Y-105108333D01*
X143927381Y-105013095D01*
X143927381Y-104917857D01*
X143879762Y-104822619D01*
X143832143Y-104775000D01*
X143736905Y-104727381D01*
X143498809Y-104727381D01*
X143355952Y-104775000D01*
X146517857Y-102096119D02*
X145755952Y-102096119D01*
X145755952Y-102096119D02*
X144994047Y-102096119D01*
X144994047Y-102096119D02*
X144232142Y-102096119D01*
X145922619Y-103653881D02*
X146255953Y-103177690D01*
X146494048Y-103653881D02*
X146494048Y-102653881D01*
X146113095Y-102653881D01*
X146017857Y-102701500D01*
X145970238Y-102749119D01*
X145922619Y-102844357D01*
X145922619Y-102987214D01*
X145970238Y-103082452D01*
X146017857Y-103130071D01*
X146113095Y-103177690D01*
X146494048Y-103177690D01*
X145541667Y-103606262D02*
X145398810Y-103653881D01*
X145160714Y-103653881D01*
X145065476Y-103606262D01*
X145017857Y-103558643D01*
X144970238Y-103463405D01*
X144970238Y-103368167D01*
X145017857Y-103272929D01*
X145065476Y-103225310D01*
X145160714Y-103177690D01*
X145351191Y-103130071D01*
X145446429Y-103082452D01*
X145494048Y-103034833D01*
X145541667Y-102939595D01*
X145541667Y-102844357D01*
X145494048Y-102749119D01*
X145446429Y-102701500D01*
X145351191Y-102653881D01*
X145113095Y-102653881D01*
X144970238Y-102701500D01*
X144684524Y-102653881D02*
X144113095Y-102653881D01*
X144398810Y-103653881D02*
X144398810Y-102653881D01*
X145913095Y-99525000D02*
X146008333Y-99477381D01*
X146151190Y-99477381D01*
X146294048Y-99525000D01*
X146389286Y-99620238D01*
X146436905Y-99715476D01*
X146484524Y-99905952D01*
X146484524Y-100048810D01*
X146436905Y-100239286D01*
X146389286Y-100334524D01*
X146294048Y-100429762D01*
X146151190Y-100477381D01*
X146055952Y-100477381D01*
X145913095Y-100429762D01*
X145865476Y-100382143D01*
X145865476Y-100048810D01*
X146055952Y-100048810D01*
D12*
X133745000Y-113290000D02*
X133745000Y-112290000D01*
X132385000Y-112290000D02*
X132385000Y-113290000D01*
X140280000Y-112110000D02*
X140280000Y-113110000D01*
X141640000Y-113110000D02*
X141640000Y-112110000D01*
X139400000Y-113220000D02*
X139400000Y-112220000D01*
X138040000Y-112220000D02*
X138040000Y-113220000D01*
X134990000Y-102550000D02*
X134990000Y-103550000D01*
X136350000Y-103550000D02*
X136350000Y-102550000D01*
X134041600Y-108940000D02*
X134041600Y-109940000D01*
X135401600Y-109940000D02*
X135401600Y-108940000D01*
X135720000Y-115320000D02*
X135720000Y-116020000D01*
X136920000Y-116020000D02*
X136920000Y-115320000D01*
X142662200Y-109790000D02*
X142662200Y-109090000D01*
X141462200Y-109090000D02*
X141462200Y-109790000D01*
X139700000Y-103400000D02*
X139700000Y-102700000D01*
X138500000Y-102700000D02*
X138500000Y-103400000D01*
X133492800Y-109849400D02*
X133492800Y-109149400D01*
X132292800Y-109149400D02*
X132292800Y-109849400D01*
X126790000Y-115400000D02*
X126790000Y-116400000D01*
X128150000Y-116400000D02*
X128150000Y-115400000D01*
X145060912Y-116546150D02*
X145060912Y-115546150D01*
X143700912Y-115546150D02*
X143700912Y-116546150D01*
X141543600Y-115577000D02*
X141543600Y-116577000D01*
X142903600Y-116577000D02*
X142903600Y-115577000D01*
X123470000Y-113760000D02*
X125270000Y-113760000D01*
X125270000Y-116980000D02*
X122820000Y-116980000D01*
X138070000Y-103550000D02*
X138070000Y-102550000D01*
X136710000Y-102550000D02*
X136710000Y-103550000D01*
X137128800Y-109940000D02*
X137128800Y-108940000D01*
X135768800Y-108940000D02*
X135768800Y-109940000D01*
X137419800Y-108940000D02*
X137419800Y-109940000D01*
X138779800Y-109940000D02*
X138779800Y-108940000D01*
X141110000Y-109940000D02*
X141110000Y-108940000D01*
X139750000Y-108940000D02*
X139750000Y-109940000D01*
X128016200Y-101213400D02*
X128016200Y-100213400D01*
X126656200Y-100213400D02*
X126656200Y-101213400D01*
X134550000Y-103480000D02*
X134550000Y-102480000D01*
X133190000Y-102480000D02*
X133190000Y-103480000D01*
X123303400Y-100213400D02*
X123303400Y-101213400D01*
X124663400Y-101213400D02*
X124663400Y-100213400D01*
X126339800Y-101213400D02*
X126339800Y-100213400D01*
X124979800Y-100213400D02*
X124979800Y-101213400D01*
X121685600Y-108258800D02*
X121685600Y-107258800D01*
X120325600Y-107258800D02*
X120325600Y-108258800D01*
X120990600Y-114969200D02*
X119990600Y-114969200D01*
X119990600Y-116329200D02*
X120990600Y-116329200D01*
X119966600Y-114703600D02*
X120966600Y-114703600D01*
X120966600Y-113343600D02*
X119966600Y-113343600D01*
X120990600Y-116645600D02*
X119990600Y-116645600D01*
X119990600Y-118005600D02*
X120990600Y-118005600D01*
X133745000Y-116110400D02*
X133745000Y-115110400D01*
X132385000Y-115110400D02*
X132385000Y-116110400D01*
X135345200Y-116110400D02*
X135345200Y-115110400D01*
X133985200Y-115110400D02*
X133985200Y-116110400D01*
X132170200Y-116135800D02*
X132170200Y-115135800D01*
X130810200Y-115135800D02*
X130810200Y-116135800D01*
X120440000Y-102480000D02*
X120440000Y-101550000D01*
X120440000Y-99320000D02*
X120440000Y-100250000D01*
X120440000Y-99320000D02*
X122600000Y-99320000D01*
X120440000Y-102480000D02*
X121900000Y-102480000D01*
X131790000Y-109860000D02*
X131790000Y-109160000D01*
X130590000Y-109160000D02*
X130590000Y-109860000D01*
X127192600Y-102387600D02*
X126492600Y-102387600D01*
X126492600Y-103587600D02*
X127192600Y-103587600D01*
X129210000Y-109150000D02*
X129210000Y-109850000D01*
X130410000Y-109850000D02*
X130410000Y-109150000D01*
X127550000Y-109860000D02*
X127550000Y-109160000D01*
X126350000Y-109160000D02*
X126350000Y-109860000D01*
X130413800Y-115960400D02*
X130413800Y-115260400D01*
X129213800Y-115260400D02*
X129213800Y-115960400D01*
X137340000Y-115320000D02*
X137340000Y-116020000D01*
X138540000Y-116020000D02*
X138540000Y-115320000D01*
X127192600Y-103987800D02*
X126492600Y-103987800D01*
X126492600Y-105187800D02*
X127192600Y-105187800D01*
X129780000Y-102070000D02*
X131580000Y-102070000D01*
X131580000Y-105290000D02*
X129130000Y-105290000D01*
D13*
X132067381Y-112147143D02*
X131591190Y-111813809D01*
X132067381Y-111575714D02*
X131067381Y-111575714D01*
X131067381Y-111956667D01*
X131115000Y-112051905D01*
X131162619Y-112099524D01*
X131257857Y-112147143D01*
X131400714Y-112147143D01*
X131495952Y-112099524D01*
X131543571Y-112051905D01*
X131591190Y-111956667D01*
X131591190Y-111575714D01*
X131162619Y-112528095D02*
X131115000Y-112575714D01*
X131067381Y-112670952D01*
X131067381Y-112909048D01*
X131115000Y-113004286D01*
X131162619Y-113051905D01*
X131257857Y-113099524D01*
X131353095Y-113099524D01*
X131495952Y-113051905D01*
X132067381Y-112480476D01*
X132067381Y-113099524D01*
X131400714Y-113956667D02*
X132067381Y-113956667D01*
X131019762Y-113718571D02*
X131734048Y-113480476D01*
X131734048Y-114099524D01*
X142862381Y-111967143D02*
X142386190Y-111633809D01*
X142862381Y-111395714D02*
X141862381Y-111395714D01*
X141862381Y-111776667D01*
X141910000Y-111871905D01*
X141957619Y-111919524D01*
X142052857Y-111967143D01*
X142195714Y-111967143D01*
X142290952Y-111919524D01*
X142338571Y-111871905D01*
X142386190Y-111776667D01*
X142386190Y-111395714D01*
X141957619Y-112348095D02*
X141910000Y-112395714D01*
X141862381Y-112490952D01*
X141862381Y-112729048D01*
X141910000Y-112824286D01*
X141957619Y-112871905D01*
X142052857Y-112919524D01*
X142148095Y-112919524D01*
X142290952Y-112871905D01*
X142862381Y-112300476D01*
X142862381Y-112919524D01*
X141862381Y-113252857D02*
X141862381Y-113871905D01*
X142243333Y-113538571D01*
X142243333Y-113681429D01*
X142290952Y-113776667D01*
X142338571Y-113824286D01*
X142433810Y-113871905D01*
X142671905Y-113871905D01*
X142767143Y-113824286D01*
X142814762Y-113776667D01*
X142862381Y-113681429D01*
X142862381Y-113395714D01*
X142814762Y-113300476D01*
X142767143Y-113252857D01*
X137722381Y-112077143D02*
X137246190Y-111743809D01*
X137722381Y-111505714D02*
X136722381Y-111505714D01*
X136722381Y-111886667D01*
X136770000Y-111981905D01*
X136817619Y-112029524D01*
X136912857Y-112077143D01*
X137055714Y-112077143D01*
X137150952Y-112029524D01*
X137198571Y-111981905D01*
X137246190Y-111886667D01*
X137246190Y-111505714D01*
X136817619Y-112458095D02*
X136770000Y-112505714D01*
X136722381Y-112600952D01*
X136722381Y-112839048D01*
X136770000Y-112934286D01*
X136817619Y-112981905D01*
X136912857Y-113029524D01*
X137008095Y-113029524D01*
X137150952Y-112981905D01*
X137722381Y-112410476D01*
X137722381Y-113029524D01*
X136817619Y-113410476D02*
X136770000Y-113458095D01*
X136722381Y-113553333D01*
X136722381Y-113791429D01*
X136770000Y-113886667D01*
X136817619Y-113934286D01*
X136912857Y-113981905D01*
X137008095Y-113981905D01*
X137150952Y-113934286D01*
X137722381Y-113362857D01*
X137722381Y-113981905D01*
D11*
X148733333Y-96852381D02*
X148733333Y-97566667D01*
X148780953Y-97709524D01*
X148876191Y-97804762D01*
X149019048Y-97852381D01*
X149114286Y-97852381D01*
X147828571Y-97185714D02*
X147828571Y-97852381D01*
X148066667Y-96804762D02*
X148304762Y-97519048D01*
X147685714Y-97519048D01*
D13*
X137572381Y-102407143D02*
X137096190Y-102073809D01*
X137572381Y-101835714D02*
X136572381Y-101835714D01*
X136572381Y-102216667D01*
X136620000Y-102311905D01*
X136667619Y-102359524D01*
X136762857Y-102407143D01*
X136905714Y-102407143D01*
X137000952Y-102359524D01*
X137048571Y-102311905D01*
X137096190Y-102216667D01*
X137096190Y-101835714D01*
X137572381Y-103359524D02*
X137572381Y-102788095D01*
X137572381Y-103073809D02*
X136572381Y-103073809D01*
X136715238Y-102978571D01*
X136810476Y-102883333D01*
X136858095Y-102788095D01*
X137000952Y-103930952D02*
X136953333Y-103835714D01*
X136905714Y-103788095D01*
X136810476Y-103740476D01*
X136762857Y-103740476D01*
X136667619Y-103788095D01*
X136620000Y-103835714D01*
X136572381Y-103930952D01*
X136572381Y-104121429D01*
X136620000Y-104216667D01*
X136667619Y-104264286D01*
X136762857Y-104311905D01*
X136810476Y-104311905D01*
X136905714Y-104264286D01*
X136953333Y-104216667D01*
X137000952Y-104121429D01*
X137000952Y-103930952D01*
X137048571Y-103835714D01*
X137096190Y-103788095D01*
X137191429Y-103740476D01*
X137381905Y-103740476D01*
X137477143Y-103788095D01*
X137524762Y-103835714D01*
X137572381Y-103930952D01*
X137572381Y-104121429D01*
X137524762Y-104216667D01*
X137477143Y-104264286D01*
X137381905Y-104311905D01*
X137191429Y-104311905D01*
X137096190Y-104264286D01*
X137048571Y-104216667D01*
X137000952Y-104121429D01*
X136623981Y-108797143D02*
X136147790Y-108463809D01*
X136623981Y-108225714D02*
X135623981Y-108225714D01*
X135623981Y-108606667D01*
X135671600Y-108701905D01*
X135719219Y-108749524D01*
X135814457Y-108797143D01*
X135957314Y-108797143D01*
X136052552Y-108749524D01*
X136100171Y-108701905D01*
X136147790Y-108606667D01*
X136147790Y-108225714D01*
X136623981Y-109749524D02*
X136623981Y-109178095D01*
X136623981Y-109463809D02*
X135623981Y-109463809D01*
X135766838Y-109368571D01*
X135862076Y-109273333D01*
X135909695Y-109178095D01*
X135623981Y-110082857D02*
X135623981Y-110749524D01*
X136623981Y-110320952D01*
X138177143Y-115503334D02*
X138224762Y-115455715D01*
X138272381Y-115312858D01*
X138272381Y-115217620D01*
X138224762Y-115074762D01*
X138129524Y-114979524D01*
X138034286Y-114931905D01*
X137843810Y-114884286D01*
X137700952Y-114884286D01*
X137510476Y-114931905D01*
X137415238Y-114979524D01*
X137320000Y-115074762D01*
X137272381Y-115217620D01*
X137272381Y-115312858D01*
X137320000Y-115455715D01*
X137367619Y-115503334D01*
X137700952Y-116074762D02*
X137653333Y-115979524D01*
X137605714Y-115931905D01*
X137510476Y-115884286D01*
X137462857Y-115884286D01*
X137367619Y-115931905D01*
X137320000Y-115979524D01*
X137272381Y-116074762D01*
X137272381Y-116265239D01*
X137320000Y-116360477D01*
X137367619Y-116408096D01*
X137462857Y-116455715D01*
X137510476Y-116455715D01*
X137605714Y-116408096D01*
X137653333Y-116360477D01*
X137700952Y-116265239D01*
X137700952Y-116074762D01*
X137748571Y-115979524D01*
X137796190Y-115931905D01*
X137891429Y-115884286D01*
X138081905Y-115884286D01*
X138177143Y-115931905D01*
X138224762Y-115979524D01*
X138272381Y-116074762D01*
X138272381Y-116265239D01*
X138224762Y-116360477D01*
X138177143Y-116408096D01*
X138081905Y-116455715D01*
X137891429Y-116455715D01*
X137796190Y-116408096D01*
X137748571Y-116360477D01*
X137700952Y-116265239D01*
X140919343Y-109273334D02*
X140966962Y-109225715D01*
X141014581Y-109082858D01*
X141014581Y-108987620D01*
X140966962Y-108844762D01*
X140871724Y-108749524D01*
X140776486Y-108701905D01*
X140586010Y-108654286D01*
X140443152Y-108654286D01*
X140252676Y-108701905D01*
X140157438Y-108749524D01*
X140062200Y-108844762D01*
X140014581Y-108987620D01*
X140014581Y-109082858D01*
X140062200Y-109225715D01*
X140109819Y-109273334D01*
X140014581Y-110130477D02*
X140014581Y-109940000D01*
X140062200Y-109844762D01*
X140109819Y-109797143D01*
X140252676Y-109701905D01*
X140443152Y-109654286D01*
X140824105Y-109654286D01*
X140919343Y-109701905D01*
X140966962Y-109749524D01*
X141014581Y-109844762D01*
X141014581Y-110035239D01*
X140966962Y-110130477D01*
X140919343Y-110178096D01*
X140824105Y-110225715D01*
X140586010Y-110225715D01*
X140490771Y-110178096D01*
X140443152Y-110130477D01*
X140395533Y-110035239D01*
X140395533Y-109844762D01*
X140443152Y-109749524D01*
X140490771Y-109701905D01*
X140586010Y-109654286D01*
X137957143Y-102883334D02*
X138004762Y-102835715D01*
X138052381Y-102692858D01*
X138052381Y-102597620D01*
X138004762Y-102454762D01*
X137909524Y-102359524D01*
X137814286Y-102311905D01*
X137623810Y-102264286D01*
X137480952Y-102264286D01*
X137290476Y-102311905D01*
X137195238Y-102359524D01*
X137100000Y-102454762D01*
X137052381Y-102597620D01*
X137052381Y-102692858D01*
X137100000Y-102835715D01*
X137147619Y-102883334D01*
X137052381Y-103788096D02*
X137052381Y-103311905D01*
X137528571Y-103264286D01*
X137480952Y-103311905D01*
X137433333Y-103407143D01*
X137433333Y-103645239D01*
X137480952Y-103740477D01*
X137528571Y-103788096D01*
X137623810Y-103835715D01*
X137861905Y-103835715D01*
X137957143Y-103788096D01*
X138004762Y-103740477D01*
X138052381Y-103645239D01*
X138052381Y-103407143D01*
X138004762Y-103311905D01*
X137957143Y-103264286D01*
X131749943Y-109332734D02*
X131797562Y-109285115D01*
X131845181Y-109142258D01*
X131845181Y-109047020D01*
X131797562Y-108904162D01*
X131702324Y-108808924D01*
X131607086Y-108761305D01*
X131416610Y-108713686D01*
X131273752Y-108713686D01*
X131083276Y-108761305D01*
X130988038Y-108808924D01*
X130892800Y-108904162D01*
X130845181Y-109047020D01*
X130845181Y-109142258D01*
X130892800Y-109285115D01*
X130940419Y-109332734D01*
X131178514Y-110189877D02*
X131845181Y-110189877D01*
X130797562Y-109951781D02*
X131511848Y-109713686D01*
X131511848Y-110332734D01*
X129372381Y-115257143D02*
X128896190Y-114923809D01*
X129372381Y-114685714D02*
X128372381Y-114685714D01*
X128372381Y-115066667D01*
X128420000Y-115161905D01*
X128467619Y-115209524D01*
X128562857Y-115257143D01*
X128705714Y-115257143D01*
X128800952Y-115209524D01*
X128848571Y-115161905D01*
X128896190Y-115066667D01*
X128896190Y-114685714D01*
X129372381Y-116209524D02*
X129372381Y-115638095D01*
X129372381Y-115923809D02*
X128372381Y-115923809D01*
X128515238Y-115828571D01*
X128610476Y-115733333D01*
X128658095Y-115638095D01*
X128372381Y-117066667D02*
X128372381Y-116876190D01*
X128420000Y-116780952D01*
X128467619Y-116733333D01*
X128610476Y-116638095D01*
X128800952Y-116590476D01*
X129181905Y-116590476D01*
X129277143Y-116638095D01*
X129324762Y-116685714D01*
X129372381Y-116780952D01*
X129372381Y-116971429D01*
X129324762Y-117066667D01*
X129277143Y-117114286D01*
X129181905Y-117161905D01*
X128943810Y-117161905D01*
X128848571Y-117114286D01*
X128800952Y-117066667D01*
X128753333Y-116971429D01*
X128753333Y-116780952D01*
X128800952Y-116685714D01*
X128848571Y-116638095D01*
X128943810Y-116590476D01*
X143383293Y-115403293D02*
X142907102Y-115069959D01*
X143383293Y-114831864D02*
X142383293Y-114831864D01*
X142383293Y-115212817D01*
X142430912Y-115308055D01*
X142478531Y-115355674D01*
X142573769Y-115403293D01*
X142716626Y-115403293D01*
X142811864Y-115355674D01*
X142859483Y-115308055D01*
X142907102Y-115212817D01*
X142907102Y-114831864D01*
X143383293Y-116355674D02*
X143383293Y-115784245D01*
X143383293Y-116069959D02*
X142383293Y-116069959D01*
X142526150Y-115974721D01*
X142621388Y-115879483D01*
X142669007Y-115784245D01*
X142383293Y-116689007D02*
X142383293Y-117308055D01*
X142764245Y-116974721D01*
X142764245Y-117117579D01*
X142811864Y-117212817D01*
X142859483Y-117260436D01*
X142954722Y-117308055D01*
X143192817Y-117308055D01*
X143288055Y-117260436D01*
X143335674Y-117212817D01*
X143383293Y-117117579D01*
X143383293Y-116831864D01*
X143335674Y-116736626D01*
X143288055Y-116689007D01*
X144125981Y-115434143D02*
X143649790Y-115100809D01*
X144125981Y-114862714D02*
X143125981Y-114862714D01*
X143125981Y-115243667D01*
X143173600Y-115338905D01*
X143221219Y-115386524D01*
X143316457Y-115434143D01*
X143459314Y-115434143D01*
X143554552Y-115386524D01*
X143602171Y-115338905D01*
X143649790Y-115243667D01*
X143649790Y-114862714D01*
X144125981Y-116386524D02*
X144125981Y-115815095D01*
X144125981Y-116100809D02*
X143125981Y-116100809D01*
X143268838Y-116005571D01*
X143364076Y-115910333D01*
X143411695Y-115815095D01*
X143221219Y-116767476D02*
X143173600Y-116815095D01*
X143125981Y-116910333D01*
X143125981Y-117148429D01*
X143173600Y-117243667D01*
X143221219Y-117291286D01*
X143316457Y-117338905D01*
X143411695Y-117338905D01*
X143554552Y-117291286D01*
X144125981Y-116719857D01*
X144125981Y-117338905D01*
X125131905Y-117722381D02*
X125131905Y-118531905D01*
X125084286Y-118627143D01*
X125036667Y-118674762D01*
X124941429Y-118722381D01*
X124750952Y-118722381D01*
X124655714Y-118674762D01*
X124608095Y-118627143D01*
X124560476Y-118531905D01*
X124560476Y-117722381D01*
X123560476Y-118722381D02*
X124131905Y-118722381D01*
X123846191Y-118722381D02*
X123846191Y-117722381D01*
X123941429Y-117865238D01*
X124036667Y-117960476D01*
X124131905Y-118008095D01*
X136392381Y-102407143D02*
X135916190Y-102073809D01*
X136392381Y-101835714D02*
X135392381Y-101835714D01*
X135392381Y-102216667D01*
X135440000Y-102311905D01*
X135487619Y-102359524D01*
X135582857Y-102407143D01*
X135725714Y-102407143D01*
X135820952Y-102359524D01*
X135868571Y-102311905D01*
X135916190Y-102216667D01*
X135916190Y-101835714D01*
X135487619Y-102788095D02*
X135440000Y-102835714D01*
X135392381Y-102930952D01*
X135392381Y-103169048D01*
X135440000Y-103264286D01*
X135487619Y-103311905D01*
X135582857Y-103359524D01*
X135678095Y-103359524D01*
X135820952Y-103311905D01*
X136392381Y-102740476D01*
X136392381Y-103359524D01*
X136392381Y-104311905D02*
X136392381Y-103740476D01*
X136392381Y-104026190D02*
X135392381Y-104026190D01*
X135535238Y-103930952D01*
X135630476Y-103835714D01*
X135678095Y-103740476D01*
X135451181Y-108797143D02*
X134974990Y-108463809D01*
X135451181Y-108225714D02*
X134451181Y-108225714D01*
X134451181Y-108606667D01*
X134498800Y-108701905D01*
X134546419Y-108749524D01*
X134641657Y-108797143D01*
X134784514Y-108797143D01*
X134879752Y-108749524D01*
X134927371Y-108701905D01*
X134974990Y-108606667D01*
X134974990Y-108225714D01*
X134546419Y-109178095D02*
X134498800Y-109225714D01*
X134451181Y-109320952D01*
X134451181Y-109559048D01*
X134498800Y-109654286D01*
X134546419Y-109701905D01*
X134641657Y-109749524D01*
X134736895Y-109749524D01*
X134879752Y-109701905D01*
X135451181Y-109130476D01*
X135451181Y-109749524D01*
X134451181Y-110368571D02*
X134451181Y-110463810D01*
X134498800Y-110559048D01*
X134546419Y-110606667D01*
X134641657Y-110654286D01*
X134832133Y-110701905D01*
X135070229Y-110701905D01*
X135260705Y-110654286D01*
X135355943Y-110606667D01*
X135403562Y-110559048D01*
X135451181Y-110463810D01*
X135451181Y-110368571D01*
X135403562Y-110273333D01*
X135355943Y-110225714D01*
X135260705Y-110178095D01*
X135070229Y-110130476D01*
X134832133Y-110130476D01*
X134641657Y-110178095D01*
X134546419Y-110225714D01*
X134498800Y-110273333D01*
X134451181Y-110368571D01*
X140002181Y-108797143D02*
X139525990Y-108463809D01*
X140002181Y-108225714D02*
X139002181Y-108225714D01*
X139002181Y-108606667D01*
X139049800Y-108701905D01*
X139097419Y-108749524D01*
X139192657Y-108797143D01*
X139335514Y-108797143D01*
X139430752Y-108749524D01*
X139478371Y-108701905D01*
X139525990Y-108606667D01*
X139525990Y-108225714D01*
X140002181Y-109749524D02*
X140002181Y-109178095D01*
X140002181Y-109463809D02*
X139002181Y-109463809D01*
X139145038Y-109368571D01*
X139240276Y-109273333D01*
X139287895Y-109178095D01*
X140002181Y-110225714D02*
X140002181Y-110416190D01*
X139954562Y-110511429D01*
X139906943Y-110559048D01*
X139764086Y-110654286D01*
X139573610Y-110701905D01*
X139192657Y-110701905D01*
X139097419Y-110654286D01*
X139049800Y-110606667D01*
X139002181Y-110511429D01*
X139002181Y-110320952D01*
X139049800Y-110225714D01*
X139097419Y-110178095D01*
X139192657Y-110130476D01*
X139430752Y-110130476D01*
X139525990Y-110178095D01*
X139573610Y-110225714D01*
X139621229Y-110320952D01*
X139621229Y-110511429D01*
X139573610Y-110606667D01*
X139525990Y-110654286D01*
X139430752Y-110701905D01*
X139432381Y-108797143D02*
X138956190Y-108463809D01*
X139432381Y-108225714D02*
X138432381Y-108225714D01*
X138432381Y-108606667D01*
X138480000Y-108701905D01*
X138527619Y-108749524D01*
X138622857Y-108797143D01*
X138765714Y-108797143D01*
X138860952Y-108749524D01*
X138908571Y-108701905D01*
X138956190Y-108606667D01*
X138956190Y-108225714D01*
X139432381Y-109749524D02*
X139432381Y-109178095D01*
X139432381Y-109463809D02*
X138432381Y-109463809D01*
X138575238Y-109368571D01*
X138670476Y-109273333D01*
X138718095Y-109178095D01*
X138765714Y-110606667D02*
X139432381Y-110606667D01*
X138384762Y-110368571D02*
X139099048Y-110130476D01*
X139099048Y-110749524D01*
X126338581Y-100070543D02*
X125862390Y-99737209D01*
X126338581Y-99499114D02*
X125338581Y-99499114D01*
X125338581Y-99880067D01*
X125386200Y-99975305D01*
X125433819Y-100022924D01*
X125529057Y-100070543D01*
X125671914Y-100070543D01*
X125767152Y-100022924D01*
X125814771Y-99975305D01*
X125862390Y-99880067D01*
X125862390Y-99499114D01*
X126338581Y-101022924D02*
X126338581Y-100451495D01*
X126338581Y-100737209D02*
X125338581Y-100737209D01*
X125481438Y-100641971D01*
X125576676Y-100546733D01*
X125624295Y-100451495D01*
X126338581Y-101975305D02*
X126338581Y-101403876D01*
X126338581Y-101689590D02*
X125338581Y-101689590D01*
X125481438Y-101594352D01*
X125576676Y-101499114D01*
X125624295Y-101403876D01*
X132872381Y-102337143D02*
X132396190Y-102003809D01*
X132872381Y-101765714D02*
X131872381Y-101765714D01*
X131872381Y-102146667D01*
X131920000Y-102241905D01*
X131967619Y-102289524D01*
X132062857Y-102337143D01*
X132205714Y-102337143D01*
X132300952Y-102289524D01*
X132348571Y-102241905D01*
X132396190Y-102146667D01*
X132396190Y-101765714D01*
X132872381Y-103289524D02*
X132872381Y-102718095D01*
X132872381Y-103003809D02*
X131872381Y-103003809D01*
X132015238Y-102908571D01*
X132110476Y-102813333D01*
X132158095Y-102718095D01*
X131872381Y-103908571D02*
X131872381Y-104003810D01*
X131920000Y-104099048D01*
X131967619Y-104146667D01*
X132062857Y-104194286D01*
X132253333Y-104241905D01*
X132491429Y-104241905D01*
X132681905Y-104194286D01*
X132777143Y-104146667D01*
X132824762Y-104099048D01*
X132872381Y-104003810D01*
X132872381Y-103908571D01*
X132824762Y-103813333D01*
X132777143Y-103765714D01*
X132681905Y-103718095D01*
X132491429Y-103670476D01*
X132253333Y-103670476D01*
X132062857Y-103718095D01*
X131967619Y-103765714D01*
X131920000Y-103813333D01*
X131872381Y-103908571D01*
X125885781Y-100546734D02*
X125409590Y-100213400D01*
X125885781Y-99975305D02*
X124885781Y-99975305D01*
X124885781Y-100356258D01*
X124933400Y-100451496D01*
X124981019Y-100499115D01*
X125076257Y-100546734D01*
X125219114Y-100546734D01*
X125314352Y-100499115D01*
X125361971Y-100451496D01*
X125409590Y-100356258D01*
X125409590Y-99975305D01*
X125885781Y-101022924D02*
X125885781Y-101213400D01*
X125838162Y-101308639D01*
X125790543Y-101356258D01*
X125647686Y-101451496D01*
X125457210Y-101499115D01*
X125076257Y-101499115D01*
X124981019Y-101451496D01*
X124933400Y-101403877D01*
X124885781Y-101308639D01*
X124885781Y-101118162D01*
X124933400Y-101022924D01*
X124981019Y-100975305D01*
X125076257Y-100927686D01*
X125314352Y-100927686D01*
X125409590Y-100975305D01*
X125457210Y-101022924D01*
X125504829Y-101118162D01*
X125504829Y-101308639D01*
X125457210Y-101403877D01*
X125409590Y-101451496D01*
X125314352Y-101499115D01*
X124662181Y-100546734D02*
X124185990Y-100213400D01*
X124662181Y-99975305D02*
X123662181Y-99975305D01*
X123662181Y-100356258D01*
X123709800Y-100451496D01*
X123757419Y-100499115D01*
X123852657Y-100546734D01*
X123995514Y-100546734D01*
X124090752Y-100499115D01*
X124138371Y-100451496D01*
X124185990Y-100356258D01*
X124185990Y-99975305D01*
X124090752Y-101118162D02*
X124043133Y-101022924D01*
X123995514Y-100975305D01*
X123900276Y-100927686D01*
X123852657Y-100927686D01*
X123757419Y-100975305D01*
X123709800Y-101022924D01*
X123662181Y-101118162D01*
X123662181Y-101308639D01*
X123709800Y-101403877D01*
X123757419Y-101451496D01*
X123852657Y-101499115D01*
X123900276Y-101499115D01*
X123995514Y-101451496D01*
X124043133Y-101403877D01*
X124090752Y-101308639D01*
X124090752Y-101118162D01*
X124138371Y-101022924D01*
X124185990Y-100975305D01*
X124281229Y-100927686D01*
X124471705Y-100927686D01*
X124566943Y-100975305D01*
X124614562Y-101022924D01*
X124662181Y-101118162D01*
X124662181Y-101308639D01*
X124614562Y-101403877D01*
X124566943Y-101451496D01*
X124471705Y-101499115D01*
X124281229Y-101499115D01*
X124185990Y-101451496D01*
X124138371Y-101403877D01*
X124090752Y-101308639D01*
X120007981Y-107592134D02*
X119531790Y-107258800D01*
X120007981Y-107020705D02*
X119007981Y-107020705D01*
X119007981Y-107401658D01*
X119055600Y-107496896D01*
X119103219Y-107544515D01*
X119198457Y-107592134D01*
X119341314Y-107592134D01*
X119436552Y-107544515D01*
X119484171Y-107496896D01*
X119531790Y-107401658D01*
X119531790Y-107020705D01*
X119007981Y-107925467D02*
X119007981Y-108592134D01*
X120007981Y-108163562D01*
X120657266Y-117551581D02*
X120990600Y-117075390D01*
X121228695Y-117551581D02*
X121228695Y-116551581D01*
X120847742Y-116551581D01*
X120752504Y-116599200D01*
X120704885Y-116646819D01*
X120657266Y-116742057D01*
X120657266Y-116884914D01*
X120704885Y-116980152D01*
X120752504Y-117027771D01*
X120847742Y-117075390D01*
X121228695Y-117075390D01*
X119800123Y-116551581D02*
X119990600Y-116551581D01*
X120085838Y-116599200D01*
X120133457Y-116646819D01*
X120228695Y-116789676D01*
X120276314Y-116980152D01*
X120276314Y-117361105D01*
X120228695Y-117456343D01*
X120181076Y-117503962D01*
X120085838Y-117551581D01*
X119895361Y-117551581D01*
X119800123Y-117503962D01*
X119752504Y-117456343D01*
X119704885Y-117361105D01*
X119704885Y-117123010D01*
X119752504Y-117027771D01*
X119800123Y-116980152D01*
X119895361Y-116932533D01*
X120085838Y-116932533D01*
X120181076Y-116980152D01*
X120228695Y-117027771D01*
X120276314Y-117123010D01*
X120633266Y-113025981D02*
X120966600Y-112549790D01*
X121204695Y-113025981D02*
X121204695Y-112025981D01*
X120823742Y-112025981D01*
X120728504Y-112073600D01*
X120680885Y-112121219D01*
X120633266Y-112216457D01*
X120633266Y-112359314D01*
X120680885Y-112454552D01*
X120728504Y-112502171D01*
X120823742Y-112549790D01*
X121204695Y-112549790D01*
X119728504Y-112025981D02*
X120204695Y-112025981D01*
X120252314Y-112502171D01*
X120204695Y-112454552D01*
X120109457Y-112406933D01*
X119871361Y-112406933D01*
X119776123Y-112454552D01*
X119728504Y-112502171D01*
X119680885Y-112597410D01*
X119680885Y-112835505D01*
X119728504Y-112930743D01*
X119776123Y-112978362D01*
X119871361Y-113025981D01*
X120109457Y-113025981D01*
X120204695Y-112978362D01*
X120252314Y-112930743D01*
X120657266Y-119227981D02*
X120990600Y-118751790D01*
X121228695Y-119227981D02*
X121228695Y-118227981D01*
X120847742Y-118227981D01*
X120752504Y-118275600D01*
X120704885Y-118323219D01*
X120657266Y-118418457D01*
X120657266Y-118561314D01*
X120704885Y-118656552D01*
X120752504Y-118704171D01*
X120847742Y-118751790D01*
X121228695Y-118751790D01*
X119800123Y-118561314D02*
X119800123Y-119227981D01*
X120038219Y-118180362D02*
X120276314Y-118894648D01*
X119657266Y-118894648D01*
X132067381Y-115443734D02*
X131591190Y-115110400D01*
X132067381Y-114872305D02*
X131067381Y-114872305D01*
X131067381Y-115253258D01*
X131115000Y-115348496D01*
X131162619Y-115396115D01*
X131257857Y-115443734D01*
X131400714Y-115443734D01*
X131495952Y-115396115D01*
X131543571Y-115348496D01*
X131591190Y-115253258D01*
X131591190Y-114872305D01*
X131067381Y-115777067D02*
X131067381Y-116396115D01*
X131448333Y-116062781D01*
X131448333Y-116205639D01*
X131495952Y-116300877D01*
X131543571Y-116348496D01*
X131638810Y-116396115D01*
X131876905Y-116396115D01*
X131972143Y-116348496D01*
X132019762Y-116300877D01*
X132067381Y-116205639D01*
X132067381Y-115919924D01*
X132019762Y-115824686D01*
X131972143Y-115777067D01*
X133667581Y-115443734D02*
X133191390Y-115110400D01*
X133667581Y-114872305D02*
X132667581Y-114872305D01*
X132667581Y-115253258D01*
X132715200Y-115348496D01*
X132762819Y-115396115D01*
X132858057Y-115443734D01*
X133000914Y-115443734D01*
X133096152Y-115396115D01*
X133143771Y-115348496D01*
X133191390Y-115253258D01*
X133191390Y-114872305D01*
X132762819Y-115824686D02*
X132715200Y-115872305D01*
X132667581Y-115967543D01*
X132667581Y-116205639D01*
X132715200Y-116300877D01*
X132762819Y-116348496D01*
X132858057Y-116396115D01*
X132953295Y-116396115D01*
X133096152Y-116348496D01*
X133667581Y-115777067D01*
X133667581Y-116396115D01*
X130492581Y-115469134D02*
X130016390Y-115135800D01*
X130492581Y-114897705D02*
X129492581Y-114897705D01*
X129492581Y-115278658D01*
X129540200Y-115373896D01*
X129587819Y-115421515D01*
X129683057Y-115469134D01*
X129825914Y-115469134D01*
X129921152Y-115421515D01*
X129968771Y-115373896D01*
X130016390Y-115278658D01*
X130016390Y-114897705D01*
X130492581Y-116421515D02*
X130492581Y-115850086D01*
X130492581Y-116135800D02*
X129492581Y-116135800D01*
X129635438Y-116040562D01*
X129730676Y-115945324D01*
X129778295Y-115850086D01*
X121295238Y-98947619D02*
X121390476Y-98900000D01*
X121485714Y-98804762D01*
X121628571Y-98661905D01*
X121723810Y-98614286D01*
X121819048Y-98614286D01*
X121771429Y-98852381D02*
X121866667Y-98804762D01*
X121961905Y-98709524D01*
X122009524Y-98519048D01*
X122009524Y-98185714D01*
X121961905Y-97995238D01*
X121866667Y-97900000D01*
X121771429Y-97852381D01*
X121580952Y-97852381D01*
X121485714Y-97900000D01*
X121390476Y-97995238D01*
X121342857Y-98185714D01*
X121342857Y-98519048D01*
X121390476Y-98709524D01*
X121485714Y-98804762D01*
X121580952Y-98852381D01*
X121771429Y-98852381D01*
X120390476Y-98852381D02*
X120961905Y-98852381D01*
X120676191Y-98852381D02*
X120676191Y-97852381D01*
X120771429Y-97995238D01*
X120866667Y-98090476D01*
X120961905Y-98138095D01*
X130047143Y-108867143D02*
X130094762Y-108819524D01*
X130142381Y-108676667D01*
X130142381Y-108581429D01*
X130094762Y-108438571D01*
X129999524Y-108343333D01*
X129904286Y-108295714D01*
X129713810Y-108248095D01*
X129570952Y-108248095D01*
X129380476Y-108295714D01*
X129285238Y-108343333D01*
X129190000Y-108438571D01*
X129142381Y-108581429D01*
X129142381Y-108676667D01*
X129190000Y-108819524D01*
X129237619Y-108867143D01*
X130142381Y-109819524D02*
X130142381Y-109248095D01*
X130142381Y-109533809D02*
X129142381Y-109533809D01*
X129285238Y-109438571D01*
X129380476Y-109343333D01*
X129428095Y-109248095D01*
X130142381Y-110771905D02*
X130142381Y-110200476D01*
X130142381Y-110486190D02*
X129142381Y-110486190D01*
X129285238Y-110390952D01*
X129380476Y-110295714D01*
X129428095Y-110200476D01*
X127009266Y-104844743D02*
X127056885Y-104892362D01*
X127199742Y-104939981D01*
X127294980Y-104939981D01*
X127437838Y-104892362D01*
X127533076Y-104797124D01*
X127580695Y-104701886D01*
X127628314Y-104511410D01*
X127628314Y-104368552D01*
X127580695Y-104178076D01*
X127533076Y-104082838D01*
X127437838Y-103987600D01*
X127294980Y-103939981D01*
X127199742Y-103939981D01*
X127056885Y-103987600D01*
X127009266Y-104035219D01*
X126533076Y-104939981D02*
X126342600Y-104939981D01*
X126247361Y-104892362D01*
X126199742Y-104844743D01*
X126104504Y-104701886D01*
X126056885Y-104511410D01*
X126056885Y-104130457D01*
X126104504Y-104035219D01*
X126152123Y-103987600D01*
X126247361Y-103939981D01*
X126437838Y-103939981D01*
X126533076Y-103987600D01*
X126580695Y-104035219D01*
X126628314Y-104130457D01*
X126628314Y-104368552D01*
X126580695Y-104463790D01*
X126533076Y-104511410D01*
X126437838Y-104559029D01*
X126247361Y-104559029D01*
X126152123Y-104511410D01*
X126104504Y-104463790D01*
X126056885Y-104368552D01*
X131667143Y-109333334D02*
X131714762Y-109285715D01*
X131762381Y-109142858D01*
X131762381Y-109047620D01*
X131714762Y-108904762D01*
X131619524Y-108809524D01*
X131524286Y-108761905D01*
X131333810Y-108714286D01*
X131190952Y-108714286D01*
X131000476Y-108761905D01*
X130905238Y-108809524D01*
X130810000Y-108904762D01*
X130762381Y-109047620D01*
X130762381Y-109142858D01*
X130810000Y-109285715D01*
X130857619Y-109333334D01*
X130762381Y-109666667D02*
X130762381Y-110285715D01*
X131143333Y-109952381D01*
X131143333Y-110095239D01*
X131190952Y-110190477D01*
X131238571Y-110238096D01*
X131333810Y-110285715D01*
X131571905Y-110285715D01*
X131667143Y-110238096D01*
X131714762Y-110190477D01*
X131762381Y-110095239D01*
X131762381Y-109809524D01*
X131714762Y-109714286D01*
X131667143Y-109666667D01*
X125807143Y-109343334D02*
X125854762Y-109295715D01*
X125902381Y-109152858D01*
X125902381Y-109057620D01*
X125854762Y-108914762D01*
X125759524Y-108819524D01*
X125664286Y-108771905D01*
X125473810Y-108724286D01*
X125330952Y-108724286D01*
X125140476Y-108771905D01*
X125045238Y-108819524D01*
X124950000Y-108914762D01*
X124902381Y-109057620D01*
X124902381Y-109152858D01*
X124950000Y-109295715D01*
X124997619Y-109343334D01*
X124997619Y-109724286D02*
X124950000Y-109771905D01*
X124902381Y-109867143D01*
X124902381Y-110105239D01*
X124950000Y-110200477D01*
X124997619Y-110248096D01*
X125092857Y-110295715D01*
X125188095Y-110295715D01*
X125330952Y-110248096D01*
X125902381Y-109676667D01*
X125902381Y-110295715D01*
X128670943Y-115443734D02*
X128718562Y-115396115D01*
X128766181Y-115253258D01*
X128766181Y-115158020D01*
X128718562Y-115015162D01*
X128623324Y-114919924D01*
X128528086Y-114872305D01*
X128337610Y-114824686D01*
X128194752Y-114824686D01*
X128004276Y-114872305D01*
X127909038Y-114919924D01*
X127813800Y-115015162D01*
X127766181Y-115158020D01*
X127766181Y-115253258D01*
X127813800Y-115396115D01*
X127861419Y-115443734D01*
X128766181Y-116396115D02*
X128766181Y-115824686D01*
X128766181Y-116110400D02*
X127766181Y-116110400D01*
X127909038Y-116015162D01*
X128004276Y-115919924D01*
X128051895Y-115824686D01*
X139797143Y-115027143D02*
X139844762Y-114979524D01*
X139892381Y-114836667D01*
X139892381Y-114741429D01*
X139844762Y-114598571D01*
X139749524Y-114503333D01*
X139654286Y-114455714D01*
X139463810Y-114408095D01*
X139320952Y-114408095D01*
X139130476Y-114455714D01*
X139035238Y-114503333D01*
X138940000Y-114598571D01*
X138892381Y-114741429D01*
X138892381Y-114836667D01*
X138940000Y-114979524D01*
X138987619Y-115027143D01*
X139892381Y-115979524D02*
X139892381Y-115408095D01*
X139892381Y-115693809D02*
X138892381Y-115693809D01*
X139035238Y-115598571D01*
X139130476Y-115503333D01*
X139178095Y-115408095D01*
X138987619Y-116360476D02*
X138940000Y-116408095D01*
X138892381Y-116503333D01*
X138892381Y-116741429D01*
X138940000Y-116836667D01*
X138987619Y-116884286D01*
X139082857Y-116931905D01*
X139178095Y-116931905D01*
X139320952Y-116884286D01*
X139892381Y-116312857D01*
X139892381Y-116931905D01*
X127485457Y-106444943D02*
X127533076Y-106492562D01*
X127675933Y-106540181D01*
X127771171Y-106540181D01*
X127914029Y-106492562D01*
X128009267Y-106397324D01*
X128056886Y-106302086D01*
X128104505Y-106111610D01*
X128104505Y-105968752D01*
X128056886Y-105778276D01*
X128009267Y-105683038D01*
X127914029Y-105587800D01*
X127771171Y-105540181D01*
X127675933Y-105540181D01*
X127533076Y-105587800D01*
X127485457Y-105635419D01*
X126533076Y-106540181D02*
X127104505Y-106540181D01*
X126818791Y-106540181D02*
X126818791Y-105540181D01*
X126914029Y-105683038D01*
X127009267Y-105778276D01*
X127104505Y-105825895D01*
X125914029Y-105540181D02*
X125818790Y-105540181D01*
X125723552Y-105587800D01*
X125675933Y-105635419D01*
X125628314Y-105730657D01*
X125580695Y-105921133D01*
X125580695Y-106159229D01*
X125628314Y-106349705D01*
X125675933Y-106444943D01*
X125723552Y-106492562D01*
X125818790Y-106540181D01*
X125914029Y-106540181D01*
X126009267Y-106492562D01*
X126056886Y-106444943D01*
X126104505Y-106349705D01*
X126152124Y-106159229D01*
X126152124Y-105921133D01*
X126104505Y-105730657D01*
X126056886Y-105635419D01*
X126009267Y-105587800D01*
X125914029Y-105540181D01*
X131441905Y-106032381D02*
X131441905Y-106841905D01*
X131394286Y-106937143D01*
X131346667Y-106984762D01*
X131251429Y-107032381D01*
X131060952Y-107032381D01*
X130965714Y-106984762D01*
X130918095Y-106937143D01*
X130870476Y-106841905D01*
X130870476Y-106032381D01*
X130489524Y-106032381D02*
X129870476Y-106032381D01*
X130203810Y-106413333D01*
X130060952Y-106413333D01*
X129965714Y-106460952D01*
X129918095Y-106508571D01*
X129870476Y-106603810D01*
X129870476Y-106841905D01*
X129918095Y-106937143D01*
X129965714Y-106984762D01*
X130060952Y-107032381D01*
X130346667Y-107032381D01*
X130441905Y-106984762D01*
X130489524Y-106937143D01*
M02*
