G04 #@! TF.FileFunction,Paste,Bot*
%FSLAX46Y46*%
G04 Gerber Fmt 4.6, Leading zero omitted, Abs format (unit mm)*
G04 Created by KiCad (PCBNEW 4.0.7) date 10/12/17 20:38:22*
%MOMM*%
%LPD*%
G01*
G04 APERTURE LIST*
%ADD10C,0.100000*%
%ADD11R,0.900000X1.200000*%
%ADD12R,0.750000X0.800000*%
%ADD13R,0.800000X0.750000*%
%ADD14R,0.900000X0.800000*%
%ADD15R,1.200000X0.900000*%
%ADD16R,1.060000X0.650000*%
G04 APERTURE END LIST*
D10*
D11*
X153771600Y-106162200D03*
X153771600Y-103962200D03*
D12*
X161290000Y-105689400D03*
X161290000Y-104189400D03*
X147320000Y-103237600D03*
X147320000Y-104737600D03*
X144526000Y-104737600D03*
X144526000Y-103237600D03*
X151917400Y-104063800D03*
X151917400Y-105563800D03*
X148945600Y-104737600D03*
X148945600Y-103237600D03*
D13*
X144499200Y-99872800D03*
X145999200Y-99872800D03*
X145999200Y-98247200D03*
X144499200Y-98247200D03*
D12*
X154279600Y-108585000D03*
X154279600Y-110085000D03*
X161366200Y-100978400D03*
X161366200Y-99478400D03*
X157200600Y-99441000D03*
X157200600Y-100941000D03*
X147523200Y-110085000D03*
X147523200Y-108585000D03*
D14*
X139598400Y-94188200D03*
X139598400Y-96088200D03*
X137598400Y-95138200D03*
D11*
X164541200Y-104612800D03*
X164541200Y-102412800D03*
X164515800Y-98231600D03*
X164515800Y-100431600D03*
X164541200Y-106502200D03*
X164541200Y-108702200D03*
X136601200Y-103647600D03*
X136601200Y-101447600D03*
D15*
X139852400Y-110109000D03*
X137652400Y-110109000D03*
X139928600Y-112115600D03*
X137728600Y-112115600D03*
X139750800Y-108204000D03*
X137550800Y-108204000D03*
D11*
X143637000Y-94208600D03*
X143637000Y-96408600D03*
X145440400Y-96408600D03*
X145440400Y-94208600D03*
X159435800Y-103936800D03*
X159435800Y-106136800D03*
X157581600Y-106162200D03*
X157581600Y-103962200D03*
X155676600Y-103936800D03*
X155676600Y-106136800D03*
D15*
X151978000Y-97688400D03*
X154178000Y-97688400D03*
D11*
X155498800Y-99618800D03*
X155498800Y-101818800D03*
X153822400Y-101793400D03*
X153822400Y-99593400D03*
X159283400Y-99636400D03*
X159283400Y-101836400D03*
X141681200Y-96408600D03*
X141681200Y-94208600D03*
X150850600Y-108788200D03*
X150850600Y-110988200D03*
X152552400Y-108737400D03*
X152552400Y-110937400D03*
X149148800Y-108762800D03*
X149148800Y-110962800D03*
D16*
X147761600Y-99944000D03*
X147761600Y-98994000D03*
X147761600Y-98044000D03*
X149961600Y-98044000D03*
X149961600Y-99944000D03*
X142595600Y-111186000D03*
X142595600Y-110236000D03*
X142595600Y-109286000D03*
X144795600Y-109286000D03*
X144795600Y-111186000D03*
X144795600Y-110236000D03*
M02*
