G04 #@! TF.FileFunction,Legend,Bot*
%FSLAX46Y46*%
G04 Gerber Fmt 4.6, Leading zero omitted, Abs format (unit mm)*
G04 Created by KiCad (PCBNEW 4.0.7) date 10/12/17 20:38:22*
%MOMM*%
%LPD*%
G01*
G04 APERTURE LIST*
%ADD10C,0.100000*%
%ADD11C,0.120000*%
%ADD12C,0.500000*%
%ADD13C,0.150000*%
G04 APERTURE END LIST*
D10*
D11*
X153091600Y-104562200D02*
X153091600Y-105562200D01*
X154451600Y-105562200D02*
X154451600Y-104562200D01*
X161890000Y-105289400D02*
X161890000Y-104589400D01*
X160690000Y-104589400D02*
X160690000Y-105289400D01*
X146720000Y-103637600D02*
X146720000Y-104337600D01*
X147920000Y-104337600D02*
X147920000Y-103637600D01*
X145126000Y-104337600D02*
X145126000Y-103637600D01*
X143926000Y-103637600D02*
X143926000Y-104337600D01*
X151317400Y-104463800D02*
X151317400Y-105163800D01*
X152517400Y-105163800D02*
X152517400Y-104463800D01*
X149545600Y-104337600D02*
X149545600Y-103637600D01*
X148345600Y-103637600D02*
X148345600Y-104337600D01*
X144899200Y-100472800D02*
X145599200Y-100472800D01*
X145599200Y-99272800D02*
X144899200Y-99272800D01*
X145599200Y-97647200D02*
X144899200Y-97647200D01*
X144899200Y-98847200D02*
X145599200Y-98847200D01*
X153679600Y-108985000D02*
X153679600Y-109685000D01*
X154879600Y-109685000D02*
X154879600Y-108985000D01*
X161966200Y-100578400D02*
X161966200Y-99878400D01*
X160766200Y-99878400D02*
X160766200Y-100578400D01*
X156600600Y-99841000D02*
X156600600Y-100541000D01*
X157800600Y-100541000D02*
X157800600Y-99841000D01*
X148123200Y-109685000D02*
X148123200Y-108985000D01*
X146923200Y-108985000D02*
X146923200Y-109685000D01*
X137838400Y-96718200D02*
X137838400Y-95788200D01*
X137838400Y-93558200D02*
X137838400Y-94488200D01*
X137838400Y-93558200D02*
X139998400Y-93558200D01*
X137838400Y-96718200D02*
X139298400Y-96718200D01*
X163861200Y-103012800D02*
X163861200Y-104012800D01*
X165221200Y-104012800D02*
X165221200Y-103012800D01*
X165195800Y-99831600D02*
X165195800Y-98831600D01*
X163835800Y-98831600D02*
X163835800Y-99831600D01*
X165221200Y-108102200D02*
X165221200Y-107102200D01*
X163861200Y-107102200D02*
X163861200Y-108102200D01*
X135921200Y-102047600D02*
X135921200Y-103047600D01*
X137281200Y-103047600D02*
X137281200Y-102047600D01*
X138252400Y-110789000D02*
X139252400Y-110789000D01*
X139252400Y-109429000D02*
X138252400Y-109429000D01*
X138328600Y-112795600D02*
X139328600Y-112795600D01*
X139328600Y-111435600D02*
X138328600Y-111435600D01*
X138150800Y-108884000D02*
X139150800Y-108884000D01*
X139150800Y-107524000D02*
X138150800Y-107524000D01*
X144317000Y-95808600D02*
X144317000Y-94808600D01*
X142957000Y-94808600D02*
X142957000Y-95808600D01*
X144760400Y-94808600D02*
X144760400Y-95808600D01*
X146120400Y-95808600D02*
X146120400Y-94808600D01*
X160115800Y-105536800D02*
X160115800Y-104536800D01*
X158755800Y-104536800D02*
X158755800Y-105536800D01*
X156901600Y-104562200D02*
X156901600Y-105562200D01*
X158261600Y-105562200D02*
X158261600Y-104562200D01*
X156356600Y-105536800D02*
X156356600Y-104536800D01*
X154996600Y-104536800D02*
X154996600Y-105536800D01*
X153578000Y-97008400D02*
X152578000Y-97008400D01*
X152578000Y-98368400D02*
X153578000Y-98368400D01*
X156178800Y-101218800D02*
X156178800Y-100218800D01*
X154818800Y-100218800D02*
X154818800Y-101218800D01*
X153142400Y-100193400D02*
X153142400Y-101193400D01*
X154502400Y-101193400D02*
X154502400Y-100193400D01*
X159963400Y-101236400D02*
X159963400Y-100236400D01*
X158603400Y-100236400D02*
X158603400Y-101236400D01*
X141001200Y-94808600D02*
X141001200Y-95808600D01*
X142361200Y-95808600D02*
X142361200Y-94808600D01*
X151530600Y-110388200D02*
X151530600Y-109388200D01*
X150170600Y-109388200D02*
X150170600Y-110388200D01*
X153232400Y-110337400D02*
X153232400Y-109337400D01*
X151872400Y-109337400D02*
X151872400Y-110337400D01*
X149828800Y-110362800D02*
X149828800Y-109362800D01*
X148468800Y-109362800D02*
X148468800Y-110362800D01*
X147961600Y-97384000D02*
X149761600Y-97384000D01*
X149761600Y-100604000D02*
X147311600Y-100604000D01*
X142795600Y-108626000D02*
X144595600Y-108626000D01*
X144595600Y-111846000D02*
X142145600Y-111846000D01*
D12*
X166626995Y-93697060D02*
G75*
G03X166626995Y-93697060I-218455J0D01*
G01*
D13*
X154061905Y-107405714D02*
X153680952Y-107139047D01*
X154061905Y-106948571D02*
X153261905Y-106948571D01*
X153261905Y-107253333D01*
X153300000Y-107329524D01*
X153338095Y-107367619D01*
X153414286Y-107405714D01*
X153528571Y-107405714D01*
X153604762Y-107367619D01*
X153642857Y-107329524D01*
X153680952Y-107253333D01*
X153680952Y-106948571D01*
X154061905Y-108167619D02*
X154061905Y-107710476D01*
X154061905Y-107939047D02*
X153261905Y-107939047D01*
X153376190Y-107862857D01*
X153452381Y-107786666D01*
X153490476Y-107710476D01*
X153261905Y-108434286D02*
X153261905Y-108967619D01*
X154061905Y-108624762D01*
X161615714Y-107006667D02*
X161653810Y-106968572D01*
X161691905Y-106854286D01*
X161691905Y-106778096D01*
X161653810Y-106663810D01*
X161577619Y-106587619D01*
X161501429Y-106549524D01*
X161349048Y-106511429D01*
X161234762Y-106511429D01*
X161082381Y-106549524D01*
X161006190Y-106587619D01*
X160930000Y-106663810D01*
X160891905Y-106778096D01*
X160891905Y-106854286D01*
X160930000Y-106968572D01*
X160968095Y-107006667D01*
X161234762Y-107463810D02*
X161196667Y-107387619D01*
X161158571Y-107349524D01*
X161082381Y-107311429D01*
X161044286Y-107311429D01*
X160968095Y-107349524D01*
X160930000Y-107387619D01*
X160891905Y-107463810D01*
X160891905Y-107616191D01*
X160930000Y-107692381D01*
X160968095Y-107730477D01*
X161044286Y-107768572D01*
X161082381Y-107768572D01*
X161158571Y-107730477D01*
X161196667Y-107692381D01*
X161234762Y-107616191D01*
X161234762Y-107463810D01*
X161272857Y-107387619D01*
X161310952Y-107349524D01*
X161387143Y-107311429D01*
X161539524Y-107311429D01*
X161615714Y-107349524D01*
X161653810Y-107387619D01*
X161691905Y-107463810D01*
X161691905Y-107616191D01*
X161653810Y-107692381D01*
X161615714Y-107730477D01*
X161539524Y-107768572D01*
X161387143Y-107768572D01*
X161310952Y-107730477D01*
X161272857Y-107692381D01*
X161234762Y-107616191D01*
X146645714Y-103896667D02*
X146683810Y-103858572D01*
X146721905Y-103744286D01*
X146721905Y-103668096D01*
X146683810Y-103553810D01*
X146607619Y-103477619D01*
X146531429Y-103439524D01*
X146379048Y-103401429D01*
X146264762Y-103401429D01*
X146112381Y-103439524D01*
X146036190Y-103477619D01*
X145960000Y-103553810D01*
X145921905Y-103668096D01*
X145921905Y-103744286D01*
X145960000Y-103858572D01*
X145998095Y-103896667D01*
X145921905Y-104163334D02*
X145921905Y-104658572D01*
X146226667Y-104391905D01*
X146226667Y-104506191D01*
X146264762Y-104582381D01*
X146302857Y-104620477D01*
X146379048Y-104658572D01*
X146569524Y-104658572D01*
X146645714Y-104620477D01*
X146683810Y-104582381D01*
X146721905Y-104506191D01*
X146721905Y-104277619D01*
X146683810Y-104201429D01*
X146645714Y-104163334D01*
X143405714Y-103816667D02*
X143443810Y-103778572D01*
X143481905Y-103664286D01*
X143481905Y-103588096D01*
X143443810Y-103473810D01*
X143367619Y-103397619D01*
X143291429Y-103359524D01*
X143139048Y-103321429D01*
X143024762Y-103321429D01*
X142872381Y-103359524D01*
X142796190Y-103397619D01*
X142720000Y-103473810D01*
X142681905Y-103588096D01*
X142681905Y-103664286D01*
X142720000Y-103778572D01*
X142758095Y-103816667D01*
X142758095Y-104121429D02*
X142720000Y-104159524D01*
X142681905Y-104235715D01*
X142681905Y-104426191D01*
X142720000Y-104502381D01*
X142758095Y-104540477D01*
X142834286Y-104578572D01*
X142910476Y-104578572D01*
X143024762Y-104540477D01*
X143481905Y-104083334D01*
X143481905Y-104578572D01*
X150915714Y-104766667D02*
X150953810Y-104728572D01*
X150991905Y-104614286D01*
X150991905Y-104538096D01*
X150953810Y-104423810D01*
X150877619Y-104347619D01*
X150801429Y-104309524D01*
X150649048Y-104271429D01*
X150534762Y-104271429D01*
X150382381Y-104309524D01*
X150306190Y-104347619D01*
X150230000Y-104423810D01*
X150191905Y-104538096D01*
X150191905Y-104614286D01*
X150230000Y-104728572D01*
X150268095Y-104766667D01*
X150191905Y-105452381D02*
X150191905Y-105300000D01*
X150230000Y-105223810D01*
X150268095Y-105185715D01*
X150382381Y-105109524D01*
X150534762Y-105071429D01*
X150839524Y-105071429D01*
X150915714Y-105109524D01*
X150953810Y-105147619D01*
X150991905Y-105223810D01*
X150991905Y-105376191D01*
X150953810Y-105452381D01*
X150915714Y-105490477D01*
X150839524Y-105528572D01*
X150649048Y-105528572D01*
X150572857Y-105490477D01*
X150534762Y-105452381D01*
X150496667Y-105376191D01*
X150496667Y-105223810D01*
X150534762Y-105147619D01*
X150572857Y-105109524D01*
X150649048Y-105071429D01*
X149205714Y-105905714D02*
X149243810Y-105867619D01*
X149281905Y-105753333D01*
X149281905Y-105677143D01*
X149243810Y-105562857D01*
X149167619Y-105486666D01*
X149091429Y-105448571D01*
X148939048Y-105410476D01*
X148824762Y-105410476D01*
X148672381Y-105448571D01*
X148596190Y-105486666D01*
X148520000Y-105562857D01*
X148481905Y-105677143D01*
X148481905Y-105753333D01*
X148520000Y-105867619D01*
X148558095Y-105905714D01*
X149281905Y-106667619D02*
X149281905Y-106210476D01*
X149281905Y-106439047D02*
X148481905Y-106439047D01*
X148596190Y-106362857D01*
X148672381Y-106286666D01*
X148710476Y-106210476D01*
X149281905Y-107429524D02*
X149281905Y-106972381D01*
X149281905Y-107200952D02*
X148481905Y-107200952D01*
X148596190Y-107124762D01*
X148672381Y-107048571D01*
X148710476Y-106972381D01*
X143384286Y-100265714D02*
X143422381Y-100303810D01*
X143536667Y-100341905D01*
X143612857Y-100341905D01*
X143727143Y-100303810D01*
X143803334Y-100227619D01*
X143841429Y-100151429D01*
X143879524Y-99999048D01*
X143879524Y-99884762D01*
X143841429Y-99732381D01*
X143803334Y-99656190D01*
X143727143Y-99580000D01*
X143612857Y-99541905D01*
X143536667Y-99541905D01*
X143422381Y-99580000D01*
X143384286Y-99618095D01*
X142622381Y-100341905D02*
X143079524Y-100341905D01*
X142850953Y-100341905D02*
X142850953Y-99541905D01*
X142927143Y-99656190D01*
X143003334Y-99732381D01*
X143079524Y-99770476D01*
X142127143Y-99541905D02*
X142050952Y-99541905D01*
X141974762Y-99580000D01*
X141936667Y-99618095D01*
X141898571Y-99694286D01*
X141860476Y-99846667D01*
X141860476Y-100037143D01*
X141898571Y-100189524D01*
X141936667Y-100265714D01*
X141974762Y-100303810D01*
X142050952Y-100341905D01*
X142127143Y-100341905D01*
X142203333Y-100303810D01*
X142241429Y-100265714D01*
X142279524Y-100189524D01*
X142317619Y-100037143D01*
X142317619Y-99846667D01*
X142279524Y-99694286D01*
X142241429Y-99618095D01*
X142203333Y-99580000D01*
X142127143Y-99541905D01*
X143303333Y-98545714D02*
X143341428Y-98583810D01*
X143455714Y-98621905D01*
X143531904Y-98621905D01*
X143646190Y-98583810D01*
X143722381Y-98507619D01*
X143760476Y-98431429D01*
X143798571Y-98279048D01*
X143798571Y-98164762D01*
X143760476Y-98012381D01*
X143722381Y-97936190D01*
X143646190Y-97860000D01*
X143531904Y-97821905D01*
X143455714Y-97821905D01*
X143341428Y-97860000D01*
X143303333Y-97898095D01*
X142922381Y-98621905D02*
X142770000Y-98621905D01*
X142693809Y-98583810D01*
X142655714Y-98545714D01*
X142579523Y-98431429D01*
X142541428Y-98279048D01*
X142541428Y-97974286D01*
X142579523Y-97898095D01*
X142617619Y-97860000D01*
X142693809Y-97821905D01*
X142846190Y-97821905D01*
X142922381Y-97860000D01*
X142960476Y-97898095D01*
X142998571Y-97974286D01*
X142998571Y-98164762D01*
X142960476Y-98240952D01*
X142922381Y-98279048D01*
X142846190Y-98317143D01*
X142693809Y-98317143D01*
X142617619Y-98279048D01*
X142579523Y-98240952D01*
X142541428Y-98164762D01*
X154545714Y-111386667D02*
X154583810Y-111348572D01*
X154621905Y-111234286D01*
X154621905Y-111158096D01*
X154583810Y-111043810D01*
X154507619Y-110967619D01*
X154431429Y-110929524D01*
X154279048Y-110891429D01*
X154164762Y-110891429D01*
X154012381Y-110929524D01*
X153936190Y-110967619D01*
X153860000Y-111043810D01*
X153821905Y-111158096D01*
X153821905Y-111234286D01*
X153860000Y-111348572D01*
X153898095Y-111386667D01*
X154088571Y-112072381D02*
X154621905Y-112072381D01*
X153783810Y-111881905D02*
X154355238Y-111691429D01*
X154355238Y-112186667D01*
X161745714Y-97876667D02*
X161783810Y-97838572D01*
X161821905Y-97724286D01*
X161821905Y-97648096D01*
X161783810Y-97533810D01*
X161707619Y-97457619D01*
X161631429Y-97419524D01*
X161479048Y-97381429D01*
X161364762Y-97381429D01*
X161212381Y-97419524D01*
X161136190Y-97457619D01*
X161060000Y-97533810D01*
X161021905Y-97648096D01*
X161021905Y-97724286D01*
X161060000Y-97838572D01*
X161098095Y-97876667D01*
X161021905Y-98143334D02*
X161021905Y-98676667D01*
X161821905Y-98333810D01*
X157555714Y-97746667D02*
X157593810Y-97708572D01*
X157631905Y-97594286D01*
X157631905Y-97518096D01*
X157593810Y-97403810D01*
X157517619Y-97327619D01*
X157441429Y-97289524D01*
X157289048Y-97251429D01*
X157174762Y-97251429D01*
X157022381Y-97289524D01*
X156946190Y-97327619D01*
X156870000Y-97403810D01*
X156831905Y-97518096D01*
X156831905Y-97594286D01*
X156870000Y-97708572D01*
X156908095Y-97746667D01*
X156831905Y-98470477D02*
X156831905Y-98089524D01*
X157212857Y-98051429D01*
X157174762Y-98089524D01*
X157136667Y-98165715D01*
X157136667Y-98356191D01*
X157174762Y-98432381D01*
X157212857Y-98470477D01*
X157289048Y-98508572D01*
X157479524Y-98508572D01*
X157555714Y-98470477D01*
X157593810Y-98432381D01*
X157631905Y-98356191D01*
X157631905Y-98165715D01*
X157593810Y-98089524D01*
X157555714Y-98051429D01*
X147775714Y-111196667D02*
X147813810Y-111158572D01*
X147851905Y-111044286D01*
X147851905Y-110968096D01*
X147813810Y-110853810D01*
X147737619Y-110777619D01*
X147661429Y-110739524D01*
X147509048Y-110701429D01*
X147394762Y-110701429D01*
X147242381Y-110739524D01*
X147166190Y-110777619D01*
X147090000Y-110853810D01*
X147051905Y-110968096D01*
X147051905Y-111044286D01*
X147090000Y-111158572D01*
X147128095Y-111196667D01*
X147851905Y-111958572D02*
X147851905Y-111501429D01*
X147851905Y-111730000D02*
X147051905Y-111730000D01*
X147166190Y-111653810D01*
X147242381Y-111577619D01*
X147280476Y-111501429D01*
X137208095Y-93633810D02*
X137170000Y-93557619D01*
X137093810Y-93481429D01*
X136979524Y-93367143D01*
X136941429Y-93290952D01*
X136941429Y-93214762D01*
X137131905Y-93252857D02*
X137093810Y-93176667D01*
X137017619Y-93100476D01*
X136865238Y-93062381D01*
X136598571Y-93062381D01*
X136446190Y-93100476D01*
X136370000Y-93176667D01*
X136331905Y-93252857D01*
X136331905Y-93405238D01*
X136370000Y-93481429D01*
X136446190Y-93557619D01*
X136598571Y-93595714D01*
X136865238Y-93595714D01*
X137017619Y-93557619D01*
X137093810Y-93481429D01*
X137131905Y-93405238D01*
X137131905Y-93252857D01*
X137131905Y-94357619D02*
X137131905Y-93900476D01*
X137131905Y-94129047D02*
X136331905Y-94129047D01*
X136446190Y-94052857D01*
X136522381Y-93976666D01*
X136560476Y-93900476D01*
X163631905Y-102895714D02*
X163250952Y-102629047D01*
X163631905Y-102438571D02*
X162831905Y-102438571D01*
X162831905Y-102743333D01*
X162870000Y-102819524D01*
X162908095Y-102857619D01*
X162984286Y-102895714D01*
X163098571Y-102895714D01*
X163174762Y-102857619D01*
X163212857Y-102819524D01*
X163250952Y-102743333D01*
X163250952Y-102438571D01*
X163631905Y-103657619D02*
X163631905Y-103200476D01*
X163631905Y-103429047D02*
X162831905Y-103429047D01*
X162946190Y-103352857D01*
X163022381Y-103276666D01*
X163060476Y-103200476D01*
X162831905Y-103924286D02*
X162831905Y-104419524D01*
X163136667Y-104152857D01*
X163136667Y-104267143D01*
X163174762Y-104343333D01*
X163212857Y-104381429D01*
X163289048Y-104419524D01*
X163479524Y-104419524D01*
X163555714Y-104381429D01*
X163593810Y-104343333D01*
X163631905Y-104267143D01*
X163631905Y-104038571D01*
X163593810Y-103962381D01*
X163555714Y-103924286D01*
X163611905Y-98765714D02*
X163230952Y-98499047D01*
X163611905Y-98308571D02*
X162811905Y-98308571D01*
X162811905Y-98613333D01*
X162850000Y-98689524D01*
X162888095Y-98727619D01*
X162964286Y-98765714D01*
X163078571Y-98765714D01*
X163154762Y-98727619D01*
X163192857Y-98689524D01*
X163230952Y-98613333D01*
X163230952Y-98308571D01*
X163611905Y-99527619D02*
X163611905Y-99070476D01*
X163611905Y-99299047D02*
X162811905Y-99299047D01*
X162926190Y-99222857D01*
X163002381Y-99146666D01*
X163040476Y-99070476D01*
X162888095Y-99832381D02*
X162850000Y-99870476D01*
X162811905Y-99946667D01*
X162811905Y-100137143D01*
X162850000Y-100213333D01*
X162888095Y-100251429D01*
X162964286Y-100289524D01*
X163040476Y-100289524D01*
X163154762Y-100251429D01*
X163611905Y-99794286D01*
X163611905Y-100289524D01*
X163611905Y-107135714D02*
X163230952Y-106869047D01*
X163611905Y-106678571D02*
X162811905Y-106678571D01*
X162811905Y-106983333D01*
X162850000Y-107059524D01*
X162888095Y-107097619D01*
X162964286Y-107135714D01*
X163078571Y-107135714D01*
X163154762Y-107097619D01*
X163192857Y-107059524D01*
X163230952Y-106983333D01*
X163230952Y-106678571D01*
X163611905Y-107897619D02*
X163611905Y-107440476D01*
X163611905Y-107669047D02*
X162811905Y-107669047D01*
X162926190Y-107592857D01*
X163002381Y-107516666D01*
X163040476Y-107440476D01*
X162811905Y-108583333D02*
X162811905Y-108430952D01*
X162850000Y-108354762D01*
X162888095Y-108316667D01*
X163002381Y-108240476D01*
X163154762Y-108202381D01*
X163459524Y-108202381D01*
X163535714Y-108240476D01*
X163573810Y-108278571D01*
X163611905Y-108354762D01*
X163611905Y-108507143D01*
X163573810Y-108583333D01*
X163535714Y-108621429D01*
X163459524Y-108659524D01*
X163269048Y-108659524D01*
X163192857Y-108621429D01*
X163154762Y-108583333D01*
X163116667Y-108507143D01*
X163116667Y-108354762D01*
X163154762Y-108278571D01*
X163192857Y-108240476D01*
X163269048Y-108202381D01*
X135811905Y-102196667D02*
X135430952Y-101930000D01*
X135811905Y-101739524D02*
X135011905Y-101739524D01*
X135011905Y-102044286D01*
X135050000Y-102120477D01*
X135088095Y-102158572D01*
X135164286Y-102196667D01*
X135278571Y-102196667D01*
X135354762Y-102158572D01*
X135392857Y-102120477D01*
X135430952Y-102044286D01*
X135430952Y-101739524D01*
X135011905Y-102463334D02*
X135011905Y-102996667D01*
X135811905Y-102653810D01*
X136641905Y-109886667D02*
X136260952Y-109620000D01*
X136641905Y-109429524D02*
X135841905Y-109429524D01*
X135841905Y-109734286D01*
X135880000Y-109810477D01*
X135918095Y-109848572D01*
X135994286Y-109886667D01*
X136108571Y-109886667D01*
X136184762Y-109848572D01*
X136222857Y-109810477D01*
X136260952Y-109734286D01*
X136260952Y-109429524D01*
X135841905Y-110572381D02*
X135841905Y-110420000D01*
X135880000Y-110343810D01*
X135918095Y-110305715D01*
X136032381Y-110229524D01*
X136184762Y-110191429D01*
X136489524Y-110191429D01*
X136565714Y-110229524D01*
X136603810Y-110267619D01*
X136641905Y-110343810D01*
X136641905Y-110496191D01*
X136603810Y-110572381D01*
X136565714Y-110610477D01*
X136489524Y-110648572D01*
X136299048Y-110648572D01*
X136222857Y-110610477D01*
X136184762Y-110572381D01*
X136146667Y-110496191D01*
X136146667Y-110343810D01*
X136184762Y-110267619D01*
X136222857Y-110229524D01*
X136299048Y-110191429D01*
X136731905Y-112026667D02*
X136350952Y-111760000D01*
X136731905Y-111569524D02*
X135931905Y-111569524D01*
X135931905Y-111874286D01*
X135970000Y-111950477D01*
X136008095Y-111988572D01*
X136084286Y-112026667D01*
X136198571Y-112026667D01*
X136274762Y-111988572D01*
X136312857Y-111950477D01*
X136350952Y-111874286D01*
X136350952Y-111569524D01*
X136198571Y-112712381D02*
X136731905Y-112712381D01*
X135893810Y-112521905D02*
X136465238Y-112331429D01*
X136465238Y-112826667D01*
X136661905Y-107946667D02*
X136280952Y-107680000D01*
X136661905Y-107489524D02*
X135861905Y-107489524D01*
X135861905Y-107794286D01*
X135900000Y-107870477D01*
X135938095Y-107908572D01*
X136014286Y-107946667D01*
X136128571Y-107946667D01*
X136204762Y-107908572D01*
X136242857Y-107870477D01*
X136280952Y-107794286D01*
X136280952Y-107489524D01*
X135861905Y-108670477D02*
X135861905Y-108289524D01*
X136242857Y-108251429D01*
X136204762Y-108289524D01*
X136166667Y-108365715D01*
X136166667Y-108556191D01*
X136204762Y-108632381D01*
X136242857Y-108670477D01*
X136319048Y-108708572D01*
X136509524Y-108708572D01*
X136585714Y-108670477D01*
X136623810Y-108632381D01*
X136661905Y-108556191D01*
X136661905Y-108365715D01*
X136623810Y-108289524D01*
X136585714Y-108251429D01*
X143783333Y-93501905D02*
X144050000Y-93120952D01*
X144240476Y-93501905D02*
X144240476Y-92701905D01*
X143935714Y-92701905D01*
X143859523Y-92740000D01*
X143821428Y-92778095D01*
X143783333Y-92854286D01*
X143783333Y-92968571D01*
X143821428Y-93044762D01*
X143859523Y-93082857D01*
X143935714Y-93120952D01*
X144240476Y-93120952D01*
X143326190Y-93044762D02*
X143402381Y-93006667D01*
X143440476Y-92968571D01*
X143478571Y-92892381D01*
X143478571Y-92854286D01*
X143440476Y-92778095D01*
X143402381Y-92740000D01*
X143326190Y-92701905D01*
X143173809Y-92701905D01*
X143097619Y-92740000D01*
X143059523Y-92778095D01*
X143021428Y-92854286D01*
X143021428Y-92892381D01*
X143059523Y-92968571D01*
X143097619Y-93006667D01*
X143173809Y-93044762D01*
X143326190Y-93044762D01*
X143402381Y-93082857D01*
X143440476Y-93120952D01*
X143478571Y-93197143D01*
X143478571Y-93349524D01*
X143440476Y-93425714D01*
X143402381Y-93463810D01*
X143326190Y-93501905D01*
X143173809Y-93501905D01*
X143097619Y-93463810D01*
X143059523Y-93425714D01*
X143021428Y-93349524D01*
X143021428Y-93197143D01*
X143059523Y-93120952D01*
X143097619Y-93082857D01*
X143173809Y-93044762D01*
X147221905Y-94905714D02*
X146840952Y-94639047D01*
X147221905Y-94448571D02*
X146421905Y-94448571D01*
X146421905Y-94753333D01*
X146460000Y-94829524D01*
X146498095Y-94867619D01*
X146574286Y-94905714D01*
X146688571Y-94905714D01*
X146764762Y-94867619D01*
X146802857Y-94829524D01*
X146840952Y-94753333D01*
X146840952Y-94448571D01*
X147221905Y-95667619D02*
X147221905Y-95210476D01*
X147221905Y-95439047D02*
X146421905Y-95439047D01*
X146536190Y-95362857D01*
X146612381Y-95286666D01*
X146650476Y-95210476D01*
X147221905Y-96429524D02*
X147221905Y-95972381D01*
X147221905Y-96200952D02*
X146421905Y-96200952D01*
X146536190Y-96124762D01*
X146612381Y-96048571D01*
X146650476Y-95972381D01*
X159781905Y-107505714D02*
X159400952Y-107239047D01*
X159781905Y-107048571D02*
X158981905Y-107048571D01*
X158981905Y-107353333D01*
X159020000Y-107429524D01*
X159058095Y-107467619D01*
X159134286Y-107505714D01*
X159248571Y-107505714D01*
X159324762Y-107467619D01*
X159362857Y-107429524D01*
X159400952Y-107353333D01*
X159400952Y-107048571D01*
X159781905Y-108267619D02*
X159781905Y-107810476D01*
X159781905Y-108039047D02*
X158981905Y-108039047D01*
X159096190Y-107962857D01*
X159172381Y-107886666D01*
X159210476Y-107810476D01*
X159248571Y-108953333D02*
X159781905Y-108953333D01*
X158943810Y-108762857D02*
X159515238Y-108572381D01*
X159515238Y-109067619D01*
X157971905Y-107525714D02*
X157590952Y-107259047D01*
X157971905Y-107068571D02*
X157171905Y-107068571D01*
X157171905Y-107373333D01*
X157210000Y-107449524D01*
X157248095Y-107487619D01*
X157324286Y-107525714D01*
X157438571Y-107525714D01*
X157514762Y-107487619D01*
X157552857Y-107449524D01*
X157590952Y-107373333D01*
X157590952Y-107068571D01*
X157971905Y-108287619D02*
X157971905Y-107830476D01*
X157971905Y-108059047D02*
X157171905Y-108059047D01*
X157286190Y-107982857D01*
X157362381Y-107906666D01*
X157400476Y-107830476D01*
X157971905Y-108668571D02*
X157971905Y-108820952D01*
X157933810Y-108897143D01*
X157895714Y-108935238D01*
X157781429Y-109011429D01*
X157629048Y-109049524D01*
X157324286Y-109049524D01*
X157248095Y-109011429D01*
X157210000Y-108973333D01*
X157171905Y-108897143D01*
X157171905Y-108744762D01*
X157210000Y-108668571D01*
X157248095Y-108630476D01*
X157324286Y-108592381D01*
X157514762Y-108592381D01*
X157590952Y-108630476D01*
X157629048Y-108668571D01*
X157667143Y-108744762D01*
X157667143Y-108897143D01*
X157629048Y-108973333D01*
X157590952Y-109011429D01*
X157514762Y-109049524D01*
X156051905Y-107585714D02*
X155670952Y-107319047D01*
X156051905Y-107128571D02*
X155251905Y-107128571D01*
X155251905Y-107433333D01*
X155290000Y-107509524D01*
X155328095Y-107547619D01*
X155404286Y-107585714D01*
X155518571Y-107585714D01*
X155594762Y-107547619D01*
X155632857Y-107509524D01*
X155670952Y-107433333D01*
X155670952Y-107128571D01*
X155328095Y-107890476D02*
X155290000Y-107928571D01*
X155251905Y-108004762D01*
X155251905Y-108195238D01*
X155290000Y-108271428D01*
X155328095Y-108309524D01*
X155404286Y-108347619D01*
X155480476Y-108347619D01*
X155594762Y-108309524D01*
X156051905Y-107852381D01*
X156051905Y-108347619D01*
X155251905Y-108842857D02*
X155251905Y-108919048D01*
X155290000Y-108995238D01*
X155328095Y-109033333D01*
X155404286Y-109071429D01*
X155556667Y-109109524D01*
X155747143Y-109109524D01*
X155899524Y-109071429D01*
X155975714Y-109033333D01*
X156013810Y-108995238D01*
X156051905Y-108919048D01*
X156051905Y-108842857D01*
X156013810Y-108766667D01*
X155975714Y-108728571D01*
X155899524Y-108690476D01*
X155747143Y-108652381D01*
X155556667Y-108652381D01*
X155404286Y-108690476D01*
X155328095Y-108728571D01*
X155290000Y-108766667D01*
X155251905Y-108842857D01*
X153594286Y-96851905D02*
X153860953Y-96470952D01*
X154051429Y-96851905D02*
X154051429Y-96051905D01*
X153746667Y-96051905D01*
X153670476Y-96090000D01*
X153632381Y-96128095D01*
X153594286Y-96204286D01*
X153594286Y-96318571D01*
X153632381Y-96394762D01*
X153670476Y-96432857D01*
X153746667Y-96470952D01*
X154051429Y-96470952D01*
X152832381Y-96851905D02*
X153289524Y-96851905D01*
X153060953Y-96851905D02*
X153060953Y-96051905D01*
X153137143Y-96166190D01*
X153213334Y-96242381D01*
X153289524Y-96280476D01*
X152337143Y-96051905D02*
X152260952Y-96051905D01*
X152184762Y-96090000D01*
X152146667Y-96128095D01*
X152108571Y-96204286D01*
X152070476Y-96356667D01*
X152070476Y-96547143D01*
X152108571Y-96699524D01*
X152146667Y-96775714D01*
X152184762Y-96813810D01*
X152260952Y-96851905D01*
X152337143Y-96851905D01*
X152413333Y-96813810D01*
X152451429Y-96775714D01*
X152489524Y-96699524D01*
X152527619Y-96547143D01*
X152527619Y-96356667D01*
X152489524Y-96204286D01*
X152451429Y-96128095D01*
X152413333Y-96090000D01*
X152337143Y-96051905D01*
X155951905Y-97245714D02*
X155570952Y-96979047D01*
X155951905Y-96788571D02*
X155151905Y-96788571D01*
X155151905Y-97093333D01*
X155190000Y-97169524D01*
X155228095Y-97207619D01*
X155304286Y-97245714D01*
X155418571Y-97245714D01*
X155494762Y-97207619D01*
X155532857Y-97169524D01*
X155570952Y-97093333D01*
X155570952Y-96788571D01*
X155228095Y-97550476D02*
X155190000Y-97588571D01*
X155151905Y-97664762D01*
X155151905Y-97855238D01*
X155190000Y-97931428D01*
X155228095Y-97969524D01*
X155304286Y-98007619D01*
X155380476Y-98007619D01*
X155494762Y-97969524D01*
X155951905Y-97512381D01*
X155951905Y-98007619D01*
X155951905Y-98769524D02*
X155951905Y-98312381D01*
X155951905Y-98540952D02*
X155151905Y-98540952D01*
X155266190Y-98464762D01*
X155342381Y-98388571D01*
X155380476Y-98312381D01*
X152651905Y-100105714D02*
X152270952Y-99839047D01*
X152651905Y-99648571D02*
X151851905Y-99648571D01*
X151851905Y-99953333D01*
X151890000Y-100029524D01*
X151928095Y-100067619D01*
X152004286Y-100105714D01*
X152118571Y-100105714D01*
X152194762Y-100067619D01*
X152232857Y-100029524D01*
X152270952Y-99953333D01*
X152270952Y-99648571D01*
X152651905Y-100867619D02*
X152651905Y-100410476D01*
X152651905Y-100639047D02*
X151851905Y-100639047D01*
X151966190Y-100562857D01*
X152042381Y-100486666D01*
X152080476Y-100410476D01*
X152194762Y-101324762D02*
X152156667Y-101248571D01*
X152118571Y-101210476D01*
X152042381Y-101172381D01*
X152004286Y-101172381D01*
X151928095Y-101210476D01*
X151890000Y-101248571D01*
X151851905Y-101324762D01*
X151851905Y-101477143D01*
X151890000Y-101553333D01*
X151928095Y-101591429D01*
X152004286Y-101629524D01*
X152042381Y-101629524D01*
X152118571Y-101591429D01*
X152156667Y-101553333D01*
X152194762Y-101477143D01*
X152194762Y-101324762D01*
X152232857Y-101248571D01*
X152270952Y-101210476D01*
X152347143Y-101172381D01*
X152499524Y-101172381D01*
X152575714Y-101210476D01*
X152613810Y-101248571D01*
X152651905Y-101324762D01*
X152651905Y-101477143D01*
X152613810Y-101553333D01*
X152575714Y-101591429D01*
X152499524Y-101629524D01*
X152347143Y-101629524D01*
X152270952Y-101591429D01*
X152232857Y-101553333D01*
X152194762Y-101477143D01*
X159641905Y-97295714D02*
X159260952Y-97029047D01*
X159641905Y-96838571D02*
X158841905Y-96838571D01*
X158841905Y-97143333D01*
X158880000Y-97219524D01*
X158918095Y-97257619D01*
X158994286Y-97295714D01*
X159108571Y-97295714D01*
X159184762Y-97257619D01*
X159222857Y-97219524D01*
X159260952Y-97143333D01*
X159260952Y-96838571D01*
X159641905Y-98057619D02*
X159641905Y-97600476D01*
X159641905Y-97829047D02*
X158841905Y-97829047D01*
X158956190Y-97752857D01*
X159032381Y-97676666D01*
X159070476Y-97600476D01*
X158841905Y-98781429D02*
X158841905Y-98400476D01*
X159222857Y-98362381D01*
X159184762Y-98400476D01*
X159146667Y-98476667D01*
X159146667Y-98667143D01*
X159184762Y-98743333D01*
X159222857Y-98781429D01*
X159299048Y-98819524D01*
X159489524Y-98819524D01*
X159565714Y-98781429D01*
X159603810Y-98743333D01*
X159641905Y-98667143D01*
X159641905Y-98476667D01*
X159603810Y-98400476D01*
X159565714Y-98362381D01*
X141723333Y-93522705D02*
X141990000Y-93141752D01*
X142180476Y-93522705D02*
X142180476Y-92722705D01*
X141875714Y-92722705D01*
X141799523Y-92760800D01*
X141761428Y-92798895D01*
X141723333Y-92875086D01*
X141723333Y-92989371D01*
X141761428Y-93065562D01*
X141799523Y-93103657D01*
X141875714Y-93141752D01*
X142180476Y-93141752D01*
X141342381Y-93522705D02*
X141190000Y-93522705D01*
X141113809Y-93484610D01*
X141075714Y-93446514D01*
X140999523Y-93332229D01*
X140961428Y-93179848D01*
X140961428Y-92875086D01*
X140999523Y-92798895D01*
X141037619Y-92760800D01*
X141113809Y-92722705D01*
X141266190Y-92722705D01*
X141342381Y-92760800D01*
X141380476Y-92798895D01*
X141418571Y-92875086D01*
X141418571Y-93065562D01*
X141380476Y-93141752D01*
X141342381Y-93179848D01*
X141266190Y-93217943D01*
X141113809Y-93217943D01*
X141037619Y-93179848D01*
X140999523Y-93141752D01*
X140961428Y-93065562D01*
X151201905Y-112286667D02*
X150820952Y-112020000D01*
X151201905Y-111829524D02*
X150401905Y-111829524D01*
X150401905Y-112134286D01*
X150440000Y-112210477D01*
X150478095Y-112248572D01*
X150554286Y-112286667D01*
X150668571Y-112286667D01*
X150744762Y-112248572D01*
X150782857Y-112210477D01*
X150820952Y-112134286D01*
X150820952Y-111829524D01*
X150478095Y-112591429D02*
X150440000Y-112629524D01*
X150401905Y-112705715D01*
X150401905Y-112896191D01*
X150440000Y-112972381D01*
X150478095Y-113010477D01*
X150554286Y-113048572D01*
X150630476Y-113048572D01*
X150744762Y-113010477D01*
X151201905Y-112553334D01*
X151201905Y-113048572D01*
X152961905Y-112286667D02*
X152580952Y-112020000D01*
X152961905Y-111829524D02*
X152161905Y-111829524D01*
X152161905Y-112134286D01*
X152200000Y-112210477D01*
X152238095Y-112248572D01*
X152314286Y-112286667D01*
X152428571Y-112286667D01*
X152504762Y-112248572D01*
X152542857Y-112210477D01*
X152580952Y-112134286D01*
X152580952Y-111829524D01*
X152161905Y-112553334D02*
X152161905Y-113048572D01*
X152466667Y-112781905D01*
X152466667Y-112896191D01*
X152504762Y-112972381D01*
X152542857Y-113010477D01*
X152619048Y-113048572D01*
X152809524Y-113048572D01*
X152885714Y-113010477D01*
X152923810Y-112972381D01*
X152961905Y-112896191D01*
X152961905Y-112667619D01*
X152923810Y-112591429D01*
X152885714Y-112553334D01*
X149541905Y-112266667D02*
X149160952Y-112000000D01*
X149541905Y-111809524D02*
X148741905Y-111809524D01*
X148741905Y-112114286D01*
X148780000Y-112190477D01*
X148818095Y-112228572D01*
X148894286Y-112266667D01*
X149008571Y-112266667D01*
X149084762Y-112228572D01*
X149122857Y-112190477D01*
X149160952Y-112114286D01*
X149160952Y-111809524D01*
X149541905Y-113028572D02*
X149541905Y-112571429D01*
X149541905Y-112800000D02*
X148741905Y-112800000D01*
X148856190Y-112723810D01*
X148932381Y-112647619D01*
X148970476Y-112571429D01*
X149399524Y-96401905D02*
X149399524Y-97049524D01*
X149361429Y-97125714D01*
X149323333Y-97163810D01*
X149247143Y-97201905D01*
X149094762Y-97201905D01*
X149018571Y-97163810D01*
X148980476Y-97125714D01*
X148942381Y-97049524D01*
X148942381Y-96401905D01*
X148637619Y-96401905D02*
X148142381Y-96401905D01*
X148409048Y-96706667D01*
X148294762Y-96706667D01*
X148218572Y-96744762D01*
X148180476Y-96782857D01*
X148142381Y-96859048D01*
X148142381Y-97049524D01*
X148180476Y-97125714D01*
X148218572Y-97163810D01*
X148294762Y-97201905D01*
X148523334Y-97201905D01*
X148599524Y-97163810D01*
X148637619Y-97125714D01*
X140881905Y-109590476D02*
X141529524Y-109590476D01*
X141605714Y-109628571D01*
X141643810Y-109666667D01*
X141681905Y-109742857D01*
X141681905Y-109895238D01*
X141643810Y-109971429D01*
X141605714Y-110009524D01*
X141529524Y-110047619D01*
X140881905Y-110047619D01*
X141681905Y-110847619D02*
X141681905Y-110390476D01*
X141681905Y-110619047D02*
X140881905Y-110619047D01*
X140996190Y-110542857D01*
X141072381Y-110466666D01*
X141110476Y-110390476D01*
X168966666Y-92751905D02*
X168966666Y-93323333D01*
X169004762Y-93437619D01*
X169080952Y-93513810D01*
X169195238Y-93551905D01*
X169271428Y-93551905D01*
X168242857Y-93018571D02*
X168242857Y-93551905D01*
X168433333Y-92713810D02*
X168623809Y-93285238D01*
X168128571Y-93285238D01*
M02*
