G04 #@! TF.FileFunction,Other,Fab,Top*
%FSLAX46Y46*%
G04 Gerber Fmt 4.6, Leading zero omitted, Abs format (unit mm)*
G04 Created by KiCad (PCBNEW 4.0.7) date 10/12/17 20:38:22*
%MOMM*%
%LPD*%
G01*
G04 APERTURE LIST*
%ADD10C,0.100000*%
%ADD11C,0.150000*%
G04 APERTURE END LIST*
D10*
X143547200Y-107214600D02*
X143547200Y-100814600D01*
X148197200Y-107214600D02*
X148197200Y-100814600D01*
X143872200Y-107014600D02*
X143872200Y-101014600D01*
X147872200Y-107014600D02*
X147872200Y-101014600D01*
X148197200Y-107214600D02*
G75*
G02X143547200Y-107214600I-2325000J0D01*
G01*
X148197200Y-100814600D02*
G75*
G03X143547200Y-100814600I-2325000J0D01*
G01*
X147872200Y-107014600D02*
G75*
G02X143872200Y-107014600I-2000000J0D01*
G01*
X147872200Y-101014600D02*
G75*
G03X143872200Y-101014600I-2000000J0D01*
G01*
X164341200Y-99463200D02*
X164741200Y-99463200D01*
X164541200Y-99413200D02*
X164341200Y-99113200D01*
X164741200Y-99113200D02*
X164541200Y-99413200D01*
X164341200Y-99113200D02*
X164741200Y-99113200D01*
X164941200Y-98463200D02*
X164941200Y-100063200D01*
X164141200Y-98463200D02*
X164941200Y-98463200D01*
X164141200Y-100063200D02*
X164141200Y-98463200D01*
X164941200Y-100063200D02*
X164141200Y-100063200D01*
X164341200Y-103717600D02*
X164741200Y-103717600D01*
X164541200Y-103667600D02*
X164341200Y-103367600D01*
X164741200Y-103367600D02*
X164541200Y-103667600D01*
X164341200Y-103367600D02*
X164741200Y-103367600D01*
X164941200Y-102717600D02*
X164941200Y-104317600D01*
X164141200Y-102717600D02*
X164941200Y-102717600D01*
X164141200Y-104317600D02*
X164141200Y-102717600D01*
X164941200Y-104317600D02*
X164141200Y-104317600D01*
X134939400Y-106264400D02*
X139939400Y-106264400D01*
X135637696Y-99514400D02*
X135637696Y-105514400D01*
X134937696Y-98764400D02*
X134937696Y-106264400D01*
X139939400Y-98764400D02*
X139939400Y-106264400D01*
X134939400Y-98764400D02*
X139939400Y-98764400D01*
X140039400Y-101214400D02*
X140239400Y-101014400D01*
X140239400Y-101414400D02*
X140039400Y-101214400D01*
X140449400Y-101014400D02*
X140449400Y-101414400D01*
X140449400Y-101014400D02*
X140239400Y-101014400D01*
X140449400Y-101414400D02*
X140239400Y-101414400D01*
X162941000Y-93827600D02*
X147701000Y-93827600D01*
X147701000Y-93827600D02*
X147701000Y-96367600D01*
X147701000Y-96367600D02*
X162941000Y-96367600D01*
X162941000Y-96367600D02*
X162941000Y-93827600D01*
X164341200Y-107730800D02*
X164741200Y-107730800D01*
X164541200Y-107680800D02*
X164341200Y-107380800D01*
X164741200Y-107380800D02*
X164541200Y-107680800D01*
X164341200Y-107380800D02*
X164741200Y-107380800D01*
X164941200Y-106730800D02*
X164941200Y-108330800D01*
X164141200Y-106730800D02*
X164941200Y-106730800D01*
X164141200Y-108330800D02*
X164141200Y-106730800D01*
X164941200Y-108330800D02*
X164141200Y-108330800D01*
D11*
X150638943Y-101829972D02*
X150719755Y-101803034D01*
X150827504Y-101695285D01*
X150854442Y-101614472D01*
X150827504Y-101533660D01*
X150800567Y-101506723D01*
X150719755Y-101479785D01*
X150638942Y-101506723D01*
X150558131Y-101587534D01*
X150477318Y-101614472D01*
X150396506Y-101587534D01*
X150369569Y-101560597D01*
X150342631Y-101479785D01*
X150369569Y-101398972D01*
X150450380Y-101318161D01*
X150531193Y-101291223D01*
X150692817Y-101075724D02*
X150908316Y-100860225D01*
X150585068Y-100806350D02*
X151069941Y-101291223D01*
X151150753Y-101318161D01*
X151231566Y-101291223D01*
X151285440Y-101237349D01*
X151474002Y-101048787D02*
X151096878Y-100671663D01*
X151150753Y-100725538D02*
X151150753Y-100671663D01*
X151177690Y-100590850D01*
X151258503Y-100510038D01*
X151339315Y-100483101D01*
X151420127Y-100510039D01*
X151716439Y-100806350D01*
X151420127Y-100510039D02*
X151393190Y-100429226D01*
X151420127Y-100348414D01*
X151500939Y-100267601D01*
X151581752Y-100240665D01*
X151662563Y-100267602D01*
X151958875Y-100563914D01*
X151608690Y-99782728D02*
X151958876Y-99432542D01*
X151985813Y-99836604D01*
X152066625Y-99755791D01*
X152147437Y-99728854D01*
X152201312Y-99728853D01*
X152282125Y-99755791D01*
X152416812Y-99890478D01*
X152443749Y-99971290D01*
X152443749Y-100025166D01*
X152416812Y-100105977D01*
X152255187Y-100267602D01*
X152174375Y-100294539D01*
X152120500Y-100294539D01*
X152228250Y-99270917D02*
X152228250Y-99217043D01*
X152255188Y-99136231D01*
X152389874Y-99001544D01*
X152470686Y-98974606D01*
X152524561Y-98974606D01*
X152605374Y-99001544D01*
X152659248Y-99055418D01*
X152713123Y-99163168D01*
X152713123Y-99809666D01*
X153063309Y-99459479D01*
X149301962Y-105290790D02*
X149263867Y-105366981D01*
X149225771Y-105405076D01*
X149149581Y-105443171D01*
X149111486Y-105443171D01*
X149035295Y-105405076D01*
X148997200Y-105366981D01*
X148959105Y-105290790D01*
X148959105Y-105138409D01*
X148997200Y-105062219D01*
X149035295Y-105024123D01*
X149111486Y-104986028D01*
X149149581Y-104986028D01*
X149225771Y-105024123D01*
X149263867Y-105062219D01*
X149301962Y-105138409D01*
X149301962Y-105290790D01*
X149340057Y-105366981D01*
X149378152Y-105405076D01*
X149454343Y-105443171D01*
X149606724Y-105443171D01*
X149682914Y-105405076D01*
X149721010Y-105366981D01*
X149759105Y-105290790D01*
X149759105Y-105138409D01*
X149721010Y-105062219D01*
X149682914Y-105024123D01*
X149606724Y-104986028D01*
X149454343Y-104986028D01*
X149378152Y-105024123D01*
X149340057Y-105062219D01*
X149301962Y-105138409D01*
X149759105Y-104643171D02*
X148959105Y-104643171D01*
X149530533Y-104376504D01*
X148959105Y-104109837D01*
X149759105Y-104109837D01*
X149759105Y-103728885D02*
X148959105Y-103728885D01*
X149340057Y-103728885D02*
X149340057Y-103271742D01*
X149759105Y-103271742D02*
X148959105Y-103271742D01*
X149225771Y-102966980D02*
X149225771Y-102547933D01*
X149759105Y-102966980D01*
X149759105Y-102547933D01*
X145434105Y-104662219D02*
X146234105Y-104128886D01*
X145434105Y-104128886D02*
X146234105Y-104662219D01*
X146234105Y-103405076D02*
X146234105Y-103862219D01*
X146234105Y-103633648D02*
X145434105Y-103633648D01*
X145548390Y-103709838D01*
X145624581Y-103786029D01*
X145662676Y-103862219D01*
X166253105Y-99777485D02*
X166253105Y-100158438D01*
X165453105Y-100158438D01*
X165834057Y-99510819D02*
X165834057Y-99244152D01*
X166253105Y-99129866D02*
X166253105Y-99510819D01*
X165453105Y-99510819D01*
X165453105Y-99129866D01*
X166253105Y-98787009D02*
X165453105Y-98787009D01*
X165453105Y-98596533D01*
X165491200Y-98482247D01*
X165567390Y-98406056D01*
X165643581Y-98367961D01*
X165795962Y-98329866D01*
X165910248Y-98329866D01*
X166062629Y-98367961D01*
X166138819Y-98406056D01*
X166215010Y-98482247D01*
X166253105Y-98596533D01*
X166253105Y-98787009D01*
X166253105Y-104031885D02*
X166253105Y-104412838D01*
X165453105Y-104412838D01*
X165834057Y-103765219D02*
X165834057Y-103498552D01*
X166253105Y-103384266D02*
X166253105Y-103765219D01*
X165453105Y-103765219D01*
X165453105Y-103384266D01*
X166253105Y-103041409D02*
X165453105Y-103041409D01*
X165453105Y-102850933D01*
X165491200Y-102736647D01*
X165567390Y-102660456D01*
X165643581Y-102622361D01*
X165795962Y-102584266D01*
X165910248Y-102584266D01*
X166062629Y-102622361D01*
X166138819Y-102660456D01*
X166215010Y-102736647D01*
X166253105Y-102850933D01*
X166253105Y-103041409D01*
X133551305Y-105252495D02*
X134198924Y-105252495D01*
X134275114Y-105214400D01*
X134313210Y-105176304D01*
X134351305Y-105100114D01*
X134351305Y-104947733D01*
X134313210Y-104871542D01*
X134275114Y-104833447D01*
X134198924Y-104795352D01*
X133551305Y-104795352D01*
X134313210Y-104452495D02*
X134351305Y-104338209D01*
X134351305Y-104147733D01*
X134313210Y-104071543D01*
X134275114Y-104033447D01*
X134198924Y-103995352D01*
X134122733Y-103995352D01*
X134046543Y-104033447D01*
X134008448Y-104071543D01*
X133970352Y-104147733D01*
X133932257Y-104300114D01*
X133894162Y-104376305D01*
X133856067Y-104414400D01*
X133779876Y-104452495D01*
X133703686Y-104452495D01*
X133627495Y-104414400D01*
X133589400Y-104376305D01*
X133551305Y-104300114D01*
X133551305Y-104109638D01*
X133589400Y-103995352D01*
X133932257Y-103385828D02*
X133970352Y-103271542D01*
X134008448Y-103233447D01*
X134084638Y-103195352D01*
X134198924Y-103195352D01*
X134275114Y-103233447D01*
X134313210Y-103271542D01*
X134351305Y-103347733D01*
X134351305Y-103652495D01*
X133551305Y-103652495D01*
X133551305Y-103385828D01*
X133589400Y-103309638D01*
X133627495Y-103271542D01*
X133703686Y-103233447D01*
X133779876Y-103233447D01*
X133856067Y-103271542D01*
X133894162Y-103309638D01*
X133932257Y-103385828D01*
X133932257Y-103652495D01*
X134427495Y-103042971D02*
X134427495Y-102433447D01*
X133551305Y-102090590D02*
X133551305Y-101938209D01*
X133589400Y-101862018D01*
X133665590Y-101785828D01*
X133817971Y-101747733D01*
X134084638Y-101747733D01*
X134237019Y-101785828D01*
X134313210Y-101862018D01*
X134351305Y-101938209D01*
X134351305Y-102090590D01*
X134313210Y-102166780D01*
X134237019Y-102242971D01*
X134084638Y-102281066D01*
X133817971Y-102281066D01*
X133665590Y-102242971D01*
X133589400Y-102166780D01*
X133551305Y-102090590D01*
X133551305Y-101519162D02*
X133551305Y-101062019D01*
X134351305Y-101290590D02*
X133551305Y-101290590D01*
X133589400Y-100376304D02*
X133551305Y-100452495D01*
X133551305Y-100566780D01*
X133589400Y-100681066D01*
X133665590Y-100757257D01*
X133741781Y-100795352D01*
X133894162Y-100833447D01*
X134008448Y-100833447D01*
X134160829Y-100795352D01*
X134237019Y-100757257D01*
X134313210Y-100681066D01*
X134351305Y-100566780D01*
X134351305Y-100490590D01*
X134313210Y-100376304D01*
X134275114Y-100338209D01*
X134008448Y-100338209D01*
X134008448Y-100490590D01*
X137001305Y-102781066D02*
X137572733Y-102781066D01*
X137687019Y-102819162D01*
X137763210Y-102895352D01*
X137801305Y-103009638D01*
X137801305Y-103085828D01*
X137801305Y-101981066D02*
X137801305Y-102438209D01*
X137801305Y-102209638D02*
X137001305Y-102209638D01*
X137115590Y-102285828D01*
X137191781Y-102362019D01*
X137229876Y-102438209D01*
X146926714Y-98088077D02*
X146964810Y-98126172D01*
X147002905Y-98240458D01*
X147002905Y-98316648D01*
X146964810Y-98430934D01*
X146888619Y-98507125D01*
X146812429Y-98545220D01*
X146660048Y-98583315D01*
X146545762Y-98583315D01*
X146393381Y-98545220D01*
X146317190Y-98507125D01*
X146241000Y-98430934D01*
X146202905Y-98316648D01*
X146202905Y-98240458D01*
X146241000Y-98126172D01*
X146279095Y-98088077D01*
X147002905Y-97630934D02*
X146964810Y-97707125D01*
X146926714Y-97745220D01*
X146850524Y-97783315D01*
X146621952Y-97783315D01*
X146545762Y-97745220D01*
X146507667Y-97707125D01*
X146469571Y-97630934D01*
X146469571Y-97516648D01*
X146507667Y-97440458D01*
X146545762Y-97402363D01*
X146621952Y-97364267D01*
X146850524Y-97364267D01*
X146926714Y-97402363D01*
X146964810Y-97440458D01*
X147002905Y-97516648D01*
X147002905Y-97630934D01*
X146469571Y-97021410D02*
X147002905Y-97021410D01*
X146545762Y-97021410D02*
X146507667Y-96983315D01*
X146469571Y-96907124D01*
X146469571Y-96792838D01*
X146507667Y-96716648D01*
X146583857Y-96678553D01*
X147002905Y-96678553D01*
X146469571Y-96297600D02*
X147002905Y-96297600D01*
X146545762Y-96297600D02*
X146507667Y-96259505D01*
X146469571Y-96183314D01*
X146469571Y-96069028D01*
X146507667Y-95992838D01*
X146583857Y-95954743D01*
X147002905Y-95954743D01*
X147079095Y-95764266D02*
X147079095Y-95154742D01*
X146202905Y-94811885D02*
X146202905Y-94735694D01*
X146241000Y-94659504D01*
X146279095Y-94621409D01*
X146355286Y-94583313D01*
X146507667Y-94545218D01*
X146698143Y-94545218D01*
X146850524Y-94583313D01*
X146926714Y-94621409D01*
X146964810Y-94659504D01*
X147002905Y-94735694D01*
X147002905Y-94811885D01*
X146964810Y-94888075D01*
X146926714Y-94926171D01*
X146850524Y-94964266D01*
X146698143Y-95002361D01*
X146507667Y-95002361D01*
X146355286Y-94964266D01*
X146279095Y-94926171D01*
X146241000Y-94888075D01*
X146202905Y-94811885D01*
X147002905Y-93783313D02*
X147002905Y-94240456D01*
X147002905Y-94011885D02*
X146202905Y-94011885D01*
X146317190Y-94088075D01*
X146393381Y-94164266D01*
X146431476Y-94240456D01*
X147002905Y-93516646D02*
X146469571Y-93097599D01*
X146469571Y-93516646D02*
X147002905Y-93097599D01*
X146202905Y-92640456D02*
X146202905Y-92564265D01*
X146241000Y-92488075D01*
X146279095Y-92449980D01*
X146355286Y-92411884D01*
X146507667Y-92373789D01*
X146698143Y-92373789D01*
X146850524Y-92411884D01*
X146926714Y-92449980D01*
X146964810Y-92488075D01*
X147002905Y-92564265D01*
X147002905Y-92640456D01*
X146964810Y-92716646D01*
X146926714Y-92754742D01*
X146850524Y-92792837D01*
X146698143Y-92830932D01*
X146507667Y-92830932D01*
X146355286Y-92792837D01*
X146279095Y-92754742D01*
X146241000Y-92716646D01*
X146202905Y-92640456D01*
X146202905Y-91688075D02*
X146202905Y-91840456D01*
X146241000Y-91916646D01*
X146279095Y-91954741D01*
X146393381Y-92030932D01*
X146545762Y-92069027D01*
X146850524Y-92069027D01*
X146926714Y-92030932D01*
X146964810Y-91992837D01*
X147002905Y-91916646D01*
X147002905Y-91764265D01*
X146964810Y-91688075D01*
X146926714Y-91649979D01*
X146850524Y-91611884D01*
X146660048Y-91611884D01*
X146583857Y-91649979D01*
X146545762Y-91688075D01*
X146507667Y-91764265D01*
X146507667Y-91916646D01*
X146545762Y-91992837D01*
X146583857Y-92030932D01*
X146660048Y-92069027D01*
X163562905Y-95364266D02*
X164134333Y-95364266D01*
X164248619Y-95402362D01*
X164324810Y-95478552D01*
X164362905Y-95592838D01*
X164362905Y-95669028D01*
X163639095Y-95021409D02*
X163601000Y-94983314D01*
X163562905Y-94907123D01*
X163562905Y-94716647D01*
X163601000Y-94640457D01*
X163639095Y-94602361D01*
X163715286Y-94564266D01*
X163791476Y-94564266D01*
X163905762Y-94602361D01*
X164362905Y-95059504D01*
X164362905Y-94564266D01*
X166253105Y-109397466D02*
X166253105Y-109778419D01*
X165453105Y-109778419D01*
X165834057Y-109130800D02*
X165834057Y-108864133D01*
X166253105Y-108749847D02*
X166253105Y-109130800D01*
X165453105Y-109130800D01*
X165453105Y-108749847D01*
X166253105Y-108406990D02*
X165453105Y-108406990D01*
X165453105Y-108216514D01*
X165491200Y-108102228D01*
X165567390Y-108026037D01*
X165643581Y-107987942D01*
X165795962Y-107949847D01*
X165910248Y-107949847D01*
X166062629Y-107987942D01*
X166138819Y-108026037D01*
X166215010Y-108102228D01*
X166253105Y-108216514D01*
X166253105Y-108406990D01*
X166215010Y-107568895D02*
X166253105Y-107568895D01*
X166329295Y-107606990D01*
X166367390Y-107645085D01*
X166253105Y-106768895D02*
X165872152Y-107035562D01*
X166253105Y-107226038D02*
X165453105Y-107226038D01*
X165453105Y-106921276D01*
X165491200Y-106845085D01*
X165529295Y-106806990D01*
X165605486Y-106768895D01*
X165719771Y-106768895D01*
X165795962Y-106806990D01*
X165834057Y-106845085D01*
X165872152Y-106921276D01*
X165872152Y-107226038D01*
X165834057Y-106426038D02*
X165834057Y-106159371D01*
X166253105Y-106045085D02*
X166253105Y-106426038D01*
X165453105Y-106426038D01*
X165453105Y-106045085D01*
X166253105Y-105702228D02*
X165453105Y-105702228D01*
X165453105Y-105511752D01*
X165491200Y-105397466D01*
X165567390Y-105321275D01*
X165643581Y-105283180D01*
X165795962Y-105245085D01*
X165910248Y-105245085D01*
X166062629Y-105283180D01*
X166138819Y-105321275D01*
X166215010Y-105397466D01*
X166253105Y-105511752D01*
X166253105Y-105702228D01*
X166269523Y-92055714D02*
X166231428Y-92093810D01*
X166117142Y-92131905D01*
X166040952Y-92131905D01*
X165926666Y-92093810D01*
X165850475Y-92017619D01*
X165812380Y-91941429D01*
X165774285Y-91789048D01*
X165774285Y-91674762D01*
X165812380Y-91522381D01*
X165850475Y-91446190D01*
X165926666Y-91370000D01*
X166040952Y-91331905D01*
X166117142Y-91331905D01*
X166231428Y-91370000D01*
X166269523Y-91408095D01*
X166726666Y-92131905D02*
X166650475Y-92093810D01*
X166612380Y-92055714D01*
X166574285Y-91979524D01*
X166574285Y-91750952D01*
X166612380Y-91674762D01*
X166650475Y-91636667D01*
X166726666Y-91598571D01*
X166840952Y-91598571D01*
X166917142Y-91636667D01*
X166955237Y-91674762D01*
X166993333Y-91750952D01*
X166993333Y-91979524D01*
X166955237Y-92055714D01*
X166917142Y-92093810D01*
X166840952Y-92131905D01*
X166726666Y-92131905D01*
X167336190Y-91598571D02*
X167336190Y-92131905D01*
X167336190Y-91674762D02*
X167374285Y-91636667D01*
X167450476Y-91598571D01*
X167564762Y-91598571D01*
X167640952Y-91636667D01*
X167679047Y-91712857D01*
X167679047Y-92131905D01*
X168060000Y-91598571D02*
X168060000Y-92131905D01*
X168060000Y-91674762D02*
X168098095Y-91636667D01*
X168174286Y-91598571D01*
X168288572Y-91598571D01*
X168364762Y-91636667D01*
X168402857Y-91712857D01*
X168402857Y-92131905D01*
X168593334Y-92208095D02*
X169202858Y-92208095D01*
X169545715Y-91331905D02*
X169621906Y-91331905D01*
X169698096Y-91370000D01*
X169736191Y-91408095D01*
X169774287Y-91484286D01*
X169812382Y-91636667D01*
X169812382Y-91827143D01*
X169774287Y-91979524D01*
X169736191Y-92055714D01*
X169698096Y-92093810D01*
X169621906Y-92131905D01*
X169545715Y-92131905D01*
X169469525Y-92093810D01*
X169431429Y-92055714D01*
X169393334Y-91979524D01*
X169355239Y-91827143D01*
X169355239Y-91636667D01*
X169393334Y-91484286D01*
X169431429Y-91408095D01*
X169469525Y-91370000D01*
X169545715Y-91331905D01*
X170574287Y-92131905D02*
X170117144Y-92131905D01*
X170345715Y-92131905D02*
X170345715Y-91331905D01*
X170269525Y-91446190D01*
X170193334Y-91522381D01*
X170117144Y-91560476D01*
X170840954Y-92131905D02*
X171260001Y-91598571D01*
X170840954Y-91598571D02*
X171260001Y-92131905D01*
X171717144Y-91331905D02*
X171793335Y-91331905D01*
X171869525Y-91370000D01*
X171907620Y-91408095D01*
X171945716Y-91484286D01*
X171983811Y-91636667D01*
X171983811Y-91827143D01*
X171945716Y-91979524D01*
X171907620Y-92055714D01*
X171869525Y-92093810D01*
X171793335Y-92131905D01*
X171717144Y-92131905D01*
X171640954Y-92093810D01*
X171602858Y-92055714D01*
X171564763Y-91979524D01*
X171526668Y-91827143D01*
X171526668Y-91636667D01*
X171564763Y-91484286D01*
X171602858Y-91408095D01*
X171640954Y-91370000D01*
X171717144Y-91331905D01*
X172440954Y-91674762D02*
X172364763Y-91636667D01*
X172326668Y-91598571D01*
X172288573Y-91522381D01*
X172288573Y-91484286D01*
X172326668Y-91408095D01*
X172364763Y-91370000D01*
X172440954Y-91331905D01*
X172593335Y-91331905D01*
X172669525Y-91370000D01*
X172707621Y-91408095D01*
X172745716Y-91484286D01*
X172745716Y-91522381D01*
X172707621Y-91598571D01*
X172669525Y-91636667D01*
X172593335Y-91674762D01*
X172440954Y-91674762D01*
X172364763Y-91712857D01*
X172326668Y-91750952D01*
X172288573Y-91827143D01*
X172288573Y-91979524D01*
X172326668Y-92055714D01*
X172364763Y-92093810D01*
X172440954Y-92131905D01*
X172593335Y-92131905D01*
X172669525Y-92093810D01*
X172707621Y-92055714D01*
X172745716Y-91979524D01*
X172745716Y-91827143D01*
X172707621Y-91750952D01*
X172669525Y-91712857D01*
X172593335Y-91674762D01*
M02*
