M48
;DRILL file {KiCad 4.0.7} date 11/14/17 20:40:40
;FORMAT={-:-/ absolute / metric / decimal}
FMAT,2
METRIC,TZ
T1C0.300
T2C0.600
T3C0.800
T4C0.850
T5C1.000
%
G90
G05
M71
T1
X121.1Y-100.9
X122.14Y-114.61
X122.2Y-108.7
X122.238Y-107.979
X122.264Y-107.176
X124.14Y-117.58
X125.17Y-103.06
X126.11Y-105.388
X126.268Y-103.792
X126.517Y-115.164
X128.3Y-99.2
X128.575Y-104.572
X128.88Y-117.424
X129.76Y-109.425
X130.861Y-107.798
X130.985Y-102.813
X131.29Y-111.32
X131.59Y-114.11
X131.826Y-107.772
X132.044Y-107.022
X132.062Y-105.408
X132.39Y-111.45
X132.674Y-106.425
X133.41Y-106.152
X133.452Y-102.845
X133.452Y-115.685
X134.087Y-103.055
X134.611Y-115.491
X134.747Y-102.607
X134.899Y-114.046
X135.077Y-117.297
X137.414Y-102.972
X137.79Y-115.593
X138.02Y-117.29
X138.73Y-117.7
X139.167Y-102.973
X139.808Y-114.79
X139.825Y-117.58
X140.206Y-102.702
X140.249Y-103.359
X141.087Y-105.059
X141.21Y-115.83
X141.402Y-104.474
X141.879Y-105.861
X142.594Y-107.015
X142.748Y-105.867
X143.02Y-112.35
X143.12Y-108.7
X143.259Y-114.443
X143.29Y-117.22
X143.5Y-111.89
X143.565Y-109.625
X143.675Y-105.8
X143.81Y-107.74
X143.87Y-102.74
X143.988Y-111.4
X144.38Y-108.57
X144.515Y-106.739
X144.539Y-104.188
X144.606Y-111.968
X144.739Y-109.193
X145.125Y-106.513
X145.19Y-113.36
X145.363Y-109.867
X145.567Y-115.316
X145.58Y-116.92
X145.687Y-107.133
X145.75Y-111.89
X146.26Y-115.57
X146.34Y-111.35
X146.37Y-107.43
X146.499Y-103.515
T3
X128.499Y-107.032
X128.499Y-111.912
T4
X123.52Y-106.1
X123.52Y-111.1
T5
X130.835Y-100.178
X133.375Y-100.178
X135.915Y-100.178
X138.455Y-100.178
X140.995Y-100.178
X143.535Y-100.178
T2
X120.47Y-105.1G85X121.17Y-105.1
G05
X121.17Y-112.1G85X120.47Y-112.1
G05
T0
M30
