M48
;DRILL file {KiCad 4.0.7} date 10/12/17 20:38:34
;FORMAT={-:-/ absolute / metric / decimal}
FMAT,2
METRIC,TZ
T1C0.300
T2C0.600
T3C0.800
T4C0.850
T5C1.000
%
G90
G05
M71
T1
X136.347Y-110.007
X138.633Y-102.565
X138.633Y-103.835
X139.725Y-97.384
X141.173Y-110.084
X141.326Y-101.219
X141.376Y-101.93
X142.215Y-97.79
X142.799Y-99.187
X143.434Y-98.806
X143.662Y-110.465
X143.764Y-109.499
X144.12Y-102.159
X144.779Y-107.004
X145.745Y-107.848
X145.831Y-110.734
X146.431Y-103.911
X146.583Y-108.966
X146.634Y-110.795
X146.779Y-108.231
X147.091Y-107.544
X147.226Y-95.623
X148.057Y-111.176
X148.285Y-102.108
X148.387Y-105.994
X148.651Y-101.184
X149.44Y-102.333
X149.657Y-106.045
X149.842Y-107.648
X149.86Y-104.318
X149.951Y-102.008
X150.099Y-101.4
X150.21Y-106.555
X150.404Y-99.219
X150.687Y-101.191
X150.724Y-107.01
X151.333Y-100.228
X151.409Y-98.662
X151.503Y-99.266
X151.819Y-99.776
X152.019Y-112.141
X152.451Y-99.441
X152.984Y-109.855
X153.06Y-98.4
X153.111Y-97.79
X153.797Y-111.328
X155.427Y-97.691
X155.462Y-111.286
X156.337Y-110.49
X156.926Y-98.216
X157.711Y-97.933
X157.972Y-96.178
X158.267Y-97.678
X159.155Y-100.67
X159.642Y-96.797
X159.786Y-100.842
X160.375Y-101.031
X160.401Y-99.797
X160.474Y-101.674
X160.529Y-97.428
X161.009Y-106.656
X161.188Y-107.772
X161.207Y-101.927
X161.366Y-96.798
X161.93Y-102.484
X161.973Y-103.534
X162.203Y-106.542
X162.281Y-107.137
X162.284Y-96.808
X162.354Y-100.855
X162.611Y-101.397
X162.8Y-99.255
X163.034Y-104.302
X163.398Y-99.162
X163.428Y-98.347
X165.471Y-101.383
X165.506Y-102.284
X165.532Y-100.076
X165.592Y-106.588
X165.608Y-104.572
X165.636Y-108.385
X165.71Y-98.552
X165.863Y-105.605
X165.916Y-96.974
X166.268Y-94.336
X166.319Y-95.275
X166.395Y-112.42
X166.51Y-101.79
X166.827Y-103.734
X170.713Y-108.56
T3
X145.872Y-101.575
X145.872Y-106.455
T4
X139.789Y-100.014
X139.789Y-105.014
T5
X148.971Y-95.098
X151.511Y-95.098
X154.051Y-95.098
X156.591Y-95.098
X159.131Y-95.098
X161.671Y-95.098
T2
X136.739Y-99.014G85X137.439Y-99.014
G05
X137.439Y-106.014G85X136.739Y-106.014
G05
T0
M30
