%TF.GenerationSoftware,KiCad,Pcbnew,4.0.7*%
%TF.CreationDate,2017-11-19T11:54:36+08:00*%
%TF.ProjectId,ST-Link V2.1,53542D4C696E6B2056322E312E6B6963,rev?*%
%TF.FileFunction,Paste,Top*%
%FSLAX46Y46*%
G04 Gerber Fmt 4.6, Leading zero omitted, Abs format (unit mm)*
G04 Created by KiCad (PCBNEW 4.0.7) date 11/19/17 11:54:36*
%MOMM*%
%LPD*%
G01*
G04 APERTURE LIST*
%ADD10C,0.100000*%
%ADD11R,1.900000X1.500000*%
%ADD12R,1.350000X0.400000*%
%ADD13R,1.200000X1.200000*%
G04 APERTURE END LIST*
D10*
D11*
X120820200Y-109600000D03*
D12*
X123520200Y-107950000D03*
X123520200Y-107300000D03*
X123520200Y-109900000D03*
X123520200Y-109250000D03*
X123520200Y-108600000D03*
D11*
X120820200Y-107600000D03*
D13*
X127592000Y-117068600D03*
X125392000Y-117068600D03*
X144380912Y-117156150D03*
X144380912Y-114956150D03*
X142223600Y-117177000D03*
X142223600Y-114977000D03*
D10*
G36*
X133473553Y-109276285D02*
X132236117Y-108038849D01*
X132448249Y-107826717D01*
X133685685Y-109064153D01*
X133473553Y-109276285D01*
X133473553Y-109276285D01*
G37*
G36*
X133827106Y-108922732D02*
X132589670Y-107685296D01*
X132801802Y-107473164D01*
X134039238Y-108710600D01*
X133827106Y-108922732D01*
X133827106Y-108922732D01*
G37*
G36*
X134180660Y-108569178D02*
X132943224Y-107331742D01*
X133155356Y-107119610D01*
X134392792Y-108357046D01*
X134180660Y-108569178D01*
X134180660Y-108569178D01*
G37*
G36*
X134534213Y-108215625D02*
X133296777Y-106978189D01*
X133508909Y-106766057D01*
X134746345Y-108003493D01*
X134534213Y-108215625D01*
X134534213Y-108215625D01*
G37*
G36*
X134887766Y-107862072D02*
X133650330Y-106624636D01*
X133862462Y-106412504D01*
X135099898Y-107649940D01*
X134887766Y-107862072D01*
X134887766Y-107862072D01*
G37*
G36*
X134216016Y-106058950D02*
X135453452Y-107296386D01*
X135241320Y-107508518D01*
X134003884Y-106271082D01*
X134216016Y-106058950D01*
X134216016Y-106058950D01*
G37*
G36*
X135594873Y-107154965D02*
X134357437Y-105917529D01*
X134569569Y-105705397D01*
X135807005Y-106942833D01*
X135594873Y-107154965D01*
X135594873Y-107154965D01*
G37*
G36*
X135948427Y-106801411D02*
X134710991Y-105563975D01*
X134923123Y-105351843D01*
X136160559Y-106589279D01*
X135948427Y-106801411D01*
X135948427Y-106801411D01*
G37*
G36*
X136301980Y-106447858D02*
X135064544Y-105210422D01*
X135276676Y-104998290D01*
X136514112Y-106235726D01*
X136301980Y-106447858D01*
X136301980Y-106447858D01*
G37*
G36*
X136655533Y-106094305D02*
X135418097Y-104856869D01*
X135630229Y-104644737D01*
X136867665Y-105882173D01*
X136655533Y-106094305D01*
X136655533Y-106094305D01*
G37*
G36*
X137009087Y-105740751D02*
X135771651Y-104503315D01*
X135983783Y-104291183D01*
X137221219Y-105528619D01*
X137009087Y-105740751D01*
X137009087Y-105740751D01*
G37*
G36*
X137362640Y-105387198D02*
X136125204Y-104149762D01*
X136337336Y-103937630D01*
X137574772Y-105175066D01*
X137362640Y-105387198D01*
X137362640Y-105387198D01*
G37*
G36*
X135807005Y-111892581D02*
X134569569Y-113130017D01*
X134357437Y-112917885D01*
X135594873Y-111680449D01*
X135807005Y-111892581D01*
X135807005Y-111892581D01*
G37*
G36*
X135453452Y-111539028D02*
X134216016Y-112776464D01*
X134003884Y-112564332D01*
X135241320Y-111326896D01*
X135453452Y-111539028D01*
X135453452Y-111539028D01*
G37*
G36*
X135099898Y-111185474D02*
X133862462Y-112422910D01*
X133650330Y-112210778D01*
X134887766Y-110973342D01*
X135099898Y-111185474D01*
X135099898Y-111185474D01*
G37*
G36*
X134746345Y-110831921D02*
X133508909Y-112069357D01*
X133296777Y-111857225D01*
X134534213Y-110619789D01*
X134746345Y-110831921D01*
X134746345Y-110831921D01*
G37*
G36*
X134392792Y-110478368D02*
X133155356Y-111715804D01*
X132943224Y-111503672D01*
X134180660Y-110266236D01*
X134392792Y-110478368D01*
X134392792Y-110478368D01*
G37*
G36*
X134039238Y-110124814D02*
X132801802Y-111362250D01*
X132589670Y-111150118D01*
X133827106Y-109912682D01*
X134039238Y-110124814D01*
X134039238Y-110124814D01*
G37*
G36*
X136160559Y-112246135D02*
X134923123Y-113483571D01*
X134710991Y-113271439D01*
X135948427Y-112034003D01*
X136160559Y-112246135D01*
X136160559Y-112246135D01*
G37*
G36*
X133685685Y-109771261D02*
X132448249Y-111008697D01*
X132236117Y-110796565D01*
X133473553Y-109559129D01*
X133685685Y-109771261D01*
X133685685Y-109771261D01*
G37*
G36*
X136514112Y-112599688D02*
X135276676Y-113837124D01*
X135064544Y-113624992D01*
X136301980Y-112387556D01*
X136514112Y-112599688D01*
X136514112Y-112599688D01*
G37*
G36*
X136867665Y-112953241D02*
X135630229Y-114190677D01*
X135418097Y-113978545D01*
X136655533Y-112741109D01*
X136867665Y-112953241D01*
X136867665Y-112953241D01*
G37*
G36*
X137221219Y-113306795D02*
X135983783Y-114544231D01*
X135771651Y-114332099D01*
X137009087Y-113094663D01*
X137221219Y-113306795D01*
X137221219Y-113306795D01*
G37*
G36*
X137574772Y-113660348D02*
X136337336Y-114897784D01*
X136125204Y-114685652D01*
X137362640Y-113448216D01*
X137574772Y-113660348D01*
X137574772Y-113660348D01*
G37*
G36*
X141216372Y-112776464D02*
X139978936Y-111539028D01*
X140191068Y-111326896D01*
X141428504Y-112564332D01*
X141216372Y-112776464D01*
X141216372Y-112776464D01*
G37*
G36*
X140862819Y-113130017D02*
X139625383Y-111892581D01*
X139837515Y-111680449D01*
X141074951Y-112917885D01*
X140862819Y-113130017D01*
X140862819Y-113130017D01*
G37*
G36*
X140509265Y-113483571D02*
X139271829Y-112246135D01*
X139483961Y-112034003D01*
X140721397Y-113271439D01*
X140509265Y-113483571D01*
X140509265Y-113483571D01*
G37*
G36*
X140155712Y-113837124D02*
X138918276Y-112599688D01*
X139130408Y-112387556D01*
X140367844Y-113624992D01*
X140155712Y-113837124D01*
X140155712Y-113837124D01*
G37*
G36*
X139802159Y-114190677D02*
X138564723Y-112953241D01*
X138776855Y-112741109D01*
X140014291Y-113978545D01*
X139802159Y-114190677D01*
X139802159Y-114190677D01*
G37*
G36*
X139448605Y-114544231D02*
X138211169Y-113306795D01*
X138423301Y-113094663D01*
X139660737Y-114332099D01*
X139448605Y-114544231D01*
X139448605Y-114544231D01*
G37*
G36*
X139095052Y-114897784D02*
X137857616Y-113660348D01*
X138069748Y-113448216D01*
X139307184Y-114685652D01*
X139095052Y-114897784D01*
X139095052Y-114897784D01*
G37*
G36*
X141569926Y-112422910D02*
X140332490Y-111185474D01*
X140544622Y-110973342D01*
X141782058Y-112210778D01*
X141569926Y-112422910D01*
X141569926Y-112422910D01*
G37*
G36*
X141923479Y-112069357D02*
X140686043Y-110831921D01*
X140898175Y-110619789D01*
X142135611Y-111857225D01*
X141923479Y-112069357D01*
X141923479Y-112069357D01*
G37*
G36*
X142277032Y-111715804D02*
X141039596Y-110478368D01*
X141251728Y-110266236D01*
X142489164Y-111503672D01*
X142277032Y-111715804D01*
X142277032Y-111715804D01*
G37*
G36*
X142630586Y-111362250D02*
X141393150Y-110124814D01*
X141605282Y-109912682D01*
X142842718Y-111150118D01*
X142630586Y-111362250D01*
X142630586Y-111362250D01*
G37*
G36*
X142984139Y-111008697D02*
X141746703Y-109771261D01*
X141958835Y-109559129D01*
X143196271Y-110796565D01*
X142984139Y-111008697D01*
X142984139Y-111008697D01*
G37*
G36*
X141074951Y-105917529D02*
X139837515Y-107154965D01*
X139625383Y-106942833D01*
X140862819Y-105705397D01*
X141074951Y-105917529D01*
X141074951Y-105917529D01*
G37*
G36*
X141428504Y-106271082D02*
X140191068Y-107508518D01*
X139978936Y-107296386D01*
X141216372Y-106058950D01*
X141428504Y-106271082D01*
X141428504Y-106271082D01*
G37*
G36*
X140721397Y-105563975D02*
X139483961Y-106801411D01*
X139271829Y-106589279D01*
X140509265Y-105351843D01*
X140721397Y-105563975D01*
X140721397Y-105563975D01*
G37*
G36*
X140367844Y-105210422D02*
X139130408Y-106447858D01*
X138918276Y-106235726D01*
X140155712Y-104998290D01*
X140367844Y-105210422D01*
X140367844Y-105210422D01*
G37*
G36*
X140014291Y-104856869D02*
X138776855Y-106094305D01*
X138564723Y-105882173D01*
X139802159Y-104644737D01*
X140014291Y-104856869D01*
X140014291Y-104856869D01*
G37*
G36*
X139660737Y-104503315D02*
X138423301Y-105740751D01*
X138211169Y-105528619D01*
X139448605Y-104291183D01*
X139660737Y-104503315D01*
X139660737Y-104503315D01*
G37*
G36*
X139307184Y-104149762D02*
X138069748Y-105387198D01*
X137857616Y-105175066D01*
X139095052Y-103937630D01*
X139307184Y-104149762D01*
X139307184Y-104149762D01*
G37*
G36*
X141782058Y-106624636D02*
X140544622Y-107862072D01*
X140332490Y-107649940D01*
X141569926Y-106412504D01*
X141782058Y-106624636D01*
X141782058Y-106624636D01*
G37*
G36*
X142135611Y-106978189D02*
X140898175Y-108215625D01*
X140686043Y-108003493D01*
X141923479Y-106766057D01*
X142135611Y-106978189D01*
X142135611Y-106978189D01*
G37*
G36*
X142489164Y-107331742D02*
X141251728Y-108569178D01*
X141039596Y-108357046D01*
X142277032Y-107119610D01*
X142489164Y-107331742D01*
X142489164Y-107331742D01*
G37*
G36*
X142842718Y-107685296D02*
X141605282Y-108922732D01*
X141393150Y-108710600D01*
X142630586Y-107473164D01*
X142842718Y-107685296D01*
X142842718Y-107685296D01*
G37*
G36*
X143196271Y-108038849D02*
X141958835Y-109276285D01*
X141746703Y-109064153D01*
X142984139Y-107826717D01*
X143196271Y-108038849D01*
X143196271Y-108038849D01*
G37*
M02*
