G04 #@! TF.FileFunction,Paste,Bot*
%FSLAX46Y46*%
G04 Gerber Fmt 4.6, Leading zero omitted, Abs format (unit mm)*
G04 Created by KiCad (PCBNEW 4.0.7) date 11/14/17 20:41:01*
%MOMM*%
%LPD*%
G01*
G04 APERTURE LIST*
%ADD10C,0.100000*%
%ADD11R,0.900000X0.500000*%
%ADD12R,0.750000X0.800000*%
%ADD13R,1.060000X0.650000*%
%ADD14R,0.500000X0.900000*%
%ADD15R,0.900000X0.800000*%
%ADD16R,0.800000X0.750000*%
G04 APERTURE END LIST*
D10*
D11*
X133065000Y-112040000D03*
X133065000Y-113540000D03*
X140960000Y-113360000D03*
X140960000Y-111860000D03*
X138720000Y-111970000D03*
X138720000Y-113470000D03*
X135670000Y-103800000D03*
X135670000Y-102300000D03*
X134721600Y-110190000D03*
X134721600Y-108690000D03*
D12*
X136320000Y-114920000D03*
X136320000Y-116420000D03*
X142062200Y-110190000D03*
X142062200Y-108690000D03*
X139100000Y-103800000D03*
X139100000Y-102300000D03*
X132892800Y-110249400D03*
X132892800Y-108749400D03*
D11*
X127470000Y-116650000D03*
X127470000Y-115150000D03*
X144380912Y-115296150D03*
X144380912Y-116796150D03*
X142223600Y-116827000D03*
X142223600Y-115327000D03*
D13*
X123270000Y-116320000D03*
X123270000Y-115370000D03*
X123270000Y-114420000D03*
X125470000Y-114420000D03*
X125470000Y-116320000D03*
X125470000Y-115370000D03*
D11*
X137390000Y-102300000D03*
X137390000Y-103800000D03*
X136448800Y-108690000D03*
X136448800Y-110190000D03*
X138099800Y-110190000D03*
X138099800Y-108690000D03*
X140430000Y-108690000D03*
X140430000Y-110190000D03*
X127336200Y-99963400D03*
X127336200Y-101463400D03*
X133870000Y-102230000D03*
X133870000Y-103730000D03*
X123983400Y-101463400D03*
X123983400Y-99963400D03*
X125659800Y-99963400D03*
X125659800Y-101463400D03*
X121005600Y-107008800D03*
X121005600Y-108508800D03*
D14*
X119740600Y-115649200D03*
X121240600Y-115649200D03*
X121216600Y-114023600D03*
X119716600Y-114023600D03*
X119740600Y-117325600D03*
X121240600Y-117325600D03*
D11*
X133065000Y-114860400D03*
X133065000Y-116360400D03*
X134665200Y-114860400D03*
X134665200Y-116360400D03*
X131490200Y-114885800D03*
X131490200Y-116385800D03*
D15*
X122200000Y-99950000D03*
X122200000Y-101850000D03*
X120200000Y-100900000D03*
D12*
X131190000Y-110260000D03*
X131190000Y-108760000D03*
D16*
X127592600Y-102987600D03*
X126092600Y-102987600D03*
D12*
X129810000Y-108750000D03*
X129810000Y-110250000D03*
X126950000Y-110260000D03*
X126950000Y-108760000D03*
X129813800Y-116360400D03*
X129813800Y-114860400D03*
X137940000Y-114920000D03*
X137940000Y-116420000D03*
D16*
X127592600Y-104587800D03*
X126092600Y-104587800D03*
D13*
X129580000Y-104630000D03*
X129580000Y-103680000D03*
X129580000Y-102730000D03*
X131780000Y-102730000D03*
X131780000Y-104630000D03*
M02*
