G04 #@! TF.FileFunction,Legend,Top*
%FSLAX46Y46*%
G04 Gerber Fmt 4.6, Leading zero omitted, Abs format (unit mm)*
G04 Created by KiCad (PCBNEW 4.0.7) date 10/12/17 20:38:22*
%MOMM*%
%LPD*%
G01*
G04 APERTURE LIST*
%ADD10C,0.100000*%
%ADD11C,0.150000*%
%ADD12C,0.120000*%
%ADD13C,0.500000*%
G04 APERTURE END LIST*
D10*
D11*
X150253135Y-104644930D02*
G75*
G03X150253135Y-104644930I-72801J0D01*
G01*
D12*
X143347200Y-107214600D02*
X143347200Y-100814600D01*
X148397200Y-107214600D02*
X148397200Y-100814600D01*
X148397200Y-107214600D02*
G75*
G02X143347200Y-107214600I-2525000J0D01*
G01*
X148397200Y-100814600D02*
G75*
G03X143347200Y-100814600I-2525000J0D01*
G01*
X164041200Y-100563200D02*
X165041200Y-100563200D01*
X165041200Y-100563200D02*
X165041200Y-98463200D01*
X164041200Y-100563200D02*
X164041200Y-98463200D01*
X164041200Y-104817600D02*
X165041200Y-104817600D01*
X165041200Y-104817600D02*
X165041200Y-102717600D01*
X164041200Y-104817600D02*
X164041200Y-102717600D01*
X140089400Y-98614400D02*
X140089400Y-99064400D01*
X138239400Y-98614400D02*
X140089400Y-98614400D01*
X135689400Y-106414400D02*
X135939400Y-106414400D01*
X135689400Y-98614400D02*
X135939400Y-98614400D01*
X138239400Y-106414400D02*
X140089400Y-106414400D01*
X140089400Y-106414400D02*
X140089400Y-105964400D01*
X140639400Y-100814400D02*
X140639400Y-101264400D01*
X140639400Y-100814400D02*
X140189400Y-100814400D01*
X160401000Y-93767600D02*
X147641000Y-93767600D01*
X147641000Y-93767600D02*
X147641000Y-96427600D01*
X147641000Y-96427600D02*
X160401000Y-96427600D01*
X160401000Y-96427600D02*
X160401000Y-93767600D01*
X161671000Y-93767600D02*
X163001000Y-93767600D01*
X163001000Y-93767600D02*
X163001000Y-95097600D01*
X164041200Y-108830800D02*
X165041200Y-108830800D01*
X165041200Y-108830800D02*
X165041200Y-106730800D01*
X164041200Y-108830800D02*
X164041200Y-106730800D01*
D13*
X171126995Y-93697060D02*
G75*
G03X171126995Y-93697060I-218455J0D01*
G01*
D11*
X158449222Y-108271219D02*
X158907157Y-108729154D01*
X158987969Y-108756092D01*
X159041845Y-108756092D01*
X159122657Y-108729154D01*
X159230406Y-108621405D01*
X159257344Y-108540592D01*
X159257343Y-108486717D01*
X159230406Y-108405905D01*
X158772470Y-107947970D01*
X159068781Y-107759408D02*
X159068781Y-107705533D01*
X159095719Y-107624721D01*
X159230406Y-107490034D01*
X159311218Y-107463097D01*
X159365093Y-107463096D01*
X159445905Y-107490034D01*
X159499780Y-107543908D01*
X159553655Y-107651658D01*
X159553655Y-108298156D01*
X159903841Y-107947970D01*
X142131905Y-104037619D02*
X142931905Y-103504286D01*
X142131905Y-103504286D02*
X142931905Y-104037619D01*
X142931905Y-102780476D02*
X142931905Y-103237619D01*
X142931905Y-103009048D02*
X142131905Y-103009048D01*
X142246190Y-103085238D01*
X142322381Y-103161429D01*
X142360476Y-103237619D01*
X163653105Y-99853676D02*
X162853105Y-99853676D01*
X162853105Y-99663200D01*
X162891200Y-99548914D01*
X162967390Y-99472723D01*
X163043581Y-99434628D01*
X163195962Y-99396533D01*
X163310248Y-99396533D01*
X163462629Y-99434628D01*
X163538819Y-99472723D01*
X163615010Y-99548914D01*
X163653105Y-99663200D01*
X163653105Y-99853676D01*
X163653105Y-98634628D02*
X163653105Y-99091771D01*
X163653105Y-98863200D02*
X162853105Y-98863200D01*
X162967390Y-98939390D01*
X163043581Y-99015581D01*
X163081676Y-99091771D01*
X163653105Y-104108076D02*
X162853105Y-104108076D01*
X162853105Y-103917600D01*
X162891200Y-103803314D01*
X162967390Y-103727123D01*
X163043581Y-103689028D01*
X163195962Y-103650933D01*
X163310248Y-103650933D01*
X163462629Y-103689028D01*
X163538819Y-103727123D01*
X163615010Y-103803314D01*
X163653105Y-103917600D01*
X163653105Y-104108076D01*
X162929295Y-103346171D02*
X162891200Y-103308076D01*
X162853105Y-103231885D01*
X162853105Y-103041409D01*
X162891200Y-102965219D01*
X162929295Y-102927123D01*
X163005486Y-102889028D01*
X163081676Y-102889028D01*
X163195962Y-102927123D01*
X163653105Y-103384266D01*
X163653105Y-102889028D01*
X134941905Y-102866666D02*
X135513333Y-102866666D01*
X135627619Y-102904762D01*
X135703810Y-102980952D01*
X135741905Y-103095238D01*
X135741905Y-103171428D01*
X135741905Y-102066666D02*
X135741905Y-102523809D01*
X135741905Y-102295238D02*
X134941905Y-102295238D01*
X135056190Y-102371428D01*
X135132381Y-102447619D01*
X135170476Y-102523809D01*
X163683334Y-94651905D02*
X163683334Y-95223333D01*
X163645238Y-95337619D01*
X163569048Y-95413810D01*
X163454762Y-95451905D01*
X163378572Y-95451905D01*
X164026191Y-94728095D02*
X164064286Y-94690000D01*
X164140477Y-94651905D01*
X164330953Y-94651905D01*
X164407143Y-94690000D01*
X164445239Y-94728095D01*
X164483334Y-94804286D01*
X164483334Y-94880476D01*
X164445239Y-94994762D01*
X163988096Y-95451905D01*
X164483334Y-95451905D01*
X163653105Y-108064133D02*
X163653105Y-108445086D01*
X162853105Y-108445086D01*
X163653105Y-107797467D02*
X162853105Y-107797467D01*
X162853105Y-107606991D01*
X162891200Y-107492705D01*
X162967390Y-107416514D01*
X163043581Y-107378419D01*
X163195962Y-107340324D01*
X163310248Y-107340324D01*
X163462629Y-107378419D01*
X163538819Y-107416514D01*
X163615010Y-107492705D01*
X163653105Y-107606991D01*
X163653105Y-107797467D01*
X163653105Y-106578419D02*
X163653105Y-107035562D01*
X163653105Y-106806991D02*
X162853105Y-106806991D01*
X162967390Y-106883181D01*
X163043581Y-106959372D01*
X163081676Y-107035562D01*
X168453334Y-92701905D02*
X168453334Y-93273333D01*
X168415238Y-93387619D01*
X168339048Y-93463810D01*
X168224762Y-93501905D01*
X168148572Y-93501905D01*
X168758096Y-92701905D02*
X169253334Y-92701905D01*
X168986667Y-93006667D01*
X169100953Y-93006667D01*
X169177143Y-93044762D01*
X169215239Y-93082857D01*
X169253334Y-93159048D01*
X169253334Y-93349524D01*
X169215239Y-93425714D01*
X169177143Y-93463810D01*
X169100953Y-93501905D01*
X168872381Y-93501905D01*
X168796191Y-93463810D01*
X168758096Y-93425714D01*
M02*
