G04 #@! TF.FileFunction,Copper,L2,Bot,Signal*
%FSLAX46Y46*%
G04 Gerber Fmt 4.6, Leading zero omitted, Abs format (unit mm)*
G04 Created by KiCad (PCBNEW 4.0.7) date 11/14/17 20:41:01*
%MOMM*%
%LPD*%
G01*
G04 APERTURE LIST*
%ADD10C,0.100000*%
%ADD11R,0.900000X0.500000*%
%ADD12C,1.450000*%
%ADD13O,1.900000X1.200000*%
%ADD14R,1.700000X1.700000*%
%ADD15O,1.700000X1.700000*%
%ADD16R,0.750000X0.800000*%
%ADD17R,1.060000X0.650000*%
%ADD18R,0.500000X0.900000*%
%ADD19R,0.900000X0.800000*%
%ADD20R,0.800000X0.750000*%
%ADD21C,1.500000*%
%ADD22C,0.453000*%
%ADD23C,0.450000*%
%ADD24C,0.400000*%
%ADD25C,0.250000*%
%ADD26C,0.254000*%
G04 APERTURE END LIST*
D10*
D11*
X133065000Y-112040000D03*
X133065000Y-113540000D03*
X140960000Y-113360000D03*
X140960000Y-111860000D03*
X138720000Y-111970000D03*
X138720000Y-113470000D03*
D12*
X123520200Y-106100000D03*
X123520200Y-111100000D03*
D13*
X120820200Y-105100000D03*
X120820200Y-112100000D03*
D10*
G36*
X149900000Y-98920000D02*
X149900000Y-100720000D01*
X146900000Y-100720000D01*
X146900000Y-98920000D01*
X149900000Y-98920000D01*
X149900000Y-98920000D01*
G37*
G36*
X149900000Y-101460000D02*
X149900000Y-103260000D01*
X146900000Y-103260000D01*
X146900000Y-101460000D01*
X149900000Y-101460000D01*
X149900000Y-101460000D01*
G37*
G36*
X149900000Y-104000000D02*
X149900000Y-105800000D01*
X146900000Y-105800000D01*
X146900000Y-104000000D01*
X149900000Y-104000000D01*
X149900000Y-104000000D01*
G37*
G36*
X149900000Y-106540000D02*
X149900000Y-108340000D01*
X146900000Y-108340000D01*
X146900000Y-106540000D01*
X149900000Y-106540000D01*
X149900000Y-106540000D01*
G37*
G36*
X149900000Y-109080000D02*
X149900000Y-110880000D01*
X146900000Y-110880000D01*
X146900000Y-109080000D01*
X149900000Y-109080000D01*
X149900000Y-109080000D01*
G37*
G36*
X149900000Y-111620000D02*
X149900000Y-113420000D01*
X146900000Y-113420000D01*
X146900000Y-111620000D01*
X149900000Y-111620000D01*
X149900000Y-111620000D01*
G37*
G36*
X149900000Y-114160000D02*
X149900000Y-115960000D01*
X146900000Y-115960000D01*
X146900000Y-114160000D01*
X149900000Y-114160000D01*
X149900000Y-114160000D01*
G37*
G36*
X149900000Y-116700000D02*
X149900000Y-118500000D01*
X146900000Y-118500000D01*
X146900000Y-116700000D01*
X149900000Y-116700000D01*
X149900000Y-116700000D01*
G37*
D14*
X143535400Y-100177600D03*
D15*
X140995400Y-100177600D03*
X138455400Y-100177600D03*
X135915400Y-100177600D03*
X133375400Y-100177600D03*
X130835400Y-100177600D03*
D11*
X135670000Y-103800000D03*
X135670000Y-102300000D03*
X134721600Y-110190000D03*
X134721600Y-108690000D03*
D16*
X136320000Y-114920000D03*
X136320000Y-116420000D03*
X142062200Y-110190000D03*
X142062200Y-108690000D03*
X139100000Y-103800000D03*
X139100000Y-102300000D03*
X132892800Y-110249400D03*
X132892800Y-108749400D03*
D11*
X127470000Y-116650000D03*
X127470000Y-115150000D03*
X144380912Y-115296150D03*
X144380912Y-116796150D03*
X142223600Y-116827000D03*
X142223600Y-115327000D03*
D17*
X123270000Y-116320000D03*
X123270000Y-115370000D03*
X123270000Y-114420000D03*
X125470000Y-114420000D03*
X125470000Y-116320000D03*
X125470000Y-115370000D03*
D11*
X137390000Y-102300000D03*
X137390000Y-103800000D03*
X136448800Y-108690000D03*
X136448800Y-110190000D03*
X138099800Y-110190000D03*
X138099800Y-108690000D03*
X140430000Y-108690000D03*
X140430000Y-110190000D03*
X127336200Y-99963400D03*
X127336200Y-101463400D03*
X133870000Y-102230000D03*
X133870000Y-103730000D03*
X123983400Y-101463400D03*
X123983400Y-99963400D03*
X125659800Y-99963400D03*
X125659800Y-101463400D03*
X121005600Y-107008800D03*
X121005600Y-108508800D03*
D18*
X119740600Y-115649200D03*
X121240600Y-115649200D03*
X121216600Y-114023600D03*
X119716600Y-114023600D03*
X119740600Y-117325600D03*
X121240600Y-117325600D03*
D11*
X133065000Y-114860400D03*
X133065000Y-116360400D03*
X134665200Y-114860400D03*
X134665200Y-116360400D03*
X131490200Y-114885800D03*
X131490200Y-116385800D03*
D19*
X122200000Y-99950000D03*
X122200000Y-101850000D03*
X120200000Y-100900000D03*
D16*
X131190000Y-110260000D03*
X131190000Y-108760000D03*
D20*
X127592600Y-102987600D03*
X126092600Y-102987600D03*
D16*
X129810000Y-108750000D03*
X129810000Y-110250000D03*
X126950000Y-110260000D03*
X126950000Y-108760000D03*
X129813800Y-116360400D03*
X129813800Y-114860400D03*
X137940000Y-114920000D03*
X137940000Y-116420000D03*
D21*
X128498600Y-111912400D03*
X128498600Y-107032400D03*
D20*
X127592600Y-104587800D03*
X126092600Y-104587800D03*
D17*
X129580000Y-104630000D03*
X129580000Y-103680000D03*
X129580000Y-102730000D03*
X131780000Y-102730000D03*
X131780000Y-104630000D03*
D22*
X131290000Y-111320000D03*
X144605679Y-111968491D03*
D23*
X145363428Y-109866556D03*
X143258924Y-114443176D03*
X146370000Y-107430000D03*
D22*
X139166600Y-102973463D03*
X121100000Y-100900000D03*
X135077200Y-117297200D03*
X130860800Y-107797600D03*
X126517400Y-115163600D03*
X134899400Y-114046000D03*
X128574800Y-104571800D03*
X125170000Y-103060000D03*
D23*
X143290000Y-117220000D03*
D22*
X145567400Y-115316000D03*
X122140000Y-114610000D03*
D23*
X144515474Y-106738838D03*
D22*
X142748000Y-105867200D03*
D23*
X145687089Y-107132622D03*
D22*
X143564544Y-109625456D03*
X144739500Y-109193326D03*
X143870000Y-102740000D03*
X145190000Y-113360000D03*
X146340000Y-111350000D03*
D23*
X139825238Y-117579991D03*
X138730000Y-117699991D03*
X145125067Y-106513204D03*
D22*
X144538745Y-104188039D03*
X145580000Y-116920000D03*
X146260000Y-115570000D03*
X145750000Y-111890000D03*
X144380002Y-108570000D03*
D23*
X141878669Y-105861469D03*
D22*
X141401731Y-104474250D03*
X141086874Y-105059212D03*
X128300000Y-99200000D03*
X143120000Y-108700000D03*
D23*
X132673969Y-106424991D03*
X134086600Y-103054981D03*
X132043964Y-107022340D03*
X134747000Y-102607209D03*
X134611209Y-115491203D03*
D22*
X146499053Y-103514621D03*
X137414000Y-102971600D03*
X140206389Y-102701509D03*
D23*
X139807856Y-114789995D03*
D22*
X143810000Y-107740000D03*
X143675000Y-105800000D03*
D23*
X142594249Y-107014533D03*
X126110000Y-105387811D03*
D22*
X131590000Y-114110000D03*
X124140000Y-117580000D03*
X138020000Y-117290000D03*
X141210000Y-115830002D03*
X137790000Y-115593499D03*
X143988012Y-111400000D03*
X140248975Y-103359202D03*
X131826000Y-107772200D03*
D23*
X133451600Y-115685389D03*
X122264001Y-107175633D03*
X129760000Y-109424989D03*
X126267591Y-103792480D03*
X130985009Y-102812552D03*
X122238065Y-107979401D03*
D22*
X122200000Y-108700000D03*
D23*
X133409607Y-106152400D03*
D22*
X132062414Y-105407999D03*
X133451600Y-102844600D03*
X128879600Y-117424200D03*
X143020099Y-112350008D03*
X143500000Y-111890000D03*
X132390000Y-111450000D03*
D24*
X131290000Y-112520001D02*
X131290000Y-111320000D01*
X131459999Y-112690000D02*
X131290000Y-112520001D01*
X133543400Y-112690000D02*
X131459999Y-112690000D01*
X134899400Y-114046000D02*
X133543400Y-112690000D01*
D25*
X139703778Y-116420000D02*
X137940000Y-116420000D01*
X143258924Y-114443176D02*
X141680602Y-114443176D01*
X141680602Y-114443176D02*
X139703778Y-116420000D01*
X140960000Y-113360000D02*
X142175748Y-113360000D01*
X142175748Y-113360000D02*
X143258924Y-114443176D01*
X144184711Y-110738490D02*
X144605679Y-111159458D01*
D24*
X143258924Y-114443176D02*
X143258924Y-113315246D01*
X143258924Y-113315246D02*
X144605679Y-111968491D01*
D25*
X143848187Y-110738490D02*
X144184711Y-110738490D01*
X142062200Y-108750000D02*
X142062200Y-108952503D01*
X142062200Y-108952503D02*
X143848187Y-110738490D01*
X144605679Y-111159458D02*
X144605679Y-111968491D01*
X146370000Y-108859984D02*
X145363428Y-109866556D01*
X146370000Y-107430000D02*
X146370000Y-108859984D01*
D24*
X146380000Y-107440000D02*
X146370000Y-107430000D01*
X148400000Y-107440000D02*
X146380000Y-107440000D01*
X138535200Y-108685200D02*
X139100000Y-109250000D01*
X138099800Y-108685200D02*
X138535200Y-108685200D01*
X137745400Y-111200000D02*
X134899400Y-114046000D01*
X139100000Y-109250000D02*
X139100000Y-110605001D01*
X139100000Y-110605001D02*
X138505001Y-111200000D01*
X138505001Y-111200000D02*
X137745400Y-111200000D01*
X131410020Y-107248380D02*
X130860800Y-107797600D01*
X131410020Y-104999980D02*
X131410020Y-107248380D01*
X131780000Y-104630000D02*
X131410020Y-104999980D01*
X136320000Y-116420000D02*
X137940000Y-116420000D01*
X135077200Y-117297200D02*
X135442800Y-117297200D01*
X135442800Y-117297200D02*
X136320000Y-116420000D01*
X133065000Y-116360400D02*
X134001800Y-117297200D01*
X134001800Y-117297200D02*
X135077200Y-117297200D01*
X131490200Y-116385800D02*
X133039600Y-116385800D01*
X133039600Y-116385800D02*
X133065000Y-116360400D01*
X139100000Y-102300000D02*
X139100000Y-102275000D01*
X137237800Y-101500000D02*
X135915400Y-100177600D01*
X139100000Y-102275000D02*
X138325000Y-101500000D01*
X138325000Y-101500000D02*
X137237800Y-101500000D01*
X131190000Y-108760000D02*
X132882200Y-108760000D01*
X132882200Y-108760000D02*
X132892800Y-108749400D01*
X130860800Y-107797600D02*
X130860800Y-108430800D01*
X130860800Y-108430800D02*
X131190000Y-108760000D01*
D25*
X139100000Y-102300000D02*
X139100000Y-102950000D01*
X139100000Y-102950000D02*
X139123463Y-102973463D01*
X139123463Y-102973463D02*
X139166600Y-102973463D01*
X121100000Y-100900000D02*
X120200000Y-100900000D01*
X126517400Y-115163600D02*
X125676400Y-115163600D01*
X125676400Y-115163600D02*
X125470000Y-115370000D01*
X127470000Y-115150000D02*
X126531000Y-115150000D01*
X126531000Y-115150000D02*
X126517400Y-115163600D01*
D24*
X125170000Y-103060000D02*
X125659800Y-102570200D01*
X125659800Y-102570200D02*
X125659800Y-102554800D01*
X125659800Y-101463400D02*
X125659800Y-102554800D01*
X125659800Y-102554800D02*
X126092600Y-102987600D01*
X128574800Y-104571800D02*
X128574800Y-103110199D01*
X128954999Y-102730000D02*
X129580000Y-102730000D01*
X128574800Y-103110199D02*
X128954999Y-102730000D01*
X128574800Y-104571800D02*
X129521800Y-104571800D01*
X129521800Y-104571800D02*
X129580000Y-104630000D01*
X129580000Y-104630000D02*
X129268000Y-104630000D01*
X129268000Y-104630000D02*
X129260600Y-104622600D01*
X129260600Y-104622600D02*
X129082800Y-104622600D01*
D25*
X143290000Y-117193400D02*
X143290000Y-117220000D01*
X142923600Y-116827000D02*
X143290000Y-117193400D01*
X142223600Y-116827000D02*
X142923600Y-116827000D01*
X144400762Y-115316000D02*
X144380912Y-115296150D01*
X145567400Y-115316000D02*
X144400762Y-115316000D01*
X144327112Y-115242350D02*
X144380912Y-115296150D01*
X121240600Y-115649200D02*
X121240600Y-115509400D01*
X121240600Y-115509400D02*
X122140000Y-114610000D01*
X121240600Y-115649200D02*
X121240600Y-117325600D01*
X143761684Y-106738838D02*
X144515474Y-106738838D01*
X142748000Y-105867200D02*
X142890046Y-105867200D01*
X142890046Y-105867200D02*
X143761684Y-106738838D01*
X145687089Y-108245737D02*
X145687089Y-107132622D01*
X144739500Y-109193326D02*
X145687089Y-108245737D01*
X143934586Y-109851955D02*
X143791043Y-109851955D01*
X145190000Y-113360000D02*
X145190000Y-111107369D01*
X143791043Y-109851955D02*
X143564544Y-109625456D01*
X145190000Y-111107369D02*
X143934586Y-109851955D01*
X144250000Y-102360000D02*
X143870000Y-102740000D01*
X148400000Y-102360000D02*
X144250000Y-102360000D01*
X148348700Y-102124601D02*
X148190723Y-102124601D01*
X148337800Y-102297800D02*
X148400000Y-102360000D01*
X147285000Y-112295000D02*
X146340000Y-111350000D01*
X148350000Y-112295000D02*
X147285000Y-112295000D01*
X141715614Y-116175000D02*
X140310623Y-117579991D01*
X140310623Y-117579991D02*
X139825238Y-117579991D01*
X147010000Y-116175000D02*
X141715614Y-116175000D01*
X148350000Y-114835000D02*
X147010000Y-116175000D01*
X147595000Y-118130000D02*
X139160009Y-118130000D01*
X139160009Y-118130000D02*
X138730000Y-117699991D01*
X148350000Y-117375000D02*
X147595000Y-118130000D01*
X122200000Y-99950000D02*
X123970000Y-99950000D01*
X123970000Y-99950000D02*
X123983400Y-99963400D01*
X123983400Y-99963400D02*
X125659800Y-99963400D01*
X125659800Y-99963400D02*
X125836200Y-99963400D01*
X125836200Y-99963400D02*
X127336200Y-101463400D01*
X122200000Y-101850000D02*
X122200000Y-106333801D01*
X122200000Y-106333801D02*
X122825600Y-106959401D01*
X122825600Y-106959401D02*
X122825600Y-108888401D01*
X122095209Y-109618792D02*
X122095209Y-112754791D01*
X121601400Y-113248600D02*
X120706599Y-113248600D01*
X122825600Y-108888401D02*
X122095209Y-109618792D01*
X122095209Y-112754791D02*
X121601400Y-113248600D01*
X120325000Y-113630199D02*
X120325000Y-115225000D01*
X120706599Y-113248600D02*
X120325000Y-113630199D01*
X120325000Y-115225000D02*
X119900800Y-115649200D01*
X119900800Y-115649200D02*
X119740600Y-115649200D01*
X145125067Y-107824935D02*
X145125067Y-106513204D01*
X144380002Y-108570000D02*
X145125067Y-107824935D01*
X143552099Y-104188039D02*
X144538745Y-104188039D01*
X141878669Y-105861469D02*
X143552099Y-104188039D01*
X143165613Y-115327000D02*
X143972613Y-114520000D01*
X143972613Y-114520000D02*
X145750000Y-114520000D01*
X145580000Y-116920000D02*
X144504762Y-116920000D01*
X144504762Y-116920000D02*
X144380912Y-116796150D01*
X145750000Y-114520000D02*
X146260000Y-115030000D01*
X146260000Y-115030000D02*
X146260000Y-115570000D01*
X145750000Y-111890000D02*
X145750000Y-114520000D01*
X142223600Y-115327000D02*
X143165613Y-115327000D01*
X142233600Y-115337000D02*
X142223600Y-115327000D01*
X125470000Y-116320000D02*
X124690000Y-116320000D01*
X127805831Y-105507390D02*
X130133002Y-105507390D01*
X133095000Y-104240001D02*
X133756999Y-104902000D01*
X140131800Y-104902000D02*
X140611116Y-104422684D01*
X141350165Y-104422684D02*
X141401731Y-104474250D01*
X124690000Y-116320000D02*
X124615000Y-116245000D01*
X130435001Y-103898588D02*
X130803599Y-103529990D01*
X124615000Y-116245000D02*
X124615000Y-108698221D01*
X124615000Y-108698221D02*
X127805831Y-105507390D01*
X130133002Y-105507390D02*
X130435000Y-105205392D01*
X130435000Y-105205392D02*
X130435001Y-103898588D01*
X130803599Y-103529990D02*
X132635779Y-103529991D01*
X132635779Y-103529991D02*
X133095000Y-103989211D01*
X133095000Y-103989211D02*
X133095000Y-104240001D01*
X133756999Y-104902000D02*
X140131800Y-104902000D01*
X140611116Y-104422684D02*
X141350165Y-104422684D01*
X125470000Y-114420000D02*
X125470000Y-108479631D01*
X125470000Y-108479631D02*
X127992231Y-105957400D01*
X130319403Y-105957399D02*
X130885010Y-105391792D01*
X132449378Y-103980000D02*
X132644990Y-104175612D01*
X133628589Y-105410000D02*
X140736086Y-105410000D01*
X127992231Y-105957400D02*
X130319403Y-105957399D01*
X130885010Y-105391792D02*
X130885010Y-104084989D01*
X130885010Y-104084989D02*
X130989999Y-103980000D01*
X130989999Y-103980000D02*
X132449378Y-103980000D01*
X132644990Y-104175612D02*
X132644991Y-104426402D01*
X132644991Y-104426402D02*
X133628589Y-105410000D01*
X140736086Y-105410000D02*
X141086874Y-105059212D01*
X128299600Y-99200000D02*
X128300000Y-99200000D01*
X127536200Y-99963400D02*
X128299600Y-99200000D01*
X127336200Y-99963400D02*
X127536200Y-99963400D01*
X142422201Y-107750000D02*
X143120000Y-108447799D01*
X141636720Y-107750000D02*
X142422201Y-107750000D01*
X143120000Y-108447799D02*
X143120000Y-108700000D01*
X141230000Y-108156720D02*
X141636720Y-107750000D01*
X140436600Y-110147800D02*
X140636600Y-110147800D01*
X141230000Y-109554400D02*
X141230000Y-108156720D01*
X140636600Y-110147800D02*
X141230000Y-109554400D01*
X136989400Y-110180400D02*
X136400400Y-110180400D01*
X136400400Y-110180400D02*
X135620000Y-109400000D01*
X135620000Y-109400000D02*
X135620000Y-107992810D01*
X135620000Y-107992810D02*
X134402200Y-106775010D01*
X134402200Y-106775010D02*
X133023988Y-106775010D01*
X133023988Y-106775010D02*
X132673969Y-106424991D01*
X136989400Y-110180400D02*
X136994200Y-110185200D01*
X136994200Y-110185200D02*
X138099800Y-110185200D01*
X136989400Y-110180400D02*
X134726400Y-110180400D01*
X134726400Y-110180400D02*
X134721600Y-110185200D01*
X135670000Y-103800000D02*
X135169000Y-103800000D01*
X135169000Y-103800000D02*
X134423981Y-103054981D01*
X134423981Y-103054981D02*
X134086600Y-103054981D01*
X135670000Y-103800000D02*
X137390000Y-103800000D01*
X134721600Y-108185200D02*
X134721600Y-108685200D01*
X132268963Y-107247339D02*
X133783739Y-107247339D01*
X133783739Y-107247339D02*
X134721600Y-108185200D01*
X132043964Y-107022340D02*
X132268963Y-107247339D01*
X134970000Y-102300000D02*
X134747000Y-102523000D01*
X135670000Y-102300000D02*
X134970000Y-102300000D01*
X134747000Y-102523000D02*
X134747000Y-102607209D01*
X134665200Y-115437212D02*
X134611209Y-115491203D01*
X134665200Y-114860400D02*
X134665200Y-115437212D01*
X133065000Y-114860400D02*
X134665200Y-114860400D01*
X146499053Y-103514621D02*
X142695379Y-103514621D01*
X139030800Y-107899200D02*
X137434800Y-107899200D01*
X142695379Y-103514621D02*
X142080000Y-104130000D01*
X142080000Y-104130000D02*
X142080000Y-104850000D01*
X142080000Y-104850000D02*
X139030800Y-107899200D01*
X137434800Y-107899200D02*
X136648800Y-108685200D01*
X136648800Y-108685200D02*
X136448800Y-108685200D01*
X137390000Y-102947600D02*
X137414000Y-102971600D01*
X137390000Y-102300000D02*
X137390000Y-102947600D01*
X140206389Y-101928589D02*
X140206389Y-102701509D01*
X138455400Y-100177600D02*
X140206389Y-101928589D01*
X143810000Y-109090959D02*
X143810000Y-107740000D01*
X148400000Y-109980000D02*
X146800000Y-109980000D01*
X146017522Y-110762478D02*
X145481519Y-110762478D01*
X146800000Y-109980000D02*
X146017522Y-110762478D01*
X145481519Y-110762478D02*
X143810000Y-109090959D01*
X143810000Y-107740000D02*
X143820000Y-107730000D01*
X139640000Y-108135048D02*
X139640000Y-114640000D01*
X143820000Y-107730000D02*
X143820000Y-107439681D01*
X143820000Y-107439681D02*
X142841648Y-106461329D01*
X139789995Y-114789995D02*
X139807856Y-114789995D01*
X142841648Y-106461329D02*
X141313719Y-106461329D01*
X141313719Y-106461329D02*
X139640000Y-108135048D01*
X139640000Y-114640000D02*
X139789995Y-114789995D01*
X148348700Y-104664601D02*
X148334099Y-104650000D01*
X148334099Y-104650000D02*
X144840000Y-104650000D01*
X144840000Y-104650000D02*
X143690000Y-105800000D01*
X143690000Y-105800000D02*
X143675000Y-105800000D01*
D24*
X140436600Y-108647800D02*
X140436600Y-108080924D01*
X140436600Y-108080924D02*
X141502991Y-107014533D01*
X141502991Y-107014533D02*
X142594249Y-107014533D01*
D25*
X126110000Y-105387811D02*
X126652590Y-105387811D01*
X133939401Y-101352600D02*
X134645400Y-100646601D01*
X135414000Y-99002600D02*
X135432800Y-98983800D01*
X126652590Y-105387811D02*
X126817600Y-105222801D01*
X135351399Y-99002600D02*
X135414000Y-99002600D01*
X126817600Y-105222801D02*
X126817600Y-102402599D01*
X135432800Y-98983800D02*
X139801600Y-98983800D01*
X126817600Y-102402599D02*
X127181799Y-102038400D01*
X139801600Y-98983800D02*
X140995400Y-100177600D01*
X127181799Y-102038400D02*
X127958600Y-102038400D01*
X134645400Y-100646601D02*
X134645400Y-99708599D01*
X127958600Y-102038400D02*
X128644400Y-101352600D01*
X128644400Y-101352600D02*
X133939401Y-101352600D01*
X134645400Y-99708599D02*
X135351399Y-99002600D01*
X131590000Y-114110000D02*
X131590000Y-114786000D01*
X131590000Y-114786000D02*
X131490200Y-114885800D01*
X129813800Y-114860400D02*
X131464800Y-114860400D01*
X131464800Y-114860400D02*
X131490200Y-114885800D01*
X124140000Y-115460000D02*
X124140000Y-117580000D01*
X124050000Y-115370000D02*
X124140000Y-115460000D01*
X141210000Y-115830002D02*
X140120002Y-116920000D01*
X140120002Y-116920000D02*
X138710319Y-116920000D01*
X138710319Y-116920000D02*
X138340319Y-117290000D01*
X138340319Y-117290000D02*
X138020000Y-117290000D01*
X140248975Y-103359202D02*
X140360798Y-103359202D01*
X143510000Y-100210000D02*
X143510000Y-100152200D01*
X140360798Y-103359202D02*
X143510000Y-100210000D01*
X143510000Y-100152200D02*
X143535400Y-100177600D01*
X132280000Y-115360401D02*
X132280000Y-113970000D01*
X132280000Y-113970000D02*
X132710000Y-113540000D01*
X132710000Y-113540000D02*
X133065000Y-113540000D01*
X132730000Y-113540000D02*
X133065000Y-113540000D01*
X132920000Y-113540000D02*
X132720000Y-113540000D01*
X132629999Y-115710400D02*
X133220000Y-115710400D01*
X132280000Y-115360401D02*
X132629999Y-115710400D01*
X130438800Y-115710400D02*
X133220000Y-115710400D01*
X133220000Y-115710400D02*
X133426589Y-115710400D01*
X137790000Y-115593499D02*
X137790000Y-115070000D01*
X137790000Y-115070000D02*
X137940000Y-114920000D01*
X138720000Y-111970000D02*
X138720000Y-111990000D01*
X138720000Y-111990000D02*
X137940000Y-112770000D01*
X137940000Y-112770000D02*
X137940000Y-114920000D01*
D24*
X142062200Y-110250000D02*
X143075700Y-111263500D01*
X143075700Y-111263500D02*
X143851512Y-111263500D01*
X143851512Y-111263500D02*
X143988012Y-111400000D01*
D25*
X122264001Y-107175633D02*
X122113368Y-107025000D01*
X122113368Y-107025000D02*
X121021800Y-107025000D01*
X121021800Y-107025000D02*
X121005600Y-107008800D01*
X124050000Y-115370000D02*
X124125000Y-115295000D01*
X124125000Y-115295000D02*
X124125000Y-111675000D01*
X124125000Y-111675000D02*
X123550000Y-111100000D01*
X123550000Y-111100000D02*
X123520200Y-111100000D01*
D24*
X123270000Y-115370000D02*
X124050000Y-115370000D01*
D25*
X139100000Y-103800000D02*
X139825000Y-103800000D01*
X139825000Y-103800000D02*
X140250000Y-103375000D01*
X140250000Y-103375000D02*
X140248975Y-103373975D01*
X140248975Y-103373975D02*
X140248975Y-103359202D01*
D24*
X148224200Y-99644200D02*
X148400000Y-99820000D01*
D25*
X133870000Y-103730000D02*
X134057600Y-103730000D01*
X134057600Y-103730000D02*
X134747000Y-104419400D01*
X134747000Y-104419400D02*
X138480800Y-104419400D01*
X138480800Y-104419400D02*
X139100000Y-103800200D01*
X139100000Y-103800200D02*
X139100000Y-103800000D01*
X123520200Y-106100000D02*
X123524400Y-106095800D01*
X123524400Y-106095800D02*
X126581011Y-106095800D01*
X126581011Y-106095800D02*
X127592600Y-105084211D01*
X127592600Y-105084211D02*
X127592600Y-104587800D01*
X130435000Y-102144999D02*
X130548199Y-102031800D01*
X131190000Y-110260000D02*
X131269600Y-110180400D01*
X133731000Y-109908600D02*
X133731000Y-108077000D01*
X131269600Y-110180400D02*
X133484200Y-110180400D01*
X133484200Y-110180400D02*
X133484200Y-110155400D01*
X133426200Y-107772200D02*
X131826000Y-107772200D01*
X133484200Y-110155400D02*
X133731000Y-109908600D01*
X133731000Y-108077000D02*
X133426200Y-107772200D01*
X130017179Y-103680000D02*
X130435000Y-103262179D01*
X130435000Y-103262179D02*
X130435000Y-102144999D01*
X129580000Y-103680000D02*
X130017179Y-103680000D01*
X133472198Y-103730000D02*
X132635000Y-102892802D01*
X132635000Y-102144999D02*
X132521801Y-102031800D01*
X132635000Y-102892802D02*
X132635000Y-102144999D01*
X132521801Y-102031800D02*
X130548199Y-102031800D01*
X133870000Y-103730000D02*
X133472198Y-103730000D01*
X134665200Y-116360400D02*
X134292800Y-116360400D01*
X134292800Y-116360400D02*
X133617789Y-115685389D01*
X133617789Y-115685389D02*
X133451600Y-115685389D01*
X129813800Y-116335400D02*
X130438800Y-115710400D01*
X129813800Y-116360400D02*
X129813800Y-116335400D01*
X133426589Y-115710400D02*
X133451600Y-115685389D01*
X148300800Y-99644200D02*
X148350000Y-99595000D01*
X127733411Y-102987600D02*
X127592600Y-102987600D01*
X128841611Y-101879400D02*
X127733411Y-102987600D01*
X130435000Y-102144999D02*
X130169401Y-101879400D01*
X130169401Y-101879400D02*
X128841611Y-101879400D01*
X127592600Y-102987600D02*
X127592600Y-104587800D01*
X129810000Y-110250000D02*
X128415000Y-110250000D01*
X128415000Y-110250000D02*
X126950000Y-108785000D01*
X126950000Y-108785000D02*
X126950000Y-108760000D01*
X131190000Y-110260000D02*
X129820000Y-110260000D01*
X129820000Y-110260000D02*
X129810000Y-110250000D01*
X136320000Y-114920000D02*
X137940000Y-114920000D01*
X134665200Y-116360400D02*
X134879600Y-116360400D01*
X134879600Y-116360400D02*
X136320000Y-114920000D01*
X126950000Y-110260000D02*
X126950000Y-110363800D01*
X126950000Y-110363800D02*
X128498600Y-111912400D01*
X129810000Y-108750000D02*
X129810000Y-108343800D01*
X129810000Y-108343800D02*
X128498600Y-107032400D01*
X129760000Y-109424989D02*
X129760000Y-108800000D01*
X129760000Y-108800000D02*
X129810000Y-108750000D01*
X126262920Y-103792480D02*
X126267591Y-103792480D01*
X126092600Y-104587800D02*
X126092600Y-103962800D01*
X126092600Y-103962800D02*
X126262920Y-103792480D01*
X130985009Y-102744991D02*
X130985009Y-102812552D01*
X131780000Y-102730000D02*
X131000000Y-102730000D01*
X131000000Y-102730000D02*
X130985009Y-102744991D01*
X119716600Y-114023600D02*
X119716600Y-113823600D01*
X119716600Y-113823600D02*
X119510000Y-113617000D01*
X119510000Y-108400000D02*
X120010000Y-107900000D01*
X119510000Y-113617000D02*
X119510000Y-108400000D01*
X120010000Y-107900000D02*
X122158664Y-107900000D01*
X122158664Y-107900000D02*
X122238065Y-107979401D01*
X122200000Y-108700000D02*
X121196800Y-108700000D01*
X121196800Y-108700000D02*
X121005600Y-108508800D01*
X119740600Y-117325600D02*
X119740600Y-117525600D01*
X119740600Y-117525600D02*
X120315600Y-118100600D01*
X120315600Y-118100600D02*
X122064400Y-118100600D01*
X122064400Y-118100600D02*
X123270000Y-116895000D01*
X123270000Y-116895000D02*
X123270000Y-116320000D01*
X121216600Y-114023600D02*
X122873600Y-114023600D01*
X122873600Y-114023600D02*
X123270000Y-114420000D01*
X132665206Y-105407999D02*
X133409607Y-106152400D01*
X132062414Y-105407999D02*
X132665206Y-105407999D01*
X133870000Y-102426200D02*
X133451600Y-102844600D01*
X133870000Y-102230000D02*
X133870000Y-102426200D01*
X128444200Y-117424200D02*
X128879600Y-117424200D01*
X127670000Y-116650000D02*
X128444200Y-117424200D01*
X127470000Y-116650000D02*
X127670000Y-116650000D01*
X139420401Y-115349990D02*
X138720000Y-114649589D01*
X140448878Y-114088878D02*
X140448878Y-115038490D01*
X140137378Y-115349990D02*
X139420401Y-115349990D01*
X140448878Y-115038490D02*
X140137378Y-115349990D01*
X138720000Y-114649589D02*
X138720000Y-113470000D01*
X140458492Y-112576507D02*
X140130000Y-112904999D01*
X142793600Y-112576507D02*
X140458492Y-112576507D01*
X140130000Y-113770000D02*
X140448878Y-114088878D01*
X143020099Y-112350008D02*
X142793600Y-112576507D01*
X140130000Y-112904999D02*
X140130000Y-113770000D01*
X141721500Y-111798500D02*
X143408500Y-111798500D01*
X141660000Y-111860000D02*
X141721500Y-111798500D01*
X140960000Y-111860000D02*
X141660000Y-111860000D01*
X143408500Y-111798500D02*
X143500000Y-111890000D01*
X133065000Y-112040000D02*
X132980000Y-112040000D01*
X132980000Y-112040000D02*
X132390000Y-111450000D01*
X132920000Y-112040000D02*
X132920000Y-111980000D01*
X132920000Y-111980000D02*
X132390000Y-111450000D01*
D26*
G36*
X128221898Y-108417159D02*
X128772885Y-108417640D01*
X128787560Y-108411576D01*
X128787560Y-109150000D01*
X128831838Y-109385317D01*
X128898329Y-109488646D01*
X128896673Y-109490302D01*
X128800000Y-109723691D01*
X128800000Y-109964250D01*
X128958750Y-110123000D01*
X129241631Y-110123000D01*
X129272213Y-110153636D01*
X129588185Y-110284839D01*
X129930314Y-110285138D01*
X130246514Y-110154486D01*
X130278055Y-110123000D01*
X130328750Y-110123000D01*
X130338750Y-110133000D01*
X131063000Y-110133000D01*
X131063000Y-110113000D01*
X131317000Y-110113000D01*
X131317000Y-110133000D01*
X132041250Y-110133000D01*
X132051850Y-110122400D01*
X132765800Y-110122400D01*
X132765800Y-110102400D01*
X133019800Y-110102400D01*
X133019800Y-110122400D01*
X133039800Y-110122400D01*
X133039800Y-110376400D01*
X133019800Y-110376400D01*
X133019800Y-110396400D01*
X132765800Y-110396400D01*
X132765800Y-110376400D01*
X132041550Y-110376400D01*
X132030950Y-110387000D01*
X131317000Y-110387000D01*
X131317000Y-110407000D01*
X131063000Y-110407000D01*
X131063000Y-110387000D01*
X130671250Y-110387000D01*
X130661250Y-110377000D01*
X129937000Y-110377000D01*
X129937000Y-111126250D01*
X130095750Y-111285000D01*
X130311310Y-111285000D01*
X130428573Y-111236428D01*
X130428351Y-111490611D01*
X130455000Y-111555107D01*
X130455000Y-112520001D01*
X130518561Y-112839542D01*
X130668272Y-113063600D01*
X130699566Y-113110435D01*
X130869565Y-113280434D01*
X131068470Y-113413338D01*
X130860082Y-113621362D01*
X130728650Y-113937885D01*
X130728524Y-114081773D01*
X130708172Y-114094870D01*
X130652890Y-114008959D01*
X130440690Y-113863969D01*
X130188800Y-113812960D01*
X129438800Y-113812960D01*
X129203483Y-113857238D01*
X128987359Y-113996310D01*
X128842369Y-114208510D01*
X128791360Y-114460400D01*
X128791360Y-115260400D01*
X128835638Y-115495717D01*
X128902129Y-115599046D01*
X128900473Y-115600702D01*
X128803800Y-115834091D01*
X128803800Y-116074650D01*
X128962550Y-116233400D01*
X129686800Y-116233400D01*
X129686800Y-116213400D01*
X129940800Y-116213400D01*
X129940800Y-116233400D01*
X129960800Y-116233400D01*
X129960800Y-116487400D01*
X129940800Y-116487400D01*
X129940800Y-117236650D01*
X130099550Y-117395400D01*
X130315110Y-117395400D01*
X130548499Y-117298727D01*
X130685346Y-117161879D01*
X130788310Y-117232231D01*
X131040200Y-117283240D01*
X131940200Y-117283240D01*
X132175517Y-117238962D01*
X132203742Y-117220800D01*
X132432091Y-117220800D01*
X132615000Y-117257840D01*
X132781572Y-117257840D01*
X133411366Y-117887634D01*
X133682259Y-118068639D01*
X134001800Y-118132200D01*
X134841627Y-118132200D01*
X134905085Y-118158550D01*
X135247811Y-118158849D01*
X135312307Y-118132200D01*
X135442800Y-118132200D01*
X135762341Y-118068639D01*
X136033234Y-117887634D01*
X136453428Y-117467440D01*
X136695000Y-117467440D01*
X136930317Y-117423162D01*
X137132527Y-117293044D01*
X137313110Y-117416431D01*
X137565000Y-117467440D01*
X137895370Y-117467440D01*
X137870150Y-117528176D01*
X137869851Y-117870305D01*
X138000503Y-118186505D01*
X138242213Y-118428638D01*
X138484417Y-118529210D01*
X138622608Y-118667401D01*
X138869170Y-118832148D01*
X139160009Y-118890000D01*
X146396374Y-118890000D01*
X146435910Y-118951441D01*
X146467463Y-118973000D01*
X119410000Y-118973000D01*
X119410000Y-118406718D01*
X119490600Y-118423040D01*
X119563238Y-118423040D01*
X119778199Y-118638001D01*
X120024761Y-118802748D01*
X120315600Y-118860600D01*
X122064400Y-118860600D01*
X122355239Y-118802748D01*
X122601801Y-118638001D01*
X123807401Y-117432401D01*
X123915433Y-117270720D01*
X124035317Y-117248162D01*
X124251441Y-117109090D01*
X124338528Y-116981634D01*
X124399161Y-117022148D01*
X124432352Y-117028750D01*
X124475910Y-117096441D01*
X124688110Y-117241431D01*
X124940000Y-117292440D01*
X126000000Y-117292440D01*
X126235317Y-117248162D01*
X126416173Y-117131784D01*
X126416838Y-117135317D01*
X126555910Y-117351441D01*
X126768110Y-117496431D01*
X127020000Y-117547440D01*
X127492638Y-117547440D01*
X127906799Y-117961601D01*
X128153361Y-118126348D01*
X128444200Y-118184200D01*
X128463407Y-118184200D01*
X128707485Y-118285550D01*
X129050211Y-118285849D01*
X129366963Y-118154970D01*
X129609518Y-117912838D01*
X129740950Y-117596315D01*
X129741249Y-117253589D01*
X129686800Y-117121812D01*
X129686800Y-116487400D01*
X128962550Y-116487400D01*
X128887243Y-116562707D01*
X128708989Y-116562551D01*
X128672450Y-116577648D01*
X128567440Y-116472638D01*
X128567440Y-116400000D01*
X128523162Y-116164683D01*
X128384090Y-115948559D01*
X128314289Y-115900866D01*
X128371441Y-115864090D01*
X128516431Y-115651890D01*
X128567440Y-115400000D01*
X128567440Y-114900000D01*
X128523162Y-114664683D01*
X128384090Y-114448559D01*
X128171890Y-114303569D01*
X127920000Y-114252560D01*
X127020000Y-114252560D01*
X126784683Y-114296838D01*
X126742246Y-114324146D01*
X126689515Y-114302250D01*
X126647440Y-114302213D01*
X126647440Y-114095000D01*
X126603162Y-113859683D01*
X126464090Y-113643559D01*
X126251890Y-113498569D01*
X126230000Y-113494136D01*
X126230000Y-111192812D01*
X126323110Y-111256431D01*
X126575000Y-111307440D01*
X126818838Y-111307440D01*
X127123598Y-111612200D01*
X127113841Y-111635698D01*
X127113360Y-112186685D01*
X127323769Y-112695915D01*
X127713036Y-113085861D01*
X128221898Y-113297159D01*
X128772885Y-113297640D01*
X129282115Y-113087231D01*
X129672061Y-112697964D01*
X129883359Y-112189102D01*
X129883840Y-111638115D01*
X129675458Y-111133792D01*
X129683000Y-111126250D01*
X129683000Y-110377000D01*
X128958750Y-110377000D01*
X128800000Y-110535750D01*
X128800000Y-110537897D01*
X128775302Y-110527641D01*
X128224315Y-110527160D01*
X128198732Y-110537730D01*
X127972440Y-110311438D01*
X127972440Y-109860000D01*
X127928162Y-109624683D01*
X127861671Y-109521354D01*
X127863327Y-109519698D01*
X127960000Y-109286309D01*
X127960000Y-109045750D01*
X127801250Y-108887000D01*
X127077000Y-108887000D01*
X127077000Y-108907000D01*
X126823000Y-108907000D01*
X126823000Y-108887000D01*
X126803000Y-108887000D01*
X126803000Y-108633000D01*
X126823000Y-108633000D01*
X126823000Y-108613000D01*
X127077000Y-108613000D01*
X127077000Y-108633000D01*
X127801250Y-108633000D01*
X127960000Y-108474250D01*
X127960000Y-108308409D01*
X128221898Y-108417159D01*
X128221898Y-108417159D01*
G37*
X128221898Y-108417159D02*
X128772885Y-108417640D01*
X128787560Y-108411576D01*
X128787560Y-109150000D01*
X128831838Y-109385317D01*
X128898329Y-109488646D01*
X128896673Y-109490302D01*
X128800000Y-109723691D01*
X128800000Y-109964250D01*
X128958750Y-110123000D01*
X129241631Y-110123000D01*
X129272213Y-110153636D01*
X129588185Y-110284839D01*
X129930314Y-110285138D01*
X130246514Y-110154486D01*
X130278055Y-110123000D01*
X130328750Y-110123000D01*
X130338750Y-110133000D01*
X131063000Y-110133000D01*
X131063000Y-110113000D01*
X131317000Y-110113000D01*
X131317000Y-110133000D01*
X132041250Y-110133000D01*
X132051850Y-110122400D01*
X132765800Y-110122400D01*
X132765800Y-110102400D01*
X133019800Y-110102400D01*
X133019800Y-110122400D01*
X133039800Y-110122400D01*
X133039800Y-110376400D01*
X133019800Y-110376400D01*
X133019800Y-110396400D01*
X132765800Y-110396400D01*
X132765800Y-110376400D01*
X132041550Y-110376400D01*
X132030950Y-110387000D01*
X131317000Y-110387000D01*
X131317000Y-110407000D01*
X131063000Y-110407000D01*
X131063000Y-110387000D01*
X130671250Y-110387000D01*
X130661250Y-110377000D01*
X129937000Y-110377000D01*
X129937000Y-111126250D01*
X130095750Y-111285000D01*
X130311310Y-111285000D01*
X130428573Y-111236428D01*
X130428351Y-111490611D01*
X130455000Y-111555107D01*
X130455000Y-112520001D01*
X130518561Y-112839542D01*
X130668272Y-113063600D01*
X130699566Y-113110435D01*
X130869565Y-113280434D01*
X131068470Y-113413338D01*
X130860082Y-113621362D01*
X130728650Y-113937885D01*
X130728524Y-114081773D01*
X130708172Y-114094870D01*
X130652890Y-114008959D01*
X130440690Y-113863969D01*
X130188800Y-113812960D01*
X129438800Y-113812960D01*
X129203483Y-113857238D01*
X128987359Y-113996310D01*
X128842369Y-114208510D01*
X128791360Y-114460400D01*
X128791360Y-115260400D01*
X128835638Y-115495717D01*
X128902129Y-115599046D01*
X128900473Y-115600702D01*
X128803800Y-115834091D01*
X128803800Y-116074650D01*
X128962550Y-116233400D01*
X129686800Y-116233400D01*
X129686800Y-116213400D01*
X129940800Y-116213400D01*
X129940800Y-116233400D01*
X129960800Y-116233400D01*
X129960800Y-116487400D01*
X129940800Y-116487400D01*
X129940800Y-117236650D01*
X130099550Y-117395400D01*
X130315110Y-117395400D01*
X130548499Y-117298727D01*
X130685346Y-117161879D01*
X130788310Y-117232231D01*
X131040200Y-117283240D01*
X131940200Y-117283240D01*
X132175517Y-117238962D01*
X132203742Y-117220800D01*
X132432091Y-117220800D01*
X132615000Y-117257840D01*
X132781572Y-117257840D01*
X133411366Y-117887634D01*
X133682259Y-118068639D01*
X134001800Y-118132200D01*
X134841627Y-118132200D01*
X134905085Y-118158550D01*
X135247811Y-118158849D01*
X135312307Y-118132200D01*
X135442800Y-118132200D01*
X135762341Y-118068639D01*
X136033234Y-117887634D01*
X136453428Y-117467440D01*
X136695000Y-117467440D01*
X136930317Y-117423162D01*
X137132527Y-117293044D01*
X137313110Y-117416431D01*
X137565000Y-117467440D01*
X137895370Y-117467440D01*
X137870150Y-117528176D01*
X137869851Y-117870305D01*
X138000503Y-118186505D01*
X138242213Y-118428638D01*
X138484417Y-118529210D01*
X138622608Y-118667401D01*
X138869170Y-118832148D01*
X139160009Y-118890000D01*
X146396374Y-118890000D01*
X146435910Y-118951441D01*
X146467463Y-118973000D01*
X119410000Y-118973000D01*
X119410000Y-118406718D01*
X119490600Y-118423040D01*
X119563238Y-118423040D01*
X119778199Y-118638001D01*
X120024761Y-118802748D01*
X120315600Y-118860600D01*
X122064400Y-118860600D01*
X122355239Y-118802748D01*
X122601801Y-118638001D01*
X123807401Y-117432401D01*
X123915433Y-117270720D01*
X124035317Y-117248162D01*
X124251441Y-117109090D01*
X124338528Y-116981634D01*
X124399161Y-117022148D01*
X124432352Y-117028750D01*
X124475910Y-117096441D01*
X124688110Y-117241431D01*
X124940000Y-117292440D01*
X126000000Y-117292440D01*
X126235317Y-117248162D01*
X126416173Y-117131784D01*
X126416838Y-117135317D01*
X126555910Y-117351441D01*
X126768110Y-117496431D01*
X127020000Y-117547440D01*
X127492638Y-117547440D01*
X127906799Y-117961601D01*
X128153361Y-118126348D01*
X128444200Y-118184200D01*
X128463407Y-118184200D01*
X128707485Y-118285550D01*
X129050211Y-118285849D01*
X129366963Y-118154970D01*
X129609518Y-117912838D01*
X129740950Y-117596315D01*
X129741249Y-117253589D01*
X129686800Y-117121812D01*
X129686800Y-116487400D01*
X128962550Y-116487400D01*
X128887243Y-116562707D01*
X128708989Y-116562551D01*
X128672450Y-116577648D01*
X128567440Y-116472638D01*
X128567440Y-116400000D01*
X128523162Y-116164683D01*
X128384090Y-115948559D01*
X128314289Y-115900866D01*
X128371441Y-115864090D01*
X128516431Y-115651890D01*
X128567440Y-115400000D01*
X128567440Y-114900000D01*
X128523162Y-114664683D01*
X128384090Y-114448559D01*
X128171890Y-114303569D01*
X127920000Y-114252560D01*
X127020000Y-114252560D01*
X126784683Y-114296838D01*
X126742246Y-114324146D01*
X126689515Y-114302250D01*
X126647440Y-114302213D01*
X126647440Y-114095000D01*
X126603162Y-113859683D01*
X126464090Y-113643559D01*
X126251890Y-113498569D01*
X126230000Y-113494136D01*
X126230000Y-111192812D01*
X126323110Y-111256431D01*
X126575000Y-111307440D01*
X126818838Y-111307440D01*
X127123598Y-111612200D01*
X127113841Y-111635698D01*
X127113360Y-112186685D01*
X127323769Y-112695915D01*
X127713036Y-113085861D01*
X128221898Y-113297159D01*
X128772885Y-113297640D01*
X129282115Y-113087231D01*
X129672061Y-112697964D01*
X129883359Y-112189102D01*
X129883840Y-111638115D01*
X129675458Y-111133792D01*
X129683000Y-111126250D01*
X129683000Y-110377000D01*
X128958750Y-110377000D01*
X128800000Y-110535750D01*
X128800000Y-110537897D01*
X128775302Y-110527641D01*
X128224315Y-110527160D01*
X128198732Y-110537730D01*
X127972440Y-110311438D01*
X127972440Y-109860000D01*
X127928162Y-109624683D01*
X127861671Y-109521354D01*
X127863327Y-109519698D01*
X127960000Y-109286309D01*
X127960000Y-109045750D01*
X127801250Y-108887000D01*
X127077000Y-108887000D01*
X127077000Y-108907000D01*
X126823000Y-108907000D01*
X126823000Y-108887000D01*
X126803000Y-108887000D01*
X126803000Y-108633000D01*
X126823000Y-108633000D01*
X126823000Y-108613000D01*
X127077000Y-108613000D01*
X127077000Y-108633000D01*
X127801250Y-108633000D01*
X127960000Y-108474250D01*
X127960000Y-108308409D01*
X128221898Y-108417159D01*
G36*
X134812200Y-116462200D02*
X134518200Y-116462200D01*
X134518200Y-116351122D01*
X134781523Y-116351352D01*
X134812200Y-116338676D01*
X134812200Y-116462200D01*
X134812200Y-116462200D01*
G37*
X134812200Y-116462200D02*
X134518200Y-116462200D01*
X134518200Y-116351122D01*
X134781523Y-116351352D01*
X134812200Y-116338676D01*
X134812200Y-116462200D01*
G36*
X137731673Y-112579698D02*
X137872910Y-112720936D01*
X137818559Y-112755910D01*
X137673569Y-112968110D01*
X137622560Y-113220000D01*
X137622560Y-113720000D01*
X137653607Y-113885000D01*
X137438690Y-113885000D01*
X137205301Y-113981673D01*
X137130000Y-114056974D01*
X137054699Y-113981673D01*
X136821310Y-113885000D01*
X136605750Y-113885000D01*
X136447000Y-114043750D01*
X136447000Y-114793000D01*
X137813000Y-114793000D01*
X137813000Y-114773000D01*
X137984548Y-114773000D01*
X138017852Y-114940428D01*
X138087000Y-115043915D01*
X138087000Y-115047000D01*
X138067000Y-115047000D01*
X138067000Y-115067000D01*
X137813000Y-115067000D01*
X137813000Y-115047000D01*
X136447000Y-115047000D01*
X136447000Y-115067000D01*
X136193000Y-115067000D01*
X136193000Y-115047000D01*
X136173000Y-115047000D01*
X136173000Y-114793000D01*
X136193000Y-114793000D01*
X136193000Y-114043750D01*
X136137759Y-113988509D01*
X137677458Y-112448810D01*
X137731673Y-112579698D01*
X137731673Y-112579698D01*
G37*
X137731673Y-112579698D02*
X137872910Y-112720936D01*
X137818559Y-112755910D01*
X137673569Y-112968110D01*
X137622560Y-113220000D01*
X137622560Y-113720000D01*
X137653607Y-113885000D01*
X137438690Y-113885000D01*
X137205301Y-113981673D01*
X137130000Y-114056974D01*
X137054699Y-113981673D01*
X136821310Y-113885000D01*
X136605750Y-113885000D01*
X136447000Y-114043750D01*
X136447000Y-114793000D01*
X137813000Y-114793000D01*
X137813000Y-114773000D01*
X137984548Y-114773000D01*
X138017852Y-114940428D01*
X138087000Y-115043915D01*
X138087000Y-115047000D01*
X138067000Y-115047000D01*
X138067000Y-115067000D01*
X137813000Y-115067000D01*
X137813000Y-115047000D01*
X136447000Y-115047000D01*
X136447000Y-115067000D01*
X136193000Y-115067000D01*
X136193000Y-115047000D01*
X136173000Y-115047000D01*
X136173000Y-114793000D01*
X136193000Y-114793000D01*
X136193000Y-114043750D01*
X136137759Y-113988509D01*
X137677458Y-112448810D01*
X137731673Y-112579698D01*
G36*
X133212000Y-113539468D02*
X133212000Y-113665000D01*
X133192000Y-113665000D01*
X133192000Y-113687000D01*
X132938000Y-113687000D01*
X132938000Y-113665000D01*
X132918000Y-113665000D01*
X132918000Y-113525000D01*
X133197532Y-113525000D01*
X133212000Y-113539468D01*
X133212000Y-113539468D01*
G37*
X133212000Y-113539468D02*
X133212000Y-113665000D01*
X133192000Y-113665000D01*
X133192000Y-113687000D01*
X132938000Y-113687000D01*
X132938000Y-113665000D01*
X132918000Y-113665000D01*
X132918000Y-113525000D01*
X133197532Y-113525000D01*
X133212000Y-113539468D01*
G36*
X120303710Y-109355231D02*
X120555600Y-109406240D01*
X120926533Y-109406240D01*
X121196800Y-109460000D01*
X121366795Y-109460000D01*
X121335209Y-109618792D01*
X121335209Y-110876709D01*
X121297200Y-110865000D01*
X120947200Y-110865000D01*
X120947200Y-111973000D01*
X120967200Y-111973000D01*
X120967200Y-112227000D01*
X120947200Y-112227000D01*
X120947200Y-112247000D01*
X120693200Y-112247000D01*
X120693200Y-112227000D01*
X120673200Y-112227000D01*
X120673200Y-111973000D01*
X120693200Y-111973000D01*
X120693200Y-110865000D01*
X120343200Y-110865000D01*
X120270000Y-110887549D01*
X120270000Y-109332198D01*
X120303710Y-109355231D01*
X120303710Y-109355231D01*
G37*
X120303710Y-109355231D02*
X120555600Y-109406240D01*
X120926533Y-109406240D01*
X121196800Y-109460000D01*
X121366795Y-109460000D01*
X121335209Y-109618792D01*
X121335209Y-110876709D01*
X121297200Y-110865000D01*
X120947200Y-110865000D01*
X120947200Y-111973000D01*
X120967200Y-111973000D01*
X120967200Y-112227000D01*
X120947200Y-112227000D01*
X120947200Y-112247000D01*
X120693200Y-112247000D01*
X120693200Y-112227000D01*
X120673200Y-112227000D01*
X120673200Y-111973000D01*
X120693200Y-111973000D01*
X120693200Y-110865000D01*
X120343200Y-110865000D01*
X120270000Y-110887549D01*
X120270000Y-109332198D01*
X120303710Y-109355231D01*
G36*
X123713948Y-111085858D02*
X123699805Y-111100000D01*
X123713948Y-111114143D01*
X123534343Y-111293748D01*
X123520200Y-111279605D01*
X123506058Y-111293748D01*
X123326453Y-111114143D01*
X123340595Y-111100000D01*
X123326453Y-111085858D01*
X123506058Y-110906253D01*
X123520200Y-110920395D01*
X123534343Y-110906253D01*
X123713948Y-111085858D01*
X123713948Y-111085858D01*
G37*
X123713948Y-111085858D02*
X123699805Y-111100000D01*
X123713948Y-111114143D01*
X123534343Y-111293748D01*
X123520200Y-111279605D01*
X123506058Y-111293748D01*
X123326453Y-111114143D01*
X123340595Y-111100000D01*
X123326453Y-111085858D01*
X123506058Y-110906253D01*
X123520200Y-110920395D01*
X123534343Y-110906253D01*
X123713948Y-111085858D01*
G36*
X142209200Y-110174305D02*
X142209200Y-110317000D01*
X142189200Y-110317000D01*
X142189200Y-110337000D01*
X141935200Y-110337000D01*
X141935200Y-110317000D01*
X141915200Y-110317000D01*
X141915200Y-110063000D01*
X141935200Y-110063000D01*
X141935200Y-110043000D01*
X142077895Y-110043000D01*
X142209200Y-110174305D01*
X142209200Y-110174305D01*
G37*
X142209200Y-110174305D02*
X142209200Y-110317000D01*
X142189200Y-110317000D01*
X142189200Y-110337000D01*
X141935200Y-110337000D01*
X141935200Y-110317000D01*
X141915200Y-110317000D01*
X141915200Y-110063000D01*
X141935200Y-110063000D01*
X141935200Y-110043000D01*
X142077895Y-110043000D01*
X142209200Y-110174305D01*
G36*
X124110400Y-101338400D02*
X124130400Y-101338400D01*
X124130400Y-101588400D01*
X124110400Y-101588400D01*
X124110400Y-102189650D01*
X124269150Y-102348400D01*
X124559710Y-102348400D01*
X124793099Y-102251727D01*
X124824800Y-102220026D01*
X124824800Y-102224332D01*
X124746141Y-102302991D01*
X124682637Y-102329230D01*
X124440082Y-102571362D01*
X124308650Y-102887885D01*
X124308351Y-103230611D01*
X124439230Y-103547363D01*
X124681362Y-103789918D01*
X124997885Y-103921350D01*
X125123125Y-103921459D01*
X125096169Y-103960910D01*
X125045160Y-104212800D01*
X125045160Y-104962800D01*
X125089438Y-105198117D01*
X125228510Y-105414241D01*
X125249964Y-105428900D01*
X125249851Y-105558125D01*
X125380503Y-105874325D01*
X125622213Y-106116458D01*
X125938185Y-106247661D01*
X125990712Y-106247707D01*
X124077599Y-108160820D01*
X123912852Y-108407382D01*
X123855000Y-108698221D01*
X123855000Y-109775816D01*
X123719054Y-109727688D01*
X123178756Y-109756051D01*
X122929512Y-109859291D01*
X123363001Y-109425802D01*
X123527748Y-109179240D01*
X123585600Y-108888401D01*
X123585600Y-107458440D01*
X123861644Y-107443949D01*
X124229078Y-107291753D01*
X124293993Y-107053398D01*
X123520200Y-106279605D01*
X123506058Y-106293748D01*
X123326453Y-106114143D01*
X123340595Y-106100000D01*
X123699805Y-106100000D01*
X124473598Y-106873793D01*
X124711953Y-106808878D01*
X124892512Y-106298854D01*
X124864149Y-105758556D01*
X124711953Y-105391122D01*
X124473598Y-105326207D01*
X123699805Y-106100000D01*
X123340595Y-106100000D01*
X123326453Y-106085858D01*
X123506058Y-105906253D01*
X123520200Y-105920395D01*
X124293993Y-105146602D01*
X124229078Y-104908247D01*
X123719054Y-104727688D01*
X123178756Y-104756051D01*
X122960000Y-104846663D01*
X122960000Y-102805105D01*
X123101441Y-102714090D01*
X123246431Y-102501890D01*
X123287541Y-102298881D01*
X123407090Y-102348400D01*
X123697650Y-102348400D01*
X123856400Y-102189650D01*
X123856400Y-101588400D01*
X123836400Y-101588400D01*
X123836400Y-101338400D01*
X123856400Y-101338400D01*
X123856400Y-101316400D01*
X124110400Y-101316400D01*
X124110400Y-101338400D01*
X124110400Y-101338400D01*
G37*
X124110400Y-101338400D02*
X124130400Y-101338400D01*
X124130400Y-101588400D01*
X124110400Y-101588400D01*
X124110400Y-102189650D01*
X124269150Y-102348400D01*
X124559710Y-102348400D01*
X124793099Y-102251727D01*
X124824800Y-102220026D01*
X124824800Y-102224332D01*
X124746141Y-102302991D01*
X124682637Y-102329230D01*
X124440082Y-102571362D01*
X124308650Y-102887885D01*
X124308351Y-103230611D01*
X124439230Y-103547363D01*
X124681362Y-103789918D01*
X124997885Y-103921350D01*
X125123125Y-103921459D01*
X125096169Y-103960910D01*
X125045160Y-104212800D01*
X125045160Y-104962800D01*
X125089438Y-105198117D01*
X125228510Y-105414241D01*
X125249964Y-105428900D01*
X125249851Y-105558125D01*
X125380503Y-105874325D01*
X125622213Y-106116458D01*
X125938185Y-106247661D01*
X125990712Y-106247707D01*
X124077599Y-108160820D01*
X123912852Y-108407382D01*
X123855000Y-108698221D01*
X123855000Y-109775816D01*
X123719054Y-109727688D01*
X123178756Y-109756051D01*
X122929512Y-109859291D01*
X123363001Y-109425802D01*
X123527748Y-109179240D01*
X123585600Y-108888401D01*
X123585600Y-107458440D01*
X123861644Y-107443949D01*
X124229078Y-107291753D01*
X124293993Y-107053398D01*
X123520200Y-106279605D01*
X123506058Y-106293748D01*
X123326453Y-106114143D01*
X123340595Y-106100000D01*
X123699805Y-106100000D01*
X124473598Y-106873793D01*
X124711953Y-106808878D01*
X124892512Y-106298854D01*
X124864149Y-105758556D01*
X124711953Y-105391122D01*
X124473598Y-105326207D01*
X123699805Y-106100000D01*
X123340595Y-106100000D01*
X123326453Y-106085858D01*
X123506058Y-105906253D01*
X123520200Y-105920395D01*
X124293993Y-105146602D01*
X124229078Y-104908247D01*
X123719054Y-104727688D01*
X123178756Y-104756051D01*
X122960000Y-104846663D01*
X122960000Y-102805105D01*
X123101441Y-102714090D01*
X123246431Y-102501890D01*
X123287541Y-102298881D01*
X123407090Y-102348400D01*
X123697650Y-102348400D01*
X123856400Y-102189650D01*
X123856400Y-101588400D01*
X123836400Y-101588400D01*
X123836400Y-101338400D01*
X123856400Y-101338400D01*
X123856400Y-101316400D01*
X124110400Y-101316400D01*
X124110400Y-101338400D01*
G36*
X119507120Y-105883474D02*
X119880253Y-106192390D01*
X120143035Y-106273339D01*
X120017273Y-106399102D01*
X119920600Y-106632491D01*
X119920600Y-106725050D01*
X120079350Y-106883800D01*
X120878600Y-106883800D01*
X120878600Y-106861800D01*
X121132600Y-106861800D01*
X121132600Y-106883800D01*
X121152600Y-106883800D01*
X121152600Y-107133800D01*
X121132600Y-107133800D01*
X121132600Y-107140000D01*
X120878600Y-107140000D01*
X120878600Y-107133800D01*
X120079350Y-107133800D01*
X120073150Y-107140000D01*
X120010000Y-107140000D01*
X119719161Y-107197852D01*
X119472599Y-107362599D01*
X119410000Y-107425198D01*
X119410000Y-105699881D01*
X119507120Y-105883474D01*
X119507120Y-105883474D01*
G37*
X119507120Y-105883474D02*
X119880253Y-106192390D01*
X120143035Y-106273339D01*
X120017273Y-106399102D01*
X119920600Y-106632491D01*
X119920600Y-106725050D01*
X120079350Y-106883800D01*
X120878600Y-106883800D01*
X120878600Y-106861800D01*
X121132600Y-106861800D01*
X121132600Y-106883800D01*
X121152600Y-106883800D01*
X121152600Y-107133800D01*
X121132600Y-107133800D01*
X121132600Y-107140000D01*
X120878600Y-107140000D01*
X120878600Y-107133800D01*
X120079350Y-107133800D01*
X120073150Y-107140000D01*
X120010000Y-107140000D01*
X119719161Y-107197852D01*
X119472599Y-107362599D01*
X119410000Y-107425198D01*
X119410000Y-105699881D01*
X119507120Y-105883474D01*
G36*
X121102560Y-102250000D02*
X121146838Y-102485317D01*
X121285910Y-102701441D01*
X121440000Y-102806726D01*
X121440000Y-103908989D01*
X121297200Y-103865000D01*
X120947200Y-103865000D01*
X120947200Y-104973000D01*
X120967200Y-104973000D01*
X120967200Y-105227000D01*
X120947200Y-105227000D01*
X120947200Y-105247000D01*
X120693200Y-105247000D01*
X120693200Y-105227000D01*
X120673200Y-105227000D01*
X120673200Y-104973000D01*
X120693200Y-104973000D01*
X120693200Y-103865000D01*
X120343200Y-103865000D01*
X119880253Y-104007610D01*
X119507120Y-104316526D01*
X119410000Y-104500119D01*
X119410000Y-101836228D01*
X119498110Y-101896431D01*
X119750000Y-101947440D01*
X120650000Y-101947440D01*
X120885317Y-101903162D01*
X121101441Y-101764090D01*
X121102560Y-101762452D01*
X121102560Y-102250000D01*
X121102560Y-102250000D01*
G37*
X121102560Y-102250000D02*
X121146838Y-102485317D01*
X121285910Y-102701441D01*
X121440000Y-102806726D01*
X121440000Y-103908989D01*
X121297200Y-103865000D01*
X120947200Y-103865000D01*
X120947200Y-104973000D01*
X120967200Y-104973000D01*
X120967200Y-105227000D01*
X120947200Y-105227000D01*
X120947200Y-105247000D01*
X120693200Y-105247000D01*
X120693200Y-105227000D01*
X120673200Y-105227000D01*
X120673200Y-104973000D01*
X120693200Y-104973000D01*
X120693200Y-103865000D01*
X120343200Y-103865000D01*
X119880253Y-104007610D01*
X119507120Y-104316526D01*
X119410000Y-104500119D01*
X119410000Y-101836228D01*
X119498110Y-101896431D01*
X119750000Y-101947440D01*
X120650000Y-101947440D01*
X120885317Y-101903162D01*
X121101441Y-101764090D01*
X121102560Y-101762452D01*
X121102560Y-102250000D01*
G36*
X127719600Y-102860600D02*
X127739600Y-102860600D01*
X127739600Y-103114600D01*
X127719600Y-103114600D01*
X127719600Y-104384874D01*
X127713450Y-104399685D01*
X127713158Y-104734800D01*
X127577600Y-104734800D01*
X127577600Y-102840600D01*
X127719600Y-102840600D01*
X127719600Y-102860600D01*
X127719600Y-102860600D01*
G37*
X127719600Y-102860600D02*
X127739600Y-102860600D01*
X127739600Y-103114600D01*
X127719600Y-103114600D01*
X127719600Y-104384874D01*
X127713450Y-104399685D01*
X127713158Y-104734800D01*
X127577600Y-104734800D01*
X127577600Y-102840600D01*
X127719600Y-102840600D01*
X127719600Y-102860600D01*
G36*
X146448559Y-98455910D02*
X146303569Y-98668110D01*
X146252560Y-98920000D01*
X146252560Y-99693000D01*
X148273000Y-99693000D01*
X148273000Y-99673000D01*
X148527000Y-99673000D01*
X148527000Y-99693000D01*
X148547000Y-99693000D01*
X148547000Y-99947000D01*
X148527000Y-99947000D01*
X148527000Y-99967000D01*
X148273000Y-99967000D01*
X148273000Y-99947000D01*
X146252560Y-99947000D01*
X146252560Y-100720000D01*
X146296838Y-100955317D01*
X146383876Y-101090577D01*
X146303569Y-101208110D01*
X146252560Y-101460000D01*
X146252560Y-101600000D01*
X144662840Y-101600000D01*
X144745099Y-101565927D01*
X144923727Y-101387298D01*
X145020400Y-101153909D01*
X145020400Y-100463350D01*
X144861650Y-100304600D01*
X143662400Y-100304600D01*
X143662400Y-101503850D01*
X143821150Y-101662600D01*
X143952055Y-101662600D01*
X143712599Y-101822599D01*
X143626892Y-101908306D01*
X143382637Y-102009230D01*
X143140082Y-102251362D01*
X143008650Y-102567885D01*
X143008487Y-102754621D01*
X142695379Y-102754621D01*
X142404539Y-102812473D01*
X142157978Y-102977220D01*
X141542599Y-103592599D01*
X141529060Y-103612861D01*
X141231120Y-103612601D01*
X141109910Y-103662684D01*
X140611116Y-103662684D01*
X140320276Y-103720536D01*
X140073715Y-103885283D01*
X139991624Y-103967374D01*
X139951250Y-103927000D01*
X139227000Y-103927000D01*
X139227000Y-103947000D01*
X138973000Y-103947000D01*
X138973000Y-103927000D01*
X138953000Y-103927000D01*
X138953000Y-103817587D01*
X138994485Y-103834813D01*
X139337211Y-103835112D01*
X139653963Y-103704233D01*
X139685251Y-103673000D01*
X139951250Y-103673000D01*
X140061367Y-103562883D01*
X140377000Y-103563158D01*
X140693752Y-103432279D01*
X140936307Y-103190147D01*
X141067739Y-102873624D01*
X141068038Y-102530898D01*
X140966389Y-102284888D01*
X140966389Y-101928589D01*
X140944698Y-101819540D01*
X140916131Y-101675925D01*
X140995400Y-101691693D01*
X141563685Y-101578654D01*
X142045454Y-101256747D01*
X142074803Y-101212823D01*
X142147073Y-101387298D01*
X142325701Y-101565927D01*
X142559090Y-101662600D01*
X143249650Y-101662600D01*
X143408400Y-101503850D01*
X143408400Y-100304600D01*
X143388400Y-100304600D01*
X143388400Y-100050600D01*
X143408400Y-100050600D01*
X143408400Y-98851350D01*
X143662400Y-98851350D01*
X143662400Y-100050600D01*
X144861650Y-100050600D01*
X145020400Y-99891850D01*
X145020400Y-99201291D01*
X144923727Y-98967902D01*
X144745099Y-98789273D01*
X144511710Y-98692600D01*
X143821150Y-98692600D01*
X143662400Y-98851350D01*
X143408400Y-98851350D01*
X143249650Y-98692600D01*
X142559090Y-98692600D01*
X142325701Y-98789273D01*
X142147073Y-98967902D01*
X142074803Y-99142377D01*
X142045454Y-99098453D01*
X141563685Y-98776546D01*
X140995400Y-98663507D01*
X140628992Y-98736390D01*
X140339001Y-98446399D01*
X140160307Y-98327000D01*
X146648891Y-98327000D01*
X146448559Y-98455910D01*
X146448559Y-98455910D01*
G37*
X146448559Y-98455910D02*
X146303569Y-98668110D01*
X146252560Y-98920000D01*
X146252560Y-99693000D01*
X148273000Y-99693000D01*
X148273000Y-99673000D01*
X148527000Y-99673000D01*
X148527000Y-99693000D01*
X148547000Y-99693000D01*
X148547000Y-99947000D01*
X148527000Y-99947000D01*
X148527000Y-99967000D01*
X148273000Y-99967000D01*
X148273000Y-99947000D01*
X146252560Y-99947000D01*
X146252560Y-100720000D01*
X146296838Y-100955317D01*
X146383876Y-101090577D01*
X146303569Y-101208110D01*
X146252560Y-101460000D01*
X146252560Y-101600000D01*
X144662840Y-101600000D01*
X144745099Y-101565927D01*
X144923727Y-101387298D01*
X145020400Y-101153909D01*
X145020400Y-100463350D01*
X144861650Y-100304600D01*
X143662400Y-100304600D01*
X143662400Y-101503850D01*
X143821150Y-101662600D01*
X143952055Y-101662600D01*
X143712599Y-101822599D01*
X143626892Y-101908306D01*
X143382637Y-102009230D01*
X143140082Y-102251362D01*
X143008650Y-102567885D01*
X143008487Y-102754621D01*
X142695379Y-102754621D01*
X142404539Y-102812473D01*
X142157978Y-102977220D01*
X141542599Y-103592599D01*
X141529060Y-103612861D01*
X141231120Y-103612601D01*
X141109910Y-103662684D01*
X140611116Y-103662684D01*
X140320276Y-103720536D01*
X140073715Y-103885283D01*
X139991624Y-103967374D01*
X139951250Y-103927000D01*
X139227000Y-103927000D01*
X139227000Y-103947000D01*
X138973000Y-103947000D01*
X138973000Y-103927000D01*
X138953000Y-103927000D01*
X138953000Y-103817587D01*
X138994485Y-103834813D01*
X139337211Y-103835112D01*
X139653963Y-103704233D01*
X139685251Y-103673000D01*
X139951250Y-103673000D01*
X140061367Y-103562883D01*
X140377000Y-103563158D01*
X140693752Y-103432279D01*
X140936307Y-103190147D01*
X141067739Y-102873624D01*
X141068038Y-102530898D01*
X140966389Y-102284888D01*
X140966389Y-101928589D01*
X140944698Y-101819540D01*
X140916131Y-101675925D01*
X140995400Y-101691693D01*
X141563685Y-101578654D01*
X142045454Y-101256747D01*
X142074803Y-101212823D01*
X142147073Y-101387298D01*
X142325701Y-101565927D01*
X142559090Y-101662600D01*
X143249650Y-101662600D01*
X143408400Y-101503850D01*
X143408400Y-100304600D01*
X143388400Y-100304600D01*
X143388400Y-100050600D01*
X143408400Y-100050600D01*
X143408400Y-98851350D01*
X143662400Y-98851350D01*
X143662400Y-100050600D01*
X144861650Y-100050600D01*
X145020400Y-99891850D01*
X145020400Y-99201291D01*
X144923727Y-98967902D01*
X144745099Y-98789273D01*
X144511710Y-98692600D01*
X143821150Y-98692600D01*
X143662400Y-98851350D01*
X143408400Y-98851350D01*
X143249650Y-98692600D01*
X142559090Y-98692600D01*
X142325701Y-98789273D01*
X142147073Y-98967902D01*
X142074803Y-99142377D01*
X142045454Y-99098453D01*
X141563685Y-98776546D01*
X140995400Y-98663507D01*
X140628992Y-98736390D01*
X140339001Y-98446399D01*
X140160307Y-98327000D01*
X146648891Y-98327000D01*
X146448559Y-98455910D01*
M02*
