G04 #@! TF.FileFunction,Legend,Top*
%FSLAX46Y46*%
G04 Gerber Fmt 4.6, Leading zero omitted, Abs format (unit mm)*
G04 Created by KiCad (PCBNEW 4.0.7) date 11/14/17 20:41:01*
%MOMM*%
%LPD*%
G01*
G04 APERTURE LIST*
%ADD10C,0.100000*%
%ADD11C,0.300000*%
%ADD12C,0.153000*%
%ADD13C,0.200000*%
%ADD14C,0.150000*%
%ADD15C,0.120000*%
G04 APERTURE END LIST*
D10*
D11*
X116071429Y-114864285D02*
X116000000Y-114792856D01*
X115928571Y-114649999D01*
X115928571Y-114292856D01*
X116000000Y-114149999D01*
X116071429Y-114078570D01*
X116214286Y-114007142D01*
X116357143Y-114007142D01*
X116571429Y-114078570D01*
X117428571Y-114935713D01*
X117428571Y-114007142D01*
X115928571Y-113507142D02*
X115928571Y-112578571D01*
X116500000Y-113078571D01*
X116500000Y-112864285D01*
X116571429Y-112721428D01*
X116642857Y-112649999D01*
X116785714Y-112578571D01*
X117142857Y-112578571D01*
X117285714Y-112649999D01*
X117357143Y-112721428D01*
X117428571Y-112864285D01*
X117428571Y-113292857D01*
X117357143Y-113435714D01*
X117285714Y-113507142D01*
X117285714Y-111935714D02*
X117357143Y-111864286D01*
X117428571Y-111935714D01*
X117357143Y-112007143D01*
X117285714Y-111935714D01*
X117428571Y-111935714D01*
X115928571Y-110935714D02*
X115928571Y-110792857D01*
X116000000Y-110650000D01*
X116071429Y-110578571D01*
X116214286Y-110507142D01*
X116500000Y-110435714D01*
X116857143Y-110435714D01*
X117142857Y-110507142D01*
X117285714Y-110578571D01*
X117357143Y-110650000D01*
X117428571Y-110792857D01*
X117428571Y-110935714D01*
X117357143Y-111078571D01*
X117285714Y-111150000D01*
X117142857Y-111221428D01*
X116857143Y-111292857D01*
X116500000Y-111292857D01*
X116214286Y-111221428D01*
X116071429Y-111150000D01*
X116000000Y-111078571D01*
X115928571Y-110935714D01*
X115928571Y-109507143D02*
X115928571Y-109364286D01*
X116000000Y-109221429D01*
X116071429Y-109150000D01*
X116214286Y-109078571D01*
X116500000Y-109007143D01*
X116857143Y-109007143D01*
X117142857Y-109078571D01*
X117285714Y-109150000D01*
X117357143Y-109221429D01*
X117428571Y-109364286D01*
X117428571Y-109507143D01*
X117357143Y-109650000D01*
X117285714Y-109721429D01*
X117142857Y-109792857D01*
X116857143Y-109864286D01*
X116500000Y-109864286D01*
X116214286Y-109792857D01*
X116071429Y-109721429D01*
X116000000Y-109650000D01*
X115928571Y-109507143D01*
X115928571Y-108078572D02*
X115928571Y-107935715D01*
X116000000Y-107792858D01*
X116071429Y-107721429D01*
X116214286Y-107650000D01*
X116500000Y-107578572D01*
X116857143Y-107578572D01*
X117142857Y-107650000D01*
X117285714Y-107721429D01*
X117357143Y-107792858D01*
X117428571Y-107935715D01*
X117428571Y-108078572D01*
X117357143Y-108221429D01*
X117285714Y-108292858D01*
X117142857Y-108364286D01*
X116857143Y-108435715D01*
X116500000Y-108435715D01*
X116214286Y-108364286D01*
X116071429Y-108292858D01*
X116000000Y-108221429D01*
X115928571Y-108078572D01*
X117428571Y-105792858D02*
X116428571Y-105792858D01*
X116571429Y-105792858D02*
X116500000Y-105721430D01*
X116428571Y-105578572D01*
X116428571Y-105364287D01*
X116500000Y-105221430D01*
X116642857Y-105150001D01*
X117428571Y-105150001D01*
X116642857Y-105150001D02*
X116500000Y-105078572D01*
X116428571Y-104935715D01*
X116428571Y-104721430D01*
X116500000Y-104578572D01*
X116642857Y-104507144D01*
X117428571Y-104507144D01*
X117428571Y-103792858D02*
X116428571Y-103792858D01*
X116571429Y-103792858D02*
X116500000Y-103721430D01*
X116428571Y-103578572D01*
X116428571Y-103364287D01*
X116500000Y-103221430D01*
X116642857Y-103150001D01*
X117428571Y-103150001D01*
X116642857Y-103150001D02*
X116500000Y-103078572D01*
X116428571Y-102935715D01*
X116428571Y-102721430D01*
X116500000Y-102578572D01*
X116642857Y-102507144D01*
X117428571Y-102507144D01*
X118100000Y-120150000D02*
X118100000Y-97150000D01*
X118700000Y-120150000D02*
X115400000Y-120150000D01*
X118700000Y-97150000D02*
X115400000Y-97150000D01*
X118100000Y-97150000D02*
X118686421Y-98276504D01*
X118100000Y-97150000D02*
X117513579Y-98276504D01*
X118100000Y-120150000D02*
X118686421Y-119023496D01*
X118100000Y-120150000D02*
X117513579Y-119023496D01*
X128313466Y-94545549D02*
X129242037Y-94545257D01*
X128742217Y-95116843D01*
X128956503Y-95116775D01*
X129099382Y-95188160D01*
X129170834Y-95259565D01*
X129242306Y-95402400D01*
X129242419Y-95759543D01*
X129171036Y-95902422D01*
X129099629Y-95973874D01*
X128956795Y-96045346D01*
X128528223Y-96045481D01*
X128385343Y-95974098D01*
X128313893Y-95902692D01*
X130671080Y-96044807D02*
X129813937Y-96045077D01*
X130242509Y-96044942D02*
X130242037Y-94544942D01*
X130099247Y-94759273D01*
X129956434Y-94902175D01*
X129813600Y-94973649D01*
X131313892Y-95901748D02*
X131385342Y-95973155D01*
X131313937Y-96044605D01*
X131242485Y-95973200D01*
X131313892Y-95901748D01*
X131313937Y-96044605D01*
X132242239Y-95187171D02*
X132099359Y-95115787D01*
X132027908Y-95044381D01*
X131956434Y-94901546D01*
X131956412Y-94830118D01*
X132027796Y-94687239D01*
X132099201Y-94615787D01*
X132242037Y-94544313D01*
X132527751Y-94544223D01*
X132670630Y-94615608D01*
X132742082Y-94687014D01*
X132813555Y-94829849D01*
X132813577Y-94901277D01*
X132742194Y-95044156D01*
X132670787Y-95115607D01*
X132527953Y-95187081D01*
X132242239Y-95187171D01*
X132099403Y-95258644D01*
X132027998Y-95330096D01*
X131956614Y-95472975D01*
X131956704Y-95758689D01*
X132028178Y-95901524D01*
X132099628Y-95972930D01*
X132242509Y-96044313D01*
X132528222Y-96044223D01*
X132671057Y-95972750D01*
X132742464Y-95901299D01*
X132813847Y-95758420D01*
X132813757Y-95472706D01*
X132742284Y-95329871D01*
X132670832Y-95258464D01*
X132527953Y-95187081D01*
X133742036Y-94543842D02*
X133884893Y-94543797D01*
X134027772Y-94615181D01*
X134099224Y-94686587D01*
X134170698Y-94829422D01*
X134242215Y-95115113D01*
X134242328Y-95472256D01*
X134170990Y-95757993D01*
X134099605Y-95900872D01*
X134028199Y-95972324D01*
X133885364Y-96043797D01*
X133742507Y-96043842D01*
X133599628Y-95972458D01*
X133528177Y-95901052D01*
X133456704Y-95758217D01*
X133385185Y-95472526D01*
X133385072Y-95115383D01*
X133456412Y-94829646D01*
X133527795Y-94686767D01*
X133599201Y-94615316D01*
X133742036Y-94543842D01*
X135170607Y-94543392D02*
X135313464Y-94543347D01*
X135456343Y-94614731D01*
X135527795Y-94686138D01*
X135599268Y-94828973D01*
X135670786Y-95114664D01*
X135670899Y-95471807D01*
X135599560Y-95757544D01*
X135528176Y-95900423D01*
X135456770Y-95971874D01*
X135313935Y-96043347D01*
X135171078Y-96043392D01*
X135028199Y-95972009D01*
X134956747Y-95900603D01*
X134885275Y-95757768D01*
X134813756Y-95472077D01*
X134813643Y-95114934D01*
X134884983Y-94829197D01*
X134956366Y-94686318D01*
X135027772Y-94614866D01*
X135170607Y-94543392D01*
X137456792Y-96042673D02*
X137456478Y-95042674D01*
X137456523Y-95185532D02*
X137527928Y-95114080D01*
X137670764Y-95042606D01*
X137885049Y-95042539D01*
X138027928Y-95113923D01*
X138099402Y-95256757D01*
X138099649Y-96042471D01*
X138099402Y-95256757D02*
X138170786Y-95113878D01*
X138313621Y-95042404D01*
X138527906Y-95042337D01*
X138670786Y-95113721D01*
X138742259Y-95256555D01*
X138742506Y-96042269D01*
X139456792Y-96042045D02*
X139456478Y-95042045D01*
X139456523Y-95184903D02*
X139527928Y-95113451D01*
X139670764Y-95041977D01*
X139885049Y-95041910D01*
X140027928Y-95113294D01*
X140099402Y-95256128D01*
X140099649Y-96041842D01*
X140099402Y-95256128D02*
X140170786Y-95113249D01*
X140313621Y-95041775D01*
X140527906Y-95041708D01*
X140670786Y-95113092D01*
X140742259Y-95255926D01*
X140742506Y-96041640D01*
X118699862Y-96720001D02*
X150499862Y-96710001D01*
X118700000Y-97160000D02*
X118699013Y-94020001D01*
X150500000Y-97150000D02*
X150499013Y-94010001D01*
X150499862Y-96710001D02*
X149373543Y-97296776D01*
X150499862Y-96710001D02*
X149373174Y-96123935D01*
X118699862Y-96720001D02*
X119826550Y-97306067D01*
X118699862Y-96720001D02*
X119826181Y-96133226D01*
D12*
X146261905Y-99500000D02*
X146166667Y-99452381D01*
X146023810Y-99452381D01*
X145880952Y-99500000D01*
X145785714Y-99595238D01*
X145738095Y-99690476D01*
X145690476Y-99880952D01*
X145690476Y-100023810D01*
X145738095Y-100214286D01*
X145785714Y-100309524D01*
X145880952Y-100404762D01*
X146023810Y-100452381D01*
X146119048Y-100452381D01*
X146261905Y-100404762D01*
X146309524Y-100357143D01*
X146309524Y-100023810D01*
X146119048Y-100023810D01*
X143738096Y-117677381D02*
X143738096Y-118391667D01*
X143690476Y-118534524D01*
X143595238Y-118629762D01*
X143452381Y-118677381D01*
X143357143Y-118677381D01*
X144071429Y-117677381D02*
X144642858Y-117677381D01*
X144357143Y-118677381D02*
X144357143Y-117677381D01*
X144976191Y-118677381D02*
X144976191Y-117677381D01*
X145214286Y-117677381D01*
X145357144Y-117725000D01*
X145452382Y-117820238D01*
X145500001Y-117915476D01*
X145547620Y-118105952D01*
X145547620Y-118248810D01*
X145500001Y-118439286D01*
X145452382Y-118534524D01*
X145357144Y-118629762D01*
X145214286Y-118677381D01*
X144976191Y-118677381D01*
X146166667Y-117677381D02*
X146357144Y-117677381D01*
X146452382Y-117725000D01*
X146547620Y-117820238D01*
X146595239Y-118010714D01*
X146595239Y-118344048D01*
X146547620Y-118534524D01*
X146452382Y-118629762D01*
X146357144Y-118677381D01*
X146166667Y-118677381D01*
X146071429Y-118629762D01*
X145976191Y-118534524D01*
X145928572Y-118344048D01*
X145928572Y-118010714D01*
X145976191Y-117820238D01*
X146071429Y-117725000D01*
X146166667Y-117677381D01*
X144223810Y-113252381D02*
X144223810Y-113966667D01*
X144176190Y-114109524D01*
X144080952Y-114204762D01*
X143938095Y-114252381D01*
X143842857Y-114252381D01*
X144557143Y-113252381D02*
X145128572Y-113252381D01*
X144842857Y-114252381D02*
X144842857Y-113252381D01*
X145461905Y-114252381D02*
X145461905Y-113252381D01*
X145700000Y-113252381D01*
X145842858Y-113300000D01*
X145938096Y-113395238D01*
X145985715Y-113490476D01*
X146033334Y-113680952D01*
X146033334Y-113823810D01*
X145985715Y-114014286D01*
X145938096Y-114109524D01*
X145842858Y-114204762D01*
X145700000Y-114252381D01*
X145461905Y-114252381D01*
X146461905Y-114252381D02*
X146461905Y-113252381D01*
X143785715Y-111452381D02*
X143785715Y-112166667D01*
X143738095Y-112309524D01*
X143642857Y-112404762D01*
X143500000Y-112452381D01*
X143404762Y-112452381D01*
X144833334Y-112452381D02*
X144500000Y-111976190D01*
X144261905Y-112452381D02*
X144261905Y-111452381D01*
X144642858Y-111452381D01*
X144738096Y-111500000D01*
X144785715Y-111547619D01*
X144833334Y-111642857D01*
X144833334Y-111785714D01*
X144785715Y-111880952D01*
X144738096Y-111928571D01*
X144642858Y-111976190D01*
X144261905Y-111976190D01*
X145214286Y-112404762D02*
X145357143Y-112452381D01*
X145595239Y-112452381D01*
X145690477Y-112404762D01*
X145738096Y-112357143D01*
X145785715Y-112261905D01*
X145785715Y-112166667D01*
X145738096Y-112071429D01*
X145690477Y-112023810D01*
X145595239Y-111976190D01*
X145404762Y-111928571D01*
X145309524Y-111880952D01*
X145261905Y-111833333D01*
X145214286Y-111738095D01*
X145214286Y-111642857D01*
X145261905Y-111547619D01*
X145309524Y-111500000D01*
X145404762Y-111452381D01*
X145642858Y-111452381D01*
X145785715Y-111500000D01*
X146071429Y-111452381D02*
X146642858Y-111452381D01*
X146357143Y-112452381D02*
X146357143Y-111452381D01*
X143866667Y-110452381D02*
X143866667Y-109452381D01*
X144247620Y-109452381D01*
X144342858Y-109500000D01*
X144390477Y-109547619D01*
X144438096Y-109642857D01*
X144438096Y-109785714D01*
X144390477Y-109880952D01*
X144342858Y-109928571D01*
X144247620Y-109976190D01*
X143866667Y-109976190D01*
X144771429Y-109452381D02*
X145009524Y-110452381D01*
X145200001Y-109738095D01*
X145390477Y-110452381D01*
X145628572Y-109452381D01*
X146580953Y-110452381D02*
X146247619Y-109976190D01*
X146009524Y-110452381D02*
X146009524Y-109452381D01*
X146390477Y-109452381D01*
X146485715Y-109500000D01*
X146533334Y-109547619D01*
X146580953Y-109642857D01*
X146580953Y-109785714D01*
X146533334Y-109880952D01*
X146485715Y-109928571D01*
X146390477Y-109976190D01*
X146009524Y-109976190D01*
X144161905Y-107052381D02*
X144780953Y-107052381D01*
X144447619Y-107433333D01*
X144590477Y-107433333D01*
X144685715Y-107480952D01*
X144733334Y-107528571D01*
X144780953Y-107623810D01*
X144780953Y-107861905D01*
X144733334Y-107957143D01*
X144685715Y-108004762D01*
X144590477Y-108052381D01*
X144304762Y-108052381D01*
X144209524Y-108004762D01*
X144161905Y-107957143D01*
X145066667Y-107052381D02*
X145400000Y-108052381D01*
X145733334Y-107052381D01*
X145971429Y-107052381D02*
X146590477Y-107052381D01*
X146257143Y-107433333D01*
X146400001Y-107433333D01*
X146495239Y-107480952D01*
X146542858Y-107528571D01*
X146590477Y-107623810D01*
X146590477Y-107861905D01*
X146542858Y-107957143D01*
X146495239Y-108004762D01*
X146400001Y-108052381D01*
X146114286Y-108052381D01*
X146019048Y-108004762D01*
X145971429Y-107957143D01*
X143771429Y-105404762D02*
X143914286Y-105452381D01*
X144152382Y-105452381D01*
X144247620Y-105404762D01*
X144295239Y-105357143D01*
X144342858Y-105261905D01*
X144342858Y-105166667D01*
X144295239Y-105071429D01*
X144247620Y-105023810D01*
X144152382Y-104976190D01*
X143961905Y-104928571D01*
X143866667Y-104880952D01*
X143819048Y-104833333D01*
X143771429Y-104738095D01*
X143771429Y-104642857D01*
X143819048Y-104547619D01*
X143866667Y-104500000D01*
X143961905Y-104452381D01*
X144200001Y-104452381D01*
X144342858Y-104500000D01*
X144676191Y-104452381D02*
X144914286Y-105452381D01*
X145104763Y-104738095D01*
X145295239Y-105452381D01*
X145533334Y-104452381D01*
X145914286Y-105452381D02*
X145914286Y-104452381D01*
X146247620Y-105166667D01*
X146580953Y-104452381D01*
X146580953Y-105452381D01*
X144652381Y-102852381D02*
X144319047Y-102376190D01*
X144080952Y-102852381D02*
X144080952Y-101852381D01*
X144461905Y-101852381D01*
X144557143Y-101900000D01*
X144604762Y-101947619D01*
X144652381Y-102042857D01*
X144652381Y-102185714D01*
X144604762Y-102280952D01*
X144557143Y-102328571D01*
X144461905Y-102376190D01*
X144080952Y-102376190D01*
X145033333Y-102804762D02*
X145176190Y-102852381D01*
X145414286Y-102852381D01*
X145509524Y-102804762D01*
X145557143Y-102757143D01*
X145604762Y-102661905D01*
X145604762Y-102566667D01*
X145557143Y-102471429D01*
X145509524Y-102423810D01*
X145414286Y-102376190D01*
X145223809Y-102328571D01*
X145128571Y-102280952D01*
X145080952Y-102233333D01*
X145033333Y-102138095D01*
X145033333Y-102042857D01*
X145080952Y-101947619D01*
X145128571Y-101900000D01*
X145223809Y-101852381D01*
X145461905Y-101852381D01*
X145604762Y-101900000D01*
X145890476Y-101852381D02*
X146461905Y-101852381D01*
X146176190Y-102852381D02*
X146176190Y-101852381D01*
D13*
X132766447Y-109417707D02*
X132978579Y-109629839D01*
X132766447Y-109417707D02*
X132978579Y-109205575D01*
X137716194Y-114367454D02*
X137489920Y-114141180D01*
X137716194Y-114367454D02*
X137928326Y-114155322D01*
X142665941Y-109417707D02*
X142453809Y-109629839D01*
X142665941Y-109417707D02*
X142453809Y-109205575D01*
X137716194Y-104467960D02*
X137504062Y-104680092D01*
X137716194Y-104467960D02*
X137928326Y-104680092D01*
D14*
X132648329Y-109948037D02*
G75*
G03X132648329Y-109948037I-72801J0D01*
G01*
D15*
X123820200Y-104700000D02*
X123820200Y-105150000D01*
X121970200Y-104700000D02*
X123820200Y-104700000D01*
X119420200Y-112500000D02*
X119670200Y-112500000D01*
X119420200Y-104700000D02*
X119670200Y-104700000D01*
X121970200Y-112500000D02*
X123820200Y-112500000D01*
X123820200Y-112500000D02*
X123820200Y-112050000D01*
X124370200Y-106900000D02*
X124370200Y-107350000D01*
X124370200Y-106900000D02*
X123920200Y-106900000D01*
X142265400Y-98847600D02*
X129505400Y-98847600D01*
X129505400Y-98847600D02*
X129505400Y-101507600D01*
X129505400Y-101507600D02*
X142265400Y-101507600D01*
X142265400Y-101507600D02*
X142265400Y-98847600D01*
X143535400Y-98847600D02*
X144865400Y-98847600D01*
X144865400Y-98847600D02*
X144865400Y-100177600D01*
X125973600Y-112672400D02*
X125973600Y-106272400D01*
X131023600Y-112672400D02*
X131023600Y-106272400D01*
X131023600Y-112672400D02*
G75*
G02X125973600Y-112672400I-2525000J0D01*
G01*
X131023600Y-106272400D02*
G75*
G03X125973600Y-106272400I-2525000J0D01*
G01*
D14*
X126092000Y-117068600D02*
X126862000Y-117068600D01*
X126862000Y-116668600D02*
X126862000Y-117498600D01*
D15*
X124692000Y-116368600D02*
X124692000Y-117768600D01*
X124692000Y-117768600D02*
X127492000Y-117768600D01*
X124692000Y-116368600D02*
X127492000Y-116368600D01*
D14*
X144380912Y-115656150D02*
X144380912Y-116426150D01*
X144780912Y-116426150D02*
X143950912Y-116426150D01*
D15*
X145080912Y-114256150D02*
X143680912Y-114256150D01*
X143680912Y-114256150D02*
X143680912Y-117056150D01*
X145080912Y-114256150D02*
X145080912Y-117056150D01*
D14*
X142223600Y-115677000D02*
X142223600Y-116447000D01*
X142623600Y-116447000D02*
X141793600Y-116447000D01*
D15*
X142923600Y-114277000D02*
X141523600Y-114277000D01*
X141523600Y-114277000D02*
X141523600Y-117077000D01*
X142923600Y-114277000D02*
X142923600Y-117077000D01*
D14*
X121192381Y-103693333D02*
X121906667Y-103693333D01*
X122049524Y-103740953D01*
X122144762Y-103836191D01*
X122192381Y-103979048D01*
X122192381Y-104074286D01*
X122192381Y-102693333D02*
X122192381Y-103264762D01*
X122192381Y-102979048D02*
X121192381Y-102979048D01*
X121335238Y-103074286D01*
X121430476Y-103169524D01*
X121478095Y-103264762D01*
D12*
X148066667Y-96852381D02*
X148066667Y-97566667D01*
X148019047Y-97709524D01*
X147923809Y-97804762D01*
X147780952Y-97852381D01*
X147685714Y-97852381D01*
X148447619Y-96852381D02*
X149066667Y-96852381D01*
X148733333Y-97233333D01*
X148876191Y-97233333D01*
X148971429Y-97280952D01*
X149019048Y-97328571D01*
X149066667Y-97423810D01*
X149066667Y-97661905D01*
X149019048Y-97757143D01*
X148971429Y-97804762D01*
X148876191Y-97852381D01*
X148590476Y-97852381D01*
X148495238Y-97804762D01*
X148447619Y-97757143D01*
D14*
X145317781Y-100510933D02*
X146032067Y-100510933D01*
X146174924Y-100558553D01*
X146270162Y-100653791D01*
X146317781Y-100796648D01*
X146317781Y-100891886D01*
X145413019Y-100082362D02*
X145365400Y-100034743D01*
X145317781Y-99939505D01*
X145317781Y-99701409D01*
X145365400Y-99606171D01*
X145413019Y-99558552D01*
X145508257Y-99510933D01*
X145603495Y-99510933D01*
X145746352Y-99558552D01*
X146317781Y-100129981D01*
X146317781Y-99510933D01*
X124582381Y-109889524D02*
X125582381Y-109222857D01*
X124582381Y-109222857D02*
X125582381Y-109889524D01*
X125582381Y-108318095D02*
X125582381Y-108889524D01*
X125582381Y-108603810D02*
X124582381Y-108603810D01*
X124725238Y-108699048D01*
X124820476Y-108794286D01*
X124868095Y-108889524D01*
D12*
X125421905Y-116012381D02*
X125421905Y-115012381D01*
X125660000Y-115012381D01*
X125802858Y-115060000D01*
X125898096Y-115155238D01*
X125945715Y-115250476D01*
X125993334Y-115440952D01*
X125993334Y-115583810D01*
X125945715Y-115774286D01*
X125898096Y-115869524D01*
X125802858Y-115964762D01*
X125660000Y-116012381D01*
X125421905Y-116012381D01*
X126326667Y-115012381D02*
X126945715Y-115012381D01*
X126612381Y-115393333D01*
X126755239Y-115393333D01*
X126850477Y-115440952D01*
X126898096Y-115488571D01*
X126945715Y-115583810D01*
X126945715Y-115821905D01*
X126898096Y-115917143D01*
X126850477Y-115964762D01*
X126755239Y-116012381D01*
X126469524Y-116012381D01*
X126374286Y-115964762D01*
X126326667Y-115917143D01*
X141052381Y-118338095D02*
X140052381Y-118338095D01*
X140052381Y-118100000D01*
X140100000Y-117957142D01*
X140195238Y-117861904D01*
X140290476Y-117814285D01*
X140480952Y-117766666D01*
X140623810Y-117766666D01*
X140814286Y-117814285D01*
X140909524Y-117861904D01*
X141004762Y-117957142D01*
X141052381Y-118100000D01*
X141052381Y-118338095D01*
X140147619Y-117385714D02*
X140100000Y-117338095D01*
X140052381Y-117242857D01*
X140052381Y-117004761D01*
X140100000Y-116909523D01*
X140147619Y-116861904D01*
X140242857Y-116814285D01*
X140338095Y-116814285D01*
X140480952Y-116861904D01*
X141052381Y-117433333D01*
X141052381Y-116814285D01*
X138895069Y-118358945D02*
X137895069Y-118358945D01*
X137895069Y-118120850D01*
X137942688Y-117977992D01*
X138037926Y-117882754D01*
X138133164Y-117835135D01*
X138323640Y-117787516D01*
X138466498Y-117787516D01*
X138656974Y-117835135D01*
X138752212Y-117882754D01*
X138847450Y-117977992D01*
X138895069Y-118120850D01*
X138895069Y-118358945D01*
X138895069Y-116835135D02*
X138895069Y-117406564D01*
X138895069Y-117120850D02*
X137895069Y-117120850D01*
X138037926Y-117216088D01*
X138133164Y-117311326D01*
X138180783Y-117406564D01*
M02*
