G04 #@! TF.FileFunction,Other,User*
%FSLAX46Y46*%
G04 Gerber Fmt 4.6, Leading zero omitted, Abs format (unit mm)*
G04 Created by KiCad (PCBNEW 4.0.7) date 11/14/17 20:41:01*
%MOMM*%
%LPD*%
G01*
G04 APERTURE LIST*
%ADD10C,0.100000*%
%ADD11C,0.050000*%
G04 APERTURE END LIST*
D10*
D11*
X132365000Y-111540000D02*
X132365000Y-114040000D01*
X132365000Y-111540000D02*
X133765000Y-111540000D01*
X133765000Y-114040000D02*
X132365000Y-114040000D01*
X133765000Y-114040000D02*
X133765000Y-111540000D01*
X141660000Y-113860000D02*
X141660000Y-111360000D01*
X141660000Y-113860000D02*
X140260000Y-113860000D01*
X140260000Y-111360000D02*
X141660000Y-111360000D01*
X140260000Y-111360000D02*
X140260000Y-113860000D01*
X138020000Y-111470000D02*
X138020000Y-113970000D01*
X138020000Y-111470000D02*
X139420000Y-111470000D01*
X139420000Y-113970000D02*
X138020000Y-113970000D01*
X139420000Y-113970000D02*
X139420000Y-111470000D01*
X136370000Y-104300000D02*
X136370000Y-101800000D01*
X136370000Y-104300000D02*
X134970000Y-104300000D01*
X134970000Y-101800000D02*
X136370000Y-101800000D01*
X134970000Y-101800000D02*
X134970000Y-104300000D01*
X135421600Y-110690000D02*
X135421600Y-108190000D01*
X135421600Y-110690000D02*
X134021600Y-110690000D01*
X134021600Y-108190000D02*
X135421600Y-108190000D01*
X134021600Y-108190000D02*
X134021600Y-110690000D01*
X135670000Y-114270000D02*
X135670000Y-117070000D01*
X135670000Y-114270000D02*
X136970000Y-114270000D01*
X136970000Y-117070000D02*
X135670000Y-117070000D01*
X136970000Y-117070000D02*
X136970000Y-114270000D01*
X142712200Y-110840000D02*
X142712200Y-108040000D01*
X142712200Y-110840000D02*
X141412200Y-110840000D01*
X141412200Y-108040000D02*
X142712200Y-108040000D01*
X141412200Y-108040000D02*
X141412200Y-110840000D01*
X139750000Y-104450000D02*
X139750000Y-101650000D01*
X139750000Y-104450000D02*
X138450000Y-104450000D01*
X138450000Y-101650000D02*
X139750000Y-101650000D01*
X138450000Y-101650000D02*
X138450000Y-104450000D01*
X133542800Y-110899400D02*
X133542800Y-108099400D01*
X133542800Y-110899400D02*
X132242800Y-110899400D01*
X132242800Y-108099400D02*
X133542800Y-108099400D01*
X132242800Y-108099400D02*
X132242800Y-110899400D01*
X128170000Y-117150000D02*
X128170000Y-114650000D01*
X128170000Y-117150000D02*
X126770000Y-117150000D01*
X126770000Y-114650000D02*
X128170000Y-114650000D01*
X126770000Y-114650000D02*
X126770000Y-117150000D01*
X143680912Y-114796150D02*
X143680912Y-117296150D01*
X143680912Y-114796150D02*
X145080912Y-114796150D01*
X145080912Y-117296150D02*
X143680912Y-117296150D01*
X145080912Y-117296150D02*
X145080912Y-114796150D01*
X142923600Y-117327000D02*
X142923600Y-114827000D01*
X142923600Y-117327000D02*
X141523600Y-117327000D01*
X141523600Y-114827000D02*
X142923600Y-114827000D01*
X141523600Y-114827000D02*
X141523600Y-117327000D01*
X126270000Y-117170000D02*
X122470000Y-117170000D01*
X126270000Y-113570000D02*
X126270000Y-117170000D01*
X122470000Y-113570000D02*
X126270000Y-113570000D01*
X122470000Y-117170000D02*
X122470000Y-113570000D01*
X136690000Y-101800000D02*
X136690000Y-104300000D01*
X136690000Y-101800000D02*
X138090000Y-101800000D01*
X138090000Y-104300000D02*
X136690000Y-104300000D01*
X138090000Y-104300000D02*
X138090000Y-101800000D01*
X135748800Y-108190000D02*
X135748800Y-110690000D01*
X135748800Y-108190000D02*
X137148800Y-108190000D01*
X137148800Y-110690000D02*
X135748800Y-110690000D01*
X137148800Y-110690000D02*
X137148800Y-108190000D01*
X138799800Y-110690000D02*
X138799800Y-108190000D01*
X138799800Y-110690000D02*
X137399800Y-110690000D01*
X137399800Y-108190000D02*
X138799800Y-108190000D01*
X137399800Y-108190000D02*
X137399800Y-110690000D01*
X139730000Y-108190000D02*
X139730000Y-110690000D01*
X139730000Y-108190000D02*
X141130000Y-108190000D01*
X141130000Y-110690000D02*
X139730000Y-110690000D01*
X141130000Y-110690000D02*
X141130000Y-108190000D01*
X126636200Y-99463400D02*
X126636200Y-101963400D01*
X126636200Y-99463400D02*
X128036200Y-99463400D01*
X128036200Y-101963400D02*
X126636200Y-101963400D01*
X128036200Y-101963400D02*
X128036200Y-99463400D01*
X133170000Y-101730000D02*
X133170000Y-104230000D01*
X133170000Y-101730000D02*
X134570000Y-101730000D01*
X134570000Y-104230000D02*
X133170000Y-104230000D01*
X134570000Y-104230000D02*
X134570000Y-101730000D01*
X124683400Y-101963400D02*
X124683400Y-99463400D01*
X124683400Y-101963400D02*
X123283400Y-101963400D01*
X123283400Y-99463400D02*
X124683400Y-99463400D01*
X123283400Y-99463400D02*
X123283400Y-101963400D01*
X124959800Y-99463400D02*
X124959800Y-101963400D01*
X124959800Y-99463400D02*
X126359800Y-99463400D01*
X126359800Y-101963400D02*
X124959800Y-101963400D01*
X126359800Y-101963400D02*
X126359800Y-99463400D01*
X120305600Y-106508800D02*
X120305600Y-109008800D01*
X120305600Y-106508800D02*
X121705600Y-106508800D01*
X121705600Y-109008800D02*
X120305600Y-109008800D01*
X121705600Y-109008800D02*
X121705600Y-106508800D01*
X119240600Y-116349200D02*
X121740600Y-116349200D01*
X119240600Y-116349200D02*
X119240600Y-114949200D01*
X121740600Y-114949200D02*
X121740600Y-116349200D01*
X121740600Y-114949200D02*
X119240600Y-114949200D01*
X121716600Y-113323600D02*
X119216600Y-113323600D01*
X121716600Y-113323600D02*
X121716600Y-114723600D01*
X119216600Y-114723600D02*
X119216600Y-113323600D01*
X119216600Y-114723600D02*
X121716600Y-114723600D01*
X119240600Y-118025600D02*
X121740600Y-118025600D01*
X119240600Y-118025600D02*
X119240600Y-116625600D01*
X121740600Y-116625600D02*
X121740600Y-118025600D01*
X121740600Y-116625600D02*
X119240600Y-116625600D01*
X132365000Y-114360400D02*
X132365000Y-116860400D01*
X132365000Y-114360400D02*
X133765000Y-114360400D01*
X133765000Y-116860400D02*
X132365000Y-116860400D01*
X133765000Y-116860400D02*
X133765000Y-114360400D01*
X133965200Y-114360400D02*
X133965200Y-116860400D01*
X133965200Y-114360400D02*
X135365200Y-114360400D01*
X135365200Y-116860400D02*
X133965200Y-116860400D01*
X135365200Y-116860400D02*
X135365200Y-114360400D01*
X130790200Y-114385800D02*
X130790200Y-116885800D01*
X130790200Y-114385800D02*
X132190200Y-114385800D01*
X132190200Y-116885800D02*
X130790200Y-116885800D01*
X132190200Y-116885800D02*
X132190200Y-114385800D01*
X122900000Y-99150000D02*
X119500000Y-99150000D01*
X119500000Y-99150000D02*
X119500000Y-102650000D01*
X119500000Y-102650000D02*
X122900000Y-102650000D01*
X122900000Y-102650000D02*
X122900000Y-99150000D01*
X131840000Y-110910000D02*
X131840000Y-108110000D01*
X131840000Y-110910000D02*
X130540000Y-110910000D01*
X130540000Y-108110000D02*
X131840000Y-108110000D01*
X130540000Y-108110000D02*
X130540000Y-110910000D01*
X128242600Y-102337600D02*
X125442600Y-102337600D01*
X128242600Y-102337600D02*
X128242600Y-103637600D01*
X125442600Y-103637600D02*
X125442600Y-102337600D01*
X125442600Y-103637600D02*
X128242600Y-103637600D01*
X129160000Y-108100000D02*
X129160000Y-110900000D01*
X129160000Y-108100000D02*
X130460000Y-108100000D01*
X130460000Y-110900000D02*
X129160000Y-110900000D01*
X130460000Y-110900000D02*
X130460000Y-108100000D01*
X127600000Y-110910000D02*
X127600000Y-108110000D01*
X127600000Y-110910000D02*
X126300000Y-110910000D01*
X126300000Y-108110000D02*
X127600000Y-108110000D01*
X126300000Y-108110000D02*
X126300000Y-110910000D01*
X130463800Y-117010400D02*
X130463800Y-114210400D01*
X130463800Y-117010400D02*
X129163800Y-117010400D01*
X129163800Y-114210400D02*
X130463800Y-114210400D01*
X129163800Y-114210400D02*
X129163800Y-117010400D01*
X137290000Y-114270000D02*
X137290000Y-117070000D01*
X137290000Y-114270000D02*
X138590000Y-114270000D01*
X138590000Y-117070000D02*
X137290000Y-117070000D01*
X138590000Y-117070000D02*
X138590000Y-114270000D01*
X128242600Y-103937800D02*
X125442600Y-103937800D01*
X128242600Y-103937800D02*
X128242600Y-105237800D01*
X125442600Y-105237800D02*
X125442600Y-103937800D01*
X125442600Y-105237800D02*
X128242600Y-105237800D01*
X128780000Y-105480000D02*
X132580000Y-105480000D01*
X132580000Y-105480000D02*
X132580000Y-101880000D01*
X132580000Y-101880000D02*
X128780000Y-101880000D01*
X128780000Y-101880000D02*
X128780000Y-105480000D01*
M02*
