G04 #@! TF.FileFunction,Copper,L1,Top,Signal*
%FSLAX46Y46*%
G04 Gerber Fmt 4.6, Leading zero omitted, Abs format (unit mm)*
G04 Created by KiCad (PCBNEW 4.0.7) date 11/14/17 20:41:01*
%MOMM*%
%LPD*%
G01*
G04 APERTURE LIST*
%ADD10C,0.100000*%
%ADD11C,0.150000*%
%ADD12R,1.900000X1.500000*%
%ADD13C,1.450000*%
%ADD14R,1.350000X0.400000*%
%ADD15O,1.900000X1.200000*%
%ADD16R,1.900000X1.200000*%
%ADD17R,1.700000X1.700000*%
%ADD18O,1.700000X1.700000*%
%ADD19C,1.500000*%
%ADD20R,1.200000X1.200000*%
%ADD21C,0.453000*%
%ADD22C,0.450000*%
%ADD23C,0.250000*%
%ADD24C,0.400000*%
%ADD25C,0.600000*%
%ADD26C,0.254000*%
G04 APERTURE END LIST*
D10*
D11*
X132648329Y-109948037D02*
G75*
G03X132648329Y-109948037I-72801J0D01*
G01*
D10*
G36*
X133473553Y-109276285D02*
X132236117Y-108038849D01*
X132448249Y-107826717D01*
X133685685Y-109064153D01*
X133473553Y-109276285D01*
X133473553Y-109276285D01*
G37*
G36*
X133827106Y-108922732D02*
X132589670Y-107685296D01*
X132801802Y-107473164D01*
X134039238Y-108710600D01*
X133827106Y-108922732D01*
X133827106Y-108922732D01*
G37*
G36*
X134180660Y-108569178D02*
X132943224Y-107331742D01*
X133155356Y-107119610D01*
X134392792Y-108357046D01*
X134180660Y-108569178D01*
X134180660Y-108569178D01*
G37*
G36*
X134534213Y-108215625D02*
X133296777Y-106978189D01*
X133508909Y-106766057D01*
X134746345Y-108003493D01*
X134534213Y-108215625D01*
X134534213Y-108215625D01*
G37*
G36*
X134887766Y-107862072D02*
X133650330Y-106624636D01*
X133862462Y-106412504D01*
X135099898Y-107649940D01*
X134887766Y-107862072D01*
X134887766Y-107862072D01*
G37*
G36*
X134216016Y-106058950D02*
X135453452Y-107296386D01*
X135241320Y-107508518D01*
X134003884Y-106271082D01*
X134216016Y-106058950D01*
X134216016Y-106058950D01*
G37*
G36*
X135594873Y-107154965D02*
X134357437Y-105917529D01*
X134569569Y-105705397D01*
X135807005Y-106942833D01*
X135594873Y-107154965D01*
X135594873Y-107154965D01*
G37*
G36*
X135948427Y-106801411D02*
X134710991Y-105563975D01*
X134923123Y-105351843D01*
X136160559Y-106589279D01*
X135948427Y-106801411D01*
X135948427Y-106801411D01*
G37*
G36*
X136301980Y-106447858D02*
X135064544Y-105210422D01*
X135276676Y-104998290D01*
X136514112Y-106235726D01*
X136301980Y-106447858D01*
X136301980Y-106447858D01*
G37*
G36*
X136655533Y-106094305D02*
X135418097Y-104856869D01*
X135630229Y-104644737D01*
X136867665Y-105882173D01*
X136655533Y-106094305D01*
X136655533Y-106094305D01*
G37*
G36*
X137009087Y-105740751D02*
X135771651Y-104503315D01*
X135983783Y-104291183D01*
X137221219Y-105528619D01*
X137009087Y-105740751D01*
X137009087Y-105740751D01*
G37*
G36*
X137362640Y-105387198D02*
X136125204Y-104149762D01*
X136337336Y-103937630D01*
X137574772Y-105175066D01*
X137362640Y-105387198D01*
X137362640Y-105387198D01*
G37*
G36*
X135807005Y-111892581D02*
X134569569Y-113130017D01*
X134357437Y-112917885D01*
X135594873Y-111680449D01*
X135807005Y-111892581D01*
X135807005Y-111892581D01*
G37*
G36*
X135453452Y-111539028D02*
X134216016Y-112776464D01*
X134003884Y-112564332D01*
X135241320Y-111326896D01*
X135453452Y-111539028D01*
X135453452Y-111539028D01*
G37*
G36*
X135099898Y-111185474D02*
X133862462Y-112422910D01*
X133650330Y-112210778D01*
X134887766Y-110973342D01*
X135099898Y-111185474D01*
X135099898Y-111185474D01*
G37*
G36*
X134746345Y-110831921D02*
X133508909Y-112069357D01*
X133296777Y-111857225D01*
X134534213Y-110619789D01*
X134746345Y-110831921D01*
X134746345Y-110831921D01*
G37*
G36*
X134392792Y-110478368D02*
X133155356Y-111715804D01*
X132943224Y-111503672D01*
X134180660Y-110266236D01*
X134392792Y-110478368D01*
X134392792Y-110478368D01*
G37*
G36*
X134039238Y-110124814D02*
X132801802Y-111362250D01*
X132589670Y-111150118D01*
X133827106Y-109912682D01*
X134039238Y-110124814D01*
X134039238Y-110124814D01*
G37*
G36*
X136160559Y-112246135D02*
X134923123Y-113483571D01*
X134710991Y-113271439D01*
X135948427Y-112034003D01*
X136160559Y-112246135D01*
X136160559Y-112246135D01*
G37*
G36*
X133685685Y-109771261D02*
X132448249Y-111008697D01*
X132236117Y-110796565D01*
X133473553Y-109559129D01*
X133685685Y-109771261D01*
X133685685Y-109771261D01*
G37*
G36*
X136514112Y-112599688D02*
X135276676Y-113837124D01*
X135064544Y-113624992D01*
X136301980Y-112387556D01*
X136514112Y-112599688D01*
X136514112Y-112599688D01*
G37*
G36*
X136867665Y-112953241D02*
X135630229Y-114190677D01*
X135418097Y-113978545D01*
X136655533Y-112741109D01*
X136867665Y-112953241D01*
X136867665Y-112953241D01*
G37*
G36*
X137221219Y-113306795D02*
X135983783Y-114544231D01*
X135771651Y-114332099D01*
X137009087Y-113094663D01*
X137221219Y-113306795D01*
X137221219Y-113306795D01*
G37*
G36*
X137574772Y-113660348D02*
X136337336Y-114897784D01*
X136125204Y-114685652D01*
X137362640Y-113448216D01*
X137574772Y-113660348D01*
X137574772Y-113660348D01*
G37*
G36*
X141216372Y-112776464D02*
X139978936Y-111539028D01*
X140191068Y-111326896D01*
X141428504Y-112564332D01*
X141216372Y-112776464D01*
X141216372Y-112776464D01*
G37*
G36*
X140862819Y-113130017D02*
X139625383Y-111892581D01*
X139837515Y-111680449D01*
X141074951Y-112917885D01*
X140862819Y-113130017D01*
X140862819Y-113130017D01*
G37*
G36*
X140509265Y-113483571D02*
X139271829Y-112246135D01*
X139483961Y-112034003D01*
X140721397Y-113271439D01*
X140509265Y-113483571D01*
X140509265Y-113483571D01*
G37*
G36*
X140155712Y-113837124D02*
X138918276Y-112599688D01*
X139130408Y-112387556D01*
X140367844Y-113624992D01*
X140155712Y-113837124D01*
X140155712Y-113837124D01*
G37*
G36*
X139802159Y-114190677D02*
X138564723Y-112953241D01*
X138776855Y-112741109D01*
X140014291Y-113978545D01*
X139802159Y-114190677D01*
X139802159Y-114190677D01*
G37*
G36*
X139448605Y-114544231D02*
X138211169Y-113306795D01*
X138423301Y-113094663D01*
X139660737Y-114332099D01*
X139448605Y-114544231D01*
X139448605Y-114544231D01*
G37*
G36*
X139095052Y-114897784D02*
X137857616Y-113660348D01*
X138069748Y-113448216D01*
X139307184Y-114685652D01*
X139095052Y-114897784D01*
X139095052Y-114897784D01*
G37*
G36*
X141569926Y-112422910D02*
X140332490Y-111185474D01*
X140544622Y-110973342D01*
X141782058Y-112210778D01*
X141569926Y-112422910D01*
X141569926Y-112422910D01*
G37*
G36*
X141923479Y-112069357D02*
X140686043Y-110831921D01*
X140898175Y-110619789D01*
X142135611Y-111857225D01*
X141923479Y-112069357D01*
X141923479Y-112069357D01*
G37*
G36*
X142277032Y-111715804D02*
X141039596Y-110478368D01*
X141251728Y-110266236D01*
X142489164Y-111503672D01*
X142277032Y-111715804D01*
X142277032Y-111715804D01*
G37*
G36*
X142630586Y-111362250D02*
X141393150Y-110124814D01*
X141605282Y-109912682D01*
X142842718Y-111150118D01*
X142630586Y-111362250D01*
X142630586Y-111362250D01*
G37*
G36*
X142984139Y-111008697D02*
X141746703Y-109771261D01*
X141958835Y-109559129D01*
X143196271Y-110796565D01*
X142984139Y-111008697D01*
X142984139Y-111008697D01*
G37*
G36*
X141074951Y-105917529D02*
X139837515Y-107154965D01*
X139625383Y-106942833D01*
X140862819Y-105705397D01*
X141074951Y-105917529D01*
X141074951Y-105917529D01*
G37*
G36*
X141428504Y-106271082D02*
X140191068Y-107508518D01*
X139978936Y-107296386D01*
X141216372Y-106058950D01*
X141428504Y-106271082D01*
X141428504Y-106271082D01*
G37*
G36*
X140721397Y-105563975D02*
X139483961Y-106801411D01*
X139271829Y-106589279D01*
X140509265Y-105351843D01*
X140721397Y-105563975D01*
X140721397Y-105563975D01*
G37*
G36*
X140367844Y-105210422D02*
X139130408Y-106447858D01*
X138918276Y-106235726D01*
X140155712Y-104998290D01*
X140367844Y-105210422D01*
X140367844Y-105210422D01*
G37*
G36*
X140014291Y-104856869D02*
X138776855Y-106094305D01*
X138564723Y-105882173D01*
X139802159Y-104644737D01*
X140014291Y-104856869D01*
X140014291Y-104856869D01*
G37*
G36*
X139660737Y-104503315D02*
X138423301Y-105740751D01*
X138211169Y-105528619D01*
X139448605Y-104291183D01*
X139660737Y-104503315D01*
X139660737Y-104503315D01*
G37*
G36*
X139307184Y-104149762D02*
X138069748Y-105387198D01*
X137857616Y-105175066D01*
X139095052Y-103937630D01*
X139307184Y-104149762D01*
X139307184Y-104149762D01*
G37*
G36*
X141782058Y-106624636D02*
X140544622Y-107862072D01*
X140332490Y-107649940D01*
X141569926Y-106412504D01*
X141782058Y-106624636D01*
X141782058Y-106624636D01*
G37*
G36*
X142135611Y-106978189D02*
X140898175Y-108215625D01*
X140686043Y-108003493D01*
X141923479Y-106766057D01*
X142135611Y-106978189D01*
X142135611Y-106978189D01*
G37*
G36*
X142489164Y-107331742D02*
X141251728Y-108569178D01*
X141039596Y-108357046D01*
X142277032Y-107119610D01*
X142489164Y-107331742D01*
X142489164Y-107331742D01*
G37*
G36*
X142842718Y-107685296D02*
X141605282Y-108922732D01*
X141393150Y-108710600D01*
X142630586Y-107473164D01*
X142842718Y-107685296D01*
X142842718Y-107685296D01*
G37*
G36*
X143196271Y-108038849D02*
X141958835Y-109276285D01*
X141746703Y-109064153D01*
X142984139Y-107826717D01*
X143196271Y-108038849D01*
X143196271Y-108038849D01*
G37*
G36*
X135524163Y-111185474D02*
X133756396Y-109417707D01*
X135524163Y-107649940D01*
X137291930Y-109417707D01*
X135524163Y-111185474D01*
X135524163Y-111185474D01*
G37*
G36*
X139908225Y-111185474D02*
X138140458Y-109417707D01*
X139908225Y-107649940D01*
X141675992Y-109417707D01*
X139908225Y-111185474D01*
X139908225Y-111185474D01*
G37*
G36*
X137716194Y-108993443D02*
X135948427Y-107225676D01*
X137716194Y-105457909D01*
X139483961Y-107225676D01*
X137716194Y-108993443D01*
X137716194Y-108993443D01*
G37*
G36*
X137716194Y-113377505D02*
X135948427Y-111609738D01*
X137716194Y-109841971D01*
X139483961Y-111609738D01*
X137716194Y-113377505D01*
X137716194Y-113377505D01*
G37*
D12*
X120820200Y-109600000D03*
D13*
X123520200Y-106100000D03*
D14*
X123520200Y-107950000D03*
X123520200Y-107300000D03*
X123520200Y-109900000D03*
X123520200Y-109250000D03*
X123520200Y-108600000D03*
D13*
X123520200Y-111100000D03*
D12*
X120820200Y-107600000D03*
D15*
X120820200Y-105100000D03*
X120820200Y-112100000D03*
D16*
X120820200Y-111500000D03*
X120820200Y-105700000D03*
D10*
G36*
X146900000Y-100720000D02*
X146900000Y-98920000D01*
X149900000Y-98920000D01*
X149900000Y-100720000D01*
X146900000Y-100720000D01*
X146900000Y-100720000D01*
G37*
G36*
X146900000Y-103260000D02*
X146900000Y-101460000D01*
X149900000Y-101460000D01*
X149900000Y-103260000D01*
X146900000Y-103260000D01*
X146900000Y-103260000D01*
G37*
G36*
X146900000Y-105800000D02*
X146900000Y-104000000D01*
X149900000Y-104000000D01*
X149900000Y-105800000D01*
X146900000Y-105800000D01*
X146900000Y-105800000D01*
G37*
G36*
X146900000Y-108340000D02*
X146900000Y-106540000D01*
X149900000Y-106540000D01*
X149900000Y-108340000D01*
X146900000Y-108340000D01*
X146900000Y-108340000D01*
G37*
G36*
X146900000Y-110880000D02*
X146900000Y-109080000D01*
X149900000Y-109080000D01*
X149900000Y-110880000D01*
X146900000Y-110880000D01*
X146900000Y-110880000D01*
G37*
G36*
X146900000Y-113420000D02*
X146900000Y-111620000D01*
X149900000Y-111620000D01*
X149900000Y-113420000D01*
X146900000Y-113420000D01*
X146900000Y-113420000D01*
G37*
G36*
X146900000Y-115960000D02*
X146900000Y-114160000D01*
X149900000Y-114160000D01*
X149900000Y-115960000D01*
X146900000Y-115960000D01*
X146900000Y-115960000D01*
G37*
G36*
X146900000Y-118500000D02*
X146900000Y-116700000D01*
X149900000Y-116700000D01*
X149900000Y-118500000D01*
X146900000Y-118500000D01*
X146900000Y-118500000D01*
G37*
D17*
X143535400Y-100177600D03*
D18*
X140995400Y-100177600D03*
X138455400Y-100177600D03*
X135915400Y-100177600D03*
X133375400Y-100177600D03*
X130835400Y-100177600D03*
D19*
X128498600Y-111912400D03*
X128498600Y-107032400D03*
D20*
X127592000Y-117068600D03*
X125392000Y-117068600D03*
X144380912Y-117156150D03*
X144380912Y-114956150D03*
X142223600Y-117177000D03*
X142223600Y-114977000D03*
D21*
X131290000Y-111320000D03*
X144605679Y-111968491D03*
D22*
X145363428Y-109866556D03*
X143258924Y-114443176D03*
X146370000Y-107430000D03*
D21*
X139166600Y-102973463D03*
X121100000Y-100900000D03*
X135077200Y-117297200D03*
X130860800Y-107797600D03*
X126517400Y-115163600D03*
X134899400Y-114046000D03*
X128574800Y-104571800D03*
X125170000Y-103060000D03*
D22*
X143290000Y-117220000D03*
D21*
X145567400Y-115316000D03*
X122140000Y-114610000D03*
D22*
X144515474Y-106738838D03*
D21*
X142748000Y-105867200D03*
D22*
X145687089Y-107132622D03*
D21*
X143564544Y-109625456D03*
X144739500Y-109193326D03*
X143870000Y-102740000D03*
X145190000Y-113360000D03*
X146340000Y-111350000D03*
D22*
X139825238Y-117579991D03*
X138730000Y-117699991D03*
X145125067Y-106513204D03*
D21*
X144538745Y-104188039D03*
X145580000Y-116920000D03*
X146260000Y-115570000D03*
X145750000Y-111890000D03*
X144380002Y-108570000D03*
D22*
X141878669Y-105861469D03*
D21*
X141401731Y-104474250D03*
X141086874Y-105059212D03*
X128300000Y-99200000D03*
X143120000Y-108700000D03*
D22*
X132673969Y-106424991D03*
X134086600Y-103054981D03*
X132043964Y-107022340D03*
X134747000Y-102607209D03*
X134611209Y-115491203D03*
D21*
X146499053Y-103514621D03*
X137414000Y-102971600D03*
X140206389Y-102701509D03*
D22*
X139807856Y-114789995D03*
D21*
X143810000Y-107740000D03*
X143675000Y-105800000D03*
D22*
X142594249Y-107014533D03*
X126110000Y-105387811D03*
D21*
X131590000Y-114110000D03*
X124140000Y-117580000D03*
X138020000Y-117290000D03*
X141210000Y-115830002D03*
X137790000Y-115593499D03*
X143988012Y-111400000D03*
X140248975Y-103359202D03*
X131826000Y-107772200D03*
D22*
X133451600Y-115685389D03*
X122264001Y-107175633D03*
X129760000Y-109424989D03*
X126267591Y-103792480D03*
X130985009Y-102812552D03*
X122238065Y-107979401D03*
D21*
X122200000Y-108700000D03*
D22*
X133409607Y-106152400D03*
D21*
X132062414Y-105407999D03*
X133451600Y-102844600D03*
X128879600Y-117424200D03*
X143020099Y-112350008D03*
X143500000Y-111890000D03*
X132390000Y-111450000D03*
D23*
X144610000Y-110619984D02*
X144605679Y-110624305D01*
X144605679Y-110624305D02*
X144605679Y-111968491D01*
X142471487Y-110283913D02*
X144273929Y-110283913D01*
X144273929Y-110283913D02*
X144610000Y-110619984D01*
X144610000Y-110619984D02*
X145363428Y-109866556D01*
X130860800Y-107797600D02*
X130860800Y-104089200D01*
X130860800Y-104089200D02*
X132180000Y-102770000D01*
D24*
X145600000Y-103682800D02*
X145692800Y-103682800D01*
X145692800Y-103682800D02*
X146370000Y-104360000D01*
X146370000Y-104360000D02*
X146370000Y-107430000D01*
D23*
X145600000Y-103682800D02*
X145600000Y-102520000D01*
X145600000Y-102520000D02*
X145213400Y-102133400D01*
X145213400Y-102133400D02*
X141884400Y-102133400D01*
D24*
X130860800Y-110890800D02*
X131290000Y-111320000D01*
X130860800Y-107797600D02*
X130860800Y-110890800D01*
X131546499Y-111133501D02*
X131360000Y-111320000D01*
X131360000Y-111320000D02*
X131290000Y-111320000D01*
D23*
X132396087Y-110283913D02*
X131546499Y-111133501D01*
X132960901Y-110283913D02*
X132396087Y-110283913D01*
D24*
X132925538Y-108586864D02*
X132925538Y-109754462D01*
X132925538Y-109754462D02*
X131546499Y-111133501D01*
D23*
X143258924Y-115608924D02*
X143258924Y-114443176D01*
X144380912Y-117156150D02*
X144380912Y-116730912D01*
X144380912Y-116730912D02*
X143258924Y-115608924D01*
D24*
X148400000Y-107440000D02*
X146380000Y-107440000D01*
X146380000Y-107440000D02*
X146370000Y-107430000D01*
D23*
X138582400Y-104662414D02*
X139150000Y-104094814D01*
X139150000Y-104094814D02*
X139150000Y-102990063D01*
X139150000Y-102990063D02*
X139166600Y-102973463D01*
X141884400Y-102133400D02*
X140366600Y-102133400D01*
X140366600Y-102133400D02*
X140350000Y-102150000D01*
X140350000Y-102150000D02*
X139525000Y-102150000D01*
X139525000Y-102150000D02*
X139166600Y-102508400D01*
X139166600Y-102508400D02*
X139166600Y-102973463D01*
X141859000Y-102158800D02*
X141884400Y-102133400D01*
X132960901Y-110283913D02*
X132960901Y-108551501D01*
X130860800Y-107797600D02*
X130860800Y-108115798D01*
X134061200Y-116281200D02*
X135077200Y-117297200D01*
X134061200Y-114884200D02*
X134061200Y-116281200D01*
X134899400Y-114046000D02*
X134061200Y-114884200D01*
X130860800Y-106959400D02*
X130860800Y-107797600D01*
X135789328Y-113112340D02*
X134899400Y-114002268D01*
X134899400Y-114002268D02*
X134899400Y-114046000D01*
D24*
X128574800Y-104571800D02*
X125858200Y-104571800D01*
X125858200Y-104571800D02*
X125171200Y-105258800D01*
X125171200Y-104598400D02*
X125170000Y-104597200D01*
X125171200Y-105258800D02*
X125171200Y-104598400D01*
X125170000Y-104597200D02*
X125170000Y-103060000D01*
X123520200Y-107300000D02*
X124595200Y-107300000D01*
X124595200Y-107300000D02*
X125170000Y-106725200D01*
X125170000Y-106725200D02*
X125170000Y-104597200D01*
X123520200Y-107300000D02*
X123995200Y-107300000D01*
D23*
X143247000Y-117177000D02*
X143290000Y-117220000D01*
X142223600Y-117177000D02*
X143247000Y-117177000D01*
X144380912Y-114956150D02*
X145207550Y-114956150D01*
X145207550Y-114956150D02*
X145567400Y-115316000D01*
X122140000Y-114610000D02*
X124610000Y-112140000D01*
X124610000Y-108764800D02*
X124445200Y-108600000D01*
X124445200Y-108600000D02*
X123520200Y-108600000D01*
X124610000Y-112140000D02*
X124610000Y-108764800D01*
X141410827Y-107490841D02*
X141410827Y-107455501D01*
X142748000Y-105892000D02*
X142748000Y-105867200D01*
X141410827Y-107455501D02*
X142107067Y-106759261D01*
X142107067Y-106759261D02*
X142107067Y-106532933D01*
X142107067Y-106532933D02*
X142748000Y-105892000D01*
X148350000Y-109755000D02*
X147531636Y-109755000D01*
X147531636Y-109755000D02*
X144515474Y-106738838D01*
X144126499Y-102966499D02*
X145687089Y-104527089D01*
X144096499Y-102966499D02*
X144126499Y-102966499D01*
X143870000Y-102740000D02*
X144096499Y-102966499D01*
X145687089Y-104527089D02*
X145687089Y-107132622D01*
X144307370Y-109625456D02*
X143564544Y-109625456D01*
X144739500Y-109193326D02*
X144307370Y-109625456D01*
X141266443Y-113321509D02*
X141337140Y-113321510D01*
X144869681Y-113360000D02*
X145190000Y-113360000D01*
X140350167Y-112405233D02*
X141266443Y-113321509D01*
X141513876Y-113321510D02*
X141583208Y-113390842D01*
X144838839Y-113390842D02*
X144869681Y-113360000D01*
X141583208Y-113390842D02*
X144838839Y-113390842D01*
X141337140Y-113321510D02*
X141513876Y-113321510D01*
X144226500Y-106213802D02*
X143912555Y-106527747D01*
X143928500Y-105248500D02*
X144226500Y-105546500D01*
X144226500Y-105546500D02*
X144226500Y-106213802D01*
X140350167Y-106430181D02*
X141132503Y-105647845D01*
X141132503Y-105647845D02*
X141310123Y-105647845D01*
X141310123Y-105647845D02*
X141709468Y-105248500D01*
X141709468Y-105248500D02*
X143928500Y-105248500D01*
X143912555Y-106527747D02*
X143912555Y-106913750D01*
X143912555Y-106913750D02*
X146566499Y-109567694D01*
X146566499Y-109567694D02*
X146566499Y-111123501D01*
X146566499Y-111123501D02*
X146340000Y-111350000D01*
X139155229Y-118250000D02*
X139825238Y-117579991D01*
X136849988Y-114173000D02*
X136849988Y-117206209D01*
X136849988Y-117206209D02*
X137893779Y-118250000D01*
X137893779Y-118250000D02*
X139155229Y-118250000D01*
X138582400Y-114173000D02*
X138582400Y-117552391D01*
X138582400Y-117552391D02*
X138730000Y-117699991D01*
X146260000Y-115570000D02*
X146260000Y-115620000D01*
X146260000Y-115620000D02*
X145570000Y-116310000D01*
X145570000Y-116310000D02*
X145570000Y-116910000D01*
X145570000Y-116910000D02*
X145580000Y-116920000D01*
X144538745Y-104188039D02*
X145125067Y-104774361D01*
X145125067Y-104774361D02*
X145125067Y-106513204D01*
X144380002Y-108570000D02*
X144932395Y-108570000D01*
X145913428Y-109551033D02*
X145913428Y-110130557D01*
X145750000Y-110293985D02*
X145750000Y-111890000D01*
X144932395Y-108570000D02*
X145913428Y-109551033D01*
X145913428Y-110130557D02*
X145750000Y-110293985D01*
X141435301Y-106087495D02*
X141652643Y-106087495D01*
X141428490Y-106094306D02*
X141435301Y-106087495D01*
X140703720Y-106783734D02*
X141393148Y-106094306D01*
X141393148Y-106094306D02*
X141428490Y-106094306D01*
X141652643Y-106087495D02*
X141878669Y-105861469D01*
X140891884Y-104474250D02*
X141401731Y-104474250D01*
X139643060Y-105723074D02*
X140891884Y-104474250D01*
X141014028Y-105059212D02*
X141086874Y-105059212D01*
X139996613Y-106076627D02*
X141014028Y-105059212D01*
X131371802Y-98975001D02*
X128524999Y-98975001D01*
X132156200Y-100761800D02*
X132156200Y-99759399D01*
X135102600Y-101498400D02*
X132892800Y-101498400D01*
X128524999Y-98975001D02*
X128300000Y-99200000D01*
X132156200Y-99759399D02*
X131371802Y-98975001D01*
X135800195Y-102195995D02*
X135102600Y-101498400D01*
X132892800Y-101498400D02*
X132156200Y-100761800D01*
X135800195Y-104319727D02*
X135800195Y-102195995D01*
X136496435Y-105015967D02*
X135800195Y-104319727D01*
X143120000Y-108700000D02*
X142619986Y-108700000D01*
X142619986Y-108700000D02*
X142471487Y-108551501D01*
X132868196Y-106424991D02*
X132673969Y-106424991D01*
X133145606Y-106702401D02*
X132868196Y-106424991D01*
X134021561Y-107490841D02*
X133233121Y-106702401D01*
X133233121Y-106702401D02*
X133145606Y-106702401D01*
X135082221Y-106430181D02*
X135082221Y-106394839D01*
X135082221Y-106394839D02*
X134385982Y-105698600D01*
X134385982Y-105698600D02*
X134385982Y-105663242D01*
X134385982Y-105663242D02*
X134086600Y-105363860D01*
X134086600Y-105363860D02*
X134086600Y-103054981D01*
X134728668Y-106783734D02*
X133935972Y-105991038D01*
X133935972Y-105991038D02*
X133935972Y-105849642D01*
X133935972Y-105849642D02*
X133679442Y-105593112D01*
X133679442Y-105593112D02*
X132663832Y-105593112D01*
X132663832Y-105593112D02*
X132043964Y-106212980D01*
X132043964Y-106212980D02*
X132043964Y-107022340D01*
X134728668Y-106783734D02*
X134794934Y-106850000D01*
X134794934Y-106850000D02*
X134830274Y-106850000D01*
X133668008Y-107844394D02*
X133632666Y-107844394D01*
X133632666Y-107844394D02*
X132813272Y-107025000D01*
X132813272Y-107025000D02*
X132364822Y-107025000D01*
X132364822Y-107025000D02*
X132362162Y-107022340D01*
X132362162Y-107022340D02*
X132043964Y-107022340D01*
X135435775Y-106076627D02*
X134747000Y-105387852D01*
X134747000Y-105387852D02*
X134747000Y-105352512D01*
X134747000Y-105068332D02*
X134747000Y-102607209D01*
X134747000Y-105352512D02*
X134739535Y-105345047D01*
X134739535Y-105345047D02*
X134739535Y-105075797D01*
X134739535Y-105075797D02*
X134747000Y-105068332D01*
X135446642Y-114655770D02*
X134611209Y-115491203D01*
X135446642Y-114162132D02*
X135446642Y-114655770D01*
X136142881Y-113465893D02*
X135446642Y-114162132D01*
X147659432Y-104675000D02*
X146499053Y-103514621D01*
X148350000Y-104675000D02*
X147659432Y-104675000D01*
X137414000Y-102971600D02*
X138996310Y-101389290D01*
X138996310Y-101389290D02*
X147429290Y-101389290D01*
X147429290Y-101389290D02*
X148400000Y-102360000D01*
X148350000Y-102135000D02*
X147823391Y-101608391D01*
X133375400Y-100177600D02*
X134550400Y-99002600D01*
X137090400Y-100741601D02*
X136720000Y-101112001D01*
X136720000Y-104530000D02*
X136849988Y-104659988D01*
X134550400Y-99002600D02*
X136479401Y-99002600D01*
X136479401Y-99002600D02*
X137090400Y-99613599D01*
X137090400Y-99613599D02*
X137090400Y-100741601D01*
X136720000Y-101112001D02*
X136720000Y-104530000D01*
X136849988Y-104659988D02*
X136849988Y-104662414D01*
X139289507Y-105369521D02*
X140840000Y-103819028D01*
X140840000Y-103819028D02*
X140840000Y-103014801D01*
X140840000Y-103014801D02*
X140526708Y-102701509D01*
X140526708Y-102701509D02*
X140206389Y-102701509D01*
X140032855Y-114564996D02*
X139807856Y-114789995D01*
X140032855Y-114209241D02*
X140032855Y-114564996D01*
X139289507Y-113465893D02*
X140032855Y-114209241D01*
X142153274Y-108197948D02*
X142849514Y-107501708D01*
X142849514Y-107501708D02*
X143571708Y-107501708D01*
X143571708Y-107501708D02*
X143810000Y-107740000D01*
X142117934Y-108197948D02*
X142153274Y-108197948D01*
X143675000Y-105933782D02*
X143675000Y-105800000D01*
X142594249Y-107014533D02*
X143675000Y-105933782D01*
X142594241Y-107014533D02*
X142594249Y-107014533D01*
X141764380Y-107844394D02*
X142594241Y-107014533D01*
X133342114Y-114110000D02*
X131590000Y-114110000D01*
X135046881Y-112405233D02*
X133342114Y-114110000D01*
X135082221Y-112405233D02*
X135046881Y-112405233D01*
X131590000Y-114110000D02*
X129105199Y-114110000D01*
X129105199Y-114110000D02*
X126110000Y-111114801D01*
X126110000Y-111114801D02*
X126110000Y-105387811D01*
D24*
X143535400Y-100177600D02*
X148042400Y-100177600D01*
X148042400Y-100177600D02*
X148400000Y-99820000D01*
D23*
X124140000Y-117470600D02*
X124140000Y-117580000D01*
X124542000Y-117068600D02*
X124140000Y-117470600D01*
X125392000Y-117068600D02*
X124542000Y-117068600D01*
X138935953Y-105015967D02*
X138935953Y-104980627D01*
X138935953Y-104980627D02*
X140260000Y-103656580D01*
X140260000Y-103656580D02*
X140260000Y-103370227D01*
X140260000Y-103370227D02*
X140248975Y-103359202D01*
X137790000Y-117060000D02*
X138020000Y-117290000D01*
X137790000Y-115593499D02*
X137790000Y-117060000D01*
X142223600Y-114977000D02*
X142177000Y-114977000D01*
X142177000Y-114977000D02*
X142160000Y-114960000D01*
X142160000Y-114960000D02*
X142080002Y-114960000D01*
X142080002Y-114960000D02*
X141210000Y-115830002D01*
D25*
X137716194Y-107225676D02*
X135524163Y-109417707D01*
X139908225Y-109417707D02*
X137716194Y-107225676D01*
X137716194Y-111609738D02*
X139908225Y-109417707D01*
X135524163Y-109417707D02*
X137716194Y-111609738D01*
D23*
X142818967Y-111338499D02*
X143926511Y-111338499D01*
X142117934Y-110637466D02*
X142818967Y-111338499D01*
X143926511Y-111338499D02*
X143988012Y-111400000D01*
X132582874Y-107501708D02*
X132313624Y-107501708D01*
X133279114Y-108197948D02*
X132582874Y-107501708D01*
X133314454Y-108197948D02*
X133279114Y-108197948D01*
X132313624Y-107501708D02*
X132043132Y-107772200D01*
X132043132Y-107772200D02*
X131826000Y-107772200D01*
X137716194Y-111609738D02*
X136584824Y-111609738D01*
X136584824Y-111609738D02*
X135435775Y-112758787D01*
X139908225Y-109417707D02*
X140898175Y-109417707D01*
X140898175Y-109417707D02*
X142117934Y-110637466D01*
X138935953Y-105015967D02*
X137716194Y-106235726D01*
X137716194Y-106235726D02*
X137716194Y-107225676D01*
X133314454Y-108197948D02*
X134534213Y-109417707D01*
X134534213Y-109417707D02*
X135524163Y-109417707D01*
X134592525Y-113495999D02*
X133451600Y-114636924D01*
X134698563Y-113495999D02*
X134592525Y-113495999D01*
X133451600Y-114636924D02*
X133451600Y-115685389D01*
X135435775Y-112758787D02*
X134698563Y-113495999D01*
X120820200Y-107600000D02*
X121839634Y-107600000D01*
X121839634Y-107600000D02*
X122264001Y-107175633D01*
X123520200Y-106100000D02*
X122520200Y-105100000D01*
X122520200Y-105100000D02*
X120820200Y-105100000D01*
X120820200Y-105700000D02*
X120820200Y-105100000D01*
X120820200Y-107600000D02*
X120820200Y-105700000D01*
X120820200Y-109600000D02*
X120820200Y-107600000D01*
X120820200Y-111500000D02*
X120820200Y-109600000D01*
X120820200Y-111500000D02*
X123120200Y-111500000D01*
X123120200Y-111500000D02*
X123520200Y-111100000D01*
X120820200Y-112100000D02*
X120820200Y-111500000D01*
X123520200Y-111100000D02*
X123520200Y-109900000D01*
X133451600Y-113157000D02*
X133623348Y-113157000D01*
X133451600Y-113157000D02*
X133629400Y-113157000D01*
X128498600Y-111912400D02*
X129743200Y-113157000D01*
X129743200Y-113157000D02*
X133451600Y-113157000D01*
X133629400Y-113157000D02*
X133928148Y-112858252D01*
X133928148Y-112858252D02*
X133928148Y-112852200D01*
X133928148Y-112852200D02*
X134137400Y-112642948D01*
X134728668Y-112051680D02*
X133623348Y-113157000D01*
X134728668Y-112051680D02*
X134137400Y-112642948D01*
X133623348Y-113157000D02*
X134137400Y-112642948D01*
X134728668Y-112051680D02*
X134693326Y-112051680D01*
X134375114Y-111698126D02*
X133678874Y-112394366D01*
X129760000Y-110616222D02*
X129760000Y-109424989D01*
X133678874Y-112394366D02*
X131538144Y-112394366D01*
X131538144Y-112394366D02*
X129760000Y-110616222D01*
X134375114Y-111698126D02*
X134339774Y-111698126D01*
X134375114Y-111698126D02*
X134358632Y-111698126D01*
X127247519Y-102812552D02*
X126267591Y-103792480D01*
X130985009Y-102812552D02*
X127247519Y-102812552D01*
X122267466Y-107950000D02*
X122238065Y-107979401D01*
X123520200Y-107950000D02*
X122267466Y-107950000D01*
X123520200Y-109250000D02*
X122750000Y-109250000D01*
X122750000Y-109250000D02*
X122200000Y-108700000D01*
X134375114Y-107137288D02*
X133409607Y-106171781D01*
X133409607Y-106171781D02*
X133409607Y-106152400D01*
X133451600Y-102844600D02*
X133451600Y-102873400D01*
X133451600Y-102873400D02*
X132062414Y-104262586D01*
X132062414Y-104262586D02*
X132062414Y-105407999D01*
X128879600Y-117424200D02*
X127947600Y-117424200D01*
X127947600Y-117424200D02*
X127592000Y-117068600D01*
X135322401Y-104549041D02*
X135322401Y-102354611D01*
X136142881Y-105369521D02*
X135322401Y-104549041D01*
X132715000Y-102057200D02*
X130835400Y-100177600D01*
X135322401Y-102354611D02*
X135024990Y-102057200D01*
X135024990Y-102057200D02*
X132715000Y-102057200D01*
X140703720Y-112051680D02*
X141523540Y-112871500D01*
X144990000Y-112520000D02*
X148400000Y-112520000D01*
X141523540Y-112871500D02*
X141700274Y-112871500D01*
X141700274Y-112871500D02*
X141769608Y-112940832D01*
X141769608Y-112940832D02*
X144569168Y-112940832D01*
X144569168Y-112940832D02*
X144990000Y-112520000D01*
X148146500Y-112498500D02*
X148350000Y-112295000D01*
X144564631Y-113840852D02*
X144685279Y-113961500D01*
X141078678Y-113840852D02*
X144564631Y-113840852D01*
X146461500Y-113961500D02*
X147335000Y-114835000D01*
X144685279Y-113961500D02*
X146461500Y-113961500D01*
X147335000Y-114835000D02*
X148350000Y-114835000D01*
X139996613Y-112758787D02*
X141078678Y-113840852D01*
X139643060Y-113112340D02*
X140635279Y-114104559D01*
X140635279Y-114104559D02*
X140635279Y-117373680D01*
X140635279Y-117373680D02*
X141261599Y-118000000D01*
X141298600Y-118037001D02*
X141371599Y-118110000D01*
X141261599Y-118000000D02*
X141298600Y-118000000D01*
X141298600Y-118000000D02*
X141298600Y-118037001D01*
X141371599Y-118110000D02*
X147960000Y-118110000D01*
X147960000Y-118110000D02*
X147960000Y-118040000D01*
X147960000Y-118040000D02*
X148400000Y-117600000D01*
X147500000Y-117375000D02*
X148350000Y-117375000D01*
X142598058Y-112490822D02*
X142738872Y-112350008D01*
X142738872Y-112350008D02*
X143020099Y-112350008D01*
X141956007Y-112490823D02*
X142598058Y-112490822D01*
X141886674Y-112421490D02*
X141956007Y-112490823D01*
X141057274Y-111698126D02*
X141780638Y-112421490D01*
X141780638Y-112421490D02*
X141886674Y-112421490D01*
X142142407Y-112040813D02*
X142411657Y-112040813D01*
X142653971Y-111798499D02*
X143408499Y-111798499D01*
X141410827Y-111344573D02*
X141446167Y-111344573D01*
X142411657Y-112040813D02*
X142653971Y-111798499D01*
X141446167Y-111344573D02*
X142142407Y-112040813D01*
X143408499Y-111798499D02*
X143500000Y-111890000D01*
X133314454Y-110637466D02*
X132501920Y-111450000D01*
X132501920Y-111450000D02*
X132390000Y-111450000D01*
D26*
G36*
X125407852Y-111405640D02*
X125572599Y-111652202D01*
X128567798Y-114647401D01*
X128814360Y-114812148D01*
X129105199Y-114870000D01*
X131173807Y-114870000D01*
X131417885Y-114971350D01*
X131760611Y-114971649D01*
X132006621Y-114870000D01*
X132691600Y-114870000D01*
X132691600Y-115273108D01*
X132591750Y-115513574D01*
X132591451Y-115855703D01*
X132722103Y-116171903D01*
X132963813Y-116414036D01*
X133279785Y-116545239D01*
X133621914Y-116545538D01*
X133938114Y-116414886D01*
X134130533Y-116222803D01*
X134439394Y-116351053D01*
X134781523Y-116351352D01*
X135097723Y-116220700D01*
X135339856Y-115978990D01*
X135440428Y-115736786D01*
X135850574Y-115326640D01*
X135879527Y-115355593D01*
X136077230Y-115490678D01*
X136089988Y-115493446D01*
X136089988Y-117206209D01*
X136147840Y-117497048D01*
X136312587Y-117743610D01*
X137356378Y-118787401D01*
X137602939Y-118952148D01*
X137707768Y-118973000D01*
X119410000Y-118973000D01*
X119410000Y-117750611D01*
X123278351Y-117750611D01*
X123409230Y-118067363D01*
X123651362Y-118309918D01*
X123967885Y-118441350D01*
X124310611Y-118441649D01*
X124627363Y-118310770D01*
X124650740Y-118287434D01*
X124792000Y-118316040D01*
X125992000Y-118316040D01*
X126227317Y-118271762D01*
X126443441Y-118132690D01*
X126491134Y-118062889D01*
X126527910Y-118120041D01*
X126740110Y-118265031D01*
X126992000Y-118316040D01*
X128192000Y-118316040D01*
X128427317Y-118271762D01*
X128524177Y-118209434D01*
X128707485Y-118285550D01*
X129050211Y-118285849D01*
X129366963Y-118154970D01*
X129609518Y-117912838D01*
X129740950Y-117596315D01*
X129741249Y-117253589D01*
X129610370Y-116936837D01*
X129368238Y-116694282D01*
X129051715Y-116562850D01*
X128839440Y-116562665D01*
X128839440Y-116468600D01*
X128795162Y-116233283D01*
X128656090Y-116017159D01*
X128443890Y-115872169D01*
X128192000Y-115821160D01*
X126992000Y-115821160D01*
X126756683Y-115865438D01*
X126540559Y-116004510D01*
X126492866Y-116074311D01*
X126456090Y-116017159D01*
X126243890Y-115872169D01*
X125992000Y-115821160D01*
X124792000Y-115821160D01*
X124556683Y-115865438D01*
X124340559Y-116004510D01*
X124195569Y-116216710D01*
X124151801Y-116432842D01*
X124004599Y-116531199D01*
X123710460Y-116825338D01*
X123652637Y-116849230D01*
X123410082Y-117091362D01*
X123278650Y-117407885D01*
X123278351Y-117750611D01*
X119410000Y-117750611D01*
X119410000Y-112739999D01*
X119565871Y-112973277D01*
X119966534Y-113240991D01*
X120439148Y-113335000D01*
X121201252Y-113335000D01*
X121673866Y-113240991D01*
X122074529Y-112973277D01*
X122342243Y-112572614D01*
X122404426Y-112260000D01*
X122767408Y-112260000D01*
X123225134Y-112450064D01*
X121896892Y-113778306D01*
X121652637Y-113879230D01*
X121410082Y-114121362D01*
X121278650Y-114437885D01*
X121278351Y-114780611D01*
X121409230Y-115097363D01*
X121651362Y-115339918D01*
X121967885Y-115471350D01*
X122310611Y-115471649D01*
X122627363Y-115340770D01*
X122869918Y-115098638D01*
X122971997Y-114852805D01*
X125147401Y-112677402D01*
X125285391Y-112470884D01*
X125312148Y-112430839D01*
X125370000Y-112140000D01*
X125370000Y-111215347D01*
X125407852Y-111405640D01*
X125407852Y-111405640D01*
G37*
X125407852Y-111405640D02*
X125572599Y-111652202D01*
X128567798Y-114647401D01*
X128814360Y-114812148D01*
X129105199Y-114870000D01*
X131173807Y-114870000D01*
X131417885Y-114971350D01*
X131760611Y-114971649D01*
X132006621Y-114870000D01*
X132691600Y-114870000D01*
X132691600Y-115273108D01*
X132591750Y-115513574D01*
X132591451Y-115855703D01*
X132722103Y-116171903D01*
X132963813Y-116414036D01*
X133279785Y-116545239D01*
X133621914Y-116545538D01*
X133938114Y-116414886D01*
X134130533Y-116222803D01*
X134439394Y-116351053D01*
X134781523Y-116351352D01*
X135097723Y-116220700D01*
X135339856Y-115978990D01*
X135440428Y-115736786D01*
X135850574Y-115326640D01*
X135879527Y-115355593D01*
X136077230Y-115490678D01*
X136089988Y-115493446D01*
X136089988Y-117206209D01*
X136147840Y-117497048D01*
X136312587Y-117743610D01*
X137356378Y-118787401D01*
X137602939Y-118952148D01*
X137707768Y-118973000D01*
X119410000Y-118973000D01*
X119410000Y-117750611D01*
X123278351Y-117750611D01*
X123409230Y-118067363D01*
X123651362Y-118309918D01*
X123967885Y-118441350D01*
X124310611Y-118441649D01*
X124627363Y-118310770D01*
X124650740Y-118287434D01*
X124792000Y-118316040D01*
X125992000Y-118316040D01*
X126227317Y-118271762D01*
X126443441Y-118132690D01*
X126491134Y-118062889D01*
X126527910Y-118120041D01*
X126740110Y-118265031D01*
X126992000Y-118316040D01*
X128192000Y-118316040D01*
X128427317Y-118271762D01*
X128524177Y-118209434D01*
X128707485Y-118285550D01*
X129050211Y-118285849D01*
X129366963Y-118154970D01*
X129609518Y-117912838D01*
X129740950Y-117596315D01*
X129741249Y-117253589D01*
X129610370Y-116936837D01*
X129368238Y-116694282D01*
X129051715Y-116562850D01*
X128839440Y-116562665D01*
X128839440Y-116468600D01*
X128795162Y-116233283D01*
X128656090Y-116017159D01*
X128443890Y-115872169D01*
X128192000Y-115821160D01*
X126992000Y-115821160D01*
X126756683Y-115865438D01*
X126540559Y-116004510D01*
X126492866Y-116074311D01*
X126456090Y-116017159D01*
X126243890Y-115872169D01*
X125992000Y-115821160D01*
X124792000Y-115821160D01*
X124556683Y-115865438D01*
X124340559Y-116004510D01*
X124195569Y-116216710D01*
X124151801Y-116432842D01*
X124004599Y-116531199D01*
X123710460Y-116825338D01*
X123652637Y-116849230D01*
X123410082Y-117091362D01*
X123278650Y-117407885D01*
X123278351Y-117750611D01*
X119410000Y-117750611D01*
X119410000Y-112739999D01*
X119565871Y-112973277D01*
X119966534Y-113240991D01*
X120439148Y-113335000D01*
X121201252Y-113335000D01*
X121673866Y-113240991D01*
X122074529Y-112973277D01*
X122342243Y-112572614D01*
X122404426Y-112260000D01*
X122767408Y-112260000D01*
X123225134Y-112450064D01*
X121896892Y-113778306D01*
X121652637Y-113879230D01*
X121410082Y-114121362D01*
X121278650Y-114437885D01*
X121278351Y-114780611D01*
X121409230Y-115097363D01*
X121651362Y-115339918D01*
X121967885Y-115471350D01*
X122310611Y-115471649D01*
X122627363Y-115340770D01*
X122869918Y-115098638D01*
X122971997Y-114852805D01*
X125147401Y-112677402D01*
X125285391Y-112470884D01*
X125312148Y-112430839D01*
X125370000Y-112140000D01*
X125370000Y-111215347D01*
X125407852Y-111405640D01*
G36*
X144507912Y-117029150D02*
X144527912Y-117029150D01*
X144527912Y-117283150D01*
X144507912Y-117283150D01*
X144507912Y-117303150D01*
X144253912Y-117303150D01*
X144253912Y-117283150D01*
X144233912Y-117283150D01*
X144233912Y-117029150D01*
X144253912Y-117029150D01*
X144253912Y-117009150D01*
X144507912Y-117009150D01*
X144507912Y-117029150D01*
X144507912Y-117029150D01*
G37*
X144507912Y-117029150D02*
X144527912Y-117029150D01*
X144527912Y-117283150D01*
X144507912Y-117283150D01*
X144507912Y-117303150D01*
X144253912Y-117303150D01*
X144253912Y-117283150D01*
X144233912Y-117283150D01*
X144233912Y-117029150D01*
X144253912Y-117029150D01*
X144253912Y-117009150D01*
X144507912Y-117009150D01*
X144507912Y-117029150D01*
G36*
X145047852Y-110003146D02*
X144990000Y-110293985D01*
X144990000Y-111473807D01*
X144888650Y-111717885D01*
X144888596Y-111780171D01*
X144751659Y-111807409D01*
X144849362Y-111572115D01*
X144849661Y-111229389D01*
X144718782Y-110912637D01*
X144476650Y-110670082D01*
X144160127Y-110538650D01*
X143817401Y-110538351D01*
X143793108Y-110548389D01*
X143748742Y-110481491D01*
X143981165Y-110385456D01*
X144307370Y-110385456D01*
X144598209Y-110327604D01*
X144844771Y-110162857D01*
X144982608Y-110025020D01*
X145052545Y-109996123D01*
X145047852Y-110003146D01*
X145047852Y-110003146D01*
G37*
X145047852Y-110003146D02*
X144990000Y-110293985D01*
X144990000Y-111473807D01*
X144888650Y-111717885D01*
X144888596Y-111780171D01*
X144751659Y-111807409D01*
X144849362Y-111572115D01*
X144849661Y-111229389D01*
X144718782Y-110912637D01*
X144476650Y-110670082D01*
X144160127Y-110538650D01*
X143817401Y-110538351D01*
X143793108Y-110548389D01*
X143748742Y-110481491D01*
X143981165Y-110385456D01*
X144307370Y-110385456D01*
X144598209Y-110327604D01*
X144844771Y-110162857D01*
X144982608Y-110025020D01*
X145052545Y-109996123D01*
X145047852Y-110003146D01*
G36*
X128136126Y-98338357D02*
X128129389Y-98338351D01*
X127812637Y-98469230D01*
X127570082Y-98711362D01*
X127438650Y-99027885D01*
X127438351Y-99370611D01*
X127569230Y-99687363D01*
X127811362Y-99929918D01*
X128127885Y-100061350D01*
X128470611Y-100061649D01*
X128787363Y-99930770D01*
X128983474Y-99735001D01*
X129432652Y-99735001D01*
X129350400Y-100148507D01*
X129350400Y-100206693D01*
X129463439Y-100774978D01*
X129785346Y-101256747D01*
X130267115Y-101578654D01*
X130835400Y-101691693D01*
X131201808Y-101618810D01*
X132177599Y-102594601D01*
X132424161Y-102759348D01*
X132479785Y-102770413D01*
X131525013Y-103725185D01*
X131360266Y-103971747D01*
X131302414Y-104262586D01*
X131302414Y-104991806D01*
X131201064Y-105235884D01*
X131200765Y-105578610D01*
X131331644Y-105895362D01*
X131348456Y-105912203D01*
X131341816Y-105922141D01*
X131283964Y-106212980D01*
X131283964Y-106610059D01*
X131184114Y-106850525D01*
X131183815Y-107192654D01*
X131184789Y-107195010D01*
X131096082Y-107283562D01*
X130964650Y-107600085D01*
X130964351Y-107942811D01*
X131095230Y-108259563D01*
X131337362Y-108502118D01*
X131653885Y-108633550D01*
X131915428Y-108633778D01*
X132307224Y-109025574D01*
X132660777Y-108672021D01*
X132840382Y-108851626D01*
X132514666Y-109177342D01*
X132275963Y-109224823D01*
X132022004Y-109394513D01*
X131852314Y-109648472D01*
X131792727Y-109948037D01*
X131852314Y-110247602D01*
X131859183Y-110257882D01*
X131778308Y-110338756D01*
X131643223Y-110536459D01*
X131588739Y-110787621D01*
X131633483Y-111025419D01*
X131528650Y-111277885D01*
X131528622Y-111310042D01*
X130520000Y-110301420D01*
X130520000Y-109837270D01*
X130619850Y-109596804D01*
X130620149Y-109254675D01*
X130489497Y-108938475D01*
X130247787Y-108696342D01*
X129931815Y-108565139D01*
X129589686Y-108564840D01*
X129273486Y-108695492D01*
X129031353Y-108937202D01*
X128900150Y-109253174D01*
X128899851Y-109595303D01*
X129000000Y-109837681D01*
X129000000Y-110616222D01*
X129001024Y-110621369D01*
X128775302Y-110527641D01*
X128224315Y-110527160D01*
X127715085Y-110737569D01*
X127325139Y-111126836D01*
X127287495Y-111217494D01*
X126870000Y-110799999D01*
X126870000Y-107306685D01*
X127113360Y-107306685D01*
X127323769Y-107815915D01*
X127713036Y-108205861D01*
X128221898Y-108417159D01*
X128772885Y-108417640D01*
X129282115Y-108207231D01*
X129672061Y-107817964D01*
X129883359Y-107309102D01*
X129883840Y-106758115D01*
X129673431Y-106248885D01*
X129284164Y-105858939D01*
X128775302Y-105647641D01*
X128224315Y-105647160D01*
X127715085Y-105857569D01*
X127325139Y-106246836D01*
X127113841Y-106755698D01*
X127113360Y-107306685D01*
X126870000Y-107306685D01*
X126870000Y-105800092D01*
X126969850Y-105559626D01*
X126969984Y-105406800D01*
X128339227Y-105406800D01*
X128402685Y-105433150D01*
X128745411Y-105433449D01*
X129062163Y-105302570D01*
X129304718Y-105060438D01*
X129436150Y-104743915D01*
X129436449Y-104401189D01*
X129305570Y-104084437D01*
X129063438Y-103841882D01*
X128746915Y-103710450D01*
X128404189Y-103710151D01*
X128339693Y-103736800D01*
X127398073Y-103736800D01*
X127562321Y-103572552D01*
X130572728Y-103572552D01*
X130813194Y-103672402D01*
X131155323Y-103672701D01*
X131471523Y-103542049D01*
X131713656Y-103300339D01*
X131844859Y-102984367D01*
X131845158Y-102642238D01*
X131714506Y-102326038D01*
X131472796Y-102083905D01*
X131156824Y-101952702D01*
X130814695Y-101952403D01*
X130572317Y-102052552D01*
X127247519Y-102052552D01*
X127004933Y-102100806D01*
X126956679Y-102110404D01*
X126710118Y-102275151D01*
X126031593Y-102953676D01*
X126031649Y-102889389D01*
X125900770Y-102572637D01*
X125658638Y-102330082D01*
X125342115Y-102198650D01*
X124999389Y-102198351D01*
X124682637Y-102329230D01*
X124440082Y-102571362D01*
X124308650Y-102887885D01*
X124308351Y-103230611D01*
X124335000Y-103295107D01*
X124335000Y-104991212D01*
X124291584Y-104947720D01*
X123791908Y-104740237D01*
X123250866Y-104739764D01*
X123239473Y-104744471D01*
X123057601Y-104562599D01*
X122811039Y-104397852D01*
X122520200Y-104340000D01*
X122150218Y-104340000D01*
X122074529Y-104226723D01*
X121673866Y-103959009D01*
X121201252Y-103865000D01*
X120439148Y-103865000D01*
X119966534Y-103959009D01*
X119565871Y-104226723D01*
X119410000Y-104460001D01*
X119410000Y-98327000D01*
X128153123Y-98327000D01*
X128136126Y-98338357D01*
X128136126Y-98338357D01*
G37*
X128136126Y-98338357D02*
X128129389Y-98338351D01*
X127812637Y-98469230D01*
X127570082Y-98711362D01*
X127438650Y-99027885D01*
X127438351Y-99370611D01*
X127569230Y-99687363D01*
X127811362Y-99929918D01*
X128127885Y-100061350D01*
X128470611Y-100061649D01*
X128787363Y-99930770D01*
X128983474Y-99735001D01*
X129432652Y-99735001D01*
X129350400Y-100148507D01*
X129350400Y-100206693D01*
X129463439Y-100774978D01*
X129785346Y-101256747D01*
X130267115Y-101578654D01*
X130835400Y-101691693D01*
X131201808Y-101618810D01*
X132177599Y-102594601D01*
X132424161Y-102759348D01*
X132479785Y-102770413D01*
X131525013Y-103725185D01*
X131360266Y-103971747D01*
X131302414Y-104262586D01*
X131302414Y-104991806D01*
X131201064Y-105235884D01*
X131200765Y-105578610D01*
X131331644Y-105895362D01*
X131348456Y-105912203D01*
X131341816Y-105922141D01*
X131283964Y-106212980D01*
X131283964Y-106610059D01*
X131184114Y-106850525D01*
X131183815Y-107192654D01*
X131184789Y-107195010D01*
X131096082Y-107283562D01*
X130964650Y-107600085D01*
X130964351Y-107942811D01*
X131095230Y-108259563D01*
X131337362Y-108502118D01*
X131653885Y-108633550D01*
X131915428Y-108633778D01*
X132307224Y-109025574D01*
X132660777Y-108672021D01*
X132840382Y-108851626D01*
X132514666Y-109177342D01*
X132275963Y-109224823D01*
X132022004Y-109394513D01*
X131852314Y-109648472D01*
X131792727Y-109948037D01*
X131852314Y-110247602D01*
X131859183Y-110257882D01*
X131778308Y-110338756D01*
X131643223Y-110536459D01*
X131588739Y-110787621D01*
X131633483Y-111025419D01*
X131528650Y-111277885D01*
X131528622Y-111310042D01*
X130520000Y-110301420D01*
X130520000Y-109837270D01*
X130619850Y-109596804D01*
X130620149Y-109254675D01*
X130489497Y-108938475D01*
X130247787Y-108696342D01*
X129931815Y-108565139D01*
X129589686Y-108564840D01*
X129273486Y-108695492D01*
X129031353Y-108937202D01*
X128900150Y-109253174D01*
X128899851Y-109595303D01*
X129000000Y-109837681D01*
X129000000Y-110616222D01*
X129001024Y-110621369D01*
X128775302Y-110527641D01*
X128224315Y-110527160D01*
X127715085Y-110737569D01*
X127325139Y-111126836D01*
X127287495Y-111217494D01*
X126870000Y-110799999D01*
X126870000Y-107306685D01*
X127113360Y-107306685D01*
X127323769Y-107815915D01*
X127713036Y-108205861D01*
X128221898Y-108417159D01*
X128772885Y-108417640D01*
X129282115Y-108207231D01*
X129672061Y-107817964D01*
X129883359Y-107309102D01*
X129883840Y-106758115D01*
X129673431Y-106248885D01*
X129284164Y-105858939D01*
X128775302Y-105647641D01*
X128224315Y-105647160D01*
X127715085Y-105857569D01*
X127325139Y-106246836D01*
X127113841Y-106755698D01*
X127113360Y-107306685D01*
X126870000Y-107306685D01*
X126870000Y-105800092D01*
X126969850Y-105559626D01*
X126969984Y-105406800D01*
X128339227Y-105406800D01*
X128402685Y-105433150D01*
X128745411Y-105433449D01*
X129062163Y-105302570D01*
X129304718Y-105060438D01*
X129436150Y-104743915D01*
X129436449Y-104401189D01*
X129305570Y-104084437D01*
X129063438Y-103841882D01*
X128746915Y-103710450D01*
X128404189Y-103710151D01*
X128339693Y-103736800D01*
X127398073Y-103736800D01*
X127562321Y-103572552D01*
X130572728Y-103572552D01*
X130813194Y-103672402D01*
X131155323Y-103672701D01*
X131471523Y-103542049D01*
X131713656Y-103300339D01*
X131844859Y-102984367D01*
X131845158Y-102642238D01*
X131714506Y-102326038D01*
X131472796Y-102083905D01*
X131156824Y-101952702D01*
X130814695Y-101952403D01*
X130572317Y-102052552D01*
X127247519Y-102052552D01*
X127004933Y-102100806D01*
X126956679Y-102110404D01*
X126710118Y-102275151D01*
X126031593Y-102953676D01*
X126031649Y-102889389D01*
X125900770Y-102572637D01*
X125658638Y-102330082D01*
X125342115Y-102198650D01*
X124999389Y-102198351D01*
X124682637Y-102329230D01*
X124440082Y-102571362D01*
X124308650Y-102887885D01*
X124308351Y-103230611D01*
X124335000Y-103295107D01*
X124335000Y-104991212D01*
X124291584Y-104947720D01*
X123791908Y-104740237D01*
X123250866Y-104739764D01*
X123239473Y-104744471D01*
X123057601Y-104562599D01*
X122811039Y-104397852D01*
X122520200Y-104340000D01*
X122150218Y-104340000D01*
X122074529Y-104226723D01*
X121673866Y-103959009D01*
X121201252Y-103865000D01*
X120439148Y-103865000D01*
X119966534Y-103959009D01*
X119565871Y-104226723D01*
X119410000Y-104460001D01*
X119410000Y-98327000D01*
X128153123Y-98327000D01*
X128136126Y-98338357D01*
G36*
X148527000Y-107313000D02*
X148547000Y-107313000D01*
X148547000Y-107567000D01*
X148527000Y-107567000D01*
X148527000Y-107587000D01*
X148273000Y-107587000D01*
X148273000Y-107567000D01*
X148253000Y-107567000D01*
X148253000Y-107313000D01*
X148273000Y-107313000D01*
X148273000Y-107293000D01*
X148527000Y-107293000D01*
X148527000Y-107313000D01*
X148527000Y-107313000D01*
G37*
X148527000Y-107313000D02*
X148547000Y-107313000D01*
X148547000Y-107567000D01*
X148527000Y-107567000D01*
X148527000Y-107587000D01*
X148273000Y-107587000D01*
X148273000Y-107567000D01*
X148253000Y-107567000D01*
X148253000Y-107313000D01*
X148273000Y-107313000D01*
X148273000Y-107293000D01*
X148527000Y-107293000D01*
X148527000Y-107313000D01*
G36*
X139476471Y-102212871D02*
X139345039Y-102529394D01*
X139344740Y-102872120D01*
X139431361Y-103081759D01*
X139387625Y-103187087D01*
X139387468Y-103366813D01*
X139355158Y-103344736D01*
X139103996Y-103290252D01*
X138851425Y-103337776D01*
X138637243Y-103479821D01*
X138108328Y-104008737D01*
X138461881Y-104362290D01*
X138282276Y-104541895D01*
X137928723Y-104188342D01*
X137716194Y-104400870D01*
X137480000Y-104164676D01*
X137480000Y-103833158D01*
X137584611Y-103833249D01*
X137901363Y-103702370D01*
X138143918Y-103460238D01*
X138245997Y-103214405D01*
X139311112Y-102149290D01*
X139540163Y-102149290D01*
X139476471Y-102212871D01*
X139476471Y-102212871D01*
G37*
X139476471Y-102212871D02*
X139345039Y-102529394D01*
X139344740Y-102872120D01*
X139431361Y-103081759D01*
X139387625Y-103187087D01*
X139387468Y-103366813D01*
X139355158Y-103344736D01*
X139103996Y-103290252D01*
X138851425Y-103337776D01*
X138637243Y-103479821D01*
X138108328Y-104008737D01*
X138461881Y-104362290D01*
X138282276Y-104541895D01*
X137928723Y-104188342D01*
X137716194Y-104400870D01*
X137480000Y-104164676D01*
X137480000Y-103833158D01*
X137584611Y-103833249D01*
X137901363Y-103702370D01*
X138143918Y-103460238D01*
X138245997Y-103214405D01*
X139311112Y-102149290D01*
X139540163Y-102149290D01*
X139476471Y-102212871D01*
G36*
X143140082Y-102251362D02*
X143008650Y-102567885D01*
X143008351Y-102910611D01*
X143139230Y-103227363D01*
X143381362Y-103469918D01*
X143678498Y-103593300D01*
X143801718Y-103716520D01*
X143677395Y-104015924D01*
X143677096Y-104358650D01*
X143730749Y-104488500D01*
X142263219Y-104488500D01*
X142263380Y-104303639D01*
X142132501Y-103986887D01*
X141890369Y-103744332D01*
X141600000Y-103623760D01*
X141600000Y-103014801D01*
X141542148Y-102723962D01*
X141377401Y-102477400D01*
X141064109Y-102164108D01*
X141041932Y-102149290D01*
X143242332Y-102149290D01*
X143140082Y-102251362D01*
X143140082Y-102251362D01*
G37*
X143140082Y-102251362D02*
X143008650Y-102567885D01*
X143008351Y-102910611D01*
X143139230Y-103227363D01*
X143381362Y-103469918D01*
X143678498Y-103593300D01*
X143801718Y-103716520D01*
X143677395Y-104015924D01*
X143677096Y-104358650D01*
X143730749Y-104488500D01*
X142263219Y-104488500D01*
X142263380Y-104303639D01*
X142132501Y-103986887D01*
X141890369Y-103744332D01*
X141600000Y-103623760D01*
X141600000Y-103014801D01*
X141542148Y-102723962D01*
X141377401Y-102477400D01*
X141064109Y-102164108D01*
X141041932Y-102149290D01*
X143242332Y-102149290D01*
X143140082Y-102251362D01*
G36*
X146252560Y-102684326D02*
X146011690Y-102783851D01*
X145769135Y-103025983D01*
X145637703Y-103342506D01*
X145637650Y-103402848D01*
X144680570Y-102445768D01*
X144600770Y-102252637D01*
X144497603Y-102149290D01*
X146252560Y-102149290D01*
X146252560Y-102684326D01*
X146252560Y-102684326D01*
G37*
X146252560Y-102684326D02*
X146011690Y-102783851D01*
X145769135Y-103025983D01*
X145637703Y-103342506D01*
X145637650Y-103402848D01*
X144680570Y-102445768D01*
X144600770Y-102252637D01*
X144497603Y-102149290D01*
X146252560Y-102149290D01*
X146252560Y-102684326D01*
G36*
X136042400Y-100050600D02*
X136062400Y-100050600D01*
X136062400Y-100304600D01*
X136042400Y-100304600D01*
X136042400Y-100324600D01*
X135788400Y-100324600D01*
X135788400Y-100304600D01*
X135768400Y-100304600D01*
X135768400Y-100050600D01*
X135788400Y-100050600D01*
X135788400Y-100030600D01*
X136042400Y-100030600D01*
X136042400Y-100050600D01*
X136042400Y-100050600D01*
G37*
X136042400Y-100050600D02*
X136062400Y-100050600D01*
X136062400Y-100304600D01*
X136042400Y-100304600D01*
X136042400Y-100324600D01*
X135788400Y-100324600D01*
X135788400Y-100304600D01*
X135768400Y-100304600D01*
X135768400Y-100050600D01*
X135788400Y-100050600D01*
X135788400Y-100030600D01*
X136042400Y-100030600D01*
X136042400Y-100050600D01*
M02*
